G75*
%MOIN*%
%OFA0B0*%
%FSLAX25Y25*%
%IPPOS*%
%LPD*%
%AMOC8*
5,1,8,0,0,1.08239X$1,22.5*
%
%ADD10C,0.00000*%
%ADD11C,0.07000*%
%ADD12C,0.07400*%
%ADD13OC8,0.06600*%
%ADD14C,0.00600*%
%ADD15C,0.02400*%
%ADD16C,0.02578*%
%ADD17C,0.01000*%
%ADD18C,0.01600*%
D10*
X0005000Y0005000D02*
X0005000Y0215000D01*
X0259000Y0215000D01*
X0265000Y0209000D01*
X0265000Y0164000D01*
X0275000Y0154000D01*
X0275000Y0025000D01*
X0265000Y0015000D01*
X0265000Y0005000D01*
X0005000Y0005000D01*
X0054094Y0015000D02*
X0054096Y0015153D01*
X0054102Y0015307D01*
X0054112Y0015460D01*
X0054126Y0015612D01*
X0054144Y0015765D01*
X0054166Y0015916D01*
X0054191Y0016067D01*
X0054221Y0016218D01*
X0054255Y0016368D01*
X0054292Y0016516D01*
X0054333Y0016664D01*
X0054378Y0016810D01*
X0054427Y0016956D01*
X0054480Y0017100D01*
X0054536Y0017242D01*
X0054596Y0017383D01*
X0054660Y0017523D01*
X0054727Y0017661D01*
X0054798Y0017797D01*
X0054873Y0017931D01*
X0054950Y0018063D01*
X0055032Y0018193D01*
X0055116Y0018321D01*
X0055204Y0018447D01*
X0055295Y0018570D01*
X0055389Y0018691D01*
X0055487Y0018809D01*
X0055587Y0018925D01*
X0055691Y0019038D01*
X0055797Y0019149D01*
X0055906Y0019257D01*
X0056018Y0019362D01*
X0056132Y0019463D01*
X0056250Y0019562D01*
X0056369Y0019658D01*
X0056491Y0019751D01*
X0056616Y0019840D01*
X0056743Y0019927D01*
X0056872Y0020009D01*
X0057003Y0020089D01*
X0057136Y0020165D01*
X0057271Y0020238D01*
X0057408Y0020307D01*
X0057547Y0020372D01*
X0057687Y0020434D01*
X0057829Y0020492D01*
X0057972Y0020547D01*
X0058117Y0020598D01*
X0058263Y0020645D01*
X0058410Y0020688D01*
X0058558Y0020727D01*
X0058707Y0020763D01*
X0058857Y0020794D01*
X0059008Y0020822D01*
X0059159Y0020846D01*
X0059312Y0020866D01*
X0059464Y0020882D01*
X0059617Y0020894D01*
X0059770Y0020902D01*
X0059923Y0020906D01*
X0060077Y0020906D01*
X0060230Y0020902D01*
X0060383Y0020894D01*
X0060536Y0020882D01*
X0060688Y0020866D01*
X0060841Y0020846D01*
X0060992Y0020822D01*
X0061143Y0020794D01*
X0061293Y0020763D01*
X0061442Y0020727D01*
X0061590Y0020688D01*
X0061737Y0020645D01*
X0061883Y0020598D01*
X0062028Y0020547D01*
X0062171Y0020492D01*
X0062313Y0020434D01*
X0062453Y0020372D01*
X0062592Y0020307D01*
X0062729Y0020238D01*
X0062864Y0020165D01*
X0062997Y0020089D01*
X0063128Y0020009D01*
X0063257Y0019927D01*
X0063384Y0019840D01*
X0063509Y0019751D01*
X0063631Y0019658D01*
X0063750Y0019562D01*
X0063868Y0019463D01*
X0063982Y0019362D01*
X0064094Y0019257D01*
X0064203Y0019149D01*
X0064309Y0019038D01*
X0064413Y0018925D01*
X0064513Y0018809D01*
X0064611Y0018691D01*
X0064705Y0018570D01*
X0064796Y0018447D01*
X0064884Y0018321D01*
X0064968Y0018193D01*
X0065050Y0018063D01*
X0065127Y0017931D01*
X0065202Y0017797D01*
X0065273Y0017661D01*
X0065340Y0017523D01*
X0065404Y0017383D01*
X0065464Y0017242D01*
X0065520Y0017100D01*
X0065573Y0016956D01*
X0065622Y0016810D01*
X0065667Y0016664D01*
X0065708Y0016516D01*
X0065745Y0016368D01*
X0065779Y0016218D01*
X0065809Y0016067D01*
X0065834Y0015916D01*
X0065856Y0015765D01*
X0065874Y0015612D01*
X0065888Y0015460D01*
X0065898Y0015307D01*
X0065904Y0015153D01*
X0065906Y0015000D01*
X0065904Y0014847D01*
X0065898Y0014693D01*
X0065888Y0014540D01*
X0065874Y0014388D01*
X0065856Y0014235D01*
X0065834Y0014084D01*
X0065809Y0013933D01*
X0065779Y0013782D01*
X0065745Y0013632D01*
X0065708Y0013484D01*
X0065667Y0013336D01*
X0065622Y0013190D01*
X0065573Y0013044D01*
X0065520Y0012900D01*
X0065464Y0012758D01*
X0065404Y0012617D01*
X0065340Y0012477D01*
X0065273Y0012339D01*
X0065202Y0012203D01*
X0065127Y0012069D01*
X0065050Y0011937D01*
X0064968Y0011807D01*
X0064884Y0011679D01*
X0064796Y0011553D01*
X0064705Y0011430D01*
X0064611Y0011309D01*
X0064513Y0011191D01*
X0064413Y0011075D01*
X0064309Y0010962D01*
X0064203Y0010851D01*
X0064094Y0010743D01*
X0063982Y0010638D01*
X0063868Y0010537D01*
X0063750Y0010438D01*
X0063631Y0010342D01*
X0063509Y0010249D01*
X0063384Y0010160D01*
X0063257Y0010073D01*
X0063128Y0009991D01*
X0062997Y0009911D01*
X0062864Y0009835D01*
X0062729Y0009762D01*
X0062592Y0009693D01*
X0062453Y0009628D01*
X0062313Y0009566D01*
X0062171Y0009508D01*
X0062028Y0009453D01*
X0061883Y0009402D01*
X0061737Y0009355D01*
X0061590Y0009312D01*
X0061442Y0009273D01*
X0061293Y0009237D01*
X0061143Y0009206D01*
X0060992Y0009178D01*
X0060841Y0009154D01*
X0060688Y0009134D01*
X0060536Y0009118D01*
X0060383Y0009106D01*
X0060230Y0009098D01*
X0060077Y0009094D01*
X0059923Y0009094D01*
X0059770Y0009098D01*
X0059617Y0009106D01*
X0059464Y0009118D01*
X0059312Y0009134D01*
X0059159Y0009154D01*
X0059008Y0009178D01*
X0058857Y0009206D01*
X0058707Y0009237D01*
X0058558Y0009273D01*
X0058410Y0009312D01*
X0058263Y0009355D01*
X0058117Y0009402D01*
X0057972Y0009453D01*
X0057829Y0009508D01*
X0057687Y0009566D01*
X0057547Y0009628D01*
X0057408Y0009693D01*
X0057271Y0009762D01*
X0057136Y0009835D01*
X0057003Y0009911D01*
X0056872Y0009991D01*
X0056743Y0010073D01*
X0056616Y0010160D01*
X0056491Y0010249D01*
X0056369Y0010342D01*
X0056250Y0010438D01*
X0056132Y0010537D01*
X0056018Y0010638D01*
X0055906Y0010743D01*
X0055797Y0010851D01*
X0055691Y0010962D01*
X0055587Y0011075D01*
X0055487Y0011191D01*
X0055389Y0011309D01*
X0055295Y0011430D01*
X0055204Y0011553D01*
X0055116Y0011679D01*
X0055032Y0011807D01*
X0054950Y0011937D01*
X0054873Y0012069D01*
X0054798Y0012203D01*
X0054727Y0012339D01*
X0054660Y0012477D01*
X0054596Y0012617D01*
X0054536Y0012758D01*
X0054480Y0012900D01*
X0054427Y0013044D01*
X0054378Y0013190D01*
X0054333Y0013336D01*
X0054292Y0013484D01*
X0054255Y0013632D01*
X0054221Y0013782D01*
X0054191Y0013933D01*
X0054166Y0014084D01*
X0054144Y0014235D01*
X0054126Y0014388D01*
X0054112Y0014540D01*
X0054102Y0014693D01*
X0054096Y0014847D01*
X0054094Y0015000D01*
X0259094Y0035000D02*
X0259096Y0035153D01*
X0259102Y0035307D01*
X0259112Y0035460D01*
X0259126Y0035612D01*
X0259144Y0035765D01*
X0259166Y0035916D01*
X0259191Y0036067D01*
X0259221Y0036218D01*
X0259255Y0036368D01*
X0259292Y0036516D01*
X0259333Y0036664D01*
X0259378Y0036810D01*
X0259427Y0036956D01*
X0259480Y0037100D01*
X0259536Y0037242D01*
X0259596Y0037383D01*
X0259660Y0037523D01*
X0259727Y0037661D01*
X0259798Y0037797D01*
X0259873Y0037931D01*
X0259950Y0038063D01*
X0260032Y0038193D01*
X0260116Y0038321D01*
X0260204Y0038447D01*
X0260295Y0038570D01*
X0260389Y0038691D01*
X0260487Y0038809D01*
X0260587Y0038925D01*
X0260691Y0039038D01*
X0260797Y0039149D01*
X0260906Y0039257D01*
X0261018Y0039362D01*
X0261132Y0039463D01*
X0261250Y0039562D01*
X0261369Y0039658D01*
X0261491Y0039751D01*
X0261616Y0039840D01*
X0261743Y0039927D01*
X0261872Y0040009D01*
X0262003Y0040089D01*
X0262136Y0040165D01*
X0262271Y0040238D01*
X0262408Y0040307D01*
X0262547Y0040372D01*
X0262687Y0040434D01*
X0262829Y0040492D01*
X0262972Y0040547D01*
X0263117Y0040598D01*
X0263263Y0040645D01*
X0263410Y0040688D01*
X0263558Y0040727D01*
X0263707Y0040763D01*
X0263857Y0040794D01*
X0264008Y0040822D01*
X0264159Y0040846D01*
X0264312Y0040866D01*
X0264464Y0040882D01*
X0264617Y0040894D01*
X0264770Y0040902D01*
X0264923Y0040906D01*
X0265077Y0040906D01*
X0265230Y0040902D01*
X0265383Y0040894D01*
X0265536Y0040882D01*
X0265688Y0040866D01*
X0265841Y0040846D01*
X0265992Y0040822D01*
X0266143Y0040794D01*
X0266293Y0040763D01*
X0266442Y0040727D01*
X0266590Y0040688D01*
X0266737Y0040645D01*
X0266883Y0040598D01*
X0267028Y0040547D01*
X0267171Y0040492D01*
X0267313Y0040434D01*
X0267453Y0040372D01*
X0267592Y0040307D01*
X0267729Y0040238D01*
X0267864Y0040165D01*
X0267997Y0040089D01*
X0268128Y0040009D01*
X0268257Y0039927D01*
X0268384Y0039840D01*
X0268509Y0039751D01*
X0268631Y0039658D01*
X0268750Y0039562D01*
X0268868Y0039463D01*
X0268982Y0039362D01*
X0269094Y0039257D01*
X0269203Y0039149D01*
X0269309Y0039038D01*
X0269413Y0038925D01*
X0269513Y0038809D01*
X0269611Y0038691D01*
X0269705Y0038570D01*
X0269796Y0038447D01*
X0269884Y0038321D01*
X0269968Y0038193D01*
X0270050Y0038063D01*
X0270127Y0037931D01*
X0270202Y0037797D01*
X0270273Y0037661D01*
X0270340Y0037523D01*
X0270404Y0037383D01*
X0270464Y0037242D01*
X0270520Y0037100D01*
X0270573Y0036956D01*
X0270622Y0036810D01*
X0270667Y0036664D01*
X0270708Y0036516D01*
X0270745Y0036368D01*
X0270779Y0036218D01*
X0270809Y0036067D01*
X0270834Y0035916D01*
X0270856Y0035765D01*
X0270874Y0035612D01*
X0270888Y0035460D01*
X0270898Y0035307D01*
X0270904Y0035153D01*
X0270906Y0035000D01*
X0270904Y0034847D01*
X0270898Y0034693D01*
X0270888Y0034540D01*
X0270874Y0034388D01*
X0270856Y0034235D01*
X0270834Y0034084D01*
X0270809Y0033933D01*
X0270779Y0033782D01*
X0270745Y0033632D01*
X0270708Y0033484D01*
X0270667Y0033336D01*
X0270622Y0033190D01*
X0270573Y0033044D01*
X0270520Y0032900D01*
X0270464Y0032758D01*
X0270404Y0032617D01*
X0270340Y0032477D01*
X0270273Y0032339D01*
X0270202Y0032203D01*
X0270127Y0032069D01*
X0270050Y0031937D01*
X0269968Y0031807D01*
X0269884Y0031679D01*
X0269796Y0031553D01*
X0269705Y0031430D01*
X0269611Y0031309D01*
X0269513Y0031191D01*
X0269413Y0031075D01*
X0269309Y0030962D01*
X0269203Y0030851D01*
X0269094Y0030743D01*
X0268982Y0030638D01*
X0268868Y0030537D01*
X0268750Y0030438D01*
X0268631Y0030342D01*
X0268509Y0030249D01*
X0268384Y0030160D01*
X0268257Y0030073D01*
X0268128Y0029991D01*
X0267997Y0029911D01*
X0267864Y0029835D01*
X0267729Y0029762D01*
X0267592Y0029693D01*
X0267453Y0029628D01*
X0267313Y0029566D01*
X0267171Y0029508D01*
X0267028Y0029453D01*
X0266883Y0029402D01*
X0266737Y0029355D01*
X0266590Y0029312D01*
X0266442Y0029273D01*
X0266293Y0029237D01*
X0266143Y0029206D01*
X0265992Y0029178D01*
X0265841Y0029154D01*
X0265688Y0029134D01*
X0265536Y0029118D01*
X0265383Y0029106D01*
X0265230Y0029098D01*
X0265077Y0029094D01*
X0264923Y0029094D01*
X0264770Y0029098D01*
X0264617Y0029106D01*
X0264464Y0029118D01*
X0264312Y0029134D01*
X0264159Y0029154D01*
X0264008Y0029178D01*
X0263857Y0029206D01*
X0263707Y0029237D01*
X0263558Y0029273D01*
X0263410Y0029312D01*
X0263263Y0029355D01*
X0263117Y0029402D01*
X0262972Y0029453D01*
X0262829Y0029508D01*
X0262687Y0029566D01*
X0262547Y0029628D01*
X0262408Y0029693D01*
X0262271Y0029762D01*
X0262136Y0029835D01*
X0262003Y0029911D01*
X0261872Y0029991D01*
X0261743Y0030073D01*
X0261616Y0030160D01*
X0261491Y0030249D01*
X0261369Y0030342D01*
X0261250Y0030438D01*
X0261132Y0030537D01*
X0261018Y0030638D01*
X0260906Y0030743D01*
X0260797Y0030851D01*
X0260691Y0030962D01*
X0260587Y0031075D01*
X0260487Y0031191D01*
X0260389Y0031309D01*
X0260295Y0031430D01*
X0260204Y0031553D01*
X0260116Y0031679D01*
X0260032Y0031807D01*
X0259950Y0031937D01*
X0259873Y0032069D01*
X0259798Y0032203D01*
X0259727Y0032339D01*
X0259660Y0032477D01*
X0259596Y0032617D01*
X0259536Y0032758D01*
X0259480Y0032900D01*
X0259427Y0033044D01*
X0259378Y0033190D01*
X0259333Y0033336D01*
X0259292Y0033484D01*
X0259255Y0033632D01*
X0259221Y0033782D01*
X0259191Y0033933D01*
X0259166Y0034084D01*
X0259144Y0034235D01*
X0259126Y0034388D01*
X0259112Y0034540D01*
X0259102Y0034693D01*
X0259096Y0034847D01*
X0259094Y0035000D01*
X0259094Y0145000D02*
X0259096Y0145153D01*
X0259102Y0145307D01*
X0259112Y0145460D01*
X0259126Y0145612D01*
X0259144Y0145765D01*
X0259166Y0145916D01*
X0259191Y0146067D01*
X0259221Y0146218D01*
X0259255Y0146368D01*
X0259292Y0146516D01*
X0259333Y0146664D01*
X0259378Y0146810D01*
X0259427Y0146956D01*
X0259480Y0147100D01*
X0259536Y0147242D01*
X0259596Y0147383D01*
X0259660Y0147523D01*
X0259727Y0147661D01*
X0259798Y0147797D01*
X0259873Y0147931D01*
X0259950Y0148063D01*
X0260032Y0148193D01*
X0260116Y0148321D01*
X0260204Y0148447D01*
X0260295Y0148570D01*
X0260389Y0148691D01*
X0260487Y0148809D01*
X0260587Y0148925D01*
X0260691Y0149038D01*
X0260797Y0149149D01*
X0260906Y0149257D01*
X0261018Y0149362D01*
X0261132Y0149463D01*
X0261250Y0149562D01*
X0261369Y0149658D01*
X0261491Y0149751D01*
X0261616Y0149840D01*
X0261743Y0149927D01*
X0261872Y0150009D01*
X0262003Y0150089D01*
X0262136Y0150165D01*
X0262271Y0150238D01*
X0262408Y0150307D01*
X0262547Y0150372D01*
X0262687Y0150434D01*
X0262829Y0150492D01*
X0262972Y0150547D01*
X0263117Y0150598D01*
X0263263Y0150645D01*
X0263410Y0150688D01*
X0263558Y0150727D01*
X0263707Y0150763D01*
X0263857Y0150794D01*
X0264008Y0150822D01*
X0264159Y0150846D01*
X0264312Y0150866D01*
X0264464Y0150882D01*
X0264617Y0150894D01*
X0264770Y0150902D01*
X0264923Y0150906D01*
X0265077Y0150906D01*
X0265230Y0150902D01*
X0265383Y0150894D01*
X0265536Y0150882D01*
X0265688Y0150866D01*
X0265841Y0150846D01*
X0265992Y0150822D01*
X0266143Y0150794D01*
X0266293Y0150763D01*
X0266442Y0150727D01*
X0266590Y0150688D01*
X0266737Y0150645D01*
X0266883Y0150598D01*
X0267028Y0150547D01*
X0267171Y0150492D01*
X0267313Y0150434D01*
X0267453Y0150372D01*
X0267592Y0150307D01*
X0267729Y0150238D01*
X0267864Y0150165D01*
X0267997Y0150089D01*
X0268128Y0150009D01*
X0268257Y0149927D01*
X0268384Y0149840D01*
X0268509Y0149751D01*
X0268631Y0149658D01*
X0268750Y0149562D01*
X0268868Y0149463D01*
X0268982Y0149362D01*
X0269094Y0149257D01*
X0269203Y0149149D01*
X0269309Y0149038D01*
X0269413Y0148925D01*
X0269513Y0148809D01*
X0269611Y0148691D01*
X0269705Y0148570D01*
X0269796Y0148447D01*
X0269884Y0148321D01*
X0269968Y0148193D01*
X0270050Y0148063D01*
X0270127Y0147931D01*
X0270202Y0147797D01*
X0270273Y0147661D01*
X0270340Y0147523D01*
X0270404Y0147383D01*
X0270464Y0147242D01*
X0270520Y0147100D01*
X0270573Y0146956D01*
X0270622Y0146810D01*
X0270667Y0146664D01*
X0270708Y0146516D01*
X0270745Y0146368D01*
X0270779Y0146218D01*
X0270809Y0146067D01*
X0270834Y0145916D01*
X0270856Y0145765D01*
X0270874Y0145612D01*
X0270888Y0145460D01*
X0270898Y0145307D01*
X0270904Y0145153D01*
X0270906Y0145000D01*
X0270904Y0144847D01*
X0270898Y0144693D01*
X0270888Y0144540D01*
X0270874Y0144388D01*
X0270856Y0144235D01*
X0270834Y0144084D01*
X0270809Y0143933D01*
X0270779Y0143782D01*
X0270745Y0143632D01*
X0270708Y0143484D01*
X0270667Y0143336D01*
X0270622Y0143190D01*
X0270573Y0143044D01*
X0270520Y0142900D01*
X0270464Y0142758D01*
X0270404Y0142617D01*
X0270340Y0142477D01*
X0270273Y0142339D01*
X0270202Y0142203D01*
X0270127Y0142069D01*
X0270050Y0141937D01*
X0269968Y0141807D01*
X0269884Y0141679D01*
X0269796Y0141553D01*
X0269705Y0141430D01*
X0269611Y0141309D01*
X0269513Y0141191D01*
X0269413Y0141075D01*
X0269309Y0140962D01*
X0269203Y0140851D01*
X0269094Y0140743D01*
X0268982Y0140638D01*
X0268868Y0140537D01*
X0268750Y0140438D01*
X0268631Y0140342D01*
X0268509Y0140249D01*
X0268384Y0140160D01*
X0268257Y0140073D01*
X0268128Y0139991D01*
X0267997Y0139911D01*
X0267864Y0139835D01*
X0267729Y0139762D01*
X0267592Y0139693D01*
X0267453Y0139628D01*
X0267313Y0139566D01*
X0267171Y0139508D01*
X0267028Y0139453D01*
X0266883Y0139402D01*
X0266737Y0139355D01*
X0266590Y0139312D01*
X0266442Y0139273D01*
X0266293Y0139237D01*
X0266143Y0139206D01*
X0265992Y0139178D01*
X0265841Y0139154D01*
X0265688Y0139134D01*
X0265536Y0139118D01*
X0265383Y0139106D01*
X0265230Y0139098D01*
X0265077Y0139094D01*
X0264923Y0139094D01*
X0264770Y0139098D01*
X0264617Y0139106D01*
X0264464Y0139118D01*
X0264312Y0139134D01*
X0264159Y0139154D01*
X0264008Y0139178D01*
X0263857Y0139206D01*
X0263707Y0139237D01*
X0263558Y0139273D01*
X0263410Y0139312D01*
X0263263Y0139355D01*
X0263117Y0139402D01*
X0262972Y0139453D01*
X0262829Y0139508D01*
X0262687Y0139566D01*
X0262547Y0139628D01*
X0262408Y0139693D01*
X0262271Y0139762D01*
X0262136Y0139835D01*
X0262003Y0139911D01*
X0261872Y0139991D01*
X0261743Y0140073D01*
X0261616Y0140160D01*
X0261491Y0140249D01*
X0261369Y0140342D01*
X0261250Y0140438D01*
X0261132Y0140537D01*
X0261018Y0140638D01*
X0260906Y0140743D01*
X0260797Y0140851D01*
X0260691Y0140962D01*
X0260587Y0141075D01*
X0260487Y0141191D01*
X0260389Y0141309D01*
X0260295Y0141430D01*
X0260204Y0141553D01*
X0260116Y0141679D01*
X0260032Y0141807D01*
X0259950Y0141937D01*
X0259873Y0142069D01*
X0259798Y0142203D01*
X0259727Y0142339D01*
X0259660Y0142477D01*
X0259596Y0142617D01*
X0259536Y0142758D01*
X0259480Y0142900D01*
X0259427Y0143044D01*
X0259378Y0143190D01*
X0259333Y0143336D01*
X0259292Y0143484D01*
X0259255Y0143632D01*
X0259221Y0143782D01*
X0259191Y0143933D01*
X0259166Y0144084D01*
X0259144Y0144235D01*
X0259126Y0144388D01*
X0259112Y0144540D01*
X0259102Y0144693D01*
X0259096Y0144847D01*
X0259094Y0145000D01*
X0059094Y0205000D02*
X0059096Y0205153D01*
X0059102Y0205307D01*
X0059112Y0205460D01*
X0059126Y0205612D01*
X0059144Y0205765D01*
X0059166Y0205916D01*
X0059191Y0206067D01*
X0059221Y0206218D01*
X0059255Y0206368D01*
X0059292Y0206516D01*
X0059333Y0206664D01*
X0059378Y0206810D01*
X0059427Y0206956D01*
X0059480Y0207100D01*
X0059536Y0207242D01*
X0059596Y0207383D01*
X0059660Y0207523D01*
X0059727Y0207661D01*
X0059798Y0207797D01*
X0059873Y0207931D01*
X0059950Y0208063D01*
X0060032Y0208193D01*
X0060116Y0208321D01*
X0060204Y0208447D01*
X0060295Y0208570D01*
X0060389Y0208691D01*
X0060487Y0208809D01*
X0060587Y0208925D01*
X0060691Y0209038D01*
X0060797Y0209149D01*
X0060906Y0209257D01*
X0061018Y0209362D01*
X0061132Y0209463D01*
X0061250Y0209562D01*
X0061369Y0209658D01*
X0061491Y0209751D01*
X0061616Y0209840D01*
X0061743Y0209927D01*
X0061872Y0210009D01*
X0062003Y0210089D01*
X0062136Y0210165D01*
X0062271Y0210238D01*
X0062408Y0210307D01*
X0062547Y0210372D01*
X0062687Y0210434D01*
X0062829Y0210492D01*
X0062972Y0210547D01*
X0063117Y0210598D01*
X0063263Y0210645D01*
X0063410Y0210688D01*
X0063558Y0210727D01*
X0063707Y0210763D01*
X0063857Y0210794D01*
X0064008Y0210822D01*
X0064159Y0210846D01*
X0064312Y0210866D01*
X0064464Y0210882D01*
X0064617Y0210894D01*
X0064770Y0210902D01*
X0064923Y0210906D01*
X0065077Y0210906D01*
X0065230Y0210902D01*
X0065383Y0210894D01*
X0065536Y0210882D01*
X0065688Y0210866D01*
X0065841Y0210846D01*
X0065992Y0210822D01*
X0066143Y0210794D01*
X0066293Y0210763D01*
X0066442Y0210727D01*
X0066590Y0210688D01*
X0066737Y0210645D01*
X0066883Y0210598D01*
X0067028Y0210547D01*
X0067171Y0210492D01*
X0067313Y0210434D01*
X0067453Y0210372D01*
X0067592Y0210307D01*
X0067729Y0210238D01*
X0067864Y0210165D01*
X0067997Y0210089D01*
X0068128Y0210009D01*
X0068257Y0209927D01*
X0068384Y0209840D01*
X0068509Y0209751D01*
X0068631Y0209658D01*
X0068750Y0209562D01*
X0068868Y0209463D01*
X0068982Y0209362D01*
X0069094Y0209257D01*
X0069203Y0209149D01*
X0069309Y0209038D01*
X0069413Y0208925D01*
X0069513Y0208809D01*
X0069611Y0208691D01*
X0069705Y0208570D01*
X0069796Y0208447D01*
X0069884Y0208321D01*
X0069968Y0208193D01*
X0070050Y0208063D01*
X0070127Y0207931D01*
X0070202Y0207797D01*
X0070273Y0207661D01*
X0070340Y0207523D01*
X0070404Y0207383D01*
X0070464Y0207242D01*
X0070520Y0207100D01*
X0070573Y0206956D01*
X0070622Y0206810D01*
X0070667Y0206664D01*
X0070708Y0206516D01*
X0070745Y0206368D01*
X0070779Y0206218D01*
X0070809Y0206067D01*
X0070834Y0205916D01*
X0070856Y0205765D01*
X0070874Y0205612D01*
X0070888Y0205460D01*
X0070898Y0205307D01*
X0070904Y0205153D01*
X0070906Y0205000D01*
X0070904Y0204847D01*
X0070898Y0204693D01*
X0070888Y0204540D01*
X0070874Y0204388D01*
X0070856Y0204235D01*
X0070834Y0204084D01*
X0070809Y0203933D01*
X0070779Y0203782D01*
X0070745Y0203632D01*
X0070708Y0203484D01*
X0070667Y0203336D01*
X0070622Y0203190D01*
X0070573Y0203044D01*
X0070520Y0202900D01*
X0070464Y0202758D01*
X0070404Y0202617D01*
X0070340Y0202477D01*
X0070273Y0202339D01*
X0070202Y0202203D01*
X0070127Y0202069D01*
X0070050Y0201937D01*
X0069968Y0201807D01*
X0069884Y0201679D01*
X0069796Y0201553D01*
X0069705Y0201430D01*
X0069611Y0201309D01*
X0069513Y0201191D01*
X0069413Y0201075D01*
X0069309Y0200962D01*
X0069203Y0200851D01*
X0069094Y0200743D01*
X0068982Y0200638D01*
X0068868Y0200537D01*
X0068750Y0200438D01*
X0068631Y0200342D01*
X0068509Y0200249D01*
X0068384Y0200160D01*
X0068257Y0200073D01*
X0068128Y0199991D01*
X0067997Y0199911D01*
X0067864Y0199835D01*
X0067729Y0199762D01*
X0067592Y0199693D01*
X0067453Y0199628D01*
X0067313Y0199566D01*
X0067171Y0199508D01*
X0067028Y0199453D01*
X0066883Y0199402D01*
X0066737Y0199355D01*
X0066590Y0199312D01*
X0066442Y0199273D01*
X0066293Y0199237D01*
X0066143Y0199206D01*
X0065992Y0199178D01*
X0065841Y0199154D01*
X0065688Y0199134D01*
X0065536Y0199118D01*
X0065383Y0199106D01*
X0065230Y0199098D01*
X0065077Y0199094D01*
X0064923Y0199094D01*
X0064770Y0199098D01*
X0064617Y0199106D01*
X0064464Y0199118D01*
X0064312Y0199134D01*
X0064159Y0199154D01*
X0064008Y0199178D01*
X0063857Y0199206D01*
X0063707Y0199237D01*
X0063558Y0199273D01*
X0063410Y0199312D01*
X0063263Y0199355D01*
X0063117Y0199402D01*
X0062972Y0199453D01*
X0062829Y0199508D01*
X0062687Y0199566D01*
X0062547Y0199628D01*
X0062408Y0199693D01*
X0062271Y0199762D01*
X0062136Y0199835D01*
X0062003Y0199911D01*
X0061872Y0199991D01*
X0061743Y0200073D01*
X0061616Y0200160D01*
X0061491Y0200249D01*
X0061369Y0200342D01*
X0061250Y0200438D01*
X0061132Y0200537D01*
X0061018Y0200638D01*
X0060906Y0200743D01*
X0060797Y0200851D01*
X0060691Y0200962D01*
X0060587Y0201075D01*
X0060487Y0201191D01*
X0060389Y0201309D01*
X0060295Y0201430D01*
X0060204Y0201553D01*
X0060116Y0201679D01*
X0060032Y0201807D01*
X0059950Y0201937D01*
X0059873Y0202069D01*
X0059798Y0202203D01*
X0059727Y0202339D01*
X0059660Y0202477D01*
X0059596Y0202617D01*
X0059536Y0202758D01*
X0059480Y0202900D01*
X0059427Y0203044D01*
X0059378Y0203190D01*
X0059333Y0203336D01*
X0059292Y0203484D01*
X0059255Y0203632D01*
X0059221Y0203782D01*
X0059191Y0203933D01*
X0059166Y0204084D01*
X0059144Y0204235D01*
X0059126Y0204388D01*
X0059112Y0204540D01*
X0059102Y0204693D01*
X0059096Y0204847D01*
X0059094Y0205000D01*
D11*
X0110000Y0140000D03*
X0120000Y0140000D03*
X0130000Y0140000D03*
X0140000Y0140000D03*
X0150000Y0140000D03*
X0160000Y0140000D03*
X0170000Y0140000D03*
X0180000Y0140000D03*
X0180000Y0100000D03*
X0170000Y0100000D03*
X0160000Y0100000D03*
X0150000Y0100000D03*
X0140000Y0100000D03*
X0130000Y0100000D03*
X0120000Y0100000D03*
X0110000Y0100000D03*
X0080000Y0062795D03*
X0080000Y0037205D03*
D12*
X0049000Y0038000D03*
X0049000Y0028000D03*
X0122200Y0041100D03*
X0122200Y0058900D03*
X0147800Y0058900D03*
X0167200Y0058900D03*
X0167200Y0041100D03*
X0147800Y0041100D03*
X0192800Y0041100D03*
X0212200Y0041100D03*
X0212200Y0058900D03*
X0214232Y0073061D03*
X0221303Y0080132D03*
X0195000Y0080000D03*
X0185000Y0080000D03*
X0175000Y0080000D03*
X0165000Y0080000D03*
X0155000Y0080000D03*
X0145000Y0080000D03*
X0192800Y0058900D03*
X0237800Y0058900D03*
X0237800Y0041100D03*
X0195000Y0170000D03*
X0185000Y0170000D03*
X0175000Y0170000D03*
X0165000Y0170000D03*
X0155000Y0170000D03*
X0145000Y0170000D03*
X0215000Y0180000D03*
X0225000Y0180000D03*
X0245000Y0180000D03*
X0255000Y0180000D03*
D13*
X0255000Y0205000D03*
X0245000Y0205000D03*
X0235000Y0205000D03*
X0225000Y0205000D03*
X0215000Y0205000D03*
X0205000Y0205000D03*
X0195000Y0205000D03*
X0185000Y0205000D03*
X0169000Y0205000D03*
X0159000Y0205000D03*
X0149000Y0205000D03*
X0139000Y0205000D03*
X0129000Y0205000D03*
X0119000Y0205000D03*
X0109000Y0205000D03*
X0099000Y0205000D03*
X0089000Y0205000D03*
X0079000Y0205000D03*
X0115000Y0015000D03*
X0125000Y0015000D03*
X0135000Y0015000D03*
X0145000Y0015000D03*
X0155000Y0015000D03*
X0165000Y0015000D03*
X0175000Y0015000D03*
X0185000Y0015000D03*
X0205000Y0015000D03*
X0215000Y0015000D03*
X0225000Y0015000D03*
X0235000Y0015000D03*
X0245000Y0015000D03*
X0255000Y0015000D03*
D14*
X0235000Y0015000D02*
X0234800Y0015200D01*
X0225000Y0015000D02*
X0224600Y0014600D01*
X0224600Y0013400D01*
X0218000Y0006800D01*
X0112400Y0006800D01*
X0105000Y0014200D01*
X0105000Y0025000D02*
X0105000Y0045000D01*
X0113300Y0050000D02*
X0070000Y0050000D01*
X0101000Y0076400D02*
X0085400Y0092000D01*
X0101600Y0093200D02*
X0109400Y0085400D01*
X0109400Y0075600D01*
X0110000Y0075000D01*
X0111200Y0085400D02*
X0102800Y0093800D01*
X0102800Y0120200D01*
X0100400Y0122600D01*
X0100400Y0127400D01*
X0095000Y0132800D01*
X0095000Y0133400D01*
X0092600Y0133400D01*
X0092600Y0131600D01*
X0085400Y0124400D01*
X0084200Y0124400D01*
X0077600Y0117800D01*
X0077600Y0116600D01*
X0022400Y0061400D01*
X0022400Y0054800D01*
X0019400Y0051800D01*
X0016400Y0051800D01*
X0037400Y0107000D02*
X0059000Y0128600D01*
X0076400Y0128600D01*
X0077600Y0127400D01*
X0082400Y0127400D01*
X0084800Y0129800D01*
X0084800Y0126800D02*
X0084200Y0126200D01*
X0077000Y0126200D01*
X0075800Y0127400D01*
X0059600Y0127400D01*
X0042800Y0110600D01*
X0042800Y0107000D01*
X0049400Y0129800D02*
X0078200Y0129800D01*
X0094400Y0130400D02*
X0095600Y0130400D01*
X0099200Y0126800D01*
X0099200Y0122000D01*
X0101600Y0119600D01*
X0101600Y0093200D01*
X0104000Y0094400D02*
X0104000Y0120800D01*
X0101600Y0123200D01*
X0101600Y0131000D01*
X0097400Y0135200D01*
X0097400Y0133400D01*
X0097400Y0135200D02*
X0089000Y0143600D01*
X0089000Y0205000D01*
X0093200Y0203000D02*
X0090200Y0200000D01*
X0090200Y0183200D01*
X0103200Y0183200D01*
X0105000Y0185000D01*
X0093200Y0177200D02*
X0090200Y0174200D01*
X0090200Y0144200D01*
X0102800Y0131600D01*
X0102800Y0132800D01*
X0102800Y0131600D02*
X0102800Y0123800D01*
X0106400Y0120200D01*
X0108200Y0120200D01*
X0123800Y0104600D01*
X0123800Y0102800D01*
X0125600Y0101000D01*
X0125600Y0098000D01*
X0135800Y0087800D01*
X0134000Y0086000D01*
X0135800Y0087800D02*
X0143600Y0080000D01*
X0145000Y0080000D01*
X0155000Y0080000D01*
X0161000Y0080000D01*
X0161000Y0047600D01*
X0167000Y0041600D01*
X0167200Y0041100D01*
X0155000Y0029000D02*
X0155000Y0015000D01*
X0191000Y0018200D02*
X0191000Y0021000D01*
X0191000Y0018200D02*
X0201200Y0008000D01*
X0208400Y0008000D01*
X0215000Y0014600D01*
X0215000Y0015000D01*
X0205000Y0030000D02*
X0205000Y0071400D01*
X0202400Y0074000D01*
X0201200Y0077600D02*
X0201200Y0097400D01*
X0194600Y0104000D01*
X0194600Y0106400D01*
X0196400Y0108200D01*
X0196400Y0122000D01*
X0199400Y0125000D01*
X0198800Y0125600D01*
X0198200Y0125000D01*
X0198800Y0125600D02*
X0199400Y0126200D01*
X0199400Y0132200D01*
X0167600Y0164000D01*
X0149600Y0164000D01*
X0145400Y0168200D01*
X0145400Y0170000D01*
X0145000Y0170000D01*
X0139400Y0176000D02*
X0150800Y0176000D01*
X0155000Y0171800D01*
X0155000Y0170000D01*
X0158000Y0170000D01*
X0162800Y0165200D01*
X0168200Y0165200D01*
X0200600Y0132800D01*
X0200600Y0125600D01*
X0201200Y0125000D01*
X0197600Y0121400D01*
X0197600Y0107600D01*
X0197000Y0107000D01*
X0197000Y0104600D01*
X0215000Y0118400D02*
X0215000Y0089600D01*
X0190400Y0065000D01*
X0173600Y0065000D01*
X0167600Y0059000D01*
X0167200Y0058900D01*
X0165800Y0054200D02*
X0165200Y0054200D01*
X0162200Y0057200D01*
X0162200Y0060800D01*
X0166400Y0065000D01*
X0171800Y0065000D01*
X0173000Y0066200D01*
X0189800Y0066200D01*
X0201200Y0077600D01*
X0216200Y0078200D02*
X0216200Y0117800D01*
X0222800Y0124400D01*
X0222800Y0143000D01*
X0221600Y0144200D01*
X0221600Y0156200D01*
X0245000Y0179600D01*
X0245000Y0180000D01*
X0231200Y0185600D02*
X0230000Y0186800D01*
X0231200Y0185600D02*
X0231200Y0167600D01*
X0220400Y0156800D01*
X0220400Y0143600D01*
X0221600Y0142400D01*
X0221600Y0125000D01*
X0215000Y0118400D01*
X0222800Y0117800D02*
X0225000Y0120000D01*
X0225000Y0130000D01*
X0222800Y0117800D02*
X0222800Y0095600D01*
X0230000Y0090000D02*
X0230000Y0145000D01*
X0225000Y0150000D01*
X0215000Y0150000D02*
X0195000Y0150000D01*
X0185000Y0155000D02*
X0180000Y0160000D01*
X0159800Y0141800D02*
X0159800Y0140000D01*
X0160000Y0140000D01*
X0159800Y0141800D02*
X0155600Y0146000D01*
X0127400Y0146000D01*
X0120000Y0153400D01*
X0120000Y0185000D01*
X0139400Y0176000D02*
X0125600Y0162200D01*
X0125600Y0150800D01*
X0124400Y0147200D02*
X0129800Y0141800D01*
X0129800Y0140000D01*
X0130000Y0140000D01*
X0124400Y0147200D02*
X0122600Y0147200D01*
X0107000Y0130400D02*
X0109400Y0128000D01*
X0109400Y0126800D01*
X0110600Y0125600D01*
X0110600Y0121400D01*
X0125000Y0107000D01*
X0164000Y0107000D01*
X0170000Y0101000D01*
X0170000Y0100000D01*
X0160000Y0100000D02*
X0159800Y0099800D01*
X0159800Y0098000D01*
X0155600Y0093800D01*
X0137600Y0093800D01*
X0149600Y0100400D02*
X0150000Y0100000D01*
X0149600Y0100400D02*
X0149600Y0101600D01*
X0145400Y0105800D01*
X0124400Y0105800D01*
X0109400Y0120800D01*
X0109400Y0125000D01*
X0107000Y0127400D01*
X0095000Y0133400D02*
X0095000Y0135800D01*
X0087800Y0143000D01*
X0087800Y0195200D01*
X0079400Y0203600D01*
X0079400Y0204800D01*
X0079000Y0205000D01*
X0087200Y0213200D02*
X0093200Y0207200D01*
X0093200Y0203000D01*
X0087200Y0213200D02*
X0062600Y0213200D01*
X0052200Y0202800D01*
X0051200Y0201800D01*
X0050000Y0200600D01*
X0050000Y0195000D01*
X0050000Y0175000D02*
X0051200Y0173800D01*
X0051200Y0161000D01*
X0060000Y0175000D02*
X0075000Y0190000D01*
X0078600Y0166400D02*
X0071000Y0166400D01*
X0078600Y0166400D02*
X0080000Y0165000D01*
X0095000Y0165000D02*
X0105000Y0165000D01*
X0145000Y0160000D02*
X0145400Y0159600D01*
X0145400Y0151400D01*
X0185000Y0135000D02*
X0185000Y0125000D01*
X0221303Y0081303D02*
X0230000Y0090000D01*
X0221303Y0081303D02*
X0221303Y0080132D01*
X0221600Y0080000D01*
X0221600Y0078400D01*
X0230000Y0070000D01*
X0230000Y0066200D01*
X0225200Y0069200D02*
X0216200Y0078200D01*
X0225200Y0069200D02*
X0225200Y0031400D01*
X0226400Y0030200D01*
X0233000Y0030200D01*
X0234800Y0028400D01*
X0230000Y0032500D02*
X0230000Y0050000D01*
X0191000Y0029000D02*
X0165800Y0054200D01*
X0165000Y0080000D02*
X0161000Y0080000D01*
X0120800Y0085400D02*
X0111200Y0085400D01*
X0106400Y0093200D02*
X0105200Y0093200D01*
X0104000Y0094400D01*
X0056600Y0132200D02*
X0055400Y0131000D01*
X0050000Y0131000D01*
X0047600Y0133400D01*
X0048200Y0131000D02*
X0047000Y0131000D01*
X0045200Y0132800D01*
X0042800Y0132800D01*
X0048200Y0131000D02*
X0049400Y0129800D01*
X0119000Y0205000D02*
X0119000Y0205400D01*
X0126800Y0213200D01*
X0207800Y0213200D01*
X0210800Y0210200D01*
X0210800Y0184400D01*
X0215000Y0180200D01*
X0215000Y0180000D01*
X0225000Y0195000D02*
X0225200Y0195200D01*
X0225200Y0204800D01*
X0225000Y0205000D01*
X0200000Y0200000D02*
X0199000Y0199000D01*
X0199000Y0195000D01*
X0189000Y0196500D02*
X0187000Y0194500D01*
X0187000Y0194000D01*
X0175000Y0195000D02*
X0175000Y0200000D01*
D15*
X0125600Y0150800D03*
X0122600Y0147200D03*
X0107000Y0130400D03*
X0102800Y0132800D03*
X0097400Y0133400D03*
X0094400Y0130400D03*
X0092600Y0133400D03*
X0084800Y0129800D03*
X0084800Y0126800D03*
X0078200Y0129800D03*
X0056600Y0132200D03*
X0047600Y0133400D03*
X0042800Y0132800D03*
X0042800Y0107000D03*
X0037400Y0107000D03*
X0085400Y0092000D03*
X0101000Y0076400D03*
X0106400Y0093200D03*
X0120800Y0085400D03*
X0134000Y0086000D03*
X0137600Y0093800D03*
X0107000Y0127400D03*
X0051200Y0161000D03*
X0093200Y0177200D03*
X0198200Y0125000D03*
X0197000Y0104600D03*
X0202400Y0074000D03*
X0022400Y0054800D03*
X0016400Y0051800D03*
D16*
X0032500Y0057500D03*
X0048000Y0051500D03*
X0040500Y0034000D03*
X0035000Y0020000D03*
X0070000Y0050000D03*
X0070000Y0060000D03*
X0055000Y0080000D03*
X0100000Y0085000D03*
X0105000Y0085000D03*
X0100000Y0090000D03*
X0110000Y0075000D03*
X0105000Y0045000D03*
X0105000Y0025000D03*
X0105000Y0014200D03*
X0155000Y0029000D03*
X0191000Y0029000D03*
X0191000Y0021000D03*
X0205000Y0030000D03*
X0230000Y0032500D03*
X0234800Y0028400D03*
X0230000Y0050000D03*
X0222800Y0095600D03*
X0185000Y0125000D03*
X0185000Y0135000D03*
X0195000Y0150000D03*
X0185000Y0155000D03*
X0180000Y0160000D03*
X0169500Y0179500D03*
X0165000Y0195000D03*
X0155000Y0195000D03*
X0147500Y0194000D03*
X0175000Y0195000D03*
X0187000Y0194000D03*
X0199000Y0195000D03*
X0225000Y0195000D03*
X0230000Y0186800D03*
X0210000Y0160000D03*
X0215000Y0150000D03*
X0225000Y0150000D03*
X0225000Y0130000D03*
X0145400Y0151400D03*
X0145000Y0160000D03*
X0120000Y0185000D03*
X0105000Y0185000D03*
X0105000Y0165000D03*
X0095000Y0165000D03*
X0080000Y0165000D03*
X0071000Y0166400D03*
X0060000Y0175000D03*
X0050000Y0175000D03*
X0050000Y0195000D03*
X0075000Y0190000D03*
D17*
X0147500Y0194000D02*
X0154000Y0194000D01*
X0155000Y0195000D01*
X0165000Y0195000D01*
X0169000Y0205000D02*
X0169000Y0180000D01*
X0169500Y0179500D01*
X0210000Y0160000D02*
X0215000Y0160000D01*
X0105000Y0085000D02*
X0100000Y0090000D01*
X0100000Y0085000D02*
X0097500Y0085000D01*
X0096500Y0086000D01*
X0070000Y0065000D02*
X0055000Y0080000D01*
X0070000Y0065000D02*
X0070000Y0060000D01*
X0048000Y0051500D02*
X0040500Y0044000D01*
X0040500Y0034000D01*
X0040000Y0020000D02*
X0035000Y0020000D01*
X0032500Y0057500D02*
X0035000Y0060000D01*
X0113300Y0050000D02*
X0122200Y0041100D01*
X0230000Y0050000D02*
X0230000Y0066200D01*
D18*
X0231900Y0065743D02*
X0273200Y0065743D01*
X0273200Y0064145D02*
X0231900Y0064145D01*
X0231900Y0062546D02*
X0234234Y0062546D01*
X0234911Y0063224D02*
X0233476Y0061789D01*
X0232700Y0059914D01*
X0232700Y0057886D01*
X0233476Y0056011D01*
X0234911Y0054576D01*
X0236786Y0053800D01*
X0238814Y0053800D01*
X0240689Y0054576D01*
X0242124Y0056011D01*
X0242900Y0057886D01*
X0242900Y0059914D01*
X0242124Y0061789D01*
X0240689Y0063224D01*
X0238814Y0064000D01*
X0236786Y0064000D01*
X0234911Y0063224D01*
X0233128Y0060948D02*
X0231900Y0060948D01*
X0231900Y0059349D02*
X0232700Y0059349D01*
X0232756Y0057751D02*
X0231900Y0057751D01*
X0231900Y0056152D02*
X0233418Y0056152D01*
X0231900Y0054554D02*
X0234966Y0054554D01*
X0231900Y0052955D02*
X0273200Y0052955D01*
X0273200Y0051357D02*
X0232348Y0051357D01*
X0232280Y0051523D02*
X0231900Y0051903D01*
X0231900Y0066987D01*
X0231700Y0067187D01*
X0231700Y0070704D01*
X0230704Y0071700D01*
X0225394Y0077010D01*
X0225627Y0077243D01*
X0226403Y0079117D01*
X0226403Y0081146D01*
X0225627Y0083021D01*
X0225526Y0083122D01*
X0230704Y0088300D01*
X0231700Y0089296D01*
X0231700Y0145704D01*
X0230704Y0146700D01*
X0227689Y0149715D01*
X0227689Y0150535D01*
X0227280Y0151523D01*
X0226523Y0152280D01*
X0225535Y0152689D01*
X0224465Y0152689D01*
X0223477Y0152280D01*
X0223300Y0152103D01*
X0223300Y0155496D01*
X0243079Y0175275D01*
X0243986Y0174900D01*
X0246014Y0174900D01*
X0247889Y0175676D01*
X0249324Y0177111D01*
X0250000Y0178744D01*
X0250676Y0177111D01*
X0252111Y0175676D01*
X0253986Y0174900D01*
X0256014Y0174900D01*
X0257889Y0175676D01*
X0259324Y0177111D01*
X0260100Y0178986D01*
X0260100Y0181014D01*
X0259324Y0182889D01*
X0257889Y0184324D01*
X0256014Y0185100D01*
X0253986Y0185100D01*
X0252111Y0184324D01*
X0250676Y0182889D01*
X0250000Y0181256D01*
X0249324Y0182889D01*
X0247889Y0184324D01*
X0246014Y0185100D01*
X0243986Y0185100D01*
X0242111Y0184324D01*
X0240676Y0182889D01*
X0239900Y0181014D01*
X0239900Y0178986D01*
X0240510Y0177514D01*
X0232900Y0169904D01*
X0232900Y0186304D01*
X0232689Y0186515D01*
X0232689Y0187335D01*
X0232280Y0188323D01*
X0231523Y0189080D01*
X0230535Y0189489D01*
X0229465Y0189489D01*
X0228477Y0189080D01*
X0227720Y0188323D01*
X0227311Y0187335D01*
X0227311Y0186265D01*
X0227720Y0185277D01*
X0228477Y0184520D01*
X0229465Y0184111D01*
X0229500Y0184111D01*
X0229500Y0182463D01*
X0229324Y0182889D01*
X0227889Y0184324D01*
X0226014Y0185100D01*
X0223986Y0185100D01*
X0222111Y0184324D01*
X0220676Y0182889D01*
X0220000Y0181256D01*
X0219324Y0182889D01*
X0217889Y0184324D01*
X0216014Y0185100D01*
X0213986Y0185100D01*
X0212938Y0184666D01*
X0212500Y0185104D01*
X0212500Y0200853D01*
X0213053Y0200300D01*
X0216947Y0200300D01*
X0219700Y0203053D01*
X0219700Y0206947D01*
X0216947Y0209700D01*
X0213053Y0209700D01*
X0212500Y0209147D01*
X0212500Y0210904D01*
X0211504Y0211900D01*
X0210204Y0213200D01*
X0258254Y0213200D01*
X0263200Y0208254D01*
X0263200Y0163254D01*
X0264254Y0162200D01*
X0273200Y0153254D01*
X0273200Y0025746D01*
X0263200Y0015746D01*
X0263200Y0006800D01*
X0220404Y0006800D01*
X0223904Y0010300D01*
X0226947Y0010300D01*
X0229700Y0013053D01*
X0229700Y0016947D01*
X0226947Y0019700D01*
X0223053Y0019700D01*
X0220300Y0016947D01*
X0220300Y0013053D01*
X0221075Y0012279D01*
X0217296Y0008500D01*
X0211304Y0008500D01*
X0213104Y0010300D01*
X0216947Y0010300D01*
X0219700Y0013053D01*
X0219700Y0016947D01*
X0216947Y0019700D01*
X0213053Y0019700D01*
X0210300Y0016947D01*
X0210300Y0013053D01*
X0210675Y0012679D01*
X0207696Y0009700D01*
X0201904Y0009700D01*
X0192703Y0018901D01*
X0193280Y0019477D01*
X0193689Y0020465D01*
X0193689Y0021535D01*
X0193280Y0022523D01*
X0192523Y0023280D01*
X0191535Y0023689D01*
X0190465Y0023689D01*
X0189477Y0023280D01*
X0188720Y0022523D01*
X0188311Y0021535D01*
X0188311Y0020465D01*
X0188720Y0019477D01*
X0189300Y0018897D01*
X0189300Y0017496D01*
X0198296Y0008500D01*
X0113104Y0008500D01*
X0107689Y0013915D01*
X0107689Y0014735D01*
X0107280Y0015723D01*
X0106523Y0016480D01*
X0105535Y0016889D01*
X0104465Y0016889D01*
X0103477Y0016480D01*
X0102720Y0015723D01*
X0102311Y0014735D01*
X0102311Y0013665D01*
X0102720Y0012677D01*
X0103477Y0011920D01*
X0104465Y0011511D01*
X0105285Y0011511D01*
X0109996Y0006800D01*
X0006800Y0006800D01*
X0006800Y0213200D01*
X0060196Y0213200D01*
X0051496Y0204500D01*
X0050496Y0203500D01*
X0050496Y0203500D01*
X0048300Y0201304D01*
X0048300Y0197103D01*
X0047720Y0196523D01*
X0047311Y0195535D01*
X0047311Y0194465D01*
X0047720Y0193477D01*
X0048477Y0192720D01*
X0049465Y0192311D01*
X0050535Y0192311D01*
X0051523Y0192720D01*
X0052280Y0193477D01*
X0052689Y0194465D01*
X0052689Y0195535D01*
X0052280Y0196523D01*
X0051700Y0197103D01*
X0051700Y0199896D01*
X0052900Y0201096D01*
X0053900Y0202096D01*
X0057294Y0205490D01*
X0057294Y0203467D01*
X0058468Y0200635D01*
X0060635Y0198468D01*
X0063467Y0197294D01*
X0066533Y0197294D01*
X0069365Y0198468D01*
X0071532Y0200635D01*
X0072705Y0203467D01*
X0072705Y0206533D01*
X0071532Y0209365D01*
X0069397Y0211500D01*
X0086496Y0211500D01*
X0088296Y0209700D01*
X0087053Y0209700D01*
X0084300Y0206947D01*
X0084300Y0203053D01*
X0087053Y0200300D01*
X0087300Y0200300D01*
X0087300Y0198104D01*
X0083025Y0202379D01*
X0083700Y0203053D01*
X0083700Y0206947D01*
X0080947Y0209700D01*
X0077053Y0209700D01*
X0074300Y0206947D01*
X0074300Y0203053D01*
X0077053Y0200300D01*
X0080296Y0200300D01*
X0086100Y0194496D01*
X0086100Y0142296D01*
X0092396Y0136000D01*
X0092083Y0136000D01*
X0091127Y0135604D01*
X0090396Y0134873D01*
X0090000Y0133917D01*
X0090000Y0132883D01*
X0090396Y0131927D01*
X0090459Y0131864D01*
X0087061Y0128466D01*
X0087400Y0129283D01*
X0087400Y0130317D01*
X0087004Y0131273D01*
X0086273Y0132004D01*
X0085317Y0132400D01*
X0084283Y0132400D01*
X0083327Y0132004D01*
X0082596Y0131273D01*
X0082200Y0130317D01*
X0082200Y0129604D01*
X0081696Y0129100D01*
X0080724Y0129100D01*
X0080800Y0129283D01*
X0080800Y0130317D01*
X0080404Y0131273D01*
X0079673Y0132004D01*
X0078717Y0132400D01*
X0077683Y0132400D01*
X0076727Y0132004D01*
X0076223Y0131500D01*
X0059124Y0131500D01*
X0059200Y0131683D01*
X0059200Y0132717D01*
X0058804Y0133673D01*
X0058073Y0134404D01*
X0057117Y0134800D01*
X0056083Y0134800D01*
X0055127Y0134404D01*
X0054396Y0133673D01*
X0054000Y0132717D01*
X0054000Y0132700D01*
X0050704Y0132700D01*
X0050200Y0133204D01*
X0050200Y0133917D01*
X0049804Y0134873D01*
X0049073Y0135604D01*
X0048117Y0136000D01*
X0047083Y0136000D01*
X0046127Y0135604D01*
X0045396Y0134873D01*
X0045241Y0134500D01*
X0044777Y0134500D01*
X0044273Y0135004D01*
X0043317Y0135400D01*
X0042283Y0135400D01*
X0041327Y0135004D01*
X0040596Y0134273D01*
X0040200Y0133317D01*
X0040200Y0132283D01*
X0040596Y0131327D01*
X0041327Y0130596D01*
X0042283Y0130200D01*
X0043317Y0130200D01*
X0044273Y0130596D01*
X0044636Y0130959D01*
X0045300Y0130296D01*
X0046296Y0129300D01*
X0047496Y0129300D01*
X0047700Y0129096D01*
X0048696Y0128100D01*
X0056096Y0128100D01*
X0037596Y0109600D01*
X0036883Y0109600D01*
X0035927Y0109204D01*
X0035196Y0108473D01*
X0034800Y0107517D01*
X0034800Y0106483D01*
X0035196Y0105527D01*
X0035927Y0104796D01*
X0036883Y0104400D01*
X0037917Y0104400D01*
X0038873Y0104796D01*
X0039604Y0105527D01*
X0040000Y0106483D01*
X0040000Y0107196D01*
X0040200Y0107396D01*
X0040200Y0106483D01*
X0040596Y0105527D01*
X0041327Y0104796D01*
X0042283Y0104400D01*
X0043317Y0104400D01*
X0044273Y0104796D01*
X0045004Y0105527D01*
X0045400Y0106483D01*
X0045400Y0107517D01*
X0045004Y0108473D01*
X0044500Y0108977D01*
X0044500Y0109896D01*
X0060304Y0125700D01*
X0075096Y0125700D01*
X0075300Y0125496D01*
X0076296Y0124500D01*
X0081896Y0124500D01*
X0075900Y0118504D01*
X0075900Y0117304D01*
X0020700Y0062104D01*
X0020700Y0056777D01*
X0020196Y0056273D01*
X0019800Y0055317D01*
X0019800Y0054604D01*
X0018696Y0053500D01*
X0018377Y0053500D01*
X0017873Y0054004D01*
X0016917Y0054400D01*
X0015883Y0054400D01*
X0014927Y0054004D01*
X0014196Y0053273D01*
X0013800Y0052317D01*
X0013800Y0051283D01*
X0014196Y0050327D01*
X0014927Y0049596D01*
X0015883Y0049200D01*
X0016917Y0049200D01*
X0017873Y0049596D01*
X0018377Y0050100D01*
X0020104Y0050100D01*
X0021100Y0051096D01*
X0022204Y0052200D01*
X0022917Y0052200D01*
X0023873Y0052596D01*
X0024604Y0053327D01*
X0025000Y0054283D01*
X0025000Y0055317D01*
X0024604Y0056273D01*
X0024100Y0056777D01*
X0024100Y0060696D01*
X0078304Y0114900D01*
X0079300Y0115896D01*
X0079300Y0117096D01*
X0084904Y0122700D01*
X0086104Y0122700D01*
X0092264Y0128859D01*
X0092927Y0128196D01*
X0093883Y0127800D01*
X0094917Y0127800D01*
X0095538Y0128057D01*
X0097500Y0126096D01*
X0097500Y0121296D01*
X0099900Y0118896D01*
X0099900Y0092689D01*
X0099465Y0092689D01*
X0098477Y0092280D01*
X0097720Y0091523D01*
X0097311Y0090535D01*
X0097311Y0089465D01*
X0097720Y0088477D01*
X0098477Y0087720D01*
X0099465Y0087311D01*
X0100002Y0087311D01*
X0102311Y0085002D01*
X0102311Y0084465D01*
X0102720Y0083477D01*
X0103477Y0082720D01*
X0104465Y0082311D01*
X0105535Y0082311D01*
X0106523Y0082720D01*
X0107280Y0083477D01*
X0107689Y0084465D01*
X0107689Y0084707D01*
X0107700Y0084696D01*
X0107700Y0076474D01*
X0107311Y0075535D01*
X0107311Y0074465D01*
X0107720Y0073477D01*
X0108477Y0072720D01*
X0109465Y0072311D01*
X0110535Y0072311D01*
X0111523Y0072720D01*
X0112280Y0073477D01*
X0112689Y0074465D01*
X0112689Y0075535D01*
X0112280Y0076523D01*
X0111523Y0077280D01*
X0111100Y0077455D01*
X0111100Y0083700D01*
X0118823Y0083700D01*
X0119327Y0083196D01*
X0120283Y0082800D01*
X0121317Y0082800D01*
X0122273Y0083196D01*
X0123004Y0083927D01*
X0123400Y0084883D01*
X0123400Y0085917D01*
X0123004Y0086873D01*
X0122273Y0087604D01*
X0121317Y0088000D01*
X0120283Y0088000D01*
X0119327Y0087604D01*
X0118823Y0087100D01*
X0111904Y0087100D01*
X0107941Y0091064D01*
X0108604Y0091727D01*
X0109000Y0092683D01*
X0109000Y0093717D01*
X0108604Y0094673D01*
X0107873Y0095404D01*
X0106917Y0095800D01*
X0105883Y0095800D01*
X0105700Y0095724D01*
X0105700Y0097577D01*
X0105846Y0097224D01*
X0107224Y0095846D01*
X0109025Y0095100D01*
X0110975Y0095100D01*
X0112776Y0095846D01*
X0114154Y0097224D01*
X0114900Y0099025D01*
X0114900Y0100975D01*
X0114154Y0102776D01*
X0112776Y0104154D01*
X0110975Y0104900D01*
X0109025Y0104900D01*
X0107224Y0104154D01*
X0105846Y0102776D01*
X0105700Y0102423D01*
X0105700Y0118500D01*
X0107496Y0118500D01*
X0121182Y0104814D01*
X0120975Y0104900D01*
X0119025Y0104900D01*
X0117224Y0104154D01*
X0115846Y0102776D01*
X0115100Y0100975D01*
X0115100Y0099025D01*
X0115846Y0097224D01*
X0117224Y0095846D01*
X0119025Y0095100D01*
X0120975Y0095100D01*
X0122776Y0095846D01*
X0124063Y0097133D01*
X0132856Y0088340D01*
X0132527Y0088204D01*
X0131796Y0087473D01*
X0131400Y0086517D01*
X0131400Y0085483D01*
X0131796Y0084527D01*
X0132527Y0083796D01*
X0133483Y0083400D01*
X0134517Y0083400D01*
X0135473Y0083796D01*
X0136204Y0084527D01*
X0136340Y0084856D01*
X0139982Y0081213D01*
X0139900Y0081014D01*
X0139900Y0078986D01*
X0140676Y0077111D01*
X0142111Y0075676D01*
X0143986Y0074900D01*
X0146014Y0074900D01*
X0147889Y0075676D01*
X0149324Y0077111D01*
X0149816Y0078300D01*
X0150184Y0078300D01*
X0150676Y0077111D01*
X0152111Y0075676D01*
X0153986Y0074900D01*
X0156014Y0074900D01*
X0157889Y0075676D01*
X0159300Y0077088D01*
X0159300Y0046896D01*
X0162680Y0043516D01*
X0162100Y0042114D01*
X0162100Y0040086D01*
X0162876Y0038211D01*
X0164311Y0036776D01*
X0166186Y0036000D01*
X0168214Y0036000D01*
X0170089Y0036776D01*
X0171524Y0038211D01*
X0172300Y0040086D01*
X0172300Y0042114D01*
X0171524Y0043989D01*
X0170089Y0045424D01*
X0168214Y0046200D01*
X0166186Y0046200D01*
X0165209Y0045795D01*
X0162700Y0048304D01*
X0162700Y0054296D01*
X0164496Y0052500D01*
X0165096Y0052500D01*
X0188311Y0029285D01*
X0188311Y0028465D01*
X0188720Y0027477D01*
X0189477Y0026720D01*
X0190465Y0026311D01*
X0191535Y0026311D01*
X0192523Y0026720D01*
X0193280Y0027477D01*
X0193689Y0028465D01*
X0193689Y0029535D01*
X0193280Y0030523D01*
X0192523Y0031280D01*
X0191535Y0031689D01*
X0190715Y0031689D01*
X0168490Y0053914D01*
X0170089Y0054576D01*
X0171524Y0056011D01*
X0172300Y0057886D01*
X0172300Y0059914D01*
X0171895Y0060891D01*
X0174304Y0063300D01*
X0190096Y0063300D01*
X0189911Y0063224D01*
X0188476Y0061789D01*
X0187700Y0059914D01*
X0187700Y0057886D01*
X0188476Y0056011D01*
X0189911Y0054576D01*
X0191786Y0053800D01*
X0193814Y0053800D01*
X0195689Y0054576D01*
X0197124Y0056011D01*
X0197900Y0057886D01*
X0197900Y0059914D01*
X0197124Y0061789D01*
X0195689Y0063224D01*
X0193814Y0064000D01*
X0191804Y0064000D01*
X0192100Y0064296D01*
X0200264Y0072459D01*
X0200927Y0071796D01*
X0201883Y0071400D01*
X0202596Y0071400D01*
X0203300Y0070696D01*
X0203300Y0032103D01*
X0202720Y0031523D01*
X0202311Y0030535D01*
X0202311Y0029465D01*
X0202720Y0028477D01*
X0203477Y0027720D01*
X0204465Y0027311D01*
X0205535Y0027311D01*
X0206523Y0027720D01*
X0207280Y0028477D01*
X0207689Y0029465D01*
X0207689Y0030535D01*
X0207280Y0031523D01*
X0206700Y0032103D01*
X0206700Y0072104D01*
X0205704Y0073100D01*
X0205000Y0073804D01*
X0205000Y0074517D01*
X0204604Y0075473D01*
X0203941Y0076136D01*
X0214500Y0086696D01*
X0214500Y0078561D01*
X0213799Y0078561D01*
X0212944Y0078425D01*
X0212121Y0078158D01*
X0211350Y0077765D01*
X0210649Y0077256D01*
X0210485Y0077091D01*
X0214232Y0073344D01*
X0213949Y0073061D01*
X0210202Y0076808D01*
X0210037Y0076644D01*
X0209528Y0075943D01*
X0209135Y0075172D01*
X0208868Y0074349D01*
X0208732Y0073494D01*
X0208732Y0072628D01*
X0208868Y0071773D01*
X0209135Y0070949D01*
X0209528Y0070178D01*
X0210037Y0069478D01*
X0210202Y0069313D01*
X0213949Y0073061D01*
X0214232Y0072778D01*
X0210485Y0069030D01*
X0210649Y0068865D01*
X0211350Y0068357D01*
X0212121Y0067964D01*
X0212944Y0067696D01*
X0213799Y0067561D01*
X0214665Y0067561D01*
X0215520Y0067696D01*
X0216343Y0067964D01*
X0217115Y0068357D01*
X0217815Y0068865D01*
X0217980Y0069030D01*
X0214232Y0072778D01*
X0214515Y0073061D01*
X0218263Y0069313D01*
X0218427Y0069478D01*
X0218936Y0070178D01*
X0219329Y0070949D01*
X0219597Y0071773D01*
X0219682Y0072313D01*
X0223500Y0068496D01*
X0223500Y0030696D01*
X0224496Y0029700D01*
X0225696Y0028500D01*
X0232111Y0028500D01*
X0232111Y0027865D01*
X0232520Y0026877D01*
X0233277Y0026120D01*
X0234265Y0025711D01*
X0235335Y0025711D01*
X0236323Y0026120D01*
X0237080Y0026877D01*
X0237489Y0027865D01*
X0237489Y0028935D01*
X0237080Y0029923D01*
X0236323Y0030680D01*
X0235335Y0031089D01*
X0234515Y0031089D01*
X0233704Y0031900D01*
X0232662Y0031900D01*
X0232689Y0031965D01*
X0232689Y0033035D01*
X0232280Y0034023D01*
X0231700Y0034603D01*
X0231700Y0047897D01*
X0232280Y0048477D01*
X0232689Y0049465D01*
X0232689Y0050535D01*
X0232280Y0051523D01*
X0232689Y0049758D02*
X0273200Y0049758D01*
X0273200Y0048160D02*
X0231963Y0048160D01*
X0231700Y0046561D02*
X0273200Y0046561D01*
X0273200Y0044963D02*
X0241150Y0044963D01*
X0240689Y0045424D02*
X0242124Y0043989D01*
X0242900Y0042114D01*
X0242900Y0040086D01*
X0242124Y0038211D01*
X0240689Y0036776D01*
X0238814Y0036000D01*
X0236786Y0036000D01*
X0234911Y0036776D01*
X0233476Y0038211D01*
X0232700Y0040086D01*
X0232700Y0042114D01*
X0233476Y0043989D01*
X0234911Y0045424D01*
X0236786Y0046200D01*
X0238814Y0046200D01*
X0240689Y0045424D01*
X0242382Y0043364D02*
X0273200Y0043364D01*
X0273200Y0041766D02*
X0268801Y0041766D01*
X0269365Y0041532D02*
X0266533Y0042705D01*
X0263467Y0042705D01*
X0260635Y0041532D01*
X0258468Y0039365D01*
X0257294Y0036533D01*
X0257294Y0033467D01*
X0258468Y0030635D01*
X0260635Y0028468D01*
X0263467Y0027294D01*
X0266533Y0027294D01*
X0269365Y0028468D01*
X0271532Y0030635D01*
X0272705Y0033467D01*
X0272705Y0036533D01*
X0271532Y0039365D01*
X0269365Y0041532D01*
X0270730Y0040167D02*
X0273200Y0040167D01*
X0273200Y0038569D02*
X0271862Y0038569D01*
X0272524Y0036970D02*
X0273200Y0036970D01*
X0273200Y0035372D02*
X0272705Y0035372D01*
X0272705Y0033773D02*
X0273200Y0033773D01*
X0273200Y0032175D02*
X0272170Y0032175D01*
X0271473Y0030576D02*
X0273200Y0030576D01*
X0273200Y0028978D02*
X0269875Y0028978D01*
X0266737Y0027379D02*
X0273200Y0027379D01*
X0273200Y0025781D02*
X0235503Y0025781D01*
X0234097Y0025781D02*
X0156700Y0025781D01*
X0156700Y0026897D02*
X0157280Y0027477D01*
X0157689Y0028465D01*
X0157689Y0029535D01*
X0157280Y0030523D01*
X0156523Y0031280D01*
X0155535Y0031689D01*
X0154465Y0031689D01*
X0153477Y0031280D01*
X0152720Y0030523D01*
X0152311Y0029535D01*
X0152311Y0028465D01*
X0152720Y0027477D01*
X0153300Y0026897D01*
X0153300Y0019700D01*
X0153053Y0019700D01*
X0150300Y0016947D01*
X0150300Y0013053D01*
X0153053Y0010300D01*
X0156947Y0010300D01*
X0159700Y0013053D01*
X0159700Y0016947D01*
X0156947Y0019700D01*
X0156700Y0019700D01*
X0156700Y0026897D01*
X0157182Y0027379D02*
X0188818Y0027379D01*
X0188311Y0028978D02*
X0157689Y0028978D01*
X0157227Y0030576D02*
X0187020Y0030576D01*
X0185421Y0032175D02*
X0106700Y0032175D01*
X0106700Y0033773D02*
X0183823Y0033773D01*
X0182224Y0035372D02*
X0106700Y0035372D01*
X0106700Y0036970D02*
X0119117Y0036970D01*
X0119311Y0036776D02*
X0121186Y0036000D01*
X0123214Y0036000D01*
X0125089Y0036776D01*
X0126524Y0038211D01*
X0127300Y0040086D01*
X0127300Y0042114D01*
X0126524Y0043989D01*
X0125089Y0045424D01*
X0123214Y0046200D01*
X0121186Y0046200D01*
X0120197Y0045790D01*
X0114087Y0051900D01*
X0112513Y0051900D01*
X0112313Y0051700D01*
X0072103Y0051700D01*
X0071523Y0052280D01*
X0070535Y0052689D01*
X0069465Y0052689D01*
X0068477Y0052280D01*
X0067720Y0051523D01*
X0067311Y0050535D01*
X0067311Y0049465D01*
X0067720Y0048477D01*
X0068477Y0047720D01*
X0069465Y0047311D01*
X0070535Y0047311D01*
X0071523Y0047720D01*
X0072103Y0048300D01*
X0112313Y0048300D01*
X0117510Y0043103D01*
X0117100Y0042114D01*
X0117100Y0040086D01*
X0117876Y0038211D01*
X0119311Y0036776D01*
X0117728Y0038569D02*
X0106700Y0038569D01*
X0106700Y0040167D02*
X0117100Y0040167D01*
X0117100Y0041766D02*
X0106700Y0041766D01*
X0106700Y0042897D02*
X0107280Y0043477D01*
X0107689Y0044465D01*
X0107689Y0045535D01*
X0107280Y0046523D01*
X0106523Y0047280D01*
X0105535Y0047689D01*
X0104465Y0047689D01*
X0103477Y0047280D01*
X0102720Y0046523D01*
X0102311Y0045535D01*
X0102311Y0044465D01*
X0102720Y0043477D01*
X0103300Y0042897D01*
X0103300Y0027103D01*
X0102720Y0026523D01*
X0102311Y0025535D01*
X0102311Y0024465D01*
X0102720Y0023477D01*
X0103477Y0022720D01*
X0104465Y0022311D01*
X0105535Y0022311D01*
X0106523Y0022720D01*
X0107280Y0023477D01*
X0107689Y0024465D01*
X0107689Y0025535D01*
X0107280Y0026523D01*
X0106700Y0027103D01*
X0106700Y0042897D01*
X0107167Y0043364D02*
X0117249Y0043364D01*
X0115650Y0044963D02*
X0107689Y0044963D01*
X0107241Y0046561D02*
X0114052Y0046561D01*
X0112453Y0048160D02*
X0071963Y0048160D01*
X0068037Y0048160D02*
X0047347Y0048160D01*
X0047998Y0048811D02*
X0048535Y0048811D01*
X0049523Y0049220D01*
X0050280Y0049977D01*
X0050689Y0050965D01*
X0050689Y0052035D01*
X0050280Y0053023D01*
X0049523Y0053780D01*
X0048535Y0054189D01*
X0047465Y0054189D01*
X0046477Y0053780D01*
X0045720Y0053023D01*
X0045311Y0052035D01*
X0045311Y0051498D01*
X0038600Y0044787D01*
X0038600Y0035903D01*
X0038220Y0035523D01*
X0037811Y0034535D01*
X0037811Y0033465D01*
X0038220Y0032477D01*
X0038977Y0031720D01*
X0039965Y0031311D01*
X0041035Y0031311D01*
X0042023Y0031720D01*
X0042780Y0032477D01*
X0043189Y0033465D01*
X0043189Y0034535D01*
X0042780Y0035523D01*
X0042400Y0035903D01*
X0042400Y0043213D01*
X0047998Y0048811D01*
X0050061Y0049758D02*
X0067311Y0049758D01*
X0067652Y0051357D02*
X0050689Y0051357D01*
X0050308Y0052955D02*
X0159300Y0052955D01*
X0159300Y0051357D02*
X0114630Y0051357D01*
X0116229Y0049758D02*
X0159300Y0049758D01*
X0159300Y0048160D02*
X0117827Y0048160D01*
X0119426Y0046561D02*
X0159635Y0046561D01*
X0161233Y0044963D02*
X0151150Y0044963D01*
X0150689Y0045424D02*
X0148814Y0046200D01*
X0146786Y0046200D01*
X0144911Y0045424D01*
X0143476Y0043989D01*
X0142700Y0042114D01*
X0142700Y0040086D01*
X0143476Y0038211D01*
X0144911Y0036776D01*
X0146786Y0036000D01*
X0148814Y0036000D01*
X0150689Y0036776D01*
X0152124Y0038211D01*
X0152900Y0040086D01*
X0152900Y0042114D01*
X0152124Y0043989D01*
X0150689Y0045424D01*
X0152382Y0043364D02*
X0162618Y0043364D01*
X0162100Y0041766D02*
X0152900Y0041766D01*
X0152900Y0040167D02*
X0162100Y0040167D01*
X0162728Y0038569D02*
X0152272Y0038569D01*
X0150883Y0036970D02*
X0164117Y0036970D01*
X0170283Y0036970D02*
X0180626Y0036970D01*
X0179027Y0038569D02*
X0171672Y0038569D01*
X0172300Y0040167D02*
X0177429Y0040167D01*
X0175830Y0041766D02*
X0172300Y0041766D01*
X0171782Y0043364D02*
X0174232Y0043364D01*
X0172633Y0044963D02*
X0170550Y0044963D01*
X0171035Y0046561D02*
X0164443Y0046561D01*
X0162844Y0048160D02*
X0169436Y0048160D01*
X0167838Y0049758D02*
X0162700Y0049758D01*
X0162700Y0051357D02*
X0166239Y0051357D01*
X0164040Y0052955D02*
X0162700Y0052955D01*
X0159300Y0054554D02*
X0150634Y0054554D01*
X0150689Y0054576D02*
X0152124Y0056011D01*
X0152900Y0057886D01*
X0152900Y0059914D01*
X0152124Y0061789D01*
X0150689Y0063224D01*
X0148814Y0064000D01*
X0146786Y0064000D01*
X0144911Y0063224D01*
X0143476Y0061789D01*
X0142700Y0059914D01*
X0142700Y0057886D01*
X0143476Y0056011D01*
X0144911Y0054576D01*
X0146786Y0053800D01*
X0148814Y0053800D01*
X0150689Y0054576D01*
X0152182Y0056152D02*
X0159300Y0056152D01*
X0159300Y0057751D02*
X0152844Y0057751D01*
X0152900Y0059349D02*
X0159300Y0059349D01*
X0159300Y0060948D02*
X0152472Y0060948D01*
X0151366Y0062546D02*
X0159300Y0062546D01*
X0159300Y0064145D02*
X0085134Y0064145D01*
X0085169Y0064036D02*
X0084912Y0064830D01*
X0084533Y0065573D01*
X0084043Y0066248D01*
X0083453Y0066838D01*
X0082778Y0067328D01*
X0082034Y0067707D01*
X0081241Y0067965D01*
X0080417Y0068095D01*
X0080086Y0068095D01*
X0080086Y0062881D01*
X0085300Y0062881D01*
X0085300Y0063212D01*
X0085169Y0064036D01*
X0085300Y0062709D02*
X0080086Y0062709D01*
X0080086Y0057495D01*
X0080417Y0057495D01*
X0081241Y0057626D01*
X0082034Y0057884D01*
X0082778Y0058262D01*
X0083453Y0058753D01*
X0084043Y0059343D01*
X0084533Y0060017D01*
X0084912Y0060761D01*
X0085169Y0061554D01*
X0085300Y0062378D01*
X0085300Y0062709D01*
X0085300Y0062546D02*
X0118634Y0062546D01*
X0119311Y0063224D02*
X0117876Y0061789D01*
X0117100Y0059914D01*
X0117100Y0057886D01*
X0117876Y0056011D01*
X0119311Y0054576D01*
X0121186Y0053800D01*
X0123214Y0053800D01*
X0125089Y0054576D01*
X0126524Y0056011D01*
X0127300Y0057886D01*
X0127300Y0059914D01*
X0126524Y0061789D01*
X0125089Y0063224D01*
X0123214Y0064000D01*
X0121186Y0064000D01*
X0119311Y0063224D01*
X0117528Y0060948D02*
X0084972Y0060948D01*
X0084048Y0059349D02*
X0117100Y0059349D01*
X0117156Y0057751D02*
X0081626Y0057751D01*
X0080086Y0057751D02*
X0079914Y0057751D01*
X0079914Y0057495D02*
X0079914Y0062709D01*
X0080086Y0062709D01*
X0080086Y0062881D01*
X0079914Y0062881D01*
X0079914Y0062709D01*
X0074700Y0062709D01*
X0074700Y0062378D01*
X0074830Y0061554D01*
X0075088Y0060761D01*
X0075467Y0060017D01*
X0075957Y0059343D01*
X0076547Y0058753D01*
X0077222Y0058262D01*
X0077966Y0057884D01*
X0078759Y0057626D01*
X0079583Y0057495D01*
X0079914Y0057495D01*
X0078374Y0057751D02*
X0071554Y0057751D01*
X0071523Y0057720D02*
X0072280Y0058477D01*
X0072689Y0059465D01*
X0072689Y0060535D01*
X0072280Y0061523D01*
X0071900Y0061903D01*
X0071900Y0065787D01*
X0057689Y0079998D01*
X0057689Y0080535D01*
X0057280Y0081523D01*
X0056523Y0082280D01*
X0055535Y0082689D01*
X0054465Y0082689D01*
X0053477Y0082280D01*
X0052720Y0081523D01*
X0052311Y0080535D01*
X0052311Y0079465D01*
X0052720Y0078477D01*
X0053477Y0077720D01*
X0054465Y0077311D01*
X0055002Y0077311D01*
X0068100Y0064213D01*
X0068100Y0061903D01*
X0067720Y0061523D01*
X0067311Y0060535D01*
X0067311Y0059465D01*
X0067720Y0058477D01*
X0068477Y0057720D01*
X0069465Y0057311D01*
X0070535Y0057311D01*
X0071523Y0057720D01*
X0072641Y0059349D02*
X0075952Y0059349D01*
X0075027Y0060948D02*
X0072518Y0060948D01*
X0071900Y0062546D02*
X0074700Y0062546D01*
X0074700Y0062881D02*
X0079914Y0062881D01*
X0079914Y0068095D01*
X0079583Y0068095D01*
X0078759Y0067965D01*
X0077966Y0067707D01*
X0077222Y0067328D01*
X0076547Y0066838D01*
X0075957Y0066248D01*
X0075467Y0065573D01*
X0075088Y0064830D01*
X0074830Y0064036D01*
X0074700Y0063212D01*
X0074700Y0062881D01*
X0074866Y0064145D02*
X0071900Y0064145D01*
X0071900Y0065743D02*
X0075591Y0065743D01*
X0077249Y0067342D02*
X0070345Y0067342D01*
X0068747Y0068940D02*
X0159300Y0068940D01*
X0159300Y0067342D02*
X0082751Y0067342D01*
X0084409Y0065743D02*
X0159300Y0065743D01*
X0162700Y0065743D02*
X0164739Y0065743D01*
X0164700Y0065704D02*
X0162700Y0063704D01*
X0162700Y0075433D01*
X0163986Y0074900D01*
X0166014Y0074900D01*
X0167889Y0075676D01*
X0169324Y0077111D01*
X0169790Y0078237D01*
X0169903Y0077889D01*
X0170296Y0077117D01*
X0170805Y0076417D01*
X0171417Y0075805D01*
X0172117Y0075296D01*
X0172889Y0074903D01*
X0173712Y0074635D01*
X0174567Y0074500D01*
X0174800Y0074500D01*
X0174800Y0079800D01*
X0175200Y0079800D01*
X0175200Y0080200D01*
X0184800Y0080200D01*
X0184800Y0085500D01*
X0184567Y0085500D01*
X0183712Y0085365D01*
X0182889Y0085097D01*
X0182117Y0084704D01*
X0181417Y0084195D01*
X0180805Y0083583D01*
X0180296Y0082883D01*
X0180000Y0082302D01*
X0179704Y0082883D01*
X0179195Y0083583D01*
X0178583Y0084195D01*
X0177883Y0084704D01*
X0177111Y0085097D01*
X0176288Y0085365D01*
X0175433Y0085500D01*
X0175200Y0085500D01*
X0175200Y0080200D01*
X0174800Y0080200D01*
X0174800Y0085500D01*
X0174567Y0085500D01*
X0173712Y0085365D01*
X0172889Y0085097D01*
X0172117Y0084704D01*
X0171417Y0084195D01*
X0170805Y0083583D01*
X0170296Y0082883D01*
X0169903Y0082111D01*
X0169790Y0081763D01*
X0169324Y0082889D01*
X0167889Y0084324D01*
X0166014Y0085100D01*
X0163986Y0085100D01*
X0162111Y0084324D01*
X0160676Y0082889D01*
X0160184Y0081700D01*
X0159816Y0081700D01*
X0159324Y0082889D01*
X0157889Y0084324D01*
X0156014Y0085100D01*
X0153986Y0085100D01*
X0152111Y0084324D01*
X0150676Y0082889D01*
X0150184Y0081700D01*
X0149816Y0081700D01*
X0149324Y0082889D01*
X0147889Y0084324D01*
X0146014Y0085100D01*
X0143986Y0085100D01*
X0142111Y0084324D01*
X0141896Y0084108D01*
X0137500Y0088504D01*
X0136504Y0089500D01*
X0130904Y0095100D01*
X0130975Y0095100D01*
X0132776Y0095846D01*
X0134154Y0097224D01*
X0134900Y0099025D01*
X0134900Y0100975D01*
X0134154Y0102776D01*
X0132830Y0104100D01*
X0137170Y0104100D01*
X0135846Y0102776D01*
X0135100Y0100975D01*
X0135100Y0099025D01*
X0135846Y0097224D01*
X0136791Y0096279D01*
X0136127Y0096004D01*
X0135396Y0095273D01*
X0135000Y0094317D01*
X0135000Y0093283D01*
X0135396Y0092327D01*
X0136127Y0091596D01*
X0137083Y0091200D01*
X0138117Y0091200D01*
X0139073Y0091596D01*
X0139577Y0092100D01*
X0156304Y0092100D01*
X0159304Y0095100D01*
X0160975Y0095100D01*
X0162776Y0095846D01*
X0164154Y0097224D01*
X0164900Y0099025D01*
X0164900Y0100975D01*
X0164154Y0102776D01*
X0162776Y0104154D01*
X0160975Y0104900D01*
X0159025Y0104900D01*
X0157224Y0104154D01*
X0155846Y0102776D01*
X0155100Y0100975D01*
X0155100Y0099025D01*
X0155846Y0097224D01*
X0156233Y0096837D01*
X0154896Y0095500D01*
X0151940Y0095500D01*
X0152776Y0095846D01*
X0154154Y0097224D01*
X0154900Y0099025D01*
X0154900Y0100975D01*
X0154154Y0102776D01*
X0152776Y0104154D01*
X0150975Y0104900D01*
X0149025Y0104900D01*
X0148798Y0104806D01*
X0148304Y0105300D01*
X0163296Y0105300D01*
X0165838Y0102757D01*
X0165100Y0100975D01*
X0165100Y0099025D01*
X0165846Y0097224D01*
X0167224Y0095846D01*
X0169025Y0095100D01*
X0170975Y0095100D01*
X0172776Y0095846D01*
X0174154Y0097224D01*
X0174900Y0099025D01*
X0174900Y0100975D01*
X0174154Y0102776D01*
X0172776Y0104154D01*
X0170975Y0104900D01*
X0169025Y0104900D01*
X0168657Y0104747D01*
X0164704Y0108700D01*
X0125704Y0108700D01*
X0112300Y0122104D01*
X0112300Y0126304D01*
X0111304Y0127300D01*
X0111100Y0127504D01*
X0111100Y0128704D01*
X0110104Y0129700D01*
X0109600Y0130204D01*
X0109600Y0130917D01*
X0109204Y0131873D01*
X0108473Y0132604D01*
X0107517Y0133000D01*
X0106483Y0133000D01*
X0105527Y0132604D01*
X0105400Y0132477D01*
X0105400Y0133317D01*
X0105004Y0134273D01*
X0104273Y0135004D01*
X0103317Y0135400D01*
X0102283Y0135400D01*
X0101662Y0135143D01*
X0091900Y0144904D01*
X0091900Y0173496D01*
X0093004Y0174600D01*
X0093717Y0174600D01*
X0094673Y0174996D01*
X0095404Y0175727D01*
X0095800Y0176683D01*
X0095800Y0177717D01*
X0095404Y0178673D01*
X0094673Y0179404D01*
X0093717Y0179800D01*
X0092683Y0179800D01*
X0091727Y0179404D01*
X0090996Y0178673D01*
X0090700Y0177959D01*
X0090700Y0181500D01*
X0103904Y0181500D01*
X0104715Y0182311D01*
X0105535Y0182311D01*
X0106523Y0182720D01*
X0107280Y0183477D01*
X0107689Y0184465D01*
X0107689Y0185535D01*
X0107280Y0186523D01*
X0106523Y0187280D01*
X0105535Y0187689D01*
X0104465Y0187689D01*
X0103477Y0187280D01*
X0102720Y0186523D01*
X0102311Y0185535D01*
X0102311Y0184900D01*
X0091900Y0184900D01*
X0091900Y0199296D01*
X0094900Y0202296D01*
X0094900Y0202453D01*
X0097053Y0200300D01*
X0100947Y0200300D01*
X0103700Y0203053D01*
X0103700Y0206947D01*
X0100947Y0209700D01*
X0097053Y0209700D01*
X0094900Y0207547D01*
X0094900Y0207904D01*
X0093904Y0208900D01*
X0089604Y0213200D01*
X0124396Y0213200D01*
X0120896Y0209700D01*
X0117053Y0209700D01*
X0114300Y0206947D01*
X0114300Y0203053D01*
X0117053Y0200300D01*
X0120947Y0200300D01*
X0123700Y0203053D01*
X0123700Y0206947D01*
X0123325Y0207321D01*
X0127504Y0211500D01*
X0207096Y0211500D01*
X0209100Y0209496D01*
X0209100Y0207547D01*
X0206947Y0209700D01*
X0203053Y0209700D01*
X0200300Y0206947D01*
X0200300Y0203053D01*
X0203053Y0200300D01*
X0206947Y0200300D01*
X0209100Y0202453D01*
X0209100Y0183696D01*
X0210451Y0182345D01*
X0209900Y0181014D01*
X0209900Y0178986D01*
X0210676Y0177111D01*
X0212111Y0175676D01*
X0213986Y0174900D01*
X0216014Y0174900D01*
X0217889Y0175676D01*
X0219324Y0177111D01*
X0220000Y0178744D01*
X0220676Y0177111D01*
X0222111Y0175676D01*
X0223986Y0174900D01*
X0226014Y0174900D01*
X0227889Y0175676D01*
X0229324Y0177111D01*
X0229500Y0177537D01*
X0229500Y0168304D01*
X0219696Y0158500D01*
X0218700Y0157504D01*
X0218700Y0142896D01*
X0219696Y0141900D01*
X0219900Y0141696D01*
X0219900Y0125704D01*
X0214296Y0120100D01*
X0213300Y0119104D01*
X0213300Y0090304D01*
X0202900Y0079904D01*
X0202900Y0098104D01*
X0198541Y0102464D01*
X0199204Y0103127D01*
X0199600Y0104083D01*
X0199600Y0105117D01*
X0199204Y0106073D01*
X0198841Y0106436D01*
X0199300Y0106896D01*
X0199300Y0120696D01*
X0201904Y0123300D01*
X0201904Y0123300D01*
X0202900Y0124296D01*
X0202900Y0125704D01*
X0202300Y0126304D01*
X0202300Y0133504D01*
X0169900Y0165904D01*
X0169008Y0166796D01*
X0169324Y0167111D01*
X0170000Y0168744D01*
X0170676Y0167111D01*
X0172111Y0165676D01*
X0173986Y0164900D01*
X0176014Y0164900D01*
X0177889Y0165676D01*
X0179324Y0167111D01*
X0180000Y0168744D01*
X0180676Y0167111D01*
X0182111Y0165676D01*
X0183986Y0164900D01*
X0186014Y0164900D01*
X0187889Y0165676D01*
X0189324Y0167111D01*
X0190000Y0168744D01*
X0190676Y0167111D01*
X0192111Y0165676D01*
X0193986Y0164900D01*
X0196014Y0164900D01*
X0197889Y0165676D01*
X0199324Y0167111D01*
X0200100Y0168986D01*
X0200100Y0171014D01*
X0199324Y0172889D01*
X0197889Y0174324D01*
X0196014Y0175100D01*
X0193986Y0175100D01*
X0192111Y0174324D01*
X0190676Y0172889D01*
X0190000Y0171256D01*
X0189324Y0172889D01*
X0187889Y0174324D01*
X0186014Y0175100D01*
X0183986Y0175100D01*
X0182111Y0174324D01*
X0180676Y0172889D01*
X0180000Y0171256D01*
X0179324Y0172889D01*
X0177889Y0174324D01*
X0176014Y0175100D01*
X0173986Y0175100D01*
X0172111Y0174324D01*
X0170676Y0172889D01*
X0170000Y0171256D01*
X0169324Y0172889D01*
X0167889Y0174324D01*
X0166014Y0175100D01*
X0163986Y0175100D01*
X0162111Y0174324D01*
X0160676Y0172889D01*
X0160000Y0171256D01*
X0159324Y0172889D01*
X0157889Y0174324D01*
X0156014Y0175100D01*
X0154104Y0175100D01*
X0151504Y0177700D01*
X0138696Y0177700D01*
X0137700Y0176704D01*
X0123900Y0162904D01*
X0123900Y0152777D01*
X0123464Y0152341D01*
X0121700Y0154104D01*
X0121700Y0182897D01*
X0122280Y0183477D01*
X0122689Y0184465D01*
X0122689Y0185535D01*
X0122280Y0186523D01*
X0121523Y0187280D01*
X0120535Y0187689D01*
X0119465Y0187689D01*
X0118477Y0187280D01*
X0117720Y0186523D01*
X0117311Y0185535D01*
X0117311Y0184465D01*
X0117720Y0183477D01*
X0118300Y0182897D01*
X0118300Y0152696D01*
X0121456Y0149540D01*
X0121127Y0149404D01*
X0120396Y0148673D01*
X0120000Y0147717D01*
X0120000Y0146683D01*
X0120396Y0145727D01*
X0121127Y0144996D01*
X0122083Y0144600D01*
X0123117Y0144600D01*
X0124073Y0144996D01*
X0124136Y0145059D01*
X0126133Y0143063D01*
X0125846Y0142776D01*
X0125100Y0140975D01*
X0125100Y0139025D01*
X0125846Y0137224D01*
X0127224Y0135846D01*
X0129025Y0135100D01*
X0130975Y0135100D01*
X0132776Y0135846D01*
X0134154Y0137224D01*
X0134900Y0139025D01*
X0134900Y0140975D01*
X0134154Y0142776D01*
X0132776Y0144154D01*
X0132423Y0144300D01*
X0137577Y0144300D01*
X0137224Y0144154D01*
X0135846Y0142776D01*
X0135100Y0140975D01*
X0135100Y0139025D01*
X0135846Y0137224D01*
X0137224Y0135846D01*
X0139025Y0135100D01*
X0140975Y0135100D01*
X0142776Y0135846D01*
X0144154Y0137224D01*
X0144900Y0139025D01*
X0144900Y0140975D01*
X0144154Y0142776D01*
X0142776Y0144154D01*
X0142423Y0144300D01*
X0147577Y0144300D01*
X0147224Y0144154D01*
X0145846Y0142776D01*
X0145100Y0140975D01*
X0145100Y0139025D01*
X0145846Y0137224D01*
X0147224Y0135846D01*
X0149025Y0135100D01*
X0150975Y0135100D01*
X0152776Y0135846D01*
X0154154Y0137224D01*
X0154900Y0139025D01*
X0154900Y0140975D01*
X0154154Y0142776D01*
X0152776Y0144154D01*
X0152423Y0144300D01*
X0154896Y0144300D01*
X0156133Y0143063D01*
X0155846Y0142776D01*
X0155100Y0140975D01*
X0155100Y0139025D01*
X0155846Y0137224D01*
X0157224Y0135846D01*
X0159025Y0135100D01*
X0160975Y0135100D01*
X0162776Y0135846D01*
X0164154Y0137224D01*
X0164900Y0139025D01*
X0164900Y0140975D01*
X0164154Y0142776D01*
X0162776Y0144154D01*
X0160975Y0144900D01*
X0159104Y0144900D01*
X0156304Y0147700D01*
X0128104Y0147700D01*
X0127141Y0148664D01*
X0127804Y0149327D01*
X0128200Y0150283D01*
X0128200Y0151317D01*
X0127804Y0152273D01*
X0127300Y0152777D01*
X0127300Y0161496D01*
X0140104Y0174300D01*
X0142088Y0174300D01*
X0140676Y0172889D01*
X0139900Y0171014D01*
X0139900Y0168986D01*
X0140676Y0167111D01*
X0142111Y0165676D01*
X0143986Y0164900D01*
X0146014Y0164900D01*
X0146213Y0164982D01*
X0148896Y0162300D01*
X0166896Y0162300D01*
X0197700Y0131496D01*
X0197700Y0127600D01*
X0197683Y0127600D01*
X0196727Y0127204D01*
X0195996Y0126473D01*
X0195600Y0125517D01*
X0195600Y0124483D01*
X0195857Y0123862D01*
X0194700Y0122704D01*
X0194700Y0108904D01*
X0192900Y0107104D01*
X0192900Y0103296D01*
X0193896Y0102300D01*
X0199500Y0096696D01*
X0199500Y0083163D01*
X0199195Y0083583D01*
X0198583Y0084195D01*
X0197883Y0084704D01*
X0197111Y0085097D01*
X0196288Y0085365D01*
X0195433Y0085500D01*
X0195200Y0085500D01*
X0195200Y0080200D01*
X0194800Y0080200D01*
X0194800Y0085500D01*
X0194567Y0085500D01*
X0193712Y0085365D01*
X0192889Y0085097D01*
X0192117Y0084704D01*
X0191417Y0084195D01*
X0190805Y0083583D01*
X0190296Y0082883D01*
X0190000Y0082302D01*
X0189704Y0082883D01*
X0189195Y0083583D01*
X0188583Y0084195D01*
X0187883Y0084704D01*
X0187111Y0085097D01*
X0186288Y0085365D01*
X0185433Y0085500D01*
X0185200Y0085500D01*
X0185200Y0080200D01*
X0194800Y0080200D01*
X0194800Y0079800D01*
X0189500Y0079800D01*
X0185200Y0079800D01*
X0185200Y0080200D01*
X0184800Y0080200D01*
X0184800Y0079800D01*
X0179500Y0079800D01*
X0175200Y0079800D01*
X0175200Y0074500D01*
X0175433Y0074500D01*
X0176288Y0074635D01*
X0177111Y0074903D01*
X0177883Y0075296D01*
X0178583Y0075805D01*
X0179195Y0076417D01*
X0179704Y0077117D01*
X0180000Y0077698D01*
X0180296Y0077117D01*
X0180805Y0076417D01*
X0181417Y0075805D01*
X0182117Y0075296D01*
X0182889Y0074903D01*
X0183712Y0074635D01*
X0184567Y0074500D01*
X0184800Y0074500D01*
X0184800Y0079800D01*
X0185200Y0079800D01*
X0185200Y0074500D01*
X0185433Y0074500D01*
X0186288Y0074635D01*
X0187111Y0074903D01*
X0187883Y0075296D01*
X0188583Y0075805D01*
X0189195Y0076417D01*
X0189704Y0077117D01*
X0190000Y0077698D01*
X0190296Y0077117D01*
X0190805Y0076417D01*
X0191417Y0075805D01*
X0192117Y0075296D01*
X0192889Y0074903D01*
X0193712Y0074635D01*
X0194567Y0074500D01*
X0194800Y0074500D01*
X0194800Y0079800D01*
X0195200Y0079800D01*
X0195200Y0074500D01*
X0195433Y0074500D01*
X0195745Y0074549D01*
X0189096Y0067900D01*
X0172296Y0067900D01*
X0171300Y0066904D01*
X0171096Y0066700D01*
X0165696Y0066700D01*
X0164700Y0065704D01*
X0163141Y0064145D02*
X0162700Y0064145D01*
X0162700Y0067342D02*
X0171738Y0067342D01*
X0173551Y0062546D02*
X0189234Y0062546D01*
X0188128Y0060948D02*
X0171952Y0060948D01*
X0172300Y0059349D02*
X0187700Y0059349D01*
X0187756Y0057751D02*
X0172244Y0057751D01*
X0171582Y0056152D02*
X0188418Y0056152D01*
X0189966Y0054554D02*
X0170034Y0054554D01*
X0169449Y0052955D02*
X0203300Y0052955D01*
X0203300Y0051357D02*
X0171047Y0051357D01*
X0172646Y0049758D02*
X0203300Y0049758D01*
X0203300Y0048160D02*
X0174244Y0048160D01*
X0175843Y0046561D02*
X0203300Y0046561D01*
X0203300Y0044963D02*
X0196150Y0044963D01*
X0195689Y0045424D02*
X0193814Y0046200D01*
X0191786Y0046200D01*
X0189911Y0045424D01*
X0188476Y0043989D01*
X0187700Y0042114D01*
X0187700Y0040086D01*
X0188476Y0038211D01*
X0189911Y0036776D01*
X0191786Y0036000D01*
X0193814Y0036000D01*
X0195689Y0036776D01*
X0197124Y0038211D01*
X0197900Y0040086D01*
X0197900Y0042114D01*
X0197124Y0043989D01*
X0195689Y0045424D01*
X0197382Y0043364D02*
X0203300Y0043364D01*
X0203300Y0041766D02*
X0197900Y0041766D01*
X0197900Y0040167D02*
X0203300Y0040167D01*
X0203300Y0038569D02*
X0197272Y0038569D01*
X0195883Y0036970D02*
X0203300Y0036970D01*
X0203300Y0035372D02*
X0187032Y0035372D01*
X0185434Y0036970D02*
X0189717Y0036970D01*
X0188328Y0038569D02*
X0183835Y0038569D01*
X0182237Y0040167D02*
X0187700Y0040167D01*
X0187700Y0041766D02*
X0180638Y0041766D01*
X0179040Y0043364D02*
X0188218Y0043364D01*
X0189450Y0044963D02*
X0177441Y0044963D01*
X0188631Y0033773D02*
X0203300Y0033773D01*
X0203300Y0032175D02*
X0190229Y0032175D01*
X0193227Y0030576D02*
X0202328Y0030576D01*
X0202513Y0028978D02*
X0193689Y0028978D01*
X0193182Y0027379D02*
X0204301Y0027379D01*
X0205699Y0027379D02*
X0232312Y0027379D01*
X0232689Y0032175D02*
X0257830Y0032175D01*
X0257294Y0033773D02*
X0232383Y0033773D01*
X0231700Y0035372D02*
X0257294Y0035372D01*
X0257476Y0036970D02*
X0240883Y0036970D01*
X0242272Y0038569D02*
X0258138Y0038569D01*
X0259270Y0040167D02*
X0242900Y0040167D01*
X0242900Y0041766D02*
X0261199Y0041766D01*
X0258527Y0030576D02*
X0236427Y0030576D01*
X0237471Y0028978D02*
X0260125Y0028978D01*
X0263263Y0027379D02*
X0237288Y0027379D01*
X0236947Y0019700D02*
X0233053Y0019700D01*
X0230300Y0016947D01*
X0230300Y0013053D01*
X0233053Y0010300D01*
X0236947Y0010300D01*
X0239700Y0013053D01*
X0239700Y0016947D01*
X0236947Y0019700D01*
X0237260Y0019387D02*
X0242740Y0019387D01*
X0243053Y0019700D02*
X0240300Y0016947D01*
X0240300Y0013053D01*
X0243053Y0010300D01*
X0246947Y0010300D01*
X0249700Y0013053D01*
X0249700Y0016947D01*
X0246947Y0019700D01*
X0243053Y0019700D01*
X0241141Y0017788D02*
X0238859Y0017788D01*
X0239700Y0016190D02*
X0240300Y0016190D01*
X0240300Y0014591D02*
X0239700Y0014591D01*
X0239639Y0012993D02*
X0240361Y0012993D01*
X0241959Y0011394D02*
X0238041Y0011394D01*
X0231959Y0011394D02*
X0228041Y0011394D01*
X0229639Y0012993D02*
X0230361Y0012993D01*
X0230300Y0014591D02*
X0229700Y0014591D01*
X0229700Y0016190D02*
X0230300Y0016190D01*
X0231141Y0017788D02*
X0228859Y0017788D01*
X0227260Y0019387D02*
X0232740Y0019387D01*
X0222740Y0019387D02*
X0217260Y0019387D01*
X0218859Y0017788D02*
X0221141Y0017788D01*
X0220300Y0016190D02*
X0219700Y0016190D01*
X0219700Y0014591D02*
X0220300Y0014591D01*
X0220361Y0012993D02*
X0219639Y0012993D01*
X0220190Y0011394D02*
X0218041Y0011394D01*
X0218591Y0009796D02*
X0212600Y0009796D01*
X0209390Y0011394D02*
X0208041Y0011394D01*
X0206947Y0010300D02*
X0209700Y0013053D01*
X0209700Y0016947D01*
X0206947Y0019700D01*
X0203053Y0019700D01*
X0200300Y0016947D01*
X0200300Y0013053D01*
X0203053Y0010300D01*
X0206947Y0010300D01*
X0207791Y0009796D02*
X0201809Y0009796D01*
X0201959Y0011394D02*
X0200210Y0011394D01*
X0200361Y0012993D02*
X0198612Y0012993D01*
X0197013Y0014591D02*
X0200300Y0014591D01*
X0200300Y0016190D02*
X0195415Y0016190D01*
X0193816Y0017788D02*
X0201141Y0017788D01*
X0202740Y0019387D02*
X0193189Y0019387D01*
X0193689Y0020985D02*
X0268440Y0020985D01*
X0270038Y0022584D02*
X0193219Y0022584D01*
X0188781Y0022584D02*
X0156700Y0022584D01*
X0156700Y0024182D02*
X0271637Y0024182D01*
X0266841Y0019387D02*
X0257260Y0019387D01*
X0256947Y0019700D02*
X0253053Y0019700D01*
X0250300Y0016947D01*
X0250300Y0013053D01*
X0253053Y0010300D01*
X0256947Y0010300D01*
X0259700Y0013053D01*
X0259700Y0016947D01*
X0256947Y0019700D01*
X0258859Y0017788D02*
X0265243Y0017788D01*
X0263644Y0016190D02*
X0259700Y0016190D01*
X0259700Y0014591D02*
X0263200Y0014591D01*
X0263200Y0012993D02*
X0259639Y0012993D01*
X0258041Y0011394D02*
X0263200Y0011394D01*
X0263200Y0009796D02*
X0223400Y0009796D01*
X0221801Y0008197D02*
X0263200Y0008197D01*
X0251959Y0011394D02*
X0248041Y0011394D01*
X0249639Y0012993D02*
X0250361Y0012993D01*
X0250300Y0014591D02*
X0249700Y0014591D01*
X0249700Y0016190D02*
X0250300Y0016190D01*
X0251141Y0017788D02*
X0248859Y0017788D01*
X0247260Y0019387D02*
X0252740Y0019387D01*
X0234717Y0036970D02*
X0231700Y0036970D01*
X0231700Y0038569D02*
X0233328Y0038569D01*
X0232700Y0040167D02*
X0231700Y0040167D01*
X0231700Y0041766D02*
X0232700Y0041766D01*
X0233218Y0043364D02*
X0231700Y0043364D01*
X0231700Y0044963D02*
X0234450Y0044963D01*
X0223500Y0044963D02*
X0215550Y0044963D01*
X0215089Y0045424D02*
X0213214Y0046200D01*
X0211186Y0046200D01*
X0209311Y0045424D01*
X0207876Y0043989D01*
X0207100Y0042114D01*
X0207100Y0040086D01*
X0207876Y0038211D01*
X0209311Y0036776D01*
X0211186Y0036000D01*
X0213214Y0036000D01*
X0215089Y0036776D01*
X0216524Y0038211D01*
X0217300Y0040086D01*
X0217300Y0042114D01*
X0216524Y0043989D01*
X0215089Y0045424D01*
X0216782Y0043364D02*
X0223500Y0043364D01*
X0223500Y0041766D02*
X0217300Y0041766D01*
X0217300Y0040167D02*
X0223500Y0040167D01*
X0223500Y0038569D02*
X0216672Y0038569D01*
X0215283Y0036970D02*
X0223500Y0036970D01*
X0223500Y0035372D02*
X0206700Y0035372D01*
X0206700Y0036970D02*
X0209117Y0036970D01*
X0207728Y0038569D02*
X0206700Y0038569D01*
X0206700Y0040167D02*
X0207100Y0040167D01*
X0207100Y0041766D02*
X0206700Y0041766D01*
X0206700Y0043364D02*
X0207618Y0043364D01*
X0206700Y0044963D02*
X0208850Y0044963D01*
X0206700Y0046561D02*
X0223500Y0046561D01*
X0223500Y0048160D02*
X0206700Y0048160D01*
X0206700Y0049758D02*
X0223500Y0049758D01*
X0223500Y0051357D02*
X0206700Y0051357D01*
X0206700Y0052955D02*
X0223500Y0052955D01*
X0223500Y0054554D02*
X0215034Y0054554D01*
X0215089Y0054576D02*
X0216524Y0056011D01*
X0217300Y0057886D01*
X0217300Y0059914D01*
X0216524Y0061789D01*
X0215089Y0063224D01*
X0213214Y0064000D01*
X0211186Y0064000D01*
X0209311Y0063224D01*
X0207876Y0061789D01*
X0207100Y0059914D01*
X0207100Y0057886D01*
X0207876Y0056011D01*
X0209311Y0054576D01*
X0211186Y0053800D01*
X0213214Y0053800D01*
X0215089Y0054576D01*
X0216582Y0056152D02*
X0223500Y0056152D01*
X0223500Y0057751D02*
X0217244Y0057751D01*
X0217300Y0059349D02*
X0223500Y0059349D01*
X0223500Y0060948D02*
X0216872Y0060948D01*
X0215766Y0062546D02*
X0223500Y0062546D01*
X0223500Y0064145D02*
X0206700Y0064145D01*
X0206700Y0065743D02*
X0223500Y0065743D01*
X0223500Y0067342D02*
X0206700Y0067342D01*
X0206700Y0068940D02*
X0210574Y0068940D01*
X0211428Y0070539D02*
X0211993Y0070539D01*
X0213026Y0072137D02*
X0213592Y0072137D01*
X0214873Y0072137D02*
X0215438Y0072137D01*
X0216471Y0070539D02*
X0217037Y0070539D01*
X0217890Y0068940D02*
X0223055Y0068940D01*
X0221457Y0070539D02*
X0219120Y0070539D01*
X0219655Y0072137D02*
X0219858Y0072137D01*
X0213840Y0073736D02*
X0213274Y0073736D01*
X0212241Y0075334D02*
X0211676Y0075334D01*
X0210643Y0076933D02*
X0204737Y0076933D01*
X0204661Y0075334D02*
X0209218Y0075334D01*
X0208771Y0073736D02*
X0205068Y0073736D01*
X0206667Y0072137D02*
X0208810Y0072137D01*
X0209344Y0070539D02*
X0206700Y0070539D01*
X0203300Y0070539D02*
X0198343Y0070539D01*
X0196745Y0068940D02*
X0203300Y0068940D01*
X0203300Y0067342D02*
X0195146Y0067342D01*
X0193548Y0065743D02*
X0203300Y0065743D01*
X0203300Y0064145D02*
X0191949Y0064145D01*
X0196366Y0062546D02*
X0203300Y0062546D01*
X0203300Y0060948D02*
X0197472Y0060948D01*
X0197900Y0059349D02*
X0203300Y0059349D01*
X0203300Y0057751D02*
X0197844Y0057751D01*
X0197182Y0056152D02*
X0203300Y0056152D01*
X0203300Y0054554D02*
X0195634Y0054554D01*
X0206700Y0054554D02*
X0209366Y0054554D01*
X0207818Y0056152D02*
X0206700Y0056152D01*
X0206700Y0057751D02*
X0207156Y0057751D01*
X0207100Y0059349D02*
X0206700Y0059349D01*
X0206700Y0060948D02*
X0207528Y0060948D01*
X0206700Y0062546D02*
X0208634Y0062546D01*
X0200586Y0072137D02*
X0199942Y0072137D01*
X0194932Y0073736D02*
X0162700Y0073736D01*
X0162700Y0075334D02*
X0162937Y0075334D01*
X0162700Y0072137D02*
X0193333Y0072137D01*
X0191735Y0070539D02*
X0162700Y0070539D01*
X0162700Y0068940D02*
X0190136Y0068940D01*
X0192064Y0075334D02*
X0187936Y0075334D01*
X0189570Y0076933D02*
X0190430Y0076933D01*
X0194800Y0076933D02*
X0195200Y0076933D01*
X0195200Y0075334D02*
X0194800Y0075334D01*
X0194800Y0078532D02*
X0195200Y0078532D01*
X0194800Y0080130D02*
X0185200Y0080130D01*
X0184800Y0080130D02*
X0175200Y0080130D01*
X0175200Y0078532D02*
X0174800Y0078532D01*
X0174800Y0076933D02*
X0175200Y0076933D01*
X0175200Y0075334D02*
X0174800Y0075334D01*
X0172064Y0075334D02*
X0167063Y0075334D01*
X0169145Y0076933D02*
X0170430Y0076933D01*
X0174800Y0081729D02*
X0175200Y0081729D01*
X0175200Y0083327D02*
X0174800Y0083327D01*
X0174800Y0084926D02*
X0175200Y0084926D01*
X0177448Y0084926D02*
X0182552Y0084926D01*
X0184800Y0084926D02*
X0185200Y0084926D01*
X0185200Y0083327D02*
X0184800Y0083327D01*
X0184800Y0081729D02*
X0185200Y0081729D01*
X0185200Y0078532D02*
X0184800Y0078532D01*
X0184800Y0076933D02*
X0185200Y0076933D01*
X0185200Y0075334D02*
X0184800Y0075334D01*
X0182064Y0075334D02*
X0177936Y0075334D01*
X0179570Y0076933D02*
X0180430Y0076933D01*
X0180619Y0083327D02*
X0179381Y0083327D01*
X0172552Y0084926D02*
X0166436Y0084926D01*
X0163564Y0084926D02*
X0156436Y0084926D01*
X0153564Y0084926D02*
X0146436Y0084926D01*
X0143564Y0084926D02*
X0141079Y0084926D01*
X0139480Y0086524D02*
X0199500Y0086524D01*
X0199500Y0084926D02*
X0197448Y0084926D01*
X0195200Y0084926D02*
X0194800Y0084926D01*
X0194800Y0083327D02*
X0195200Y0083327D01*
X0195200Y0081729D02*
X0194800Y0081729D01*
X0192552Y0084926D02*
X0187448Y0084926D01*
X0189381Y0083327D02*
X0190619Y0083327D01*
X0199381Y0083327D02*
X0199500Y0083327D01*
X0202900Y0083327D02*
X0206323Y0083327D01*
X0207921Y0084926D02*
X0202900Y0084926D01*
X0202900Y0086524D02*
X0209520Y0086524D01*
X0211118Y0088123D02*
X0202900Y0088123D01*
X0202900Y0089721D02*
X0212717Y0089721D01*
X0213300Y0091320D02*
X0202900Y0091320D01*
X0202900Y0092918D02*
X0213300Y0092918D01*
X0213300Y0094517D02*
X0202900Y0094517D01*
X0202900Y0096115D02*
X0213300Y0096115D01*
X0213300Y0097714D02*
X0202900Y0097714D01*
X0201692Y0099312D02*
X0213300Y0099312D01*
X0213300Y0100911D02*
X0200093Y0100911D01*
X0198586Y0102509D02*
X0213300Y0102509D01*
X0213300Y0104108D02*
X0199600Y0104108D01*
X0199356Y0105706D02*
X0213300Y0105706D01*
X0213300Y0107305D02*
X0199300Y0107305D01*
X0199300Y0108903D02*
X0213300Y0108903D01*
X0213300Y0110502D02*
X0199300Y0110502D01*
X0199300Y0112100D02*
X0213300Y0112100D01*
X0213300Y0113699D02*
X0199300Y0113699D01*
X0199300Y0115297D02*
X0213300Y0115297D01*
X0213300Y0116896D02*
X0199300Y0116896D01*
X0199300Y0118494D02*
X0213300Y0118494D01*
X0214289Y0120093D02*
X0199300Y0120093D01*
X0200295Y0121691D02*
X0215887Y0121691D01*
X0217486Y0123290D02*
X0201894Y0123290D01*
X0202900Y0124888D02*
X0219084Y0124888D01*
X0219900Y0126487D02*
X0202300Y0126487D01*
X0202300Y0128085D02*
X0219900Y0128085D01*
X0219900Y0129684D02*
X0202300Y0129684D01*
X0202300Y0131282D02*
X0219900Y0131282D01*
X0219900Y0132881D02*
X0202300Y0132881D01*
X0201325Y0134479D02*
X0219900Y0134479D01*
X0219900Y0136078D02*
X0199726Y0136078D01*
X0198128Y0137676D02*
X0219900Y0137676D01*
X0219900Y0139275D02*
X0196529Y0139275D01*
X0194931Y0140873D02*
X0219900Y0140873D01*
X0219696Y0141900D02*
X0219696Y0141900D01*
X0219124Y0142472D02*
X0193332Y0142472D01*
X0191734Y0144070D02*
X0218700Y0144070D01*
X0218700Y0145669D02*
X0190135Y0145669D01*
X0188537Y0147268D02*
X0218700Y0147268D01*
X0218700Y0148866D02*
X0217441Y0148866D01*
X0217280Y0148477D02*
X0217689Y0149465D01*
X0217689Y0150535D01*
X0217280Y0151523D01*
X0216523Y0152280D01*
X0215535Y0152689D01*
X0214465Y0152689D01*
X0213477Y0152280D01*
X0212897Y0151700D01*
X0197103Y0151700D01*
X0196523Y0152280D01*
X0195535Y0152689D01*
X0194465Y0152689D01*
X0193477Y0152280D01*
X0192720Y0151523D01*
X0192311Y0150535D01*
X0192311Y0149465D01*
X0192720Y0148477D01*
X0193477Y0147720D01*
X0194465Y0147311D01*
X0195535Y0147311D01*
X0196523Y0147720D01*
X0197103Y0148300D01*
X0212897Y0148300D01*
X0213477Y0147720D01*
X0214465Y0147311D01*
X0215535Y0147311D01*
X0216523Y0147720D01*
X0217280Y0148477D01*
X0217689Y0150465D02*
X0218700Y0150465D01*
X0218700Y0152063D02*
X0216740Y0152063D01*
X0218700Y0153662D02*
X0187356Y0153662D01*
X0187280Y0153477D02*
X0187689Y0154465D01*
X0187689Y0155535D01*
X0187280Y0156523D01*
X0186523Y0157280D01*
X0185535Y0157689D01*
X0184715Y0157689D01*
X0182689Y0159715D01*
X0182689Y0160535D01*
X0182280Y0161523D01*
X0181523Y0162280D01*
X0180535Y0162689D01*
X0179465Y0162689D01*
X0178477Y0162280D01*
X0177720Y0161523D01*
X0177311Y0160535D01*
X0177311Y0159465D01*
X0177720Y0158477D01*
X0178477Y0157720D01*
X0179465Y0157311D01*
X0180285Y0157311D01*
X0182311Y0155285D01*
X0182311Y0154465D01*
X0182720Y0153477D01*
X0183477Y0152720D01*
X0184465Y0152311D01*
X0185535Y0152311D01*
X0186523Y0152720D01*
X0187280Y0153477D01*
X0187689Y0155260D02*
X0218700Y0155260D01*
X0218700Y0156859D02*
X0186944Y0156859D01*
X0183947Y0158457D02*
X0219653Y0158457D01*
X0221251Y0160056D02*
X0182689Y0160056D01*
X0182149Y0161654D02*
X0222850Y0161654D01*
X0224448Y0163253D02*
X0172552Y0163253D01*
X0174150Y0161654D02*
X0177851Y0161654D01*
X0177311Y0160056D02*
X0175749Y0160056D01*
X0177347Y0158457D02*
X0177740Y0158457D01*
X0178946Y0156859D02*
X0180737Y0156859D01*
X0180544Y0155260D02*
X0182311Y0155260D01*
X0182143Y0153662D02*
X0182644Y0153662D01*
X0183741Y0152063D02*
X0193260Y0152063D01*
X0192311Y0150465D02*
X0185340Y0150465D01*
X0186938Y0148866D02*
X0192559Y0148866D01*
X0196740Y0152063D02*
X0213260Y0152063D01*
X0223300Y0153662D02*
X0272793Y0153662D01*
X0273200Y0152063D02*
X0268084Y0152063D01*
X0269365Y0151532D02*
X0266533Y0152705D01*
X0263467Y0152705D01*
X0260635Y0151532D01*
X0258468Y0149365D01*
X0257294Y0146533D01*
X0257294Y0143467D01*
X0258468Y0140635D01*
X0260635Y0138468D01*
X0263467Y0137294D01*
X0266533Y0137294D01*
X0269365Y0138468D01*
X0271532Y0140635D01*
X0272705Y0143467D01*
X0272705Y0146533D01*
X0271532Y0149365D01*
X0269365Y0151532D01*
X0270433Y0150465D02*
X0273200Y0150465D01*
X0273200Y0148866D02*
X0271739Y0148866D01*
X0272401Y0147268D02*
X0273200Y0147268D01*
X0273200Y0145669D02*
X0272705Y0145669D01*
X0272705Y0144070D02*
X0273200Y0144070D01*
X0273200Y0142472D02*
X0272293Y0142472D01*
X0271631Y0140873D02*
X0273200Y0140873D01*
X0273200Y0139275D02*
X0270172Y0139275D01*
X0267455Y0137676D02*
X0273200Y0137676D01*
X0273200Y0136078D02*
X0231700Y0136078D01*
X0231700Y0137676D02*
X0262545Y0137676D01*
X0259828Y0139275D02*
X0231700Y0139275D01*
X0231700Y0140873D02*
X0258369Y0140873D01*
X0257707Y0142472D02*
X0231700Y0142472D01*
X0231700Y0144070D02*
X0257294Y0144070D01*
X0257294Y0145669D02*
X0231700Y0145669D01*
X0230704Y0146700D02*
X0230704Y0146700D01*
X0230137Y0147268D02*
X0257599Y0147268D01*
X0258261Y0148866D02*
X0228538Y0148866D01*
X0227689Y0150465D02*
X0259567Y0150465D01*
X0261916Y0152063D02*
X0226740Y0152063D01*
X0223300Y0155260D02*
X0271194Y0155260D01*
X0269596Y0156859D02*
X0224663Y0156859D01*
X0226261Y0158457D02*
X0267997Y0158457D01*
X0266399Y0160056D02*
X0227860Y0160056D01*
X0229458Y0161654D02*
X0264800Y0161654D01*
X0263202Y0163253D02*
X0231057Y0163253D01*
X0232655Y0164851D02*
X0263200Y0164851D01*
X0263200Y0166450D02*
X0234254Y0166450D01*
X0235852Y0168048D02*
X0263200Y0168048D01*
X0263200Y0169647D02*
X0237451Y0169647D01*
X0239049Y0171245D02*
X0263200Y0171245D01*
X0263200Y0172844D02*
X0240648Y0172844D01*
X0242246Y0174442D02*
X0263200Y0174442D01*
X0263200Y0176041D02*
X0258253Y0176041D01*
X0259542Y0177639D02*
X0263200Y0177639D01*
X0263200Y0179238D02*
X0260100Y0179238D01*
X0260100Y0180836D02*
X0263200Y0180836D01*
X0263200Y0182435D02*
X0259512Y0182435D01*
X0258179Y0184033D02*
X0263200Y0184033D01*
X0263200Y0185632D02*
X0232900Y0185632D01*
X0232900Y0184033D02*
X0241821Y0184033D01*
X0240488Y0182435D02*
X0232900Y0182435D01*
X0232900Y0180836D02*
X0239900Y0180836D01*
X0239900Y0179238D02*
X0232900Y0179238D01*
X0232900Y0177639D02*
X0240458Y0177639D01*
X0239037Y0176041D02*
X0232900Y0176041D01*
X0232900Y0174442D02*
X0237438Y0174442D01*
X0235840Y0172844D02*
X0232900Y0172844D01*
X0232900Y0171245D02*
X0234241Y0171245D01*
X0229500Y0171245D02*
X0200004Y0171245D01*
X0200100Y0169647D02*
X0229500Y0169647D01*
X0229244Y0168048D02*
X0199712Y0168048D01*
X0198662Y0166450D02*
X0227645Y0166450D01*
X0226047Y0164851D02*
X0170953Y0164851D01*
X0171338Y0166450D02*
X0169355Y0166450D01*
X0169712Y0168048D02*
X0170288Y0168048D01*
X0170658Y0172844D02*
X0169342Y0172844D01*
X0167602Y0174442D02*
X0172398Y0174442D01*
X0171023Y0177220D02*
X0171780Y0177977D01*
X0172189Y0178965D01*
X0172189Y0180035D01*
X0171780Y0181023D01*
X0171023Y0181780D01*
X0170900Y0181831D01*
X0170900Y0200300D01*
X0170947Y0200300D01*
X0173700Y0203053D01*
X0173700Y0206947D01*
X0170947Y0209700D01*
X0167053Y0209700D01*
X0164300Y0206947D01*
X0164300Y0203053D01*
X0167053Y0200300D01*
X0167100Y0200300D01*
X0167100Y0196703D01*
X0166523Y0197280D01*
X0165535Y0197689D01*
X0164465Y0197689D01*
X0163477Y0197280D01*
X0163097Y0196900D01*
X0156903Y0196900D01*
X0156523Y0197280D01*
X0155535Y0197689D01*
X0154465Y0197689D01*
X0153477Y0197280D01*
X0152720Y0196523D01*
X0152462Y0195900D01*
X0149403Y0195900D01*
X0149023Y0196280D01*
X0148035Y0196689D01*
X0146965Y0196689D01*
X0145977Y0196280D01*
X0145220Y0195523D01*
X0144811Y0194535D01*
X0144811Y0193465D01*
X0145220Y0192477D01*
X0145977Y0191720D01*
X0146965Y0191311D01*
X0148035Y0191311D01*
X0149023Y0191720D01*
X0149403Y0192100D01*
X0154787Y0192100D01*
X0154998Y0192311D01*
X0155535Y0192311D01*
X0156523Y0192720D01*
X0156903Y0193100D01*
X0163097Y0193100D01*
X0163477Y0192720D01*
X0164465Y0192311D01*
X0165535Y0192311D01*
X0166523Y0192720D01*
X0167100Y0193297D01*
X0167100Y0180733D01*
X0166811Y0180035D01*
X0166811Y0178965D01*
X0167220Y0177977D01*
X0167977Y0177220D01*
X0168965Y0176811D01*
X0170035Y0176811D01*
X0171023Y0177220D01*
X0171442Y0177639D02*
X0210458Y0177639D01*
X0209900Y0179238D02*
X0172189Y0179238D01*
X0171857Y0180836D02*
X0209900Y0180836D01*
X0210361Y0182435D02*
X0170900Y0182435D01*
X0170900Y0184033D02*
X0209100Y0184033D01*
X0209100Y0185632D02*
X0170900Y0185632D01*
X0170900Y0187230D02*
X0209100Y0187230D01*
X0209100Y0188829D02*
X0170900Y0188829D01*
X0170900Y0190427D02*
X0209100Y0190427D01*
X0209100Y0192026D02*
X0170900Y0192026D01*
X0170900Y0193624D02*
X0209100Y0193624D01*
X0209100Y0195223D02*
X0170900Y0195223D01*
X0170900Y0196821D02*
X0209100Y0196821D01*
X0209100Y0198420D02*
X0170900Y0198420D01*
X0170900Y0200018D02*
X0209100Y0200018D01*
X0209100Y0201617D02*
X0208264Y0201617D01*
X0212500Y0200018D02*
X0223500Y0200018D01*
X0223500Y0200300D02*
X0223500Y0197289D01*
X0223477Y0197280D01*
X0222720Y0196523D01*
X0222311Y0195535D01*
X0222311Y0194465D01*
X0222720Y0193477D01*
X0223477Y0192720D01*
X0224465Y0192311D01*
X0225535Y0192311D01*
X0226523Y0192720D01*
X0227280Y0193477D01*
X0227689Y0194465D01*
X0227689Y0195535D01*
X0227280Y0196523D01*
X0226900Y0196903D01*
X0226900Y0200300D01*
X0226947Y0200300D01*
X0229700Y0203053D01*
X0229700Y0206947D01*
X0226947Y0209700D01*
X0223053Y0209700D01*
X0220300Y0206947D01*
X0220300Y0203053D01*
X0223053Y0200300D01*
X0223500Y0200300D01*
X0223500Y0198420D02*
X0212500Y0198420D01*
X0212500Y0196821D02*
X0223019Y0196821D01*
X0222311Y0195223D02*
X0212500Y0195223D01*
X0212500Y0193624D02*
X0222659Y0193624D01*
X0227341Y0193624D02*
X0263200Y0193624D01*
X0263200Y0192026D02*
X0212500Y0192026D01*
X0212500Y0190427D02*
X0263200Y0190427D01*
X0263200Y0188829D02*
X0231774Y0188829D01*
X0232689Y0187230D02*
X0263200Y0187230D01*
X0263200Y0195223D02*
X0227689Y0195223D01*
X0226981Y0196821D02*
X0263200Y0196821D01*
X0263200Y0198420D02*
X0226900Y0198420D01*
X0226900Y0200018D02*
X0263200Y0200018D01*
X0263200Y0201617D02*
X0258264Y0201617D01*
X0256947Y0200300D02*
X0259700Y0203053D01*
X0259700Y0206947D01*
X0256947Y0209700D01*
X0253053Y0209700D01*
X0250300Y0206947D01*
X0250300Y0203053D01*
X0253053Y0200300D01*
X0256947Y0200300D01*
X0259700Y0203215D02*
X0263200Y0203215D01*
X0263200Y0204814D02*
X0259700Y0204814D01*
X0259700Y0206412D02*
X0263200Y0206412D01*
X0263200Y0208011D02*
X0258636Y0208011D01*
X0257037Y0209609D02*
X0261845Y0209609D01*
X0260246Y0211208D02*
X0212196Y0211208D01*
X0212500Y0209609D02*
X0212963Y0209609D01*
X0208986Y0209609D02*
X0207037Y0209609D01*
X0207388Y0211208D02*
X0127212Y0211208D01*
X0127053Y0209700D02*
X0124300Y0206947D01*
X0124300Y0203053D01*
X0127053Y0200300D01*
X0130947Y0200300D01*
X0133700Y0203053D01*
X0133700Y0206947D01*
X0130947Y0209700D01*
X0127053Y0209700D01*
X0126963Y0209609D02*
X0125614Y0209609D01*
X0125364Y0208011D02*
X0124015Y0208011D01*
X0124300Y0206412D02*
X0123700Y0206412D01*
X0123700Y0204814D02*
X0124300Y0204814D01*
X0124300Y0203215D02*
X0123700Y0203215D01*
X0122264Y0201617D02*
X0125736Y0201617D01*
X0132264Y0201617D02*
X0135736Y0201617D01*
X0137053Y0200300D02*
X0140947Y0200300D01*
X0143700Y0203053D01*
X0143700Y0206947D01*
X0140947Y0209700D01*
X0137053Y0209700D01*
X0134300Y0206947D01*
X0134300Y0203053D01*
X0137053Y0200300D01*
X0134300Y0203215D02*
X0133700Y0203215D01*
X0133700Y0204814D02*
X0134300Y0204814D01*
X0134300Y0206412D02*
X0133700Y0206412D01*
X0132636Y0208011D02*
X0135364Y0208011D01*
X0136963Y0209609D02*
X0131037Y0209609D01*
X0124002Y0212806D02*
X0089998Y0212806D01*
X0091596Y0211208D02*
X0122404Y0211208D01*
X0116963Y0209609D02*
X0111603Y0209609D01*
X0111112Y0210100D02*
X0109184Y0210100D01*
X0109184Y0205184D01*
X0114100Y0205184D01*
X0114100Y0207112D01*
X0111112Y0210100D01*
X0109184Y0209609D02*
X0108816Y0209609D01*
X0108816Y0210100D02*
X0106888Y0210100D01*
X0103900Y0207112D01*
X0103900Y0205184D01*
X0108816Y0205184D01*
X0108816Y0204816D01*
X0109184Y0204816D01*
X0109184Y0199900D01*
X0111112Y0199900D01*
X0114100Y0202888D01*
X0114100Y0204816D01*
X0109184Y0204816D01*
X0109184Y0205184D01*
X0108816Y0205184D01*
X0108816Y0210100D01*
X0108816Y0208011D02*
X0109184Y0208011D01*
X0109184Y0206412D02*
X0108816Y0206412D01*
X0108816Y0204816D02*
X0103900Y0204816D01*
X0103900Y0202888D01*
X0106888Y0199900D01*
X0108816Y0199900D01*
X0108816Y0204816D01*
X0108816Y0204814D02*
X0109184Y0204814D01*
X0109184Y0203215D02*
X0108816Y0203215D01*
X0108816Y0201617D02*
X0109184Y0201617D01*
X0109184Y0200018D02*
X0108816Y0200018D01*
X0106769Y0200018D02*
X0092623Y0200018D01*
X0091900Y0198420D02*
X0167100Y0198420D01*
X0167100Y0200018D02*
X0111231Y0200018D01*
X0112829Y0201617D02*
X0115736Y0201617D01*
X0114300Y0203215D02*
X0114100Y0203215D01*
X0114100Y0204814D02*
X0114300Y0204814D01*
X0114300Y0206412D02*
X0114100Y0206412D01*
X0113202Y0208011D02*
X0115364Y0208011D01*
X0106397Y0209609D02*
X0101037Y0209609D01*
X0102636Y0208011D02*
X0104798Y0208011D01*
X0103900Y0206412D02*
X0103700Y0206412D01*
X0103700Y0204814D02*
X0103900Y0204814D01*
X0103900Y0203215D02*
X0103700Y0203215D01*
X0102264Y0201617D02*
X0105171Y0201617D01*
X0095736Y0201617D02*
X0094221Y0201617D01*
X0091900Y0196821D02*
X0153019Y0196821D01*
X0150947Y0200300D02*
X0147053Y0200300D01*
X0144300Y0203053D01*
X0144300Y0206947D01*
X0147053Y0209700D01*
X0150947Y0209700D01*
X0153700Y0206947D01*
X0153700Y0203053D01*
X0150947Y0200300D01*
X0152264Y0201617D02*
X0155736Y0201617D01*
X0157053Y0200300D02*
X0160947Y0200300D01*
X0163700Y0203053D01*
X0163700Y0206947D01*
X0160947Y0209700D01*
X0157053Y0209700D01*
X0154300Y0206947D01*
X0154300Y0203053D01*
X0157053Y0200300D01*
X0154300Y0203215D02*
X0153700Y0203215D01*
X0153700Y0204814D02*
X0154300Y0204814D01*
X0154300Y0206412D02*
X0153700Y0206412D01*
X0152636Y0208011D02*
X0155364Y0208011D01*
X0156963Y0209609D02*
X0151037Y0209609D01*
X0146963Y0209609D02*
X0141037Y0209609D01*
X0142636Y0208011D02*
X0145364Y0208011D01*
X0144300Y0206412D02*
X0143700Y0206412D01*
X0143700Y0204814D02*
X0144300Y0204814D01*
X0144300Y0203215D02*
X0143700Y0203215D01*
X0142264Y0201617D02*
X0145736Y0201617D01*
X0145096Y0195223D02*
X0091900Y0195223D01*
X0091900Y0193624D02*
X0144811Y0193624D01*
X0145671Y0192026D02*
X0091900Y0192026D01*
X0091900Y0190427D02*
X0167100Y0190427D01*
X0167100Y0188829D02*
X0091900Y0188829D01*
X0091900Y0187230D02*
X0103428Y0187230D01*
X0102351Y0185632D02*
X0091900Y0185632D01*
X0090700Y0180836D02*
X0118300Y0180836D01*
X0118300Y0179238D02*
X0094839Y0179238D01*
X0095800Y0177639D02*
X0118300Y0177639D01*
X0118300Y0176041D02*
X0095534Y0176041D01*
X0092846Y0174442D02*
X0118300Y0174442D01*
X0118300Y0172844D02*
X0091900Y0172844D01*
X0091900Y0171245D02*
X0118300Y0171245D01*
X0118300Y0169647D02*
X0091900Y0169647D01*
X0091900Y0168048D02*
X0118300Y0168048D01*
X0118300Y0166450D02*
X0107310Y0166450D01*
X0107280Y0166523D02*
X0106523Y0167280D01*
X0105535Y0167689D01*
X0104465Y0167689D01*
X0103477Y0167280D01*
X0102897Y0166700D01*
X0097103Y0166700D01*
X0096523Y0167280D01*
X0095535Y0167689D01*
X0094465Y0167689D01*
X0093477Y0167280D01*
X0092720Y0166523D01*
X0092311Y0165535D01*
X0092311Y0164465D01*
X0092720Y0163477D01*
X0093477Y0162720D01*
X0094465Y0162311D01*
X0095535Y0162311D01*
X0096523Y0162720D01*
X0097103Y0163300D01*
X0102897Y0163300D01*
X0103477Y0162720D01*
X0104465Y0162311D01*
X0105535Y0162311D01*
X0106523Y0162720D01*
X0107280Y0163477D01*
X0107689Y0164465D01*
X0107689Y0165535D01*
X0107280Y0166523D01*
X0107689Y0164851D02*
X0118300Y0164851D01*
X0118300Y0163253D02*
X0107055Y0163253D01*
X0102945Y0163253D02*
X0097055Y0163253D01*
X0092945Y0163253D02*
X0091900Y0163253D01*
X0091900Y0164851D02*
X0092311Y0164851D01*
X0092690Y0166450D02*
X0091900Y0166450D01*
X0091900Y0161654D02*
X0118300Y0161654D01*
X0118300Y0160056D02*
X0091900Y0160056D01*
X0091900Y0158457D02*
X0118300Y0158457D01*
X0118300Y0156859D02*
X0091900Y0156859D01*
X0091900Y0155260D02*
X0118300Y0155260D01*
X0118300Y0153662D02*
X0091900Y0153662D01*
X0091900Y0152063D02*
X0118933Y0152063D01*
X0120531Y0150465D02*
X0091900Y0150465D01*
X0091900Y0148866D02*
X0120589Y0148866D01*
X0120000Y0147268D02*
X0091900Y0147268D01*
X0091900Y0145669D02*
X0120454Y0145669D01*
X0120975Y0144900D02*
X0119025Y0144900D01*
X0117224Y0144154D01*
X0115846Y0142776D01*
X0115100Y0140975D01*
X0115100Y0139025D01*
X0115846Y0137224D01*
X0117224Y0135846D01*
X0119025Y0135100D01*
X0120975Y0135100D01*
X0122776Y0135846D01*
X0124154Y0137224D01*
X0124900Y0139025D01*
X0124900Y0140975D01*
X0124154Y0142776D01*
X0122776Y0144154D01*
X0120975Y0144900D01*
X0122859Y0144070D02*
X0125125Y0144070D01*
X0125720Y0142472D02*
X0124280Y0142472D01*
X0124900Y0140873D02*
X0125100Y0140873D01*
X0125100Y0139275D02*
X0124900Y0139275D01*
X0124341Y0137676D02*
X0125659Y0137676D01*
X0126992Y0136078D02*
X0123008Y0136078D01*
X0116992Y0136078D02*
X0113008Y0136078D01*
X0112776Y0135846D02*
X0114154Y0137224D01*
X0114900Y0139025D01*
X0114900Y0140975D01*
X0114154Y0142776D01*
X0112776Y0144154D01*
X0110975Y0144900D01*
X0109025Y0144900D01*
X0107224Y0144154D01*
X0105846Y0142776D01*
X0105100Y0140975D01*
X0105100Y0139025D01*
X0105846Y0137224D01*
X0107224Y0135846D01*
X0109025Y0135100D01*
X0110975Y0135100D01*
X0112776Y0135846D01*
X0114341Y0137676D02*
X0115659Y0137676D01*
X0115100Y0139275D02*
X0114900Y0139275D01*
X0114900Y0140873D02*
X0115100Y0140873D01*
X0115720Y0142472D02*
X0114280Y0142472D01*
X0112859Y0144070D02*
X0117141Y0144070D01*
X0107141Y0144070D02*
X0092734Y0144070D01*
X0094332Y0142472D02*
X0105720Y0142472D01*
X0105100Y0140873D02*
X0095931Y0140873D01*
X0097529Y0139275D02*
X0105100Y0139275D01*
X0105659Y0137676D02*
X0099128Y0137676D01*
X0100726Y0136078D02*
X0106992Y0136078D01*
X0104798Y0134479D02*
X0182311Y0134479D01*
X0182311Y0134465D02*
X0182720Y0133477D01*
X0183300Y0132897D01*
X0183300Y0127103D01*
X0182720Y0126523D01*
X0182311Y0125535D01*
X0182311Y0124465D01*
X0182720Y0123477D01*
X0183477Y0122720D01*
X0184465Y0122311D01*
X0185535Y0122311D01*
X0186523Y0122720D01*
X0187280Y0123477D01*
X0187689Y0124465D01*
X0187689Y0125535D01*
X0187280Y0126523D01*
X0186700Y0127103D01*
X0186700Y0132897D01*
X0187280Y0133477D01*
X0187689Y0134465D01*
X0187689Y0135535D01*
X0187280Y0136523D01*
X0186523Y0137280D01*
X0185535Y0137689D01*
X0184465Y0137689D01*
X0184322Y0137630D01*
X0184900Y0139025D01*
X0184900Y0140975D01*
X0184154Y0142776D01*
X0182776Y0144154D01*
X0180975Y0144900D01*
X0179025Y0144900D01*
X0177224Y0144154D01*
X0175846Y0142776D01*
X0175100Y0140975D01*
X0175100Y0139025D01*
X0175846Y0137224D01*
X0177224Y0135846D01*
X0179025Y0135100D01*
X0180975Y0135100D01*
X0182370Y0135678D01*
X0182311Y0135535D01*
X0182311Y0134465D01*
X0183300Y0132881D02*
X0107805Y0132881D01*
X0106195Y0132881D02*
X0105400Y0132881D01*
X0109449Y0131282D02*
X0183300Y0131282D01*
X0183300Y0129684D02*
X0110120Y0129684D01*
X0111100Y0128085D02*
X0183300Y0128085D01*
X0182705Y0126487D02*
X0112117Y0126487D01*
X0112300Y0124888D02*
X0182311Y0124888D01*
X0182907Y0123290D02*
X0112300Y0123290D01*
X0112713Y0121691D02*
X0194700Y0121691D01*
X0194700Y0120093D02*
X0114311Y0120093D01*
X0115910Y0118494D02*
X0194700Y0118494D01*
X0194700Y0116896D02*
X0117508Y0116896D01*
X0119107Y0115297D02*
X0194700Y0115297D01*
X0194700Y0113699D02*
X0120705Y0113699D01*
X0122304Y0112100D02*
X0194700Y0112100D01*
X0194700Y0110502D02*
X0123902Y0110502D01*
X0125501Y0108903D02*
X0194699Y0108903D01*
X0193101Y0107305D02*
X0166099Y0107305D01*
X0167698Y0105706D02*
X0192900Y0105706D01*
X0192900Y0104108D02*
X0182822Y0104108D01*
X0182776Y0104154D02*
X0180975Y0104900D01*
X0179025Y0104900D01*
X0177224Y0104154D01*
X0175846Y0102776D01*
X0175100Y0100975D01*
X0175100Y0099025D01*
X0175846Y0097224D01*
X0177224Y0095846D01*
X0179025Y0095100D01*
X0180975Y0095100D01*
X0182776Y0095846D01*
X0184154Y0097224D01*
X0184900Y0099025D01*
X0184900Y0100975D01*
X0184154Y0102776D01*
X0182776Y0104154D01*
X0184264Y0102509D02*
X0193687Y0102509D01*
X0195285Y0100911D02*
X0184900Y0100911D01*
X0184900Y0099312D02*
X0196884Y0099312D01*
X0198482Y0097714D02*
X0184357Y0097714D01*
X0183045Y0096115D02*
X0199500Y0096115D01*
X0199500Y0094517D02*
X0158721Y0094517D01*
X0157122Y0092918D02*
X0199500Y0092918D01*
X0199500Y0091320D02*
X0138406Y0091320D01*
X0136794Y0091320D02*
X0134685Y0091320D01*
X0135151Y0092918D02*
X0133086Y0092918D01*
X0131488Y0094517D02*
X0135083Y0094517D01*
X0136395Y0096115D02*
X0133045Y0096115D01*
X0134357Y0097714D02*
X0135643Y0097714D01*
X0135100Y0099312D02*
X0134900Y0099312D01*
X0134900Y0100911D02*
X0135100Y0100911D01*
X0135736Y0102509D02*
X0134264Y0102509D01*
X0125081Y0096115D02*
X0123045Y0096115D01*
X0126679Y0094517D02*
X0108669Y0094517D01*
X0109000Y0092918D02*
X0128278Y0092918D01*
X0129876Y0091320D02*
X0108197Y0091320D01*
X0109283Y0089721D02*
X0131475Y0089721D01*
X0132446Y0088123D02*
X0110882Y0088123D01*
X0111100Y0083327D02*
X0119196Y0083327D01*
X0122404Y0083327D02*
X0137869Y0083327D01*
X0139467Y0081729D02*
X0111100Y0081729D01*
X0111100Y0080130D02*
X0139900Y0080130D01*
X0140088Y0078532D02*
X0111100Y0078532D01*
X0111870Y0076933D02*
X0140854Y0076933D01*
X0142937Y0075334D02*
X0112689Y0075334D01*
X0112387Y0073736D02*
X0159300Y0073736D01*
X0159300Y0075334D02*
X0157063Y0075334D01*
X0159145Y0076933D02*
X0159300Y0076933D01*
X0159300Y0072137D02*
X0065550Y0072137D01*
X0067148Y0070539D02*
X0159300Y0070539D01*
X0152937Y0075334D02*
X0147063Y0075334D01*
X0149145Y0076933D02*
X0150854Y0076933D01*
X0150196Y0081729D02*
X0149804Y0081729D01*
X0148885Y0083327D02*
X0151115Y0083327D01*
X0158885Y0083327D02*
X0161115Y0083327D01*
X0160196Y0081729D02*
X0159804Y0081729D01*
X0168885Y0083327D02*
X0170619Y0083327D01*
X0173045Y0096115D02*
X0176955Y0096115D01*
X0175643Y0097714D02*
X0174357Y0097714D01*
X0174900Y0099312D02*
X0175100Y0099312D01*
X0175100Y0100911D02*
X0174900Y0100911D01*
X0174264Y0102509D02*
X0175736Y0102509D01*
X0177178Y0104108D02*
X0172822Y0104108D01*
X0165736Y0102509D02*
X0164264Y0102509D01*
X0164488Y0104108D02*
X0162822Y0104108D01*
X0164900Y0100911D02*
X0165100Y0100911D01*
X0165100Y0099312D02*
X0164900Y0099312D01*
X0164357Y0097714D02*
X0165643Y0097714D01*
X0166955Y0096115D02*
X0163045Y0096115D01*
X0155511Y0096115D02*
X0153045Y0096115D01*
X0154357Y0097714D02*
X0155643Y0097714D01*
X0155100Y0099312D02*
X0154900Y0099312D01*
X0154900Y0100911D02*
X0155100Y0100911D01*
X0155736Y0102509D02*
X0154264Y0102509D01*
X0152822Y0104108D02*
X0157178Y0104108D01*
X0136283Y0089721D02*
X0199500Y0089721D01*
X0199500Y0088123D02*
X0137882Y0088123D01*
X0131403Y0086524D02*
X0123149Y0086524D01*
X0123400Y0084926D02*
X0131631Y0084926D01*
X0116955Y0096115D02*
X0113045Y0096115D01*
X0114357Y0097714D02*
X0115643Y0097714D01*
X0115100Y0099312D02*
X0114900Y0099312D01*
X0114900Y0100911D02*
X0115100Y0100911D01*
X0115736Y0102509D02*
X0114264Y0102509D01*
X0112822Y0104108D02*
X0117178Y0104108D01*
X0120290Y0105706D02*
X0105700Y0105706D01*
X0105700Y0104108D02*
X0107178Y0104108D01*
X0105736Y0102509D02*
X0105700Y0102509D01*
X0105700Y0107305D02*
X0118691Y0107305D01*
X0117093Y0108903D02*
X0105700Y0108903D01*
X0105700Y0110502D02*
X0115494Y0110502D01*
X0113896Y0112100D02*
X0105700Y0112100D01*
X0105700Y0113699D02*
X0112297Y0113699D01*
X0110699Y0115297D02*
X0105700Y0115297D01*
X0105700Y0116896D02*
X0109100Y0116896D01*
X0107502Y0118494D02*
X0105700Y0118494D01*
X0099900Y0118494D02*
X0080698Y0118494D01*
X0079300Y0116896D02*
X0099900Y0116896D01*
X0099900Y0115297D02*
X0078701Y0115297D01*
X0077103Y0113699D02*
X0099900Y0113699D01*
X0099900Y0112100D02*
X0075504Y0112100D01*
X0073906Y0110502D02*
X0099900Y0110502D01*
X0099900Y0108903D02*
X0072307Y0108903D01*
X0070709Y0107305D02*
X0099900Y0107305D01*
X0099900Y0105706D02*
X0069110Y0105706D01*
X0067512Y0104108D02*
X0099900Y0104108D01*
X0099900Y0102509D02*
X0065913Y0102509D01*
X0064315Y0100911D02*
X0099900Y0100911D01*
X0099900Y0099312D02*
X0062716Y0099312D01*
X0061118Y0097714D02*
X0099900Y0097714D01*
X0099900Y0096115D02*
X0059519Y0096115D01*
X0057921Y0094517D02*
X0084682Y0094517D01*
X0084883Y0094600D02*
X0083927Y0094204D01*
X0083196Y0093473D01*
X0082800Y0092517D01*
X0082800Y0091483D01*
X0083196Y0090527D01*
X0083927Y0089796D01*
X0084883Y0089400D01*
X0085596Y0089400D01*
X0098400Y0076596D01*
X0098400Y0075883D01*
X0098796Y0074927D01*
X0099527Y0074196D01*
X0100483Y0073800D01*
X0101517Y0073800D01*
X0102473Y0074196D01*
X0103204Y0074927D01*
X0103600Y0075883D01*
X0103600Y0076917D01*
X0103204Y0077873D01*
X0102473Y0078604D01*
X0101517Y0079000D01*
X0100804Y0079000D01*
X0088000Y0091804D01*
X0088000Y0092517D01*
X0087604Y0093473D01*
X0086873Y0094204D01*
X0085917Y0094600D01*
X0084883Y0094600D01*
X0086118Y0094517D02*
X0099900Y0094517D01*
X0099900Y0092918D02*
X0087834Y0092918D01*
X0088485Y0091320D02*
X0097636Y0091320D01*
X0097311Y0089721D02*
X0090083Y0089721D01*
X0091682Y0088123D02*
X0098075Y0088123D01*
X0100789Y0086524D02*
X0093280Y0086524D01*
X0094879Y0084926D02*
X0102311Y0084926D01*
X0102870Y0083327D02*
X0096477Y0083327D01*
X0098076Y0081729D02*
X0107700Y0081729D01*
X0107700Y0083327D02*
X0107130Y0083327D01*
X0107700Y0080130D02*
X0099674Y0080130D01*
X0102545Y0078532D02*
X0107700Y0078532D01*
X0107700Y0076933D02*
X0103593Y0076933D01*
X0103373Y0075334D02*
X0107311Y0075334D01*
X0107613Y0073736D02*
X0063951Y0073736D01*
X0062352Y0075334D02*
X0098627Y0075334D01*
X0098063Y0076933D02*
X0060754Y0076933D01*
X0059155Y0078532D02*
X0096464Y0078532D01*
X0094866Y0080130D02*
X0057689Y0080130D01*
X0057074Y0081729D02*
X0093267Y0081729D01*
X0091669Y0083327D02*
X0046731Y0083327D01*
X0045133Y0081729D02*
X0052926Y0081729D01*
X0052311Y0080130D02*
X0043534Y0080130D01*
X0041936Y0078532D02*
X0052698Y0078532D01*
X0055380Y0076933D02*
X0040337Y0076933D01*
X0038739Y0075334D02*
X0056978Y0075334D01*
X0058577Y0073736D02*
X0037140Y0073736D01*
X0035542Y0072137D02*
X0060176Y0072137D01*
X0061774Y0070539D02*
X0033943Y0070539D01*
X0032345Y0068940D02*
X0063373Y0068940D01*
X0064971Y0067342D02*
X0030746Y0067342D01*
X0029148Y0065743D02*
X0066570Y0065743D01*
X0068100Y0064145D02*
X0027549Y0064145D01*
X0025951Y0062546D02*
X0068100Y0062546D01*
X0067482Y0060948D02*
X0024352Y0060948D01*
X0024100Y0059349D02*
X0067359Y0059349D01*
X0068446Y0057751D02*
X0024100Y0057751D01*
X0024654Y0056152D02*
X0117818Y0056152D01*
X0119366Y0054554D02*
X0025000Y0054554D01*
X0024232Y0052955D02*
X0045692Y0052955D01*
X0045170Y0051357D02*
X0021361Y0051357D01*
X0018035Y0049758D02*
X0043571Y0049758D01*
X0041973Y0048160D02*
X0006800Y0048160D01*
X0006800Y0049758D02*
X0014765Y0049758D01*
X0013800Y0051357D02*
X0006800Y0051357D01*
X0006800Y0052955D02*
X0014064Y0052955D01*
X0019750Y0054554D02*
X0006800Y0054554D01*
X0006800Y0056152D02*
X0020146Y0056152D01*
X0020700Y0057751D02*
X0006800Y0057751D01*
X0006800Y0059349D02*
X0020700Y0059349D01*
X0020700Y0060948D02*
X0006800Y0060948D01*
X0006800Y0062546D02*
X0021142Y0062546D01*
X0022741Y0064145D02*
X0006800Y0064145D01*
X0006800Y0065743D02*
X0024339Y0065743D01*
X0025938Y0067342D02*
X0006800Y0067342D01*
X0006800Y0068940D02*
X0027536Y0068940D01*
X0029135Y0070539D02*
X0006800Y0070539D01*
X0006800Y0072137D02*
X0030733Y0072137D01*
X0032332Y0073736D02*
X0006800Y0073736D01*
X0006800Y0075334D02*
X0033930Y0075334D01*
X0035529Y0076933D02*
X0006800Y0076933D01*
X0006800Y0078532D02*
X0037127Y0078532D01*
X0038726Y0080130D02*
X0006800Y0080130D01*
X0006800Y0081729D02*
X0040324Y0081729D01*
X0041923Y0083327D02*
X0006800Y0083327D01*
X0006800Y0084926D02*
X0043521Y0084926D01*
X0045120Y0086524D02*
X0006800Y0086524D01*
X0006800Y0088123D02*
X0046718Y0088123D01*
X0048317Y0089721D02*
X0006800Y0089721D01*
X0006800Y0091320D02*
X0049915Y0091320D01*
X0051514Y0092918D02*
X0006800Y0092918D01*
X0006800Y0094517D02*
X0053112Y0094517D01*
X0054711Y0096115D02*
X0006800Y0096115D01*
X0006800Y0097714D02*
X0056309Y0097714D01*
X0057908Y0099312D02*
X0006800Y0099312D01*
X0006800Y0100911D02*
X0059507Y0100911D01*
X0061105Y0102509D02*
X0006800Y0102509D01*
X0006800Y0104108D02*
X0062704Y0104108D01*
X0064302Y0105706D02*
X0045078Y0105706D01*
X0045400Y0107305D02*
X0065901Y0107305D01*
X0067499Y0108903D02*
X0044574Y0108903D01*
X0045106Y0110502D02*
X0069098Y0110502D01*
X0070696Y0112100D02*
X0046704Y0112100D01*
X0048303Y0113699D02*
X0072295Y0113699D01*
X0073893Y0115297D02*
X0049901Y0115297D01*
X0051500Y0116896D02*
X0075492Y0116896D01*
X0075900Y0118494D02*
X0053098Y0118494D01*
X0054697Y0120093D02*
X0077489Y0120093D01*
X0079087Y0121691D02*
X0056295Y0121691D01*
X0057894Y0123290D02*
X0080686Y0123290D01*
X0082297Y0120093D02*
X0098703Y0120093D01*
X0097500Y0121691D02*
X0083895Y0121691D01*
X0086694Y0123290D02*
X0097500Y0123290D01*
X0097500Y0124888D02*
X0088292Y0124888D01*
X0089891Y0126487D02*
X0097109Y0126487D01*
X0093194Y0128085D02*
X0091490Y0128085D01*
X0089878Y0131282D02*
X0086995Y0131282D01*
X0087400Y0129684D02*
X0088280Y0129684D01*
X0090001Y0132881D02*
X0059132Y0132881D01*
X0057891Y0134479D02*
X0090233Y0134479D01*
X0092318Y0136078D02*
X0006800Y0136078D01*
X0006800Y0137676D02*
X0090719Y0137676D01*
X0089121Y0139275D02*
X0006800Y0139275D01*
X0006800Y0140873D02*
X0087522Y0140873D01*
X0086100Y0142472D02*
X0006800Y0142472D01*
X0006800Y0144070D02*
X0086100Y0144070D01*
X0086100Y0145669D02*
X0006800Y0145669D01*
X0006800Y0147268D02*
X0086100Y0147268D01*
X0086100Y0148866D02*
X0006800Y0148866D01*
X0006800Y0150465D02*
X0086100Y0150465D01*
X0086100Y0152063D02*
X0006800Y0152063D01*
X0006800Y0153662D02*
X0086100Y0153662D01*
X0086100Y0155260D02*
X0006800Y0155260D01*
X0006800Y0156859D02*
X0086100Y0156859D01*
X0086100Y0158457D02*
X0051855Y0158457D01*
X0051717Y0158400D02*
X0052673Y0158796D01*
X0053404Y0159527D01*
X0053800Y0160483D01*
X0053800Y0161517D01*
X0053404Y0162473D01*
X0052900Y0162977D01*
X0052900Y0174504D01*
X0052689Y0174715D01*
X0052689Y0175535D01*
X0052280Y0176523D01*
X0051523Y0177280D01*
X0050535Y0177689D01*
X0049465Y0177689D01*
X0048477Y0177280D01*
X0047720Y0176523D01*
X0047311Y0175535D01*
X0047311Y0174465D01*
X0047720Y0173477D01*
X0048477Y0172720D01*
X0049465Y0172311D01*
X0049500Y0172311D01*
X0049500Y0162977D01*
X0048996Y0162473D01*
X0048600Y0161517D01*
X0048600Y0160483D01*
X0048996Y0159527D01*
X0049727Y0158796D01*
X0050683Y0158400D01*
X0051717Y0158400D01*
X0050545Y0158457D02*
X0006800Y0158457D01*
X0006800Y0160056D02*
X0048777Y0160056D01*
X0048657Y0161654D02*
X0006800Y0161654D01*
X0006800Y0163253D02*
X0049500Y0163253D01*
X0049500Y0164851D02*
X0006800Y0164851D01*
X0006800Y0166450D02*
X0049500Y0166450D01*
X0049500Y0168048D02*
X0006800Y0168048D01*
X0006800Y0169647D02*
X0049500Y0169647D01*
X0049500Y0171245D02*
X0006800Y0171245D01*
X0006800Y0172844D02*
X0048354Y0172844D01*
X0047321Y0174442D02*
X0006800Y0174442D01*
X0006800Y0176041D02*
X0047521Y0176041D01*
X0049345Y0177639D02*
X0006800Y0177639D01*
X0006800Y0179238D02*
X0061834Y0179238D01*
X0060285Y0177689D02*
X0059465Y0177689D01*
X0058477Y0177280D01*
X0057720Y0176523D01*
X0057311Y0175535D01*
X0057311Y0174465D01*
X0057720Y0173477D01*
X0058477Y0172720D01*
X0059465Y0172311D01*
X0060535Y0172311D01*
X0061523Y0172720D01*
X0062280Y0173477D01*
X0062689Y0174465D01*
X0062689Y0175285D01*
X0074715Y0187311D01*
X0075535Y0187311D01*
X0076523Y0187720D01*
X0077280Y0188477D01*
X0077689Y0189465D01*
X0077689Y0190535D01*
X0077280Y0191523D01*
X0076523Y0192280D01*
X0075535Y0192689D01*
X0074465Y0192689D01*
X0073477Y0192280D01*
X0072720Y0191523D01*
X0072311Y0190535D01*
X0072311Y0189715D01*
X0060285Y0177689D01*
X0059345Y0177639D02*
X0050655Y0177639D01*
X0052479Y0176041D02*
X0057521Y0176041D01*
X0057321Y0174442D02*
X0052900Y0174442D01*
X0052900Y0172844D02*
X0058354Y0172844D01*
X0061646Y0172844D02*
X0086100Y0172844D01*
X0086100Y0174442D02*
X0062679Y0174442D01*
X0063445Y0176041D02*
X0086100Y0176041D01*
X0086100Y0177639D02*
X0065043Y0177639D01*
X0066642Y0179238D02*
X0086100Y0179238D01*
X0086100Y0180836D02*
X0068240Y0180836D01*
X0069839Y0182435D02*
X0086100Y0182435D01*
X0086100Y0184033D02*
X0071437Y0184033D01*
X0073036Y0185632D02*
X0086100Y0185632D01*
X0086100Y0187230D02*
X0074634Y0187230D01*
X0077425Y0188829D02*
X0086100Y0188829D01*
X0086100Y0190427D02*
X0077689Y0190427D01*
X0076777Y0192026D02*
X0086100Y0192026D01*
X0086100Y0193624D02*
X0052341Y0193624D01*
X0052689Y0195223D02*
X0085373Y0195223D01*
X0083774Y0196821D02*
X0051981Y0196821D01*
X0051700Y0198420D02*
X0060750Y0198420D01*
X0059084Y0200018D02*
X0051823Y0200018D01*
X0052900Y0201096D02*
X0052900Y0201096D01*
X0053421Y0201617D02*
X0058061Y0201617D01*
X0057399Y0203215D02*
X0055020Y0203215D01*
X0056618Y0204814D02*
X0057294Y0204814D01*
X0055007Y0208011D02*
X0006800Y0208011D01*
X0006800Y0209609D02*
X0056605Y0209609D01*
X0058204Y0211208D02*
X0006800Y0211208D01*
X0006800Y0212806D02*
X0059802Y0212806D01*
X0053408Y0206412D02*
X0006800Y0206412D01*
X0006800Y0204814D02*
X0051810Y0204814D01*
X0050211Y0203215D02*
X0006800Y0203215D01*
X0006800Y0201617D02*
X0048613Y0201617D01*
X0048300Y0200018D02*
X0006800Y0200018D01*
X0006800Y0198420D02*
X0048300Y0198420D01*
X0048019Y0196821D02*
X0006800Y0196821D01*
X0006800Y0195223D02*
X0047311Y0195223D01*
X0047659Y0193624D02*
X0006800Y0193624D01*
X0006800Y0192026D02*
X0073223Y0192026D01*
X0072311Y0190427D02*
X0006800Y0190427D01*
X0006800Y0188829D02*
X0071425Y0188829D01*
X0069826Y0187230D02*
X0006800Y0187230D01*
X0006800Y0185632D02*
X0068228Y0185632D01*
X0066629Y0184033D02*
X0006800Y0184033D01*
X0006800Y0182435D02*
X0065031Y0182435D01*
X0063432Y0180836D02*
X0006800Y0180836D01*
X0052900Y0171245D02*
X0086100Y0171245D01*
X0086100Y0169647D02*
X0052900Y0169647D01*
X0052900Y0168048D02*
X0068845Y0168048D01*
X0068720Y0167923D02*
X0068311Y0166935D01*
X0068311Y0165865D01*
X0068720Y0164877D01*
X0069477Y0164120D01*
X0070465Y0163711D01*
X0071535Y0163711D01*
X0072523Y0164120D01*
X0073103Y0164700D01*
X0077311Y0164700D01*
X0077311Y0164465D01*
X0077720Y0163477D01*
X0078477Y0162720D01*
X0079465Y0162311D01*
X0080535Y0162311D01*
X0081523Y0162720D01*
X0082280Y0163477D01*
X0082689Y0164465D01*
X0082689Y0165535D01*
X0082280Y0166523D01*
X0081523Y0167280D01*
X0080535Y0167689D01*
X0079715Y0167689D01*
X0079304Y0168100D01*
X0073103Y0168100D01*
X0072523Y0168680D01*
X0071535Y0169089D01*
X0070465Y0169089D01*
X0069477Y0168680D01*
X0068720Y0167923D01*
X0068311Y0166450D02*
X0052900Y0166450D01*
X0052900Y0164851D02*
X0068746Y0164851D01*
X0077945Y0163253D02*
X0052900Y0163253D01*
X0053743Y0161654D02*
X0086100Y0161654D01*
X0086100Y0160056D02*
X0053623Y0160056D01*
X0079356Y0168048D02*
X0086100Y0168048D01*
X0086100Y0166450D02*
X0082310Y0166450D01*
X0082689Y0164851D02*
X0086100Y0164851D01*
X0086100Y0163253D02*
X0082055Y0163253D01*
X0090700Y0179238D02*
X0091561Y0179238D01*
X0105834Y0182435D02*
X0118300Y0182435D01*
X0117490Y0184033D02*
X0107510Y0184033D01*
X0107649Y0185632D02*
X0117351Y0185632D01*
X0118428Y0187230D02*
X0106572Y0187230D01*
X0121572Y0187230D02*
X0167100Y0187230D01*
X0167100Y0185632D02*
X0122649Y0185632D01*
X0122510Y0184033D02*
X0167100Y0184033D01*
X0167100Y0182435D02*
X0121700Y0182435D01*
X0121700Y0180836D02*
X0167100Y0180836D01*
X0166811Y0179238D02*
X0121700Y0179238D01*
X0121700Y0177639D02*
X0138635Y0177639D01*
X0137037Y0176041D02*
X0121700Y0176041D01*
X0121700Y0174442D02*
X0135438Y0174442D01*
X0133840Y0172844D02*
X0121700Y0172844D01*
X0121700Y0171245D02*
X0132241Y0171245D01*
X0130643Y0169647D02*
X0121700Y0169647D01*
X0121700Y0168048D02*
X0129044Y0168048D01*
X0127445Y0166450D02*
X0121700Y0166450D01*
X0121700Y0164851D02*
X0125847Y0164851D01*
X0124248Y0163253D02*
X0121700Y0163253D01*
X0121700Y0161654D02*
X0123900Y0161654D01*
X0123900Y0160056D02*
X0121700Y0160056D01*
X0121700Y0158457D02*
X0123900Y0158457D01*
X0123900Y0156859D02*
X0121700Y0156859D01*
X0121700Y0155260D02*
X0123900Y0155260D01*
X0123900Y0153662D02*
X0122143Y0153662D01*
X0127300Y0153662D02*
X0143700Y0153662D01*
X0143700Y0153503D02*
X0143120Y0152923D01*
X0142711Y0151935D01*
X0142711Y0150865D01*
X0143120Y0149877D01*
X0143877Y0149120D01*
X0144865Y0148711D01*
X0145935Y0148711D01*
X0146923Y0149120D01*
X0147680Y0149877D01*
X0148089Y0150865D01*
X0148089Y0151935D01*
X0147680Y0152923D01*
X0147100Y0153503D01*
X0147100Y0158297D01*
X0147280Y0158477D01*
X0147689Y0159465D01*
X0147689Y0160535D01*
X0147280Y0161523D01*
X0146523Y0162280D01*
X0145535Y0162689D01*
X0144465Y0162689D01*
X0143477Y0162280D01*
X0142720Y0161523D01*
X0142311Y0160535D01*
X0142311Y0159465D01*
X0142720Y0158477D01*
X0143477Y0157720D01*
X0143700Y0157628D01*
X0143700Y0153503D01*
X0142764Y0152063D02*
X0127891Y0152063D01*
X0128200Y0150465D02*
X0142877Y0150465D01*
X0144491Y0148866D02*
X0127343Y0148866D01*
X0132859Y0144070D02*
X0137141Y0144070D01*
X0135720Y0142472D02*
X0134280Y0142472D01*
X0134900Y0140873D02*
X0135100Y0140873D01*
X0135100Y0139275D02*
X0134900Y0139275D01*
X0134341Y0137676D02*
X0135659Y0137676D01*
X0136992Y0136078D02*
X0133008Y0136078D01*
X0143008Y0136078D02*
X0146992Y0136078D01*
X0145659Y0137676D02*
X0144341Y0137676D01*
X0144900Y0139275D02*
X0145100Y0139275D01*
X0145100Y0140873D02*
X0144900Y0140873D01*
X0144280Y0142472D02*
X0145720Y0142472D01*
X0147141Y0144070D02*
X0142859Y0144070D01*
X0146309Y0148866D02*
X0180330Y0148866D01*
X0181928Y0147268D02*
X0156737Y0147268D01*
X0158335Y0145669D02*
X0183527Y0145669D01*
X0182859Y0144070D02*
X0185125Y0144070D01*
X0184280Y0142472D02*
X0186724Y0142472D01*
X0188322Y0140873D02*
X0184900Y0140873D01*
X0184900Y0139275D02*
X0189921Y0139275D01*
X0191519Y0137676D02*
X0185565Y0137676D01*
X0184435Y0137676D02*
X0184341Y0137676D01*
X0187464Y0136078D02*
X0193118Y0136078D01*
X0194716Y0134479D02*
X0187689Y0134479D01*
X0186700Y0132881D02*
X0196315Y0132881D01*
X0197700Y0131282D02*
X0186700Y0131282D01*
X0186700Y0129684D02*
X0197700Y0129684D01*
X0197700Y0128085D02*
X0186700Y0128085D01*
X0187295Y0126487D02*
X0196010Y0126487D01*
X0195600Y0124888D02*
X0187689Y0124888D01*
X0187093Y0123290D02*
X0195286Y0123290D01*
X0176992Y0136078D02*
X0173008Y0136078D01*
X0172776Y0135846D02*
X0174154Y0137224D01*
X0174900Y0139025D01*
X0174900Y0140975D01*
X0174154Y0142776D01*
X0172776Y0144154D01*
X0170975Y0144900D01*
X0169025Y0144900D01*
X0167224Y0144154D01*
X0165846Y0142776D01*
X0165100Y0140975D01*
X0165100Y0139025D01*
X0165846Y0137224D01*
X0167224Y0135846D01*
X0169025Y0135100D01*
X0170975Y0135100D01*
X0172776Y0135846D01*
X0174341Y0137676D02*
X0175659Y0137676D01*
X0175100Y0139275D02*
X0174900Y0139275D01*
X0174900Y0140873D02*
X0175100Y0140873D01*
X0175720Y0142472D02*
X0174280Y0142472D01*
X0172859Y0144070D02*
X0177141Y0144070D01*
X0178731Y0150465D02*
X0147923Y0150465D01*
X0148036Y0152063D02*
X0177133Y0152063D01*
X0175534Y0153662D02*
X0147100Y0153662D01*
X0147100Y0155260D02*
X0173936Y0155260D01*
X0172337Y0156859D02*
X0147100Y0156859D01*
X0147260Y0158457D02*
X0170739Y0158457D01*
X0169140Y0160056D02*
X0147689Y0160056D01*
X0147149Y0161654D02*
X0167542Y0161654D01*
X0178662Y0166450D02*
X0181338Y0166450D01*
X0180288Y0168048D02*
X0179712Y0168048D01*
X0179342Y0172844D02*
X0180658Y0172844D01*
X0182398Y0174442D02*
X0177602Y0174442D01*
X0187602Y0174442D02*
X0192398Y0174442D01*
X0190658Y0172844D02*
X0189342Y0172844D01*
X0189712Y0168048D02*
X0190288Y0168048D01*
X0191338Y0166450D02*
X0188662Y0166450D01*
X0197602Y0174442D02*
X0229500Y0174442D01*
X0229500Y0172844D02*
X0199342Y0172844D01*
X0211747Y0176041D02*
X0153163Y0176041D01*
X0151565Y0177639D02*
X0167558Y0177639D01*
X0162398Y0174442D02*
X0157602Y0174442D01*
X0159342Y0172844D02*
X0160658Y0172844D01*
X0147943Y0163253D02*
X0129057Y0163253D01*
X0130655Y0164851D02*
X0146345Y0164851D01*
X0141338Y0166450D02*
X0132254Y0166450D01*
X0133852Y0168048D02*
X0140288Y0168048D01*
X0139900Y0169647D02*
X0135451Y0169647D01*
X0137049Y0171245D02*
X0139996Y0171245D01*
X0140658Y0172844D02*
X0138648Y0172844D01*
X0142851Y0161654D02*
X0127458Y0161654D01*
X0127300Y0160056D02*
X0142311Y0160056D01*
X0142740Y0158457D02*
X0127300Y0158457D01*
X0127300Y0156859D02*
X0143700Y0156859D01*
X0143700Y0155260D02*
X0127300Y0155260D01*
X0152859Y0144070D02*
X0155125Y0144070D01*
X0155720Y0142472D02*
X0154280Y0142472D01*
X0154900Y0140873D02*
X0155100Y0140873D01*
X0155100Y0139275D02*
X0154900Y0139275D01*
X0154341Y0137676D02*
X0155659Y0137676D01*
X0156992Y0136078D02*
X0153008Y0136078D01*
X0163008Y0136078D02*
X0166992Y0136078D01*
X0165659Y0137676D02*
X0164341Y0137676D01*
X0164900Y0139275D02*
X0165100Y0139275D01*
X0165100Y0140873D02*
X0164900Y0140873D01*
X0164280Y0142472D02*
X0165720Y0142472D01*
X0167141Y0144070D02*
X0162859Y0144070D01*
X0212500Y0185632D02*
X0227573Y0185632D01*
X0227311Y0187230D02*
X0212500Y0187230D01*
X0212500Y0188829D02*
X0228226Y0188829D01*
X0228179Y0184033D02*
X0229500Y0184033D01*
X0221821Y0184033D02*
X0218179Y0184033D01*
X0219512Y0182435D02*
X0220488Y0182435D01*
X0220458Y0177639D02*
X0219542Y0177639D01*
X0218253Y0176041D02*
X0221747Y0176041D01*
X0228253Y0176041D02*
X0229500Y0176041D01*
X0248253Y0176041D02*
X0251747Y0176041D01*
X0250458Y0177639D02*
X0249542Y0177639D01*
X0249512Y0182435D02*
X0250488Y0182435D01*
X0251821Y0184033D02*
X0248179Y0184033D01*
X0246947Y0200300D02*
X0243053Y0200300D01*
X0240300Y0203053D01*
X0240300Y0206947D01*
X0243053Y0209700D01*
X0246947Y0209700D01*
X0249700Y0206947D01*
X0249700Y0203053D01*
X0246947Y0200300D01*
X0248264Y0201617D02*
X0251736Y0201617D01*
X0250300Y0203215D02*
X0249700Y0203215D01*
X0249700Y0204814D02*
X0250300Y0204814D01*
X0250300Y0206412D02*
X0249700Y0206412D01*
X0248636Y0208011D02*
X0251364Y0208011D01*
X0252963Y0209609D02*
X0247037Y0209609D01*
X0242963Y0209609D02*
X0237037Y0209609D01*
X0236947Y0209700D02*
X0233053Y0209700D01*
X0230300Y0206947D01*
X0230300Y0203053D01*
X0233053Y0200300D01*
X0236947Y0200300D01*
X0239700Y0203053D01*
X0239700Y0206947D01*
X0236947Y0209700D01*
X0238636Y0208011D02*
X0241364Y0208011D01*
X0240300Y0206412D02*
X0239700Y0206412D01*
X0239700Y0204814D02*
X0240300Y0204814D01*
X0240300Y0203215D02*
X0239700Y0203215D01*
X0238264Y0201617D02*
X0241736Y0201617D01*
X0231736Y0201617D02*
X0228264Y0201617D01*
X0229700Y0203215D02*
X0230300Y0203215D01*
X0230300Y0204814D02*
X0229700Y0204814D01*
X0229700Y0206412D02*
X0230300Y0206412D01*
X0231364Y0208011D02*
X0228636Y0208011D01*
X0227037Y0209609D02*
X0232963Y0209609D01*
X0222963Y0209609D02*
X0217037Y0209609D01*
X0218636Y0208011D02*
X0221364Y0208011D01*
X0220300Y0206412D02*
X0219700Y0206412D01*
X0219700Y0204814D02*
X0220300Y0204814D01*
X0220300Y0203215D02*
X0219700Y0203215D01*
X0218264Y0201617D02*
X0221736Y0201617D01*
X0209100Y0208011D02*
X0208636Y0208011D01*
X0202963Y0209609D02*
X0197037Y0209609D01*
X0196947Y0209700D02*
X0193053Y0209700D01*
X0190300Y0206947D01*
X0190300Y0203053D01*
X0193053Y0200300D01*
X0196947Y0200300D01*
X0199700Y0203053D01*
X0199700Y0206947D01*
X0196947Y0209700D01*
X0198636Y0208011D02*
X0201364Y0208011D01*
X0200300Y0206412D02*
X0199700Y0206412D01*
X0199700Y0204814D02*
X0200300Y0204814D01*
X0200300Y0203215D02*
X0199700Y0203215D01*
X0198264Y0201617D02*
X0201736Y0201617D01*
X0191736Y0201617D02*
X0188264Y0201617D01*
X0186947Y0200300D02*
X0189700Y0203053D01*
X0189700Y0206947D01*
X0186947Y0209700D01*
X0183053Y0209700D01*
X0180300Y0206947D01*
X0180300Y0203053D01*
X0183053Y0200300D01*
X0186947Y0200300D01*
X0189700Y0203215D02*
X0190300Y0203215D01*
X0190300Y0204814D02*
X0189700Y0204814D01*
X0189700Y0206412D02*
X0190300Y0206412D01*
X0191364Y0208011D02*
X0188636Y0208011D01*
X0187037Y0209609D02*
X0192963Y0209609D01*
X0182963Y0209609D02*
X0171037Y0209609D01*
X0172636Y0208011D02*
X0181364Y0208011D01*
X0180300Y0206412D02*
X0173700Y0206412D01*
X0173700Y0204814D02*
X0180300Y0204814D01*
X0180300Y0203215D02*
X0173700Y0203215D01*
X0172264Y0201617D02*
X0181736Y0201617D01*
X0167100Y0196821D02*
X0166981Y0196821D01*
X0167100Y0192026D02*
X0149329Y0192026D01*
X0162264Y0201617D02*
X0165736Y0201617D01*
X0164300Y0203215D02*
X0163700Y0203215D01*
X0163700Y0204814D02*
X0164300Y0204814D01*
X0164300Y0206412D02*
X0163700Y0206412D01*
X0162636Y0208011D02*
X0165364Y0208011D01*
X0166963Y0209609D02*
X0161037Y0209609D01*
X0210598Y0212806D02*
X0258648Y0212806D01*
X0273200Y0134479D02*
X0231700Y0134479D01*
X0231700Y0132881D02*
X0273200Y0132881D01*
X0273200Y0131282D02*
X0231700Y0131282D01*
X0231700Y0129684D02*
X0273200Y0129684D01*
X0273200Y0128085D02*
X0231700Y0128085D01*
X0231700Y0126487D02*
X0273200Y0126487D01*
X0273200Y0124888D02*
X0231700Y0124888D01*
X0231700Y0123290D02*
X0273200Y0123290D01*
X0273200Y0121691D02*
X0231700Y0121691D01*
X0231700Y0120093D02*
X0273200Y0120093D01*
X0273200Y0118494D02*
X0231700Y0118494D01*
X0231700Y0116896D02*
X0273200Y0116896D01*
X0273200Y0115297D02*
X0231700Y0115297D01*
X0231700Y0113699D02*
X0273200Y0113699D01*
X0273200Y0112100D02*
X0231700Y0112100D01*
X0231700Y0110502D02*
X0273200Y0110502D01*
X0273200Y0108903D02*
X0231700Y0108903D01*
X0231700Y0107305D02*
X0273200Y0107305D01*
X0273200Y0105706D02*
X0231700Y0105706D01*
X0231700Y0104108D02*
X0273200Y0104108D01*
X0273200Y0102509D02*
X0231700Y0102509D01*
X0231700Y0100911D02*
X0273200Y0100911D01*
X0273200Y0099312D02*
X0231700Y0099312D01*
X0231700Y0097714D02*
X0273200Y0097714D01*
X0273200Y0096115D02*
X0231700Y0096115D01*
X0231700Y0094517D02*
X0273200Y0094517D01*
X0273200Y0092918D02*
X0231700Y0092918D01*
X0231700Y0091320D02*
X0273200Y0091320D01*
X0273200Y0089721D02*
X0231700Y0089721D01*
X0230527Y0088123D02*
X0273200Y0088123D01*
X0273200Y0086524D02*
X0228928Y0086524D01*
X0227330Y0084926D02*
X0273200Y0084926D01*
X0273200Y0083327D02*
X0225731Y0083327D01*
X0226162Y0081729D02*
X0273200Y0081729D01*
X0273200Y0080130D02*
X0226403Y0080130D01*
X0226161Y0078532D02*
X0273200Y0078532D01*
X0273200Y0076933D02*
X0225471Y0076933D01*
X0227070Y0075334D02*
X0273200Y0075334D01*
X0273200Y0073736D02*
X0228668Y0073736D01*
X0230267Y0072137D02*
X0273200Y0072137D01*
X0273200Y0070539D02*
X0231700Y0070539D01*
X0231700Y0068940D02*
X0273200Y0068940D01*
X0273200Y0067342D02*
X0231700Y0067342D01*
X0241366Y0062546D02*
X0273200Y0062546D01*
X0273200Y0060948D02*
X0242472Y0060948D01*
X0242900Y0059349D02*
X0273200Y0059349D01*
X0273200Y0057751D02*
X0242844Y0057751D01*
X0242182Y0056152D02*
X0273200Y0056152D01*
X0273200Y0054554D02*
X0240634Y0054554D01*
X0223500Y0033773D02*
X0206700Y0033773D01*
X0206700Y0032175D02*
X0223500Y0032175D01*
X0223620Y0030576D02*
X0207672Y0030576D01*
X0207487Y0028978D02*
X0225218Y0028978D01*
X0212740Y0019387D02*
X0207260Y0019387D01*
X0208859Y0017788D02*
X0211141Y0017788D01*
X0210300Y0016190D02*
X0209700Y0016190D01*
X0209700Y0014591D02*
X0210300Y0014591D01*
X0210361Y0012993D02*
X0209639Y0012993D01*
X0197000Y0009796D02*
X0111809Y0009796D01*
X0113053Y0010300D02*
X0116947Y0010300D01*
X0119700Y0013053D01*
X0119700Y0016947D01*
X0116947Y0019700D01*
X0113053Y0019700D01*
X0110300Y0016947D01*
X0110300Y0013053D01*
X0113053Y0010300D01*
X0111959Y0011394D02*
X0110210Y0011394D01*
X0110361Y0012993D02*
X0108612Y0012993D01*
X0107689Y0014591D02*
X0110300Y0014591D01*
X0110300Y0016190D02*
X0106813Y0016190D01*
X0103187Y0016190D02*
X0067705Y0016190D01*
X0067705Y0016533D02*
X0066532Y0019365D01*
X0064365Y0021532D01*
X0061533Y0022705D01*
X0058467Y0022705D01*
X0055635Y0021532D01*
X0053468Y0019365D01*
X0052294Y0016533D01*
X0052294Y0013467D01*
X0053468Y0010635D01*
X0055635Y0008468D01*
X0058467Y0007294D01*
X0061533Y0007294D01*
X0064365Y0008468D01*
X0066532Y0010635D01*
X0067705Y0013467D01*
X0067705Y0016533D01*
X0067186Y0017788D02*
X0111141Y0017788D01*
X0112740Y0019387D02*
X0066511Y0019387D01*
X0064912Y0020985D02*
X0153300Y0020985D01*
X0153300Y0022584D02*
X0106193Y0022584D01*
X0107572Y0024182D02*
X0153300Y0024182D01*
X0153300Y0025781D02*
X0107587Y0025781D01*
X0106700Y0027379D02*
X0152818Y0027379D01*
X0152311Y0028978D02*
X0106700Y0028978D01*
X0106700Y0030576D02*
X0152773Y0030576D01*
X0144717Y0036970D02*
X0125283Y0036970D01*
X0126672Y0038569D02*
X0143328Y0038569D01*
X0142700Y0040167D02*
X0127300Y0040167D01*
X0127300Y0041766D02*
X0142700Y0041766D01*
X0143218Y0043364D02*
X0126782Y0043364D01*
X0125550Y0044963D02*
X0144450Y0044963D01*
X0144966Y0054554D02*
X0125034Y0054554D01*
X0126582Y0056152D02*
X0143418Y0056152D01*
X0142756Y0057751D02*
X0127244Y0057751D01*
X0127300Y0059349D02*
X0142700Y0059349D01*
X0143128Y0060948D02*
X0126872Y0060948D01*
X0125766Y0062546D02*
X0144234Y0062546D01*
X0102759Y0046561D02*
X0045748Y0046561D01*
X0044150Y0044963D02*
X0102311Y0044963D01*
X0102833Y0043364D02*
X0042551Y0043364D01*
X0042400Y0041766D02*
X0045553Y0041766D01*
X0046111Y0042324D02*
X0044676Y0040889D01*
X0043900Y0039014D01*
X0043900Y0036986D01*
X0044676Y0035111D01*
X0046111Y0033676D01*
X0047237Y0033210D01*
X0046889Y0033097D01*
X0046117Y0032704D01*
X0045417Y0032195D01*
X0044805Y0031583D01*
X0044296Y0030883D01*
X0043903Y0030111D01*
X0043635Y0029288D01*
X0043500Y0028433D01*
X0043500Y0028200D01*
X0048800Y0028200D01*
X0048800Y0027800D01*
X0043500Y0027800D01*
X0043500Y0027567D01*
X0043635Y0026712D01*
X0043903Y0025889D01*
X0044296Y0025117D01*
X0044805Y0024417D01*
X0045417Y0023805D01*
X0046117Y0023296D01*
X0046889Y0022903D01*
X0047712Y0022635D01*
X0048567Y0022500D01*
X0048800Y0022500D01*
X0048800Y0027800D01*
X0049200Y0027800D01*
X0049200Y0028200D01*
X0054500Y0028200D01*
X0054500Y0028433D01*
X0054365Y0029288D01*
X0054097Y0030111D01*
X0053704Y0030883D01*
X0053195Y0031583D01*
X0052583Y0032195D01*
X0051883Y0032704D01*
X0051111Y0033097D01*
X0050763Y0033210D01*
X0051889Y0033676D01*
X0053324Y0035111D01*
X0054100Y0036986D01*
X0054100Y0039014D01*
X0053324Y0040889D01*
X0051889Y0042324D01*
X0050014Y0043100D01*
X0047986Y0043100D01*
X0046111Y0042324D01*
X0044378Y0040167D02*
X0042400Y0040167D01*
X0042400Y0038569D02*
X0043900Y0038569D01*
X0043906Y0036970D02*
X0042400Y0036970D01*
X0042842Y0035372D02*
X0044568Y0035372D01*
X0043189Y0033773D02*
X0046014Y0033773D01*
X0045397Y0032175D02*
X0042477Y0032175D01*
X0044140Y0030576D02*
X0006800Y0030576D01*
X0006800Y0028978D02*
X0043586Y0028978D01*
X0043530Y0027379D02*
X0006800Y0027379D01*
X0006800Y0025781D02*
X0043958Y0025781D01*
X0045040Y0024182D02*
X0006800Y0024182D01*
X0006800Y0022584D02*
X0048039Y0022584D01*
X0048800Y0022584D02*
X0049200Y0022584D01*
X0049200Y0022500D02*
X0049433Y0022500D01*
X0050288Y0022635D01*
X0051111Y0022903D01*
X0051883Y0023296D01*
X0052583Y0023805D01*
X0053195Y0024417D01*
X0053704Y0025117D01*
X0054097Y0025889D01*
X0054365Y0026712D01*
X0054500Y0027567D01*
X0054500Y0027800D01*
X0049200Y0027800D01*
X0049200Y0022500D01*
X0049961Y0022584D02*
X0058173Y0022584D01*
X0061827Y0022584D02*
X0103807Y0022584D01*
X0102428Y0024182D02*
X0052960Y0024182D01*
X0054042Y0025781D02*
X0102413Y0025781D01*
X0103300Y0027379D02*
X0054470Y0027379D01*
X0054414Y0028978D02*
X0103300Y0028978D01*
X0103300Y0030576D02*
X0053860Y0030576D01*
X0052603Y0032175D02*
X0103300Y0032175D01*
X0103300Y0033773D02*
X0083498Y0033773D01*
X0084154Y0034429D02*
X0084900Y0036230D01*
X0084900Y0038179D01*
X0084154Y0039980D01*
X0082776Y0041359D01*
X0080975Y0042105D01*
X0079025Y0042105D01*
X0077224Y0041359D01*
X0075846Y0039980D01*
X0075100Y0038179D01*
X0075100Y0036230D01*
X0075846Y0034429D01*
X0077224Y0033051D01*
X0079025Y0032305D01*
X0080975Y0032305D01*
X0082776Y0033051D01*
X0084154Y0034429D01*
X0084544Y0035372D02*
X0103300Y0035372D01*
X0103300Y0036970D02*
X0084900Y0036970D01*
X0084739Y0038569D02*
X0103300Y0038569D01*
X0103300Y0040167D02*
X0083967Y0040167D01*
X0081793Y0041766D02*
X0103300Y0041766D01*
X0078207Y0041766D02*
X0052447Y0041766D01*
X0053622Y0040167D02*
X0076033Y0040167D01*
X0075261Y0038569D02*
X0054100Y0038569D01*
X0054094Y0036970D02*
X0075100Y0036970D01*
X0075456Y0035372D02*
X0053432Y0035372D01*
X0051986Y0033773D02*
X0076502Y0033773D01*
X0055088Y0020985D02*
X0006800Y0020985D01*
X0006800Y0019387D02*
X0053489Y0019387D01*
X0052814Y0017788D02*
X0006800Y0017788D01*
X0006800Y0016190D02*
X0052294Y0016190D01*
X0052294Y0014591D02*
X0006800Y0014591D01*
X0006800Y0012993D02*
X0052491Y0012993D01*
X0053153Y0011394D02*
X0006800Y0011394D01*
X0006800Y0009796D02*
X0054307Y0009796D01*
X0056288Y0008197D02*
X0006800Y0008197D01*
X0006800Y0032175D02*
X0038523Y0032175D01*
X0037811Y0033773D02*
X0006800Y0033773D01*
X0006800Y0035372D02*
X0038158Y0035372D01*
X0038600Y0036970D02*
X0006800Y0036970D01*
X0006800Y0038569D02*
X0038600Y0038569D01*
X0038600Y0040167D02*
X0006800Y0040167D01*
X0006800Y0041766D02*
X0038600Y0041766D01*
X0038600Y0043364D02*
X0006800Y0043364D01*
X0006800Y0044963D02*
X0038776Y0044963D01*
X0040374Y0046561D02*
X0006800Y0046561D01*
X0048800Y0027379D02*
X0049200Y0027379D01*
X0049200Y0025781D02*
X0048800Y0025781D01*
X0048800Y0024182D02*
X0049200Y0024182D01*
X0067705Y0014591D02*
X0102311Y0014591D01*
X0102590Y0012993D02*
X0067509Y0012993D01*
X0066847Y0011394D02*
X0105402Y0011394D01*
X0107000Y0009796D02*
X0065693Y0009796D01*
X0063712Y0008197D02*
X0108599Y0008197D01*
X0118041Y0011394D02*
X0121959Y0011394D01*
X0123053Y0010300D02*
X0120300Y0013053D01*
X0120300Y0016947D01*
X0123053Y0019700D01*
X0126947Y0019700D01*
X0129700Y0016947D01*
X0129700Y0013053D01*
X0126947Y0010300D01*
X0123053Y0010300D01*
X0120361Y0012993D02*
X0119639Y0012993D01*
X0119700Y0014591D02*
X0120300Y0014591D01*
X0120300Y0016190D02*
X0119700Y0016190D01*
X0118859Y0017788D02*
X0121141Y0017788D01*
X0122740Y0019387D02*
X0117260Y0019387D01*
X0127260Y0019387D02*
X0132740Y0019387D01*
X0133053Y0019700D02*
X0130300Y0016947D01*
X0130300Y0013053D01*
X0133053Y0010300D01*
X0136947Y0010300D01*
X0139700Y0013053D01*
X0139700Y0016947D01*
X0136947Y0019700D01*
X0133053Y0019700D01*
X0131141Y0017788D02*
X0128859Y0017788D01*
X0129700Y0016190D02*
X0130300Y0016190D01*
X0130300Y0014591D02*
X0129700Y0014591D01*
X0129639Y0012993D02*
X0130361Y0012993D01*
X0131959Y0011394D02*
X0128041Y0011394D01*
X0138041Y0011394D02*
X0141959Y0011394D01*
X0143053Y0010300D02*
X0140300Y0013053D01*
X0140300Y0016947D01*
X0143053Y0019700D01*
X0146947Y0019700D01*
X0149700Y0016947D01*
X0149700Y0013053D01*
X0146947Y0010300D01*
X0143053Y0010300D01*
X0140361Y0012993D02*
X0139639Y0012993D01*
X0139700Y0014591D02*
X0140300Y0014591D01*
X0140300Y0016190D02*
X0139700Y0016190D01*
X0138859Y0017788D02*
X0141141Y0017788D01*
X0142740Y0019387D02*
X0137260Y0019387D01*
X0147260Y0019387D02*
X0152740Y0019387D01*
X0151141Y0017788D02*
X0148859Y0017788D01*
X0149700Y0016190D02*
X0150300Y0016190D01*
X0150300Y0014591D02*
X0149700Y0014591D01*
X0149639Y0012993D02*
X0150361Y0012993D01*
X0151959Y0011394D02*
X0148041Y0011394D01*
X0157260Y0019387D02*
X0162174Y0019387D01*
X0162888Y0020100D02*
X0159900Y0017112D01*
X0159900Y0015184D01*
X0164816Y0015184D01*
X0164816Y0014816D01*
X0165184Y0014816D01*
X0165184Y0009900D01*
X0167112Y0009900D01*
X0170000Y0012788D01*
X0172888Y0009900D01*
X0174816Y0009900D01*
X0174816Y0014816D01*
X0175184Y0014816D01*
X0175184Y0009900D01*
X0177112Y0009900D01*
X0180100Y0012888D01*
X0180100Y0014816D01*
X0175184Y0014816D01*
X0175184Y0015184D01*
X0174816Y0015184D01*
X0174816Y0014816D01*
X0165184Y0014816D01*
X0165184Y0015184D01*
X0164816Y0015184D01*
X0164816Y0020100D01*
X0162888Y0020100D01*
X0164816Y0019387D02*
X0165184Y0019387D01*
X0165184Y0020100D02*
X0165184Y0015184D01*
X0170100Y0015184D01*
X0174816Y0015184D01*
X0174816Y0020100D01*
X0172888Y0020100D01*
X0170000Y0017212D01*
X0167112Y0020100D01*
X0165184Y0020100D01*
X0165184Y0017788D02*
X0164816Y0017788D01*
X0164816Y0016190D02*
X0165184Y0016190D01*
X0164816Y0014816D02*
X0159900Y0014816D01*
X0159900Y0012888D01*
X0162888Y0009900D01*
X0164816Y0009900D01*
X0164816Y0014816D01*
X0164816Y0014591D02*
X0165184Y0014591D01*
X0165184Y0012993D02*
X0164816Y0012993D01*
X0164816Y0011394D02*
X0165184Y0011394D01*
X0168607Y0011394D02*
X0171393Y0011394D01*
X0174816Y0011394D02*
X0175184Y0011394D01*
X0175184Y0012993D02*
X0174816Y0012993D01*
X0174816Y0014591D02*
X0175184Y0014591D01*
X0175184Y0015184D02*
X0180100Y0015184D01*
X0180100Y0017112D01*
X0177112Y0020100D01*
X0175184Y0020100D01*
X0175184Y0015184D01*
X0175184Y0016190D02*
X0174816Y0016190D01*
X0174816Y0017788D02*
X0175184Y0017788D01*
X0175184Y0019387D02*
X0174816Y0019387D01*
X0172174Y0019387D02*
X0167826Y0019387D01*
X0169424Y0017788D02*
X0170576Y0017788D01*
X0177826Y0019387D02*
X0182740Y0019387D01*
X0183053Y0019700D02*
X0180300Y0016947D01*
X0180300Y0013053D01*
X0183053Y0010300D01*
X0186947Y0010300D01*
X0189700Y0013053D01*
X0189700Y0016947D01*
X0186947Y0019700D01*
X0183053Y0019700D01*
X0181141Y0017788D02*
X0179424Y0017788D01*
X0180100Y0016190D02*
X0180300Y0016190D01*
X0180300Y0014591D02*
X0180100Y0014591D01*
X0180100Y0012993D02*
X0180361Y0012993D01*
X0181959Y0011394D02*
X0178607Y0011394D01*
X0188041Y0011394D02*
X0195402Y0011394D01*
X0193803Y0012993D02*
X0189639Y0012993D01*
X0189700Y0014591D02*
X0192205Y0014591D01*
X0190606Y0016190D02*
X0189700Y0016190D01*
X0189300Y0017788D02*
X0188859Y0017788D01*
X0188811Y0019387D02*
X0187260Y0019387D01*
X0188311Y0020985D02*
X0156700Y0020985D01*
X0158859Y0017788D02*
X0160576Y0017788D01*
X0159900Y0016190D02*
X0159700Y0016190D01*
X0159700Y0014591D02*
X0159900Y0014591D01*
X0159900Y0012993D02*
X0159639Y0012993D01*
X0158041Y0011394D02*
X0161393Y0011394D01*
X0080086Y0059349D02*
X0079914Y0059349D01*
X0079914Y0060948D02*
X0080086Y0060948D01*
X0080086Y0062546D02*
X0079914Y0062546D01*
X0079914Y0064145D02*
X0080086Y0064145D01*
X0080086Y0065743D02*
X0079914Y0065743D01*
X0079914Y0067342D02*
X0080086Y0067342D01*
X0090070Y0084926D02*
X0048330Y0084926D01*
X0049928Y0086524D02*
X0088472Y0086524D01*
X0086873Y0088123D02*
X0051527Y0088123D01*
X0053125Y0089721D02*
X0084108Y0089721D01*
X0082868Y0091320D02*
X0054724Y0091320D01*
X0056322Y0092918D02*
X0082966Y0092918D01*
X0105700Y0096115D02*
X0106955Y0096115D01*
X0075907Y0124888D02*
X0059492Y0124888D01*
X0056081Y0128085D02*
X0006800Y0128085D01*
X0006800Y0126487D02*
X0054483Y0126487D01*
X0052884Y0124888D02*
X0006800Y0124888D01*
X0006800Y0123290D02*
X0051286Y0123290D01*
X0049687Y0121691D02*
X0006800Y0121691D01*
X0006800Y0120093D02*
X0048089Y0120093D01*
X0046490Y0118494D02*
X0006800Y0118494D01*
X0006800Y0116896D02*
X0044892Y0116896D01*
X0043293Y0115297D02*
X0006800Y0115297D01*
X0006800Y0113699D02*
X0041695Y0113699D01*
X0040096Y0112100D02*
X0006800Y0112100D01*
X0006800Y0110502D02*
X0038498Y0110502D01*
X0035626Y0108903D02*
X0006800Y0108903D01*
X0006800Y0107305D02*
X0034800Y0107305D01*
X0035122Y0105706D02*
X0006800Y0105706D01*
X0006800Y0129684D02*
X0045912Y0129684D01*
X0040641Y0131282D02*
X0006800Y0131282D01*
X0006800Y0132881D02*
X0040200Y0132881D01*
X0040802Y0134479D02*
X0006800Y0134479D01*
X0040109Y0107305D02*
X0040200Y0107305D01*
X0040522Y0105706D02*
X0039678Y0105706D01*
X0050523Y0132881D02*
X0054068Y0132881D01*
X0055309Y0134479D02*
X0049967Y0134479D01*
X0080395Y0131282D02*
X0082605Y0131282D01*
X0082200Y0129684D02*
X0080800Y0129684D01*
X0082176Y0198420D02*
X0069250Y0198420D01*
X0070916Y0200018D02*
X0080577Y0200018D01*
X0083787Y0201617D02*
X0085736Y0201617D01*
X0085386Y0200018D02*
X0087300Y0200018D01*
X0087300Y0198420D02*
X0086984Y0198420D01*
X0084300Y0203215D02*
X0083700Y0203215D01*
X0083700Y0204814D02*
X0084300Y0204814D01*
X0084300Y0206412D02*
X0083700Y0206412D01*
X0082636Y0208011D02*
X0085364Y0208011D01*
X0086963Y0209609D02*
X0081037Y0209609D01*
X0076963Y0209609D02*
X0071288Y0209609D01*
X0072093Y0208011D02*
X0075364Y0208011D01*
X0074300Y0206412D02*
X0072705Y0206412D01*
X0072705Y0204814D02*
X0074300Y0204814D01*
X0074300Y0203215D02*
X0072601Y0203215D01*
X0071939Y0201617D02*
X0075736Y0201617D01*
X0069689Y0211208D02*
X0086788Y0211208D01*
X0093195Y0209609D02*
X0096963Y0209609D01*
X0095364Y0208011D02*
X0094793Y0208011D01*
X0214328Y0086524D02*
X0214500Y0086524D01*
X0214500Y0084926D02*
X0212730Y0084926D01*
X0211131Y0083327D02*
X0214500Y0083327D01*
X0214500Y0081729D02*
X0209533Y0081729D01*
X0207934Y0080130D02*
X0214500Y0080130D01*
X0213615Y0078532D02*
X0206336Y0078532D01*
X0204724Y0081729D02*
X0202900Y0081729D01*
X0202900Y0080130D02*
X0203126Y0080130D01*
M02*
