%
M48
M72
T01C0.0120
T02C0.0138
T03C0.0315
T04C0.0320
T05C0.0354
T06C0.0394
T07C0.0400
T08C0.1181
%
T01
X10280Y13280
X13400Y8600
X9320Y17720
X2240Y5480
X1640Y5180
X12080Y8540
X9260Y13340
X10640Y9320
X9740Y13340
X19700Y10460
X12560Y15080
X20240Y7400
X19820Y12500
X9440Y13040
X12260Y14720
X4760Y13340
X5660Y13220
X13760Y9380
X8540Y9200
X10100Y7640
X4280Y13280
X7820Y12980
X10700Y12740
X5120Y16100
X3740Y10700
X8480Y12980
X4280Y10700
X8480Y12680
X10700Y13040
T02
X4050Y3400
X4800Y5150
X7000Y5000
X15500Y2900
X16500Y19500
X15500Y19500
X14750Y19400
X10000Y8500
X21000Y16000
X3500Y2000
X3250Y5750
X17500Y19500
X19900Y19500
X18700Y19400
X6000Y17500
X7500Y19000
X18500Y12500
X18500Y13500
X22500Y19500
X23000Y18680
X22280Y9560
X22500Y13000
X7000Y6000
X5500Y8000
X7100Y16640
X8000Y16500
X9500Y16500
X10500Y16500
X16950Y17950
X20500Y3000
X14540Y15140
X14500Y16000
X19100Y2900
X19100Y2100
X23000Y5000
X22500Y15000
X21500Y15000
X19500Y15000
X23000Y3250
X11000Y7500
X10500Y4500
X10500Y1420
X10500Y2500
X23480Y2840
X18500Y15500
X18000Y16000
X10000Y9000
X10500Y8500
X10500Y18500
X12000Y18500
X5000Y17500
X5000Y19500
T03
X11000Y10000
X12000Y10000
X13000Y10000
X14000Y10000
X15000Y10000
X16000Y10000
X18000Y10000
X17000Y10000
X18000Y14000
X13000Y14000
X14000Y14000
X15000Y14000
X17000Y14000
X16000Y14000
X12000Y14000
X11000Y14000
T04
X24500Y18000
X25500Y18000
X21500Y18000
X22500Y18000
T05
X8000Y3720
X8000Y6280
T06
X21500Y20500
X20500Y1500
X22500Y20500
X23500Y20500
X24500Y20500
X25500Y20500
X20500Y20500
X19500Y20500
X18500Y20500
X16900Y20500
X15900Y20500
X14900Y20500
X13900Y20500
X12900Y20500
X11900Y20500
X10900Y20500
X9900Y20500
X21500Y1500
X22500Y1500
X23500Y1500
X24500Y1500
X25500Y1500
X18500Y1500
X17500Y1500
X16500Y1500
X15500Y1500
X14500Y1500
X13500Y1500
X8900Y20500
X7900Y20500
X12500Y1500
X11500Y1500
T07
X21220Y5890
X23780Y5890
X21220Y4110
X23780Y4110
X16720Y5890
X19280Y5890
X16720Y4110
X19280Y4110
X12220Y5890
X14780Y5890
X12220Y4110
X14780Y4110
X19500Y17000
X18500Y17000
X17500Y17000
X16500Y17000
X15500Y17000
X14500Y17000
X14500Y8000
X15500Y8000
X16500Y8000
X17500Y8000
X18500Y8000
X19500Y8000
X21423Y7306
X22130Y8013
X4900Y3800
X4900Y2800
T08
X26500Y14500
X26500Y3500
X6500Y20500
X6000Y1500
M30
