G75*
%MOIN*%
%OFA0B0*%
%FSLAX25Y25*%
%IPPOS*%
%LPD*%
%AMOC8*
5,1,8,0,0,1.08239X$1,22.5*
%
%ADD10C,0.00000*%
%ADD11R,0.03543X0.02756*%
%ADD12C,0.07000*%
%ADD13R,0.03937X0.04331*%
%ADD14C,0.07400*%
%ADD15R,0.04331X0.03937*%
%ADD16OC8,0.06600*%
%ADD17R,0.05906X0.05118*%
%ADD18R,0.05118X0.05906*%
%ADD19C,0.25000*%
%ADD20R,0.12598X0.12598*%
%ADD21R,0.02362X0.04724*%
%ADD22R,0.04600X0.06300*%
%ADD23R,0.03937X0.03150*%
%ADD24R,0.02500X0.09000*%
%ADD25C,0.00600*%
%ADD26C,0.02400*%
%ADD27C,0.01000*%
%ADD28C,0.02578*%
%ADD29C,0.01600*%
%ADD30C,0.02400*%
%ADD31C,0.00827*%
D10*
X0005000Y0005000D02*
X0005000Y0215000D01*
X0259000Y0215000D01*
X0265000Y0209000D01*
X0265000Y0164000D01*
X0275000Y0154000D01*
X0275000Y0025000D01*
X0265000Y0015000D01*
X0265000Y0005000D01*
X0005000Y0005000D01*
X0054094Y0015000D02*
X0054096Y0015153D01*
X0054102Y0015307D01*
X0054112Y0015460D01*
X0054126Y0015612D01*
X0054144Y0015765D01*
X0054166Y0015916D01*
X0054191Y0016067D01*
X0054221Y0016218D01*
X0054255Y0016368D01*
X0054292Y0016516D01*
X0054333Y0016664D01*
X0054378Y0016810D01*
X0054427Y0016956D01*
X0054480Y0017100D01*
X0054536Y0017242D01*
X0054596Y0017383D01*
X0054660Y0017523D01*
X0054727Y0017661D01*
X0054798Y0017797D01*
X0054873Y0017931D01*
X0054950Y0018063D01*
X0055032Y0018193D01*
X0055116Y0018321D01*
X0055204Y0018447D01*
X0055295Y0018570D01*
X0055389Y0018691D01*
X0055487Y0018809D01*
X0055587Y0018925D01*
X0055691Y0019038D01*
X0055797Y0019149D01*
X0055906Y0019257D01*
X0056018Y0019362D01*
X0056132Y0019463D01*
X0056250Y0019562D01*
X0056369Y0019658D01*
X0056491Y0019751D01*
X0056616Y0019840D01*
X0056743Y0019927D01*
X0056872Y0020009D01*
X0057003Y0020089D01*
X0057136Y0020165D01*
X0057271Y0020238D01*
X0057408Y0020307D01*
X0057547Y0020372D01*
X0057687Y0020434D01*
X0057829Y0020492D01*
X0057972Y0020547D01*
X0058117Y0020598D01*
X0058263Y0020645D01*
X0058410Y0020688D01*
X0058558Y0020727D01*
X0058707Y0020763D01*
X0058857Y0020794D01*
X0059008Y0020822D01*
X0059159Y0020846D01*
X0059312Y0020866D01*
X0059464Y0020882D01*
X0059617Y0020894D01*
X0059770Y0020902D01*
X0059923Y0020906D01*
X0060077Y0020906D01*
X0060230Y0020902D01*
X0060383Y0020894D01*
X0060536Y0020882D01*
X0060688Y0020866D01*
X0060841Y0020846D01*
X0060992Y0020822D01*
X0061143Y0020794D01*
X0061293Y0020763D01*
X0061442Y0020727D01*
X0061590Y0020688D01*
X0061737Y0020645D01*
X0061883Y0020598D01*
X0062028Y0020547D01*
X0062171Y0020492D01*
X0062313Y0020434D01*
X0062453Y0020372D01*
X0062592Y0020307D01*
X0062729Y0020238D01*
X0062864Y0020165D01*
X0062997Y0020089D01*
X0063128Y0020009D01*
X0063257Y0019927D01*
X0063384Y0019840D01*
X0063509Y0019751D01*
X0063631Y0019658D01*
X0063750Y0019562D01*
X0063868Y0019463D01*
X0063982Y0019362D01*
X0064094Y0019257D01*
X0064203Y0019149D01*
X0064309Y0019038D01*
X0064413Y0018925D01*
X0064513Y0018809D01*
X0064611Y0018691D01*
X0064705Y0018570D01*
X0064796Y0018447D01*
X0064884Y0018321D01*
X0064968Y0018193D01*
X0065050Y0018063D01*
X0065127Y0017931D01*
X0065202Y0017797D01*
X0065273Y0017661D01*
X0065340Y0017523D01*
X0065404Y0017383D01*
X0065464Y0017242D01*
X0065520Y0017100D01*
X0065573Y0016956D01*
X0065622Y0016810D01*
X0065667Y0016664D01*
X0065708Y0016516D01*
X0065745Y0016368D01*
X0065779Y0016218D01*
X0065809Y0016067D01*
X0065834Y0015916D01*
X0065856Y0015765D01*
X0065874Y0015612D01*
X0065888Y0015460D01*
X0065898Y0015307D01*
X0065904Y0015153D01*
X0065906Y0015000D01*
X0065904Y0014847D01*
X0065898Y0014693D01*
X0065888Y0014540D01*
X0065874Y0014388D01*
X0065856Y0014235D01*
X0065834Y0014084D01*
X0065809Y0013933D01*
X0065779Y0013782D01*
X0065745Y0013632D01*
X0065708Y0013484D01*
X0065667Y0013336D01*
X0065622Y0013190D01*
X0065573Y0013044D01*
X0065520Y0012900D01*
X0065464Y0012758D01*
X0065404Y0012617D01*
X0065340Y0012477D01*
X0065273Y0012339D01*
X0065202Y0012203D01*
X0065127Y0012069D01*
X0065050Y0011937D01*
X0064968Y0011807D01*
X0064884Y0011679D01*
X0064796Y0011553D01*
X0064705Y0011430D01*
X0064611Y0011309D01*
X0064513Y0011191D01*
X0064413Y0011075D01*
X0064309Y0010962D01*
X0064203Y0010851D01*
X0064094Y0010743D01*
X0063982Y0010638D01*
X0063868Y0010537D01*
X0063750Y0010438D01*
X0063631Y0010342D01*
X0063509Y0010249D01*
X0063384Y0010160D01*
X0063257Y0010073D01*
X0063128Y0009991D01*
X0062997Y0009911D01*
X0062864Y0009835D01*
X0062729Y0009762D01*
X0062592Y0009693D01*
X0062453Y0009628D01*
X0062313Y0009566D01*
X0062171Y0009508D01*
X0062028Y0009453D01*
X0061883Y0009402D01*
X0061737Y0009355D01*
X0061590Y0009312D01*
X0061442Y0009273D01*
X0061293Y0009237D01*
X0061143Y0009206D01*
X0060992Y0009178D01*
X0060841Y0009154D01*
X0060688Y0009134D01*
X0060536Y0009118D01*
X0060383Y0009106D01*
X0060230Y0009098D01*
X0060077Y0009094D01*
X0059923Y0009094D01*
X0059770Y0009098D01*
X0059617Y0009106D01*
X0059464Y0009118D01*
X0059312Y0009134D01*
X0059159Y0009154D01*
X0059008Y0009178D01*
X0058857Y0009206D01*
X0058707Y0009237D01*
X0058558Y0009273D01*
X0058410Y0009312D01*
X0058263Y0009355D01*
X0058117Y0009402D01*
X0057972Y0009453D01*
X0057829Y0009508D01*
X0057687Y0009566D01*
X0057547Y0009628D01*
X0057408Y0009693D01*
X0057271Y0009762D01*
X0057136Y0009835D01*
X0057003Y0009911D01*
X0056872Y0009991D01*
X0056743Y0010073D01*
X0056616Y0010160D01*
X0056491Y0010249D01*
X0056369Y0010342D01*
X0056250Y0010438D01*
X0056132Y0010537D01*
X0056018Y0010638D01*
X0055906Y0010743D01*
X0055797Y0010851D01*
X0055691Y0010962D01*
X0055587Y0011075D01*
X0055487Y0011191D01*
X0055389Y0011309D01*
X0055295Y0011430D01*
X0055204Y0011553D01*
X0055116Y0011679D01*
X0055032Y0011807D01*
X0054950Y0011937D01*
X0054873Y0012069D01*
X0054798Y0012203D01*
X0054727Y0012339D01*
X0054660Y0012477D01*
X0054596Y0012617D01*
X0054536Y0012758D01*
X0054480Y0012900D01*
X0054427Y0013044D01*
X0054378Y0013190D01*
X0054333Y0013336D01*
X0054292Y0013484D01*
X0054255Y0013632D01*
X0054221Y0013782D01*
X0054191Y0013933D01*
X0054166Y0014084D01*
X0054144Y0014235D01*
X0054126Y0014388D01*
X0054112Y0014540D01*
X0054102Y0014693D01*
X0054096Y0014847D01*
X0054094Y0015000D01*
X0259094Y0035000D02*
X0259096Y0035153D01*
X0259102Y0035307D01*
X0259112Y0035460D01*
X0259126Y0035612D01*
X0259144Y0035765D01*
X0259166Y0035916D01*
X0259191Y0036067D01*
X0259221Y0036218D01*
X0259255Y0036368D01*
X0259292Y0036516D01*
X0259333Y0036664D01*
X0259378Y0036810D01*
X0259427Y0036956D01*
X0259480Y0037100D01*
X0259536Y0037242D01*
X0259596Y0037383D01*
X0259660Y0037523D01*
X0259727Y0037661D01*
X0259798Y0037797D01*
X0259873Y0037931D01*
X0259950Y0038063D01*
X0260032Y0038193D01*
X0260116Y0038321D01*
X0260204Y0038447D01*
X0260295Y0038570D01*
X0260389Y0038691D01*
X0260487Y0038809D01*
X0260587Y0038925D01*
X0260691Y0039038D01*
X0260797Y0039149D01*
X0260906Y0039257D01*
X0261018Y0039362D01*
X0261132Y0039463D01*
X0261250Y0039562D01*
X0261369Y0039658D01*
X0261491Y0039751D01*
X0261616Y0039840D01*
X0261743Y0039927D01*
X0261872Y0040009D01*
X0262003Y0040089D01*
X0262136Y0040165D01*
X0262271Y0040238D01*
X0262408Y0040307D01*
X0262547Y0040372D01*
X0262687Y0040434D01*
X0262829Y0040492D01*
X0262972Y0040547D01*
X0263117Y0040598D01*
X0263263Y0040645D01*
X0263410Y0040688D01*
X0263558Y0040727D01*
X0263707Y0040763D01*
X0263857Y0040794D01*
X0264008Y0040822D01*
X0264159Y0040846D01*
X0264312Y0040866D01*
X0264464Y0040882D01*
X0264617Y0040894D01*
X0264770Y0040902D01*
X0264923Y0040906D01*
X0265077Y0040906D01*
X0265230Y0040902D01*
X0265383Y0040894D01*
X0265536Y0040882D01*
X0265688Y0040866D01*
X0265841Y0040846D01*
X0265992Y0040822D01*
X0266143Y0040794D01*
X0266293Y0040763D01*
X0266442Y0040727D01*
X0266590Y0040688D01*
X0266737Y0040645D01*
X0266883Y0040598D01*
X0267028Y0040547D01*
X0267171Y0040492D01*
X0267313Y0040434D01*
X0267453Y0040372D01*
X0267592Y0040307D01*
X0267729Y0040238D01*
X0267864Y0040165D01*
X0267997Y0040089D01*
X0268128Y0040009D01*
X0268257Y0039927D01*
X0268384Y0039840D01*
X0268509Y0039751D01*
X0268631Y0039658D01*
X0268750Y0039562D01*
X0268868Y0039463D01*
X0268982Y0039362D01*
X0269094Y0039257D01*
X0269203Y0039149D01*
X0269309Y0039038D01*
X0269413Y0038925D01*
X0269513Y0038809D01*
X0269611Y0038691D01*
X0269705Y0038570D01*
X0269796Y0038447D01*
X0269884Y0038321D01*
X0269968Y0038193D01*
X0270050Y0038063D01*
X0270127Y0037931D01*
X0270202Y0037797D01*
X0270273Y0037661D01*
X0270340Y0037523D01*
X0270404Y0037383D01*
X0270464Y0037242D01*
X0270520Y0037100D01*
X0270573Y0036956D01*
X0270622Y0036810D01*
X0270667Y0036664D01*
X0270708Y0036516D01*
X0270745Y0036368D01*
X0270779Y0036218D01*
X0270809Y0036067D01*
X0270834Y0035916D01*
X0270856Y0035765D01*
X0270874Y0035612D01*
X0270888Y0035460D01*
X0270898Y0035307D01*
X0270904Y0035153D01*
X0270906Y0035000D01*
X0270904Y0034847D01*
X0270898Y0034693D01*
X0270888Y0034540D01*
X0270874Y0034388D01*
X0270856Y0034235D01*
X0270834Y0034084D01*
X0270809Y0033933D01*
X0270779Y0033782D01*
X0270745Y0033632D01*
X0270708Y0033484D01*
X0270667Y0033336D01*
X0270622Y0033190D01*
X0270573Y0033044D01*
X0270520Y0032900D01*
X0270464Y0032758D01*
X0270404Y0032617D01*
X0270340Y0032477D01*
X0270273Y0032339D01*
X0270202Y0032203D01*
X0270127Y0032069D01*
X0270050Y0031937D01*
X0269968Y0031807D01*
X0269884Y0031679D01*
X0269796Y0031553D01*
X0269705Y0031430D01*
X0269611Y0031309D01*
X0269513Y0031191D01*
X0269413Y0031075D01*
X0269309Y0030962D01*
X0269203Y0030851D01*
X0269094Y0030743D01*
X0268982Y0030638D01*
X0268868Y0030537D01*
X0268750Y0030438D01*
X0268631Y0030342D01*
X0268509Y0030249D01*
X0268384Y0030160D01*
X0268257Y0030073D01*
X0268128Y0029991D01*
X0267997Y0029911D01*
X0267864Y0029835D01*
X0267729Y0029762D01*
X0267592Y0029693D01*
X0267453Y0029628D01*
X0267313Y0029566D01*
X0267171Y0029508D01*
X0267028Y0029453D01*
X0266883Y0029402D01*
X0266737Y0029355D01*
X0266590Y0029312D01*
X0266442Y0029273D01*
X0266293Y0029237D01*
X0266143Y0029206D01*
X0265992Y0029178D01*
X0265841Y0029154D01*
X0265688Y0029134D01*
X0265536Y0029118D01*
X0265383Y0029106D01*
X0265230Y0029098D01*
X0265077Y0029094D01*
X0264923Y0029094D01*
X0264770Y0029098D01*
X0264617Y0029106D01*
X0264464Y0029118D01*
X0264312Y0029134D01*
X0264159Y0029154D01*
X0264008Y0029178D01*
X0263857Y0029206D01*
X0263707Y0029237D01*
X0263558Y0029273D01*
X0263410Y0029312D01*
X0263263Y0029355D01*
X0263117Y0029402D01*
X0262972Y0029453D01*
X0262829Y0029508D01*
X0262687Y0029566D01*
X0262547Y0029628D01*
X0262408Y0029693D01*
X0262271Y0029762D01*
X0262136Y0029835D01*
X0262003Y0029911D01*
X0261872Y0029991D01*
X0261743Y0030073D01*
X0261616Y0030160D01*
X0261491Y0030249D01*
X0261369Y0030342D01*
X0261250Y0030438D01*
X0261132Y0030537D01*
X0261018Y0030638D01*
X0260906Y0030743D01*
X0260797Y0030851D01*
X0260691Y0030962D01*
X0260587Y0031075D01*
X0260487Y0031191D01*
X0260389Y0031309D01*
X0260295Y0031430D01*
X0260204Y0031553D01*
X0260116Y0031679D01*
X0260032Y0031807D01*
X0259950Y0031937D01*
X0259873Y0032069D01*
X0259798Y0032203D01*
X0259727Y0032339D01*
X0259660Y0032477D01*
X0259596Y0032617D01*
X0259536Y0032758D01*
X0259480Y0032900D01*
X0259427Y0033044D01*
X0259378Y0033190D01*
X0259333Y0033336D01*
X0259292Y0033484D01*
X0259255Y0033632D01*
X0259221Y0033782D01*
X0259191Y0033933D01*
X0259166Y0034084D01*
X0259144Y0034235D01*
X0259126Y0034388D01*
X0259112Y0034540D01*
X0259102Y0034693D01*
X0259096Y0034847D01*
X0259094Y0035000D01*
X0259094Y0145000D02*
X0259096Y0145153D01*
X0259102Y0145307D01*
X0259112Y0145460D01*
X0259126Y0145612D01*
X0259144Y0145765D01*
X0259166Y0145916D01*
X0259191Y0146067D01*
X0259221Y0146218D01*
X0259255Y0146368D01*
X0259292Y0146516D01*
X0259333Y0146664D01*
X0259378Y0146810D01*
X0259427Y0146956D01*
X0259480Y0147100D01*
X0259536Y0147242D01*
X0259596Y0147383D01*
X0259660Y0147523D01*
X0259727Y0147661D01*
X0259798Y0147797D01*
X0259873Y0147931D01*
X0259950Y0148063D01*
X0260032Y0148193D01*
X0260116Y0148321D01*
X0260204Y0148447D01*
X0260295Y0148570D01*
X0260389Y0148691D01*
X0260487Y0148809D01*
X0260587Y0148925D01*
X0260691Y0149038D01*
X0260797Y0149149D01*
X0260906Y0149257D01*
X0261018Y0149362D01*
X0261132Y0149463D01*
X0261250Y0149562D01*
X0261369Y0149658D01*
X0261491Y0149751D01*
X0261616Y0149840D01*
X0261743Y0149927D01*
X0261872Y0150009D01*
X0262003Y0150089D01*
X0262136Y0150165D01*
X0262271Y0150238D01*
X0262408Y0150307D01*
X0262547Y0150372D01*
X0262687Y0150434D01*
X0262829Y0150492D01*
X0262972Y0150547D01*
X0263117Y0150598D01*
X0263263Y0150645D01*
X0263410Y0150688D01*
X0263558Y0150727D01*
X0263707Y0150763D01*
X0263857Y0150794D01*
X0264008Y0150822D01*
X0264159Y0150846D01*
X0264312Y0150866D01*
X0264464Y0150882D01*
X0264617Y0150894D01*
X0264770Y0150902D01*
X0264923Y0150906D01*
X0265077Y0150906D01*
X0265230Y0150902D01*
X0265383Y0150894D01*
X0265536Y0150882D01*
X0265688Y0150866D01*
X0265841Y0150846D01*
X0265992Y0150822D01*
X0266143Y0150794D01*
X0266293Y0150763D01*
X0266442Y0150727D01*
X0266590Y0150688D01*
X0266737Y0150645D01*
X0266883Y0150598D01*
X0267028Y0150547D01*
X0267171Y0150492D01*
X0267313Y0150434D01*
X0267453Y0150372D01*
X0267592Y0150307D01*
X0267729Y0150238D01*
X0267864Y0150165D01*
X0267997Y0150089D01*
X0268128Y0150009D01*
X0268257Y0149927D01*
X0268384Y0149840D01*
X0268509Y0149751D01*
X0268631Y0149658D01*
X0268750Y0149562D01*
X0268868Y0149463D01*
X0268982Y0149362D01*
X0269094Y0149257D01*
X0269203Y0149149D01*
X0269309Y0149038D01*
X0269413Y0148925D01*
X0269513Y0148809D01*
X0269611Y0148691D01*
X0269705Y0148570D01*
X0269796Y0148447D01*
X0269884Y0148321D01*
X0269968Y0148193D01*
X0270050Y0148063D01*
X0270127Y0147931D01*
X0270202Y0147797D01*
X0270273Y0147661D01*
X0270340Y0147523D01*
X0270404Y0147383D01*
X0270464Y0147242D01*
X0270520Y0147100D01*
X0270573Y0146956D01*
X0270622Y0146810D01*
X0270667Y0146664D01*
X0270708Y0146516D01*
X0270745Y0146368D01*
X0270779Y0146218D01*
X0270809Y0146067D01*
X0270834Y0145916D01*
X0270856Y0145765D01*
X0270874Y0145612D01*
X0270888Y0145460D01*
X0270898Y0145307D01*
X0270904Y0145153D01*
X0270906Y0145000D01*
X0270904Y0144847D01*
X0270898Y0144693D01*
X0270888Y0144540D01*
X0270874Y0144388D01*
X0270856Y0144235D01*
X0270834Y0144084D01*
X0270809Y0143933D01*
X0270779Y0143782D01*
X0270745Y0143632D01*
X0270708Y0143484D01*
X0270667Y0143336D01*
X0270622Y0143190D01*
X0270573Y0143044D01*
X0270520Y0142900D01*
X0270464Y0142758D01*
X0270404Y0142617D01*
X0270340Y0142477D01*
X0270273Y0142339D01*
X0270202Y0142203D01*
X0270127Y0142069D01*
X0270050Y0141937D01*
X0269968Y0141807D01*
X0269884Y0141679D01*
X0269796Y0141553D01*
X0269705Y0141430D01*
X0269611Y0141309D01*
X0269513Y0141191D01*
X0269413Y0141075D01*
X0269309Y0140962D01*
X0269203Y0140851D01*
X0269094Y0140743D01*
X0268982Y0140638D01*
X0268868Y0140537D01*
X0268750Y0140438D01*
X0268631Y0140342D01*
X0268509Y0140249D01*
X0268384Y0140160D01*
X0268257Y0140073D01*
X0268128Y0139991D01*
X0267997Y0139911D01*
X0267864Y0139835D01*
X0267729Y0139762D01*
X0267592Y0139693D01*
X0267453Y0139628D01*
X0267313Y0139566D01*
X0267171Y0139508D01*
X0267028Y0139453D01*
X0266883Y0139402D01*
X0266737Y0139355D01*
X0266590Y0139312D01*
X0266442Y0139273D01*
X0266293Y0139237D01*
X0266143Y0139206D01*
X0265992Y0139178D01*
X0265841Y0139154D01*
X0265688Y0139134D01*
X0265536Y0139118D01*
X0265383Y0139106D01*
X0265230Y0139098D01*
X0265077Y0139094D01*
X0264923Y0139094D01*
X0264770Y0139098D01*
X0264617Y0139106D01*
X0264464Y0139118D01*
X0264312Y0139134D01*
X0264159Y0139154D01*
X0264008Y0139178D01*
X0263857Y0139206D01*
X0263707Y0139237D01*
X0263558Y0139273D01*
X0263410Y0139312D01*
X0263263Y0139355D01*
X0263117Y0139402D01*
X0262972Y0139453D01*
X0262829Y0139508D01*
X0262687Y0139566D01*
X0262547Y0139628D01*
X0262408Y0139693D01*
X0262271Y0139762D01*
X0262136Y0139835D01*
X0262003Y0139911D01*
X0261872Y0139991D01*
X0261743Y0140073D01*
X0261616Y0140160D01*
X0261491Y0140249D01*
X0261369Y0140342D01*
X0261250Y0140438D01*
X0261132Y0140537D01*
X0261018Y0140638D01*
X0260906Y0140743D01*
X0260797Y0140851D01*
X0260691Y0140962D01*
X0260587Y0141075D01*
X0260487Y0141191D01*
X0260389Y0141309D01*
X0260295Y0141430D01*
X0260204Y0141553D01*
X0260116Y0141679D01*
X0260032Y0141807D01*
X0259950Y0141937D01*
X0259873Y0142069D01*
X0259798Y0142203D01*
X0259727Y0142339D01*
X0259660Y0142477D01*
X0259596Y0142617D01*
X0259536Y0142758D01*
X0259480Y0142900D01*
X0259427Y0143044D01*
X0259378Y0143190D01*
X0259333Y0143336D01*
X0259292Y0143484D01*
X0259255Y0143632D01*
X0259221Y0143782D01*
X0259191Y0143933D01*
X0259166Y0144084D01*
X0259144Y0144235D01*
X0259126Y0144388D01*
X0259112Y0144540D01*
X0259102Y0144693D01*
X0259096Y0144847D01*
X0259094Y0145000D01*
X0059094Y0205000D02*
X0059096Y0205153D01*
X0059102Y0205307D01*
X0059112Y0205460D01*
X0059126Y0205612D01*
X0059144Y0205765D01*
X0059166Y0205916D01*
X0059191Y0206067D01*
X0059221Y0206218D01*
X0059255Y0206368D01*
X0059292Y0206516D01*
X0059333Y0206664D01*
X0059378Y0206810D01*
X0059427Y0206956D01*
X0059480Y0207100D01*
X0059536Y0207242D01*
X0059596Y0207383D01*
X0059660Y0207523D01*
X0059727Y0207661D01*
X0059798Y0207797D01*
X0059873Y0207931D01*
X0059950Y0208063D01*
X0060032Y0208193D01*
X0060116Y0208321D01*
X0060204Y0208447D01*
X0060295Y0208570D01*
X0060389Y0208691D01*
X0060487Y0208809D01*
X0060587Y0208925D01*
X0060691Y0209038D01*
X0060797Y0209149D01*
X0060906Y0209257D01*
X0061018Y0209362D01*
X0061132Y0209463D01*
X0061250Y0209562D01*
X0061369Y0209658D01*
X0061491Y0209751D01*
X0061616Y0209840D01*
X0061743Y0209927D01*
X0061872Y0210009D01*
X0062003Y0210089D01*
X0062136Y0210165D01*
X0062271Y0210238D01*
X0062408Y0210307D01*
X0062547Y0210372D01*
X0062687Y0210434D01*
X0062829Y0210492D01*
X0062972Y0210547D01*
X0063117Y0210598D01*
X0063263Y0210645D01*
X0063410Y0210688D01*
X0063558Y0210727D01*
X0063707Y0210763D01*
X0063857Y0210794D01*
X0064008Y0210822D01*
X0064159Y0210846D01*
X0064312Y0210866D01*
X0064464Y0210882D01*
X0064617Y0210894D01*
X0064770Y0210902D01*
X0064923Y0210906D01*
X0065077Y0210906D01*
X0065230Y0210902D01*
X0065383Y0210894D01*
X0065536Y0210882D01*
X0065688Y0210866D01*
X0065841Y0210846D01*
X0065992Y0210822D01*
X0066143Y0210794D01*
X0066293Y0210763D01*
X0066442Y0210727D01*
X0066590Y0210688D01*
X0066737Y0210645D01*
X0066883Y0210598D01*
X0067028Y0210547D01*
X0067171Y0210492D01*
X0067313Y0210434D01*
X0067453Y0210372D01*
X0067592Y0210307D01*
X0067729Y0210238D01*
X0067864Y0210165D01*
X0067997Y0210089D01*
X0068128Y0210009D01*
X0068257Y0209927D01*
X0068384Y0209840D01*
X0068509Y0209751D01*
X0068631Y0209658D01*
X0068750Y0209562D01*
X0068868Y0209463D01*
X0068982Y0209362D01*
X0069094Y0209257D01*
X0069203Y0209149D01*
X0069309Y0209038D01*
X0069413Y0208925D01*
X0069513Y0208809D01*
X0069611Y0208691D01*
X0069705Y0208570D01*
X0069796Y0208447D01*
X0069884Y0208321D01*
X0069968Y0208193D01*
X0070050Y0208063D01*
X0070127Y0207931D01*
X0070202Y0207797D01*
X0070273Y0207661D01*
X0070340Y0207523D01*
X0070404Y0207383D01*
X0070464Y0207242D01*
X0070520Y0207100D01*
X0070573Y0206956D01*
X0070622Y0206810D01*
X0070667Y0206664D01*
X0070708Y0206516D01*
X0070745Y0206368D01*
X0070779Y0206218D01*
X0070809Y0206067D01*
X0070834Y0205916D01*
X0070856Y0205765D01*
X0070874Y0205612D01*
X0070888Y0205460D01*
X0070898Y0205307D01*
X0070904Y0205153D01*
X0070906Y0205000D01*
X0070904Y0204847D01*
X0070898Y0204693D01*
X0070888Y0204540D01*
X0070874Y0204388D01*
X0070856Y0204235D01*
X0070834Y0204084D01*
X0070809Y0203933D01*
X0070779Y0203782D01*
X0070745Y0203632D01*
X0070708Y0203484D01*
X0070667Y0203336D01*
X0070622Y0203190D01*
X0070573Y0203044D01*
X0070520Y0202900D01*
X0070464Y0202758D01*
X0070404Y0202617D01*
X0070340Y0202477D01*
X0070273Y0202339D01*
X0070202Y0202203D01*
X0070127Y0202069D01*
X0070050Y0201937D01*
X0069968Y0201807D01*
X0069884Y0201679D01*
X0069796Y0201553D01*
X0069705Y0201430D01*
X0069611Y0201309D01*
X0069513Y0201191D01*
X0069413Y0201075D01*
X0069309Y0200962D01*
X0069203Y0200851D01*
X0069094Y0200743D01*
X0068982Y0200638D01*
X0068868Y0200537D01*
X0068750Y0200438D01*
X0068631Y0200342D01*
X0068509Y0200249D01*
X0068384Y0200160D01*
X0068257Y0200073D01*
X0068128Y0199991D01*
X0067997Y0199911D01*
X0067864Y0199835D01*
X0067729Y0199762D01*
X0067592Y0199693D01*
X0067453Y0199628D01*
X0067313Y0199566D01*
X0067171Y0199508D01*
X0067028Y0199453D01*
X0066883Y0199402D01*
X0066737Y0199355D01*
X0066590Y0199312D01*
X0066442Y0199273D01*
X0066293Y0199237D01*
X0066143Y0199206D01*
X0065992Y0199178D01*
X0065841Y0199154D01*
X0065688Y0199134D01*
X0065536Y0199118D01*
X0065383Y0199106D01*
X0065230Y0199098D01*
X0065077Y0199094D01*
X0064923Y0199094D01*
X0064770Y0199098D01*
X0064617Y0199106D01*
X0064464Y0199118D01*
X0064312Y0199134D01*
X0064159Y0199154D01*
X0064008Y0199178D01*
X0063857Y0199206D01*
X0063707Y0199237D01*
X0063558Y0199273D01*
X0063410Y0199312D01*
X0063263Y0199355D01*
X0063117Y0199402D01*
X0062972Y0199453D01*
X0062829Y0199508D01*
X0062687Y0199566D01*
X0062547Y0199628D01*
X0062408Y0199693D01*
X0062271Y0199762D01*
X0062136Y0199835D01*
X0062003Y0199911D01*
X0061872Y0199991D01*
X0061743Y0200073D01*
X0061616Y0200160D01*
X0061491Y0200249D01*
X0061369Y0200342D01*
X0061250Y0200438D01*
X0061132Y0200537D01*
X0061018Y0200638D01*
X0060906Y0200743D01*
X0060797Y0200851D01*
X0060691Y0200962D01*
X0060587Y0201075D01*
X0060487Y0201191D01*
X0060389Y0201309D01*
X0060295Y0201430D01*
X0060204Y0201553D01*
X0060116Y0201679D01*
X0060032Y0201807D01*
X0059950Y0201937D01*
X0059873Y0202069D01*
X0059798Y0202203D01*
X0059727Y0202339D01*
X0059660Y0202477D01*
X0059596Y0202617D01*
X0059536Y0202758D01*
X0059480Y0202900D01*
X0059427Y0203044D01*
X0059378Y0203190D01*
X0059333Y0203336D01*
X0059292Y0203484D01*
X0059255Y0203632D01*
X0059221Y0203782D01*
X0059191Y0203933D01*
X0059166Y0204084D01*
X0059144Y0204235D01*
X0059126Y0204388D01*
X0059112Y0204540D01*
X0059102Y0204693D01*
X0059096Y0204847D01*
X0059094Y0205000D01*
D11*
X0100000Y0182559D03*
X0100000Y0177441D03*
D12*
X0110000Y0140000D03*
X0120000Y0140000D03*
X0130000Y0140000D03*
X0140000Y0140000D03*
X0150000Y0140000D03*
X0160000Y0140000D03*
X0170000Y0140000D03*
X0180000Y0140000D03*
X0180000Y0100000D03*
X0170000Y0100000D03*
X0160000Y0100000D03*
X0150000Y0100000D03*
X0140000Y0100000D03*
X0130000Y0100000D03*
X0120000Y0100000D03*
X0110000Y0100000D03*
X0080000Y0062795D03*
X0080000Y0037205D03*
D13*
X0131654Y0070000D03*
X0138346Y0070000D03*
X0133346Y0090000D03*
X0126654Y0090000D03*
X0118346Y0090000D03*
X0111654Y0090000D03*
X0166654Y0070000D03*
X0173346Y0070000D03*
X0198154Y0070000D03*
X0204846Y0070000D03*
X0211654Y0110000D03*
X0218346Y0110000D03*
X0218346Y0120000D03*
X0211654Y0120000D03*
X0211654Y0130000D03*
X0218346Y0130000D03*
D14*
X0195000Y0170000D03*
X0185000Y0170000D03*
X0175000Y0170000D03*
X0165000Y0170000D03*
X0155000Y0170000D03*
X0145000Y0170000D03*
X0215000Y0180000D03*
X0225000Y0180000D03*
X0245000Y0180000D03*
X0255000Y0180000D03*
X0221303Y0080132D03*
X0214232Y0073061D03*
X0212200Y0058900D03*
X0192800Y0058900D03*
X0192800Y0041100D03*
X0212200Y0041100D03*
X0237800Y0041100D03*
X0237800Y0058900D03*
X0195000Y0080000D03*
X0185000Y0080000D03*
X0175000Y0080000D03*
X0165000Y0080000D03*
X0155000Y0080000D03*
X0145000Y0080000D03*
X0147800Y0058900D03*
X0167200Y0058900D03*
X0167200Y0041100D03*
X0147800Y0041100D03*
X0122200Y0041100D03*
X0122200Y0058900D03*
X0049000Y0038000D03*
X0049000Y0028000D03*
D15*
X0130000Y0166654D03*
X0130000Y0173346D03*
X0145000Y0181654D03*
X0145000Y0188346D03*
X0155000Y0188346D03*
X0155000Y0181654D03*
X0165000Y0181654D03*
X0165000Y0188346D03*
X0175000Y0188346D03*
X0175000Y0181654D03*
X0185000Y0181654D03*
X0185000Y0188346D03*
X0195000Y0188346D03*
X0195000Y0181654D03*
X0237000Y0171346D03*
X0237000Y0164654D03*
X0255000Y0163346D03*
X0255000Y0156654D03*
X0248500Y0051346D03*
X0248500Y0044654D03*
D16*
X0245000Y0015000D03*
X0235000Y0015000D03*
X0225000Y0015000D03*
X0215000Y0015000D03*
X0205000Y0015000D03*
X0185000Y0015000D03*
X0175000Y0015000D03*
X0165000Y0015000D03*
X0155000Y0015000D03*
X0145000Y0015000D03*
X0135000Y0015000D03*
X0125000Y0015000D03*
X0115000Y0015000D03*
X0255000Y0015000D03*
X0255000Y0205000D03*
X0245000Y0205000D03*
X0235000Y0205000D03*
X0225000Y0205000D03*
X0215000Y0205000D03*
X0205000Y0205000D03*
X0195000Y0205000D03*
X0185000Y0205000D03*
X0169000Y0205000D03*
X0159000Y0205000D03*
X0149000Y0205000D03*
X0139000Y0205000D03*
X0129000Y0205000D03*
X0119000Y0205000D03*
X0109000Y0205000D03*
X0099000Y0205000D03*
X0089000Y0205000D03*
X0079000Y0205000D03*
D17*
X0012500Y0063740D03*
X0012500Y0056260D03*
D18*
X0028260Y0037500D03*
X0035740Y0037500D03*
X0035740Y0028500D03*
X0028260Y0028500D03*
D19*
X0247500Y0105500D03*
D20*
X0247500Y0073117D03*
X0247500Y0137883D03*
D21*
X0037500Y0071024D03*
X0032500Y0071024D03*
X0027500Y0071024D03*
X0022500Y0071024D03*
X0022500Y0048976D03*
X0027500Y0048976D03*
X0032500Y0048976D03*
X0037500Y0048976D03*
D22*
X0197000Y0110000D03*
X0203000Y0110000D03*
X0203000Y0120000D03*
X0197000Y0120000D03*
X0197000Y0130000D03*
X0203000Y0130000D03*
D23*
X0088937Y0085000D03*
X0081063Y0085000D03*
D24*
X0082500Y0100000D03*
X0077500Y0100000D03*
X0072500Y0100000D03*
X0067500Y0100000D03*
X0062500Y0100000D03*
X0057500Y0100000D03*
X0052500Y0100000D03*
X0047500Y0100000D03*
X0042500Y0100000D03*
X0037500Y0100000D03*
X0037500Y0140000D03*
X0042500Y0140000D03*
X0047500Y0140000D03*
X0052500Y0140000D03*
X0057500Y0140000D03*
X0062500Y0140000D03*
X0067500Y0140000D03*
X0072500Y0140000D03*
X0077500Y0140000D03*
X0082500Y0140000D03*
X0087500Y0140000D03*
X0092500Y0140000D03*
X0097500Y0140000D03*
X0102500Y0140000D03*
X0102500Y0100000D03*
X0097500Y0100000D03*
X0092500Y0100000D03*
X0087500Y0100000D03*
D25*
X0087800Y0099800D01*
X0087800Y0089000D01*
X0086000Y0087200D01*
X0086000Y0082400D01*
X0087200Y0081200D01*
X0125000Y0081200D01*
X0126800Y0083000D01*
X0134000Y0083000D01*
X0139400Y0088400D01*
X0151400Y0088400D01*
X0153800Y0090800D01*
X0153800Y0097400D01*
X0155600Y0099200D01*
X0155600Y0102200D01*
X0159200Y0105800D01*
X0167600Y0105800D01*
X0171800Y0110000D01*
X0171800Y0122600D01*
X0174200Y0125000D01*
X0174200Y0135800D01*
X0170000Y0140000D01*
X0175400Y0141800D02*
X0179000Y0145400D01*
X0179000Y0149000D01*
X0185000Y0155000D01*
X0185000Y0150000D02*
X0190000Y0155000D01*
X0203600Y0155000D01*
X0203600Y0187400D01*
X0215000Y0198800D01*
X0215000Y0205000D01*
X0219200Y0207200D02*
X0219200Y0200000D01*
X0218000Y0198800D01*
X0216800Y0198800D01*
X0204800Y0186800D01*
X0204800Y0150800D01*
X0218600Y0137000D01*
X0218600Y0130400D01*
X0218346Y0130000D01*
X0218600Y0129800D01*
X0218600Y0120200D01*
X0218346Y0120000D01*
X0218600Y0119600D01*
X0218600Y0110000D01*
X0218346Y0110000D01*
X0222800Y0095600D02*
X0204800Y0077600D01*
X0204800Y0070400D01*
X0204846Y0070000D01*
X0204800Y0069800D01*
X0204800Y0064400D01*
X0210200Y0059000D01*
X0212000Y0059000D01*
X0212200Y0058900D01*
X0216800Y0050000D02*
X0224600Y0057800D01*
X0224600Y0065600D01*
X0228200Y0069200D01*
X0233000Y0069200D01*
X0236600Y0072800D01*
X0240200Y0072800D01*
X0240800Y0073400D01*
X0247400Y0073400D01*
X0247500Y0073117D01*
X0216800Y0050000D02*
X0129200Y0050000D01*
X0126200Y0047000D01*
X0116600Y0047000D01*
X0101000Y0031400D01*
X0074600Y0031400D01*
X0074000Y0032000D01*
X0051800Y0032000D01*
X0051200Y0032600D01*
X0047600Y0032600D01*
X0042800Y0037400D01*
X0042800Y0039800D01*
X0039200Y0043400D01*
X0033800Y0043400D01*
X0033200Y0044000D01*
X0032600Y0044000D01*
X0032600Y0048800D01*
X0032500Y0048976D01*
X0027800Y0049400D02*
X0027500Y0048976D01*
X0027800Y0049400D02*
X0027800Y0063800D01*
X0029000Y0065000D01*
X0029000Y0067400D01*
X0029600Y0068000D01*
X0029600Y0074000D01*
X0027800Y0075800D01*
X0027800Y0104000D01*
X0032600Y0108800D01*
X0032600Y0147600D01*
X0060000Y0175000D01*
X0050000Y0175000D02*
X0050000Y0195000D01*
X0075000Y0191000D02*
X0075000Y0190000D01*
X0075000Y0191000D02*
X0089000Y0205000D01*
X0089000Y0203600D01*
X0105000Y0185000D02*
X0120000Y0185000D01*
X0120200Y0177200D02*
X0127400Y0170000D01*
X0132200Y0170000D01*
X0137600Y0175400D01*
X0137600Y0188000D01*
X0138200Y0188600D01*
X0144800Y0188600D01*
X0145000Y0188346D01*
X0145400Y0188600D01*
X0145000Y0181654D02*
X0144800Y0181400D01*
X0139400Y0181400D01*
X0138800Y0180800D01*
X0138800Y0176000D01*
X0144800Y0170000D01*
X0145000Y0170000D01*
X0145000Y0160000D01*
X0145400Y0151400D02*
X0154400Y0142400D01*
X0154400Y0137600D01*
X0149600Y0132800D01*
X0138800Y0132800D01*
X0137600Y0134000D01*
X0129200Y0134000D01*
X0125600Y0137600D01*
X0125600Y0142400D01*
X0126200Y0143000D01*
X0126200Y0146600D01*
X0123200Y0149600D01*
X0122000Y0149600D01*
X0120800Y0148400D01*
X0086600Y0148400D01*
X0085400Y0147200D01*
X0083600Y0147200D01*
X0082400Y0146000D01*
X0082400Y0140000D01*
X0082500Y0140000D01*
X0077600Y0140000D02*
X0077500Y0140000D01*
X0077600Y0140000D02*
X0077600Y0146000D01*
X0078800Y0147200D01*
X0081800Y0147200D01*
X0083000Y0148400D01*
X0084800Y0148400D01*
X0086000Y0149600D01*
X0120200Y0149600D01*
X0121400Y0150800D01*
X0125600Y0150800D01*
X0123800Y0152000D02*
X0125000Y0153200D01*
X0126200Y0153200D01*
X0134000Y0145400D01*
X0134000Y0142400D01*
X0135200Y0141200D01*
X0135200Y0138200D01*
X0139400Y0134000D01*
X0149000Y0134000D01*
X0150200Y0135200D01*
X0150200Y0140000D01*
X0150000Y0140000D01*
X0140000Y0140000D02*
X0140000Y0141200D01*
X0126800Y0154400D01*
X0124400Y0154400D01*
X0123200Y0153200D01*
X0120200Y0153200D01*
X0119000Y0152000D01*
X0084800Y0152000D01*
X0083600Y0150800D01*
X0081800Y0150800D01*
X0080600Y0149600D01*
X0077600Y0149600D01*
X0076400Y0148400D01*
X0073400Y0148400D01*
X0072200Y0147200D01*
X0053600Y0147200D01*
X0052400Y0146000D01*
X0052400Y0140000D01*
X0052500Y0140000D01*
X0047600Y0140000D02*
X0047500Y0140000D01*
X0047600Y0140000D02*
X0047600Y0133400D01*
X0042800Y0132800D02*
X0042800Y0140000D01*
X0042500Y0140000D01*
X0037500Y0140000D02*
X0037400Y0140000D01*
X0037400Y0148400D01*
X0050000Y0161000D01*
X0051200Y0161000D01*
X0050600Y0163400D02*
X0033800Y0146600D01*
X0033800Y0108200D01*
X0032600Y0107000D01*
X0032600Y0087400D01*
X0035000Y0085000D01*
X0040800Y0085000D01*
X0042800Y0083000D01*
X0055000Y0083000D01*
X0064600Y0090000D02*
X0075200Y0079400D01*
X0085400Y0079400D01*
X0086000Y0078800D01*
X0126200Y0078800D01*
X0128000Y0080600D01*
X0135200Y0080600D01*
X0140600Y0086000D01*
X0152600Y0086000D01*
X0154400Y0087800D01*
X0164600Y0087800D01*
X0174800Y0098000D01*
X0174800Y0101600D01*
X0174200Y0102200D01*
X0174200Y0121400D01*
X0176600Y0123800D01*
X0176600Y0137000D01*
X0179600Y0140000D01*
X0180000Y0140000D01*
X0175400Y0141800D02*
X0175400Y0124400D01*
X0173000Y0122000D01*
X0173000Y0109400D01*
X0165200Y0101600D01*
X0165200Y0098600D01*
X0162200Y0095600D01*
X0160400Y0095600D01*
X0152000Y0087200D01*
X0140000Y0087200D01*
X0134600Y0081800D01*
X0127400Y0081800D01*
X0125600Y0080000D01*
X0086600Y0080000D01*
X0084800Y0081800D01*
X0084800Y0084800D01*
X0081200Y0084800D01*
X0081063Y0085000D01*
X0088937Y0085000D02*
X0089000Y0084800D01*
X0094400Y0084800D01*
X0096800Y0087200D01*
X0096800Y0092600D01*
X0097400Y0093200D01*
X0097400Y0099800D01*
X0097500Y0100000D01*
X0092600Y0100400D02*
X0092600Y0105800D01*
X0093800Y0107000D01*
X0105800Y0107000D01*
X0106400Y0106400D01*
X0106400Y0102800D01*
X0105200Y0101600D01*
X0105200Y0098000D01*
X0107600Y0095600D01*
X0135800Y0095600D01*
X0140000Y0099800D01*
X0140000Y0100000D01*
X0137000Y0094400D02*
X0137600Y0093800D01*
X0137000Y0094400D02*
X0117200Y0094400D01*
X0115400Y0092600D01*
X0115400Y0087800D01*
X0113800Y0086200D01*
X0113000Y0085400D01*
X0111654Y0090000D02*
X0111800Y0090200D01*
X0111800Y0093200D01*
X0106400Y0093200D01*
X0099800Y0095600D02*
X0099800Y0105200D01*
X0099200Y0105800D01*
X0096200Y0105800D01*
X0095000Y0104600D01*
X0095000Y0095000D01*
X0093200Y0093200D01*
X0092000Y0093200D01*
X0090200Y0095000D01*
X0090200Y0104600D01*
X0089000Y0105800D01*
X0086000Y0105800D01*
X0084800Y0104600D01*
X0084800Y0095000D01*
X0083000Y0093200D01*
X0074000Y0093200D01*
X0072800Y0094400D01*
X0072800Y0099800D01*
X0072500Y0100000D01*
X0077500Y0100000D02*
X0077600Y0100400D01*
X0077600Y0105800D01*
X0078800Y0107000D01*
X0081800Y0107000D01*
X0083000Y0108200D01*
X0091400Y0108200D01*
X0092600Y0109400D01*
X0107000Y0109400D01*
X0110600Y0105800D01*
X0115400Y0105800D01*
X0119600Y0101600D01*
X0119600Y0100400D01*
X0120000Y0100000D01*
X0129800Y0100400D02*
X0130000Y0100000D01*
X0129800Y0100400D02*
X0129800Y0101600D01*
X0110600Y0120800D01*
X0081800Y0120800D01*
X0077600Y0125000D01*
X0076400Y0125000D01*
X0072800Y0128600D01*
X0071600Y0128600D01*
X0068600Y0131600D01*
X0058400Y0131600D01*
X0057800Y0132200D01*
X0056600Y0132200D01*
X0057800Y0134000D02*
X0059000Y0132800D01*
X0069200Y0132800D01*
X0072200Y0129800D01*
X0073400Y0129800D01*
X0077000Y0126200D01*
X0078200Y0126200D01*
X0082400Y0122000D01*
X0105200Y0122000D01*
X0110000Y0126800D01*
X0110000Y0140000D01*
X0106400Y0137000D02*
X0105200Y0138200D01*
X0105200Y0141800D01*
X0106400Y0143000D01*
X0106400Y0145400D01*
X0107000Y0146000D01*
X0115400Y0146000D01*
X0119600Y0141800D01*
X0119600Y0140000D01*
X0120000Y0140000D01*
X0122600Y0147200D02*
X0087200Y0147200D01*
X0084800Y0144800D01*
X0084800Y0135200D01*
X0084200Y0134600D01*
X0070400Y0134600D01*
X0069800Y0135200D01*
X0069800Y0144800D01*
X0068600Y0146000D01*
X0063200Y0146000D01*
X0062600Y0145400D01*
X0062600Y0140000D01*
X0062500Y0140000D01*
X0057800Y0140000D02*
X0057500Y0140000D01*
X0057800Y0140000D02*
X0057800Y0134000D01*
X0060200Y0135200D02*
X0060200Y0144800D01*
X0059600Y0145400D01*
X0055400Y0145400D01*
X0054800Y0144800D01*
X0054800Y0135200D01*
X0035000Y0115400D01*
X0035000Y0107600D01*
X0033800Y0106400D01*
X0033800Y0091200D01*
X0035000Y0090000D01*
X0064600Y0090000D01*
X0068600Y0093200D02*
X0072200Y0093200D01*
X0073400Y0092000D01*
X0085400Y0092000D01*
X0082500Y0100000D02*
X0082400Y0100400D01*
X0082400Y0105800D01*
X0083600Y0107000D01*
X0092000Y0107000D01*
X0093200Y0108200D01*
X0106400Y0108200D01*
X0107600Y0107000D01*
X0107600Y0102800D01*
X0110000Y0100400D01*
X0110000Y0100000D01*
X0118346Y0090000D02*
X0118400Y0089600D01*
X0118400Y0083000D01*
X0119000Y0082400D01*
X0124400Y0082400D01*
X0126200Y0084200D01*
X0133400Y0084200D01*
X0133400Y0086000D01*
X0134000Y0086000D01*
X0133400Y0086000D02*
X0133400Y0089600D01*
X0133346Y0090000D01*
X0126800Y0089600D02*
X0126800Y0085400D01*
X0120800Y0085400D01*
X0126800Y0089600D02*
X0126654Y0090000D01*
X0128600Y0079400D02*
X0135800Y0079400D01*
X0140600Y0084200D01*
X0142400Y0084200D01*
X0143000Y0084800D01*
X0153200Y0084800D01*
X0155000Y0086600D01*
X0165200Y0086600D01*
X0178400Y0099800D01*
X0179600Y0099800D01*
X0180000Y0100000D01*
X0185600Y0093800D02*
X0174200Y0093800D01*
X0165800Y0085400D01*
X0163400Y0085400D01*
X0160400Y0082400D01*
X0160400Y0078800D01*
X0155600Y0074000D01*
X0144200Y0074000D01*
X0142400Y0075800D01*
X0132200Y0075800D01*
X0131600Y0075200D01*
X0131600Y0070400D01*
X0131654Y0070000D01*
X0131600Y0069800D01*
X0131600Y0064400D01*
X0126200Y0059000D01*
X0122600Y0059000D01*
X0122200Y0058900D01*
X0110000Y0050000D02*
X0105000Y0045000D01*
X0110000Y0050000D02*
X0110000Y0075000D01*
X0102200Y0077600D02*
X0126800Y0077600D01*
X0128600Y0079400D01*
X0102200Y0077600D02*
X0101000Y0076400D01*
X0092500Y0100000D02*
X0092600Y0100400D01*
X0068600Y0093200D02*
X0067400Y0094400D01*
X0067400Y0099800D01*
X0067500Y0100000D01*
X0042800Y0100400D02*
X0042500Y0100000D01*
X0042800Y0100400D02*
X0042800Y0107000D01*
X0037400Y0107000D02*
X0037400Y0100400D01*
X0037500Y0100000D01*
X0027800Y0075800D02*
X0015200Y0075800D01*
X0006800Y0067400D01*
X0006800Y0052400D01*
X0015200Y0044000D01*
X0017600Y0044000D01*
X0020000Y0041600D01*
X0028400Y0041600D01*
X0028400Y0038000D01*
X0028260Y0037500D01*
X0033200Y0042200D02*
X0032600Y0042800D01*
X0020600Y0042800D01*
X0018800Y0044600D01*
X0018800Y0063800D01*
X0019400Y0063800D01*
X0020000Y0064400D01*
X0026600Y0064400D01*
X0027800Y0065600D01*
X0027800Y0071000D01*
X0027500Y0071024D01*
X0018800Y0063800D02*
X0012800Y0063800D01*
X0012500Y0063740D01*
X0012500Y0056260D02*
X0012800Y0056000D01*
X0017600Y0056000D01*
X0017600Y0053000D01*
X0016400Y0051800D01*
X0022400Y0049400D02*
X0022500Y0048976D01*
X0022400Y0049400D02*
X0022400Y0054800D01*
X0037400Y0056600D02*
X0048800Y0045200D01*
X0048800Y0038000D01*
X0049000Y0038000D01*
X0035740Y0037500D02*
X0035600Y0038000D01*
X0035600Y0042200D01*
X0033200Y0042200D01*
X0037400Y0056600D02*
X0037400Y0071000D01*
X0037500Y0071024D01*
X0074000Y0043400D02*
X0080000Y0037400D01*
X0080000Y0037205D01*
X0105000Y0025000D02*
X0105000Y0014200D01*
X0166400Y0059600D02*
X0167000Y0059000D01*
X0167200Y0058900D01*
X0166400Y0059600D02*
X0166400Y0069800D01*
X0166654Y0070000D01*
X0185600Y0093800D02*
X0191000Y0099200D01*
X0191000Y0119000D01*
X0185000Y0125000D01*
X0190000Y0130000D02*
X0197000Y0130000D01*
X0198200Y0125000D02*
X0197000Y0123800D01*
X0197000Y0120000D01*
X0190000Y0130000D02*
X0190000Y0145000D01*
X0195000Y0150000D01*
X0185000Y0150000D02*
X0185000Y0135000D01*
X0206000Y0151400D02*
X0221200Y0136200D01*
X0222800Y0134600D01*
X0225000Y0132400D01*
X0225000Y0130000D01*
X0225000Y0150000D02*
X0215000Y0150000D01*
X0206000Y0151400D02*
X0206000Y0186200D01*
X0217400Y0197600D01*
X0218600Y0197600D01*
X0220400Y0199400D01*
X0229400Y0199400D01*
X0235000Y0205000D01*
X0225000Y0195000D02*
X0230000Y0190000D01*
X0230000Y0186800D01*
X0225000Y0180000D02*
X0225200Y0179600D01*
X0225200Y0177200D01*
X0231200Y0171200D01*
X0236600Y0171200D01*
X0237000Y0171346D01*
X0255000Y0163346D02*
X0255200Y0163400D01*
X0261800Y0163400D01*
X0263600Y0165200D01*
X0263600Y0171200D01*
X0255200Y0179600D01*
X0255000Y0180000D01*
X0219200Y0207200D02*
X0213200Y0213200D01*
X0192200Y0213200D01*
X0189200Y0210200D01*
X0189200Y0203000D01*
X0180200Y0194000D01*
X0180200Y0178400D01*
X0179000Y0177200D01*
X0179000Y0173000D01*
X0179600Y0172400D01*
X0179600Y0167600D01*
X0179000Y0167000D01*
X0180000Y0166000D01*
X0180000Y0160000D01*
X0175400Y0170000D02*
X0175000Y0170000D01*
X0175400Y0170000D02*
X0177800Y0172400D01*
X0177800Y0177800D01*
X0179000Y0179000D01*
X0179000Y0181400D01*
X0179000Y0194600D01*
X0185000Y0200600D01*
X0185000Y0205000D01*
X0194600Y0204800D02*
X0194600Y0196400D01*
X0190400Y0192200D01*
X0190400Y0182000D01*
X0189800Y0181400D01*
X0185000Y0181400D01*
X0185000Y0181654D01*
X0185000Y0181400D02*
X0181400Y0181400D01*
X0181400Y0173600D01*
X0185000Y0170000D01*
X0195000Y0170000D02*
X0195200Y0170000D01*
X0202400Y0177200D01*
X0202400Y0180800D01*
X0202400Y0188000D01*
X0204800Y0190400D01*
X0204800Y0204800D01*
X0205000Y0205000D01*
X0195000Y0205000D02*
X0194600Y0204800D01*
X0199000Y0195000D02*
X0196500Y0192500D01*
X0195500Y0192500D01*
X0195000Y0192000D01*
X0195000Y0188346D01*
X0195000Y0181654D02*
X0195200Y0181400D01*
X0201800Y0181400D01*
X0202400Y0180800D01*
X0187000Y0194000D02*
X0185000Y0192000D01*
X0185000Y0188346D01*
X0179000Y0181400D02*
X0175400Y0181400D01*
X0175000Y0181654D01*
X0175000Y0188346D02*
X0175000Y0195000D01*
X0165000Y0188346D02*
X0164600Y0188600D01*
X0155000Y0188600D02*
X0155000Y0188346D01*
X0155000Y0181654D02*
X0155000Y0170000D01*
X0145400Y0170000D02*
X0145000Y0170000D01*
X0136400Y0176000D02*
X0136400Y0188600D01*
X0147200Y0199400D01*
X0154400Y0199400D01*
X0158600Y0203600D01*
X0158600Y0204800D01*
X0159000Y0205000D01*
X0136400Y0176000D02*
X0134000Y0173600D01*
X0130400Y0173600D01*
X0130000Y0173346D01*
X0130000Y0166654D02*
X0128346Y0165000D01*
X0105000Y0165000D01*
X0095000Y0165000D02*
X0080000Y0165000D01*
X0071000Y0166400D02*
X0068000Y0163400D01*
X0050600Y0163400D01*
X0072800Y0146000D02*
X0074000Y0147200D01*
X0077000Y0147200D01*
X0078200Y0148400D01*
X0081200Y0148400D01*
X0082400Y0149600D01*
X0084200Y0149600D01*
X0085400Y0150800D01*
X0119600Y0150800D01*
X0120800Y0152000D01*
X0123800Y0152000D01*
X0129800Y0166400D02*
X0130000Y0166654D01*
X0120200Y0177200D02*
X0100400Y0177200D01*
X0100000Y0177441D01*
X0099800Y0177200D01*
X0093200Y0177200D01*
X0072800Y0146000D02*
X0072800Y0140000D01*
X0072500Y0140000D01*
X0067500Y0140000D02*
X0067400Y0140000D01*
X0067400Y0134600D01*
X0066800Y0134000D01*
X0061400Y0134000D01*
X0060200Y0135200D01*
X0078200Y0129800D02*
X0083600Y0124400D01*
X0102800Y0124400D01*
X0105800Y0127400D01*
X0107000Y0127400D01*
X0104600Y0129800D02*
X0104600Y0131600D01*
X0106400Y0133400D01*
X0106400Y0137000D01*
X0102800Y0140000D02*
X0102500Y0140000D01*
X0102800Y0140000D02*
X0102800Y0132800D01*
X0107000Y0130400D02*
X0102200Y0125600D01*
X0086000Y0125600D01*
X0084800Y0126800D01*
X0087800Y0126800D02*
X0084800Y0129800D01*
X0087800Y0131600D02*
X0090200Y0129200D01*
X0093200Y0129200D01*
X0094400Y0130400D01*
X0092600Y0133400D02*
X0092600Y0140000D01*
X0092500Y0140000D01*
X0087800Y0140000D02*
X0087500Y0140000D01*
X0087800Y0140000D02*
X0087800Y0131600D01*
X0087800Y0126800D02*
X0101600Y0126800D01*
X0104600Y0129800D01*
X0097400Y0133400D02*
X0097400Y0140000D01*
X0097500Y0140000D01*
X0196400Y0102200D02*
X0196400Y0101000D01*
X0203600Y0093800D01*
X0203600Y0075200D01*
X0202400Y0074000D01*
X0196400Y0102200D02*
X0197000Y0102800D01*
X0197000Y0104600D01*
X0197000Y0110000D01*
X0230000Y0032500D02*
X0230000Y0030000D01*
X0225000Y0025000D01*
X0225000Y0015000D01*
X0234800Y0015200D02*
X0235000Y0015000D01*
X0234800Y0015200D02*
X0234800Y0028400D01*
X0205000Y0030000D02*
X0205000Y0015000D01*
X0191000Y0021000D02*
X0191000Y0029000D01*
D26*
X0202400Y0074000D03*
X0197000Y0104600D03*
X0198200Y0125000D03*
X0137600Y0093800D03*
X0134000Y0086000D03*
X0120800Y0085400D03*
X0106400Y0093200D03*
X0101000Y0076400D03*
X0085400Y0092000D03*
X0042800Y0107000D03*
X0037400Y0107000D03*
X0056600Y0132200D03*
X0047600Y0133400D03*
X0042800Y0132800D03*
X0051200Y0161000D03*
X0078200Y0129800D03*
X0084800Y0129800D03*
X0084800Y0126800D03*
X0092600Y0133400D03*
X0094400Y0130400D03*
X0097400Y0133400D03*
X0102800Y0132800D03*
X0107000Y0130400D03*
X0107000Y0127400D03*
X0122600Y0147200D03*
X0125600Y0150800D03*
X0093200Y0177200D03*
X0022400Y0054800D03*
X0016400Y0051800D03*
D27*
X0032500Y0057500D02*
X0036500Y0053500D01*
X0037000Y0053500D01*
X0037500Y0053000D01*
X0037500Y0048976D01*
X0048000Y0051500D02*
X0068500Y0051500D01*
X0070000Y0050000D01*
X0074000Y0056000D02*
X0070000Y0060000D01*
X0074000Y0056000D02*
X0074000Y0043400D01*
X0040500Y0034000D02*
X0037000Y0037500D01*
X0035740Y0037500D01*
X0035740Y0028500D02*
X0035740Y0020740D01*
X0035000Y0020000D01*
X0055000Y0080000D02*
X0055000Y0083000D01*
X0100000Y0085000D02*
X0102500Y0087500D01*
X0102500Y0100000D01*
X0099800Y0090200D02*
X0100000Y0090000D01*
X0105000Y0085000D02*
X0112600Y0085000D01*
X0113800Y0086200D01*
X0122200Y0041100D02*
X0129300Y0029000D01*
X0155000Y0029000D01*
X0155100Y0029000D01*
X0167200Y0041100D01*
X0173300Y0035000D01*
X0210000Y0035000D01*
X0212200Y0037200D01*
X0212200Y0041100D01*
X0218300Y0035000D01*
X0245000Y0035000D01*
X0248500Y0038500D01*
X0248500Y0044654D01*
X0248500Y0051346D02*
X0231346Y0051346D01*
X0230000Y0050000D01*
X0235000Y0155000D02*
X0215000Y0155000D01*
X0210000Y0160000D01*
X0235000Y0155000D02*
X0237000Y0157000D01*
X0237000Y0164654D01*
X0169500Y0179500D02*
X0165500Y0179500D01*
X0165000Y0180000D01*
X0165000Y0170000D01*
X0165000Y0180000D02*
X0165000Y0181654D01*
X0164600Y0188600D02*
X0164600Y0194600D01*
X0165000Y0195000D01*
X0155000Y0195000D02*
X0155000Y0188346D01*
X0147500Y0194000D02*
X0145000Y0191500D01*
X0145000Y0188346D01*
D28*
X0147500Y0194000D03*
X0155000Y0195000D03*
X0165000Y0195000D03*
X0175000Y0195000D03*
X0187000Y0194000D03*
X0199000Y0195000D03*
X0225000Y0195000D03*
X0230000Y0186800D03*
X0210000Y0160000D03*
X0215000Y0150000D03*
X0225000Y0150000D03*
X0225000Y0130000D03*
X0195000Y0150000D03*
X0185000Y0155000D03*
X0180000Y0160000D03*
X0169500Y0179500D03*
X0145000Y0160000D03*
X0145400Y0151400D03*
X0185000Y0135000D03*
X0185000Y0125000D03*
X0222800Y0095600D03*
X0230000Y0050000D03*
X0230000Y0032500D03*
X0234800Y0028400D03*
X0205000Y0030000D03*
X0191000Y0029000D03*
X0191000Y0021000D03*
X0155000Y0029000D03*
X0105000Y0025000D03*
X0105000Y0014200D03*
X0105000Y0045000D03*
X0070000Y0050000D03*
X0070000Y0060000D03*
X0048000Y0051500D03*
X0032500Y0057500D03*
X0055000Y0080000D03*
X0100000Y0085000D03*
X0105000Y0085000D03*
X0100000Y0090000D03*
X0110000Y0075000D03*
X0040500Y0034000D03*
X0035000Y0020000D03*
X0071000Y0166400D03*
X0080000Y0165000D03*
X0095000Y0165000D03*
X0105000Y0165000D03*
X0105000Y0185000D03*
X0120000Y0185000D03*
X0075000Y0190000D03*
X0060000Y0175000D03*
X0050000Y0175000D03*
X0050000Y0195000D03*
D29*
X0051981Y0196821D02*
X0078417Y0196821D01*
X0076819Y0195223D02*
X0052689Y0195223D01*
X0052689Y0195535D02*
X0052280Y0196523D01*
X0051523Y0197280D01*
X0050535Y0197689D01*
X0049465Y0197689D01*
X0048477Y0197280D01*
X0047720Y0196523D01*
X0047311Y0195535D01*
X0047311Y0194465D01*
X0047720Y0193477D01*
X0048300Y0192897D01*
X0048300Y0177103D01*
X0047720Y0176523D01*
X0047311Y0175535D01*
X0047311Y0174465D01*
X0047720Y0173477D01*
X0048477Y0172720D01*
X0049465Y0172311D01*
X0050535Y0172311D01*
X0051523Y0172720D01*
X0052280Y0173477D01*
X0052689Y0174465D01*
X0052689Y0175535D01*
X0052280Y0176523D01*
X0051700Y0177103D01*
X0051700Y0192897D01*
X0052280Y0193477D01*
X0052689Y0194465D01*
X0052689Y0195535D01*
X0052341Y0193624D02*
X0075220Y0193624D01*
X0074157Y0192561D02*
X0073477Y0192280D01*
X0072720Y0191523D01*
X0072311Y0190535D01*
X0072311Y0189465D01*
X0072720Y0188477D01*
X0073477Y0187720D01*
X0074465Y0187311D01*
X0075535Y0187311D01*
X0076523Y0187720D01*
X0077280Y0188477D01*
X0077689Y0189465D01*
X0077689Y0190535D01*
X0077469Y0191065D01*
X0086879Y0200475D01*
X0087053Y0200300D01*
X0090947Y0200300D01*
X0093700Y0203053D01*
X0093700Y0206947D01*
X0090947Y0209700D01*
X0087053Y0209700D01*
X0084300Y0206947D01*
X0084300Y0203053D01*
X0084475Y0202879D01*
X0074157Y0192561D01*
X0073223Y0192026D02*
X0051700Y0192026D01*
X0051700Y0190427D02*
X0072311Y0190427D01*
X0072575Y0188829D02*
X0051700Y0188829D01*
X0051700Y0187230D02*
X0103428Y0187230D01*
X0103477Y0187280D02*
X0102720Y0186523D01*
X0102356Y0185644D01*
X0102009Y0185737D01*
X0100000Y0185737D01*
X0100000Y0182559D01*
X0100000Y0182559D01*
X0103572Y0182559D01*
X0103572Y0180944D01*
X0103449Y0180486D01*
X0103212Y0180076D01*
X0102877Y0179741D01*
X0102847Y0179723D01*
X0103172Y0179399D01*
X0103172Y0178900D01*
X0120904Y0178900D01*
X0126435Y0173369D01*
X0126435Y0175895D01*
X0127255Y0176715D01*
X0132745Y0176715D01*
X0133565Y0175895D01*
X0133565Y0175569D01*
X0134700Y0176704D01*
X0134700Y0189304D01*
X0145500Y0200104D01*
X0146375Y0200979D01*
X0144300Y0203053D01*
X0144300Y0206947D01*
X0147053Y0209700D01*
X0150947Y0209700D01*
X0153700Y0206947D01*
X0153700Y0203053D01*
X0151747Y0201100D01*
X0153696Y0201100D01*
X0154975Y0202379D01*
X0154300Y0203053D01*
X0154300Y0206947D01*
X0157053Y0209700D01*
X0160947Y0209700D01*
X0163700Y0206947D01*
X0163700Y0203053D01*
X0160947Y0200300D01*
X0157704Y0200300D01*
X0155104Y0197700D01*
X0147904Y0197700D01*
X0146842Y0196638D01*
X0146965Y0196689D01*
X0148035Y0196689D01*
X0149023Y0196280D01*
X0149780Y0195523D01*
X0150189Y0194535D01*
X0150189Y0193465D01*
X0149780Y0192477D01*
X0149023Y0191720D01*
X0148116Y0191345D01*
X0148565Y0190895D01*
X0148565Y0185798D01*
X0147767Y0185000D01*
X0148565Y0184202D01*
X0148565Y0179105D01*
X0147745Y0178285D01*
X0142255Y0178285D01*
X0141435Y0179105D01*
X0141435Y0179700D01*
X0140500Y0179700D01*
X0140500Y0176704D01*
X0142655Y0174549D01*
X0143986Y0175100D01*
X0146014Y0175100D01*
X0147889Y0174324D01*
X0149324Y0172889D01*
X0150000Y0171256D01*
X0150676Y0172889D01*
X0152111Y0174324D01*
X0153300Y0174816D01*
X0153300Y0178285D01*
X0152255Y0178285D01*
X0151435Y0179105D01*
X0151435Y0184202D01*
X0152233Y0185000D01*
X0151435Y0185798D01*
X0151435Y0190895D01*
X0152255Y0191715D01*
X0153100Y0191715D01*
X0153100Y0193097D01*
X0152720Y0193477D01*
X0152311Y0194465D01*
X0152311Y0195535D01*
X0152720Y0196523D01*
X0153477Y0197280D01*
X0154465Y0197689D01*
X0155535Y0197689D01*
X0156523Y0197280D01*
X0157280Y0196523D01*
X0157689Y0195535D01*
X0157689Y0194465D01*
X0157280Y0193477D01*
X0156900Y0193097D01*
X0156900Y0191715D01*
X0157745Y0191715D01*
X0158565Y0190895D01*
X0158565Y0185798D01*
X0157767Y0185000D01*
X0158565Y0184202D01*
X0158565Y0179105D01*
X0157745Y0178285D01*
X0156700Y0178285D01*
X0156700Y0174816D01*
X0157889Y0174324D01*
X0159324Y0172889D01*
X0160000Y0171256D01*
X0160676Y0172889D01*
X0162111Y0174324D01*
X0163100Y0174733D01*
X0163100Y0178285D01*
X0162255Y0178285D01*
X0161435Y0179105D01*
X0161435Y0184202D01*
X0162233Y0185000D01*
X0161435Y0185798D01*
X0161435Y0190895D01*
X0162255Y0191715D01*
X0162700Y0191715D01*
X0162700Y0193526D01*
X0162311Y0194465D01*
X0162311Y0195535D01*
X0162720Y0196523D01*
X0163477Y0197280D01*
X0164465Y0197689D01*
X0165535Y0197689D01*
X0166523Y0197280D01*
X0167280Y0196523D01*
X0167689Y0195535D01*
X0167689Y0194465D01*
X0167280Y0193477D01*
X0166523Y0192720D01*
X0166500Y0192711D01*
X0166500Y0191715D01*
X0167745Y0191715D01*
X0168565Y0190895D01*
X0168565Y0185798D01*
X0167767Y0185000D01*
X0168565Y0184202D01*
X0168565Y0182023D01*
X0168965Y0182189D01*
X0170035Y0182189D01*
X0171023Y0181780D01*
X0171435Y0181368D01*
X0171435Y0184202D01*
X0172009Y0184776D01*
X0171729Y0184938D01*
X0171394Y0185273D01*
X0171157Y0185683D01*
X0171035Y0186141D01*
X0171035Y0188162D01*
X0174816Y0188162D01*
X0174816Y0188531D01*
X0174816Y0192115D01*
X0172598Y0192115D01*
X0172140Y0191992D01*
X0171729Y0191755D01*
X0171394Y0191420D01*
X0171157Y0191010D01*
X0171035Y0190552D01*
X0171035Y0188531D01*
X0174816Y0188531D01*
X0175184Y0188531D01*
X0175184Y0192115D01*
X0177300Y0192115D01*
X0177300Y0195304D01*
X0178296Y0196300D01*
X0182675Y0200679D01*
X0180300Y0203053D01*
X0180300Y0206947D01*
X0183053Y0209700D01*
X0186947Y0209700D01*
X0187500Y0209147D01*
X0187500Y0210904D01*
X0188496Y0211900D01*
X0188496Y0211900D01*
X0189796Y0213200D01*
X0006800Y0213200D01*
X0006800Y0069804D01*
X0014496Y0077500D01*
X0026100Y0077500D01*
X0026100Y0104704D01*
X0030900Y0109504D01*
X0030900Y0148304D01*
X0057311Y0174715D01*
X0057311Y0175535D01*
X0057720Y0176523D01*
X0058477Y0177280D01*
X0059465Y0177689D01*
X0060535Y0177689D01*
X0061523Y0177280D01*
X0062280Y0176523D01*
X0062689Y0175535D01*
X0062689Y0174465D01*
X0062280Y0173477D01*
X0061523Y0172720D01*
X0060535Y0172311D01*
X0059715Y0172311D01*
X0052504Y0165100D01*
X0067296Y0165100D01*
X0068311Y0166115D01*
X0068311Y0166935D01*
X0068720Y0167923D01*
X0069477Y0168680D01*
X0070465Y0169089D01*
X0071535Y0169089D01*
X0072523Y0168680D01*
X0073280Y0167923D01*
X0073689Y0166935D01*
X0073689Y0165865D01*
X0073280Y0164877D01*
X0072523Y0164120D01*
X0071535Y0163711D01*
X0070715Y0163711D01*
X0069700Y0162696D01*
X0068704Y0161700D01*
X0053724Y0161700D01*
X0053800Y0161517D01*
X0053800Y0160483D01*
X0053404Y0159527D01*
X0052673Y0158796D01*
X0051717Y0158400D01*
X0050683Y0158400D01*
X0050062Y0158657D01*
X0039100Y0147696D01*
X0039100Y0145900D01*
X0039330Y0145900D01*
X0040000Y0145230D01*
X0040670Y0145900D01*
X0044330Y0145900D01*
X0045000Y0145230D01*
X0045670Y0145900D01*
X0049330Y0145900D01*
X0050000Y0145230D01*
X0050670Y0145900D01*
X0050700Y0145900D01*
X0050700Y0146704D01*
X0051900Y0147904D01*
X0052896Y0148900D01*
X0071496Y0148900D01*
X0072696Y0150100D01*
X0075696Y0150100D01*
X0075900Y0150304D01*
X0075900Y0150304D01*
X0076896Y0151300D01*
X0079896Y0151300D01*
X0080100Y0151504D01*
X0081096Y0152500D01*
X0082896Y0152500D01*
X0083100Y0152704D01*
X0084096Y0153700D01*
X0118296Y0153700D01*
X0118500Y0153904D01*
X0119496Y0154900D01*
X0122496Y0154900D01*
X0122700Y0155104D01*
X0123696Y0156100D01*
X0127504Y0156100D01*
X0138798Y0144806D01*
X0139025Y0144900D01*
X0140975Y0144900D01*
X0142776Y0144154D01*
X0144154Y0142776D01*
X0144900Y0140975D01*
X0144900Y0139025D01*
X0144154Y0137224D01*
X0142776Y0135846D01*
X0142423Y0135700D01*
X0147577Y0135700D01*
X0147224Y0135846D01*
X0145846Y0137224D01*
X0145100Y0139025D01*
X0145100Y0140975D01*
X0145846Y0142776D01*
X0147224Y0144154D01*
X0149025Y0144900D01*
X0149496Y0144900D01*
X0145685Y0148711D01*
X0144865Y0148711D01*
X0143877Y0149120D01*
X0143120Y0149877D01*
X0142711Y0150865D01*
X0142711Y0151935D01*
X0143120Y0152923D01*
X0143877Y0153680D01*
X0144865Y0154089D01*
X0145935Y0154089D01*
X0146923Y0153680D01*
X0147680Y0152923D01*
X0148089Y0151935D01*
X0148089Y0151115D01*
X0156100Y0143104D01*
X0156100Y0143030D01*
X0157224Y0144154D01*
X0159025Y0144900D01*
X0160975Y0144900D01*
X0162776Y0144154D01*
X0164154Y0142776D01*
X0164900Y0140975D01*
X0164900Y0139025D01*
X0164154Y0137224D01*
X0162776Y0135846D01*
X0160975Y0135100D01*
X0159025Y0135100D01*
X0157224Y0135846D01*
X0156100Y0136970D01*
X0156100Y0136896D01*
X0155104Y0135900D01*
X0150304Y0131100D01*
X0138096Y0131100D01*
X0137100Y0132096D01*
X0136896Y0132300D01*
X0128496Y0132300D01*
X0127500Y0133296D01*
X0123900Y0136896D01*
X0123900Y0136970D01*
X0122776Y0135846D01*
X0120975Y0135100D01*
X0119025Y0135100D01*
X0117224Y0135846D01*
X0115846Y0137224D01*
X0115100Y0139025D01*
X0115100Y0140975D01*
X0115846Y0142776D01*
X0116033Y0142963D01*
X0114696Y0144300D01*
X0112423Y0144300D01*
X0112776Y0144154D01*
X0114154Y0142776D01*
X0114900Y0140975D01*
X0114900Y0139025D01*
X0114154Y0137224D01*
X0112776Y0135846D01*
X0111700Y0135400D01*
X0111700Y0126096D01*
X0110704Y0125100D01*
X0108104Y0122500D01*
X0111304Y0122500D01*
X0128940Y0104864D01*
X0129025Y0104900D01*
X0130975Y0104900D01*
X0132776Y0104154D01*
X0134154Y0102776D01*
X0134900Y0100975D01*
X0134900Y0099025D01*
X0134185Y0097300D01*
X0135096Y0097300D01*
X0135604Y0097808D01*
X0135100Y0099025D01*
X0135100Y0100975D01*
X0135846Y0102776D01*
X0137224Y0104154D01*
X0139025Y0104900D01*
X0140975Y0104900D01*
X0142776Y0104154D01*
X0144154Y0102776D01*
X0144900Y0100975D01*
X0144900Y0099025D01*
X0144154Y0097224D01*
X0142776Y0095846D01*
X0140975Y0095100D01*
X0139876Y0095100D01*
X0140200Y0094317D01*
X0140200Y0093283D01*
X0139804Y0092327D01*
X0139073Y0091596D01*
X0138117Y0091200D01*
X0137083Y0091200D01*
X0136715Y0091352D01*
X0136715Y0088119D01*
X0137700Y0089104D01*
X0138696Y0090100D01*
X0150696Y0090100D01*
X0152100Y0091504D01*
X0152100Y0095566D01*
X0150975Y0095100D01*
X0149025Y0095100D01*
X0147224Y0095846D01*
X0145846Y0097224D01*
X0145100Y0099025D01*
X0145100Y0100975D01*
X0145846Y0102776D01*
X0147224Y0104154D01*
X0149025Y0104900D01*
X0150975Y0104900D01*
X0152776Y0104154D01*
X0153963Y0102967D01*
X0157500Y0106504D01*
X0158496Y0107500D01*
X0166896Y0107500D01*
X0170100Y0110704D01*
X0170100Y0123304D01*
X0172500Y0125704D01*
X0172500Y0135096D01*
X0172050Y0135546D01*
X0170975Y0135100D01*
X0169025Y0135100D01*
X0167224Y0135846D01*
X0165846Y0137224D01*
X0165100Y0139025D01*
X0165100Y0140975D01*
X0165846Y0142776D01*
X0167224Y0144154D01*
X0169025Y0144900D01*
X0170975Y0144900D01*
X0172776Y0144154D01*
X0174063Y0142867D01*
X0177300Y0146104D01*
X0177300Y0149704D01*
X0182311Y0154715D01*
X0182311Y0155535D01*
X0182720Y0156523D01*
X0183477Y0157280D01*
X0184465Y0157689D01*
X0185535Y0157689D01*
X0186523Y0157280D01*
X0187280Y0156523D01*
X0187689Y0155535D01*
X0187689Y0155093D01*
X0188300Y0155704D01*
X0189296Y0156700D01*
X0201900Y0156700D01*
X0201900Y0174296D01*
X0199666Y0172062D01*
X0200100Y0171014D01*
X0200100Y0168986D01*
X0199324Y0167111D01*
X0197889Y0165676D01*
X0196014Y0164900D01*
X0193986Y0164900D01*
X0192111Y0165676D01*
X0190676Y0167111D01*
X0190000Y0168744D01*
X0189324Y0167111D01*
X0187889Y0165676D01*
X0186014Y0164900D01*
X0183986Y0164900D01*
X0182111Y0165676D01*
X0181700Y0166088D01*
X0181700Y0162103D01*
X0182280Y0161523D01*
X0182689Y0160535D01*
X0182689Y0159465D01*
X0182280Y0158477D01*
X0181523Y0157720D01*
X0180535Y0157311D01*
X0179465Y0157311D01*
X0178477Y0157720D01*
X0177720Y0158477D01*
X0177311Y0159465D01*
X0177311Y0160535D01*
X0177720Y0161523D01*
X0178300Y0162103D01*
X0178300Y0165296D01*
X0178296Y0165300D01*
X0177904Y0165692D01*
X0177889Y0165676D01*
X0176014Y0164900D01*
X0173986Y0164900D01*
X0172111Y0165676D01*
X0170676Y0167111D01*
X0170000Y0168744D01*
X0169324Y0167111D01*
X0167889Y0165676D01*
X0166014Y0164900D01*
X0163986Y0164900D01*
X0162111Y0165676D01*
X0160676Y0167111D01*
X0160000Y0168744D01*
X0159324Y0167111D01*
X0157889Y0165676D01*
X0156014Y0164900D01*
X0153986Y0164900D01*
X0152111Y0165676D01*
X0150676Y0167111D01*
X0150000Y0168744D01*
X0149324Y0167111D01*
X0147889Y0165676D01*
X0146700Y0165184D01*
X0146700Y0162103D01*
X0147280Y0161523D01*
X0147689Y0160535D01*
X0147689Y0159465D01*
X0147280Y0158477D01*
X0146523Y0157720D01*
X0145535Y0157311D01*
X0144465Y0157311D01*
X0143477Y0157720D01*
X0142720Y0158477D01*
X0142311Y0159465D01*
X0142311Y0160535D01*
X0142720Y0161523D01*
X0143300Y0162103D01*
X0143300Y0165184D01*
X0142111Y0165676D01*
X0140676Y0167111D01*
X0139900Y0168986D01*
X0139900Y0171014D01*
X0140334Y0172062D01*
X0138500Y0173896D01*
X0138304Y0173700D01*
X0133565Y0168961D01*
X0133565Y0164105D01*
X0132745Y0163285D01*
X0127255Y0163285D01*
X0127240Y0163300D01*
X0107103Y0163300D01*
X0106523Y0162720D01*
X0105535Y0162311D01*
X0104465Y0162311D01*
X0103477Y0162720D01*
X0102720Y0163477D01*
X0102311Y0164465D01*
X0102311Y0165535D01*
X0102720Y0166523D01*
X0103477Y0167280D01*
X0104465Y0167689D01*
X0105535Y0167689D01*
X0106523Y0167280D01*
X0107103Y0166700D01*
X0126435Y0166700D01*
X0126435Y0168561D01*
X0125700Y0169296D01*
X0119496Y0175500D01*
X0103172Y0175500D01*
X0103172Y0175483D01*
X0102352Y0174663D01*
X0097648Y0174663D01*
X0096828Y0175483D01*
X0096828Y0175500D01*
X0095177Y0175500D01*
X0094673Y0174996D01*
X0093717Y0174600D01*
X0092683Y0174600D01*
X0091727Y0174996D01*
X0090996Y0175727D01*
X0090600Y0176683D01*
X0090600Y0177717D01*
X0090996Y0178673D01*
X0091727Y0179404D01*
X0092683Y0179800D01*
X0093717Y0179800D01*
X0094673Y0179404D01*
X0095177Y0178900D01*
X0096828Y0178900D01*
X0096828Y0179399D01*
X0097153Y0179723D01*
X0097123Y0179741D01*
X0096788Y0180076D01*
X0096551Y0180486D01*
X0096428Y0180944D01*
X0096428Y0182559D01*
X0100000Y0182559D01*
X0100000Y0182559D01*
X0103572Y0182559D01*
X0103572Y0182681D01*
X0104465Y0182311D01*
X0105535Y0182311D01*
X0106523Y0182720D01*
X0107103Y0183300D01*
X0117897Y0183300D01*
X0118477Y0182720D01*
X0119465Y0182311D01*
X0120535Y0182311D01*
X0121523Y0182720D01*
X0122280Y0183477D01*
X0122689Y0184465D01*
X0122689Y0185535D01*
X0122280Y0186523D01*
X0121523Y0187280D01*
X0120535Y0187689D01*
X0119465Y0187689D01*
X0118477Y0187280D01*
X0117897Y0186700D01*
X0107103Y0186700D01*
X0106523Y0187280D01*
X0105535Y0187689D01*
X0104465Y0187689D01*
X0103477Y0187280D01*
X0106572Y0187230D02*
X0118428Y0187230D01*
X0121572Y0187230D02*
X0134700Y0187230D01*
X0134700Y0185632D02*
X0122649Y0185632D01*
X0122510Y0184033D02*
X0134700Y0184033D01*
X0134700Y0182435D02*
X0120834Y0182435D01*
X0119166Y0182435D02*
X0105834Y0182435D01*
X0104166Y0182435D02*
X0103572Y0182435D01*
X0103543Y0180836D02*
X0134700Y0180836D01*
X0134700Y0179238D02*
X0103172Y0179238D01*
X0100000Y0182559D02*
X0100000Y0182559D01*
X0096428Y0182559D01*
X0096428Y0184174D01*
X0096551Y0184632D01*
X0096788Y0185042D01*
X0097123Y0185377D01*
X0097534Y0185614D01*
X0097991Y0185737D01*
X0100000Y0185737D01*
X0100000Y0182559D01*
X0100000Y0184033D02*
X0100000Y0184033D01*
X0100000Y0185632D02*
X0100000Y0185632D01*
X0097599Y0185632D02*
X0051700Y0185632D01*
X0051700Y0184033D02*
X0096428Y0184033D01*
X0096428Y0182435D02*
X0051700Y0182435D01*
X0051700Y0180836D02*
X0096457Y0180836D01*
X0096828Y0179238D02*
X0094839Y0179238D01*
X0091561Y0179238D02*
X0051700Y0179238D01*
X0051700Y0177639D02*
X0059345Y0177639D01*
X0060655Y0177639D02*
X0090600Y0177639D01*
X0090866Y0176041D02*
X0062479Y0176041D01*
X0062679Y0174442D02*
X0120554Y0174442D01*
X0122152Y0172844D02*
X0061646Y0172844D01*
X0058649Y0171245D02*
X0123751Y0171245D01*
X0125349Y0169647D02*
X0057051Y0169647D01*
X0055452Y0168048D02*
X0068845Y0168048D01*
X0068311Y0166450D02*
X0053854Y0166450D01*
X0050644Y0168048D02*
X0006800Y0168048D01*
X0006800Y0166450D02*
X0049045Y0166450D01*
X0047447Y0164851D02*
X0006800Y0164851D01*
X0006800Y0163253D02*
X0045848Y0163253D01*
X0044250Y0161654D02*
X0006800Y0161654D01*
X0006800Y0160056D02*
X0042651Y0160056D01*
X0041053Y0158457D02*
X0006800Y0158457D01*
X0006800Y0156859D02*
X0039454Y0156859D01*
X0037856Y0155260D02*
X0006800Y0155260D01*
X0006800Y0153662D02*
X0036257Y0153662D01*
X0034659Y0152063D02*
X0006800Y0152063D01*
X0006800Y0150465D02*
X0033060Y0150465D01*
X0031462Y0148866D02*
X0006800Y0148866D01*
X0006800Y0147268D02*
X0030900Y0147268D01*
X0030900Y0145669D02*
X0006800Y0145669D01*
X0006800Y0144070D02*
X0030900Y0144070D01*
X0030900Y0142472D02*
X0006800Y0142472D01*
X0006800Y0140873D02*
X0030900Y0140873D01*
X0030900Y0139275D02*
X0006800Y0139275D01*
X0006800Y0137676D02*
X0030900Y0137676D01*
X0030900Y0136078D02*
X0006800Y0136078D01*
X0006800Y0134479D02*
X0030900Y0134479D01*
X0030900Y0132881D02*
X0006800Y0132881D01*
X0006800Y0131282D02*
X0030900Y0131282D01*
X0030900Y0129684D02*
X0006800Y0129684D01*
X0006800Y0128085D02*
X0030900Y0128085D01*
X0030900Y0126487D02*
X0006800Y0126487D01*
X0006800Y0124888D02*
X0030900Y0124888D01*
X0030900Y0123290D02*
X0006800Y0123290D01*
X0006800Y0121691D02*
X0030900Y0121691D01*
X0030900Y0120093D02*
X0006800Y0120093D01*
X0006800Y0118494D02*
X0030900Y0118494D01*
X0030900Y0116896D02*
X0006800Y0116896D01*
X0006800Y0115297D02*
X0030900Y0115297D01*
X0030900Y0113699D02*
X0006800Y0113699D01*
X0006800Y0112100D02*
X0030900Y0112100D01*
X0030900Y0110502D02*
X0006800Y0110502D01*
X0006800Y0108903D02*
X0030299Y0108903D01*
X0028701Y0107305D02*
X0006800Y0107305D01*
X0006800Y0105706D02*
X0027102Y0105706D01*
X0026100Y0104108D02*
X0006800Y0104108D01*
X0006800Y0102509D02*
X0026100Y0102509D01*
X0026100Y0100911D02*
X0006800Y0100911D01*
X0006800Y0099312D02*
X0026100Y0099312D01*
X0026100Y0097714D02*
X0006800Y0097714D01*
X0006800Y0096115D02*
X0026100Y0096115D01*
X0026100Y0094517D02*
X0006800Y0094517D01*
X0006800Y0092918D02*
X0026100Y0092918D01*
X0026100Y0091320D02*
X0006800Y0091320D01*
X0006800Y0089721D02*
X0026100Y0089721D01*
X0026100Y0088123D02*
X0006800Y0088123D01*
X0006800Y0086524D02*
X0026100Y0086524D01*
X0026100Y0084926D02*
X0006800Y0084926D01*
X0006800Y0083327D02*
X0026100Y0083327D01*
X0026100Y0081729D02*
X0006800Y0081729D01*
X0006800Y0080130D02*
X0026100Y0080130D01*
X0026100Y0078532D02*
X0006800Y0078532D01*
X0006800Y0076933D02*
X0013929Y0076933D01*
X0012330Y0075334D02*
X0006800Y0075334D01*
X0006800Y0073736D02*
X0010732Y0073736D01*
X0009133Y0072137D02*
X0006800Y0072137D01*
X0006800Y0070539D02*
X0007535Y0070539D01*
X0029500Y0076504D02*
X0029500Y0103296D01*
X0030900Y0104696D01*
X0030900Y0086696D01*
X0033300Y0084296D01*
X0034296Y0083300D01*
X0040096Y0083300D01*
X0042096Y0081300D01*
X0052628Y0081300D01*
X0052311Y0080535D01*
X0052311Y0079465D01*
X0052720Y0078477D01*
X0053477Y0077720D01*
X0054465Y0077311D01*
X0055535Y0077311D01*
X0056523Y0077720D01*
X0057280Y0078477D01*
X0057689Y0079465D01*
X0057689Y0080535D01*
X0057280Y0081523D01*
X0056900Y0081903D01*
X0056900Y0083787D01*
X0055787Y0084900D01*
X0054213Y0084900D01*
X0054013Y0084700D01*
X0043504Y0084700D01*
X0041504Y0086700D01*
X0035704Y0086700D01*
X0034300Y0088104D01*
X0034300Y0088300D01*
X0063896Y0088300D01*
X0073500Y0078696D01*
X0073500Y0078696D01*
X0074496Y0077700D01*
X0084696Y0077700D01*
X0085296Y0077100D01*
X0098476Y0077100D01*
X0098400Y0076917D01*
X0098400Y0075883D01*
X0098796Y0074927D01*
X0099527Y0074196D01*
X0100483Y0073800D01*
X0101517Y0073800D01*
X0102473Y0074196D01*
X0103204Y0074927D01*
X0103600Y0075883D01*
X0103600Y0075900D01*
X0107462Y0075900D01*
X0107311Y0075535D01*
X0107311Y0074465D01*
X0107720Y0073477D01*
X0108300Y0072897D01*
X0108300Y0050704D01*
X0105285Y0047689D01*
X0104465Y0047689D01*
X0103477Y0047280D01*
X0102720Y0046523D01*
X0102311Y0045535D01*
X0102311Y0044465D01*
X0102720Y0043477D01*
X0103477Y0042720D01*
X0104465Y0042311D01*
X0105535Y0042311D01*
X0106523Y0042720D01*
X0107280Y0043477D01*
X0107689Y0044465D01*
X0107689Y0045285D01*
X0111700Y0049296D01*
X0111700Y0072897D01*
X0112280Y0073477D01*
X0112689Y0074465D01*
X0112689Y0075535D01*
X0112538Y0075900D01*
X0127504Y0075900D01*
X0129304Y0077700D01*
X0136504Y0077700D01*
X0139958Y0081153D01*
X0139900Y0081014D01*
X0139900Y0078986D01*
X0140515Y0077500D01*
X0131496Y0077500D01*
X0130896Y0076900D01*
X0129900Y0075904D01*
X0129900Y0073565D01*
X0129105Y0073565D01*
X0128285Y0072745D01*
X0128285Y0067255D01*
X0129105Y0066435D01*
X0129900Y0066435D01*
X0129900Y0065104D01*
X0126541Y0061746D01*
X0126524Y0061789D01*
X0125089Y0063224D01*
X0123214Y0064000D01*
X0121186Y0064000D01*
X0119311Y0063224D01*
X0117876Y0061789D01*
X0117100Y0059914D01*
X0117100Y0057886D01*
X0117876Y0056011D01*
X0119311Y0054576D01*
X0121186Y0053800D01*
X0123214Y0053800D01*
X0125089Y0054576D01*
X0126524Y0056011D01*
X0127166Y0057562D01*
X0127900Y0058296D01*
X0133300Y0063696D01*
X0133300Y0066435D01*
X0134202Y0066435D01*
X0134776Y0067009D01*
X0134938Y0066729D01*
X0135273Y0066394D01*
X0135683Y0066157D01*
X0136141Y0066035D01*
X0138162Y0066035D01*
X0138162Y0069816D01*
X0138531Y0069816D01*
X0138531Y0070184D01*
X0142115Y0070184D01*
X0142115Y0072402D01*
X0141992Y0072860D01*
X0141755Y0073271D01*
X0141420Y0073606D01*
X0141010Y0073843D01*
X0140552Y0073965D01*
X0138531Y0073965D01*
X0138531Y0070184D01*
X0138162Y0070184D01*
X0138162Y0073965D01*
X0136141Y0073965D01*
X0135683Y0073843D01*
X0135273Y0073606D01*
X0134938Y0073271D01*
X0134776Y0072991D01*
X0134202Y0073565D01*
X0133300Y0073565D01*
X0133300Y0074100D01*
X0141696Y0074100D01*
X0143496Y0072300D01*
X0156304Y0072300D01*
X0157300Y0073296D01*
X0160896Y0076892D01*
X0162111Y0075676D01*
X0163986Y0074900D01*
X0166014Y0074900D01*
X0167889Y0075676D01*
X0169324Y0077111D01*
X0169790Y0078237D01*
X0169903Y0077889D01*
X0170296Y0077117D01*
X0170805Y0076417D01*
X0171417Y0075805D01*
X0172117Y0075296D01*
X0172889Y0074903D01*
X0173712Y0074635D01*
X0174567Y0074500D01*
X0174800Y0074500D01*
X0174800Y0079800D01*
X0175200Y0079800D01*
X0175200Y0080200D01*
X0174800Y0080200D01*
X0174800Y0085500D01*
X0174567Y0085500D01*
X0173712Y0085365D01*
X0172889Y0085097D01*
X0172117Y0084704D01*
X0171417Y0084195D01*
X0170805Y0083583D01*
X0170296Y0082883D01*
X0169903Y0082111D01*
X0169790Y0081763D01*
X0169324Y0082889D01*
X0167889Y0084324D01*
X0167351Y0084547D01*
X0167500Y0084696D01*
X0174904Y0092100D01*
X0186304Y0092100D01*
X0187300Y0093096D01*
X0191704Y0097500D01*
X0191704Y0097500D01*
X0192700Y0098496D01*
X0192700Y0119704D01*
X0187689Y0124715D01*
X0187689Y0125535D01*
X0187280Y0126523D01*
X0186523Y0127280D01*
X0185535Y0127689D01*
X0184465Y0127689D01*
X0183477Y0127280D01*
X0182720Y0126523D01*
X0182311Y0125535D01*
X0182311Y0124465D01*
X0182720Y0123477D01*
X0183477Y0122720D01*
X0184465Y0122311D01*
X0185285Y0122311D01*
X0189300Y0118296D01*
X0189300Y0099904D01*
X0184896Y0095500D01*
X0181940Y0095500D01*
X0182776Y0095846D01*
X0184154Y0097224D01*
X0184900Y0099025D01*
X0184900Y0100975D01*
X0184154Y0102776D01*
X0182776Y0104154D01*
X0180975Y0104900D01*
X0179025Y0104900D01*
X0177224Y0104154D01*
X0175937Y0102867D01*
X0175900Y0102904D01*
X0175900Y0120696D01*
X0178300Y0123096D01*
X0178300Y0135400D01*
X0179025Y0135100D01*
X0180975Y0135100D01*
X0182370Y0135678D01*
X0182311Y0135535D01*
X0182311Y0134465D01*
X0182720Y0133477D01*
X0183477Y0132720D01*
X0184465Y0132311D01*
X0185535Y0132311D01*
X0186523Y0132720D01*
X0187280Y0133477D01*
X0187689Y0134465D01*
X0187689Y0135535D01*
X0187280Y0136523D01*
X0186700Y0137103D01*
X0186700Y0149296D01*
X0190704Y0153300D01*
X0203100Y0153300D01*
X0203100Y0150096D01*
X0216900Y0136296D01*
X0216900Y0133565D01*
X0215798Y0133565D01*
X0215000Y0132767D01*
X0214202Y0133565D01*
X0209105Y0133565D01*
X0208285Y0132745D01*
X0208285Y0132600D01*
X0206700Y0132600D01*
X0206700Y0133730D01*
X0205880Y0134550D01*
X0200120Y0134550D01*
X0200000Y0134430D01*
X0199880Y0134550D01*
X0194120Y0134550D01*
X0193300Y0133730D01*
X0193300Y0131700D01*
X0191700Y0131700D01*
X0191700Y0144296D01*
X0194715Y0147311D01*
X0195535Y0147311D01*
X0196523Y0147720D01*
X0197280Y0148477D01*
X0197689Y0149465D01*
X0197689Y0150535D01*
X0197280Y0151523D01*
X0196523Y0152280D01*
X0195535Y0152689D01*
X0194465Y0152689D01*
X0193477Y0152280D01*
X0192720Y0151523D01*
X0192311Y0150535D01*
X0192311Y0149715D01*
X0189296Y0146700D01*
X0188300Y0145704D01*
X0188300Y0129296D01*
X0189296Y0128300D01*
X0193300Y0128300D01*
X0193300Y0126270D01*
X0194120Y0125450D01*
X0195600Y0125450D01*
X0195600Y0124804D01*
X0195346Y0124550D01*
X0194120Y0124550D01*
X0193300Y0123730D01*
X0193300Y0116270D01*
X0194120Y0115450D01*
X0199880Y0115450D01*
X0200000Y0115570D01*
X0200120Y0115450D01*
X0205880Y0115450D01*
X0206700Y0116270D01*
X0206700Y0117400D01*
X0208285Y0117400D01*
X0208285Y0117255D01*
X0209105Y0116435D01*
X0214202Y0116435D01*
X0215000Y0117233D01*
X0215798Y0116435D01*
X0216900Y0116435D01*
X0216900Y0113565D01*
X0215798Y0113565D01*
X0215000Y0112767D01*
X0214202Y0113565D01*
X0209105Y0113565D01*
X0208285Y0112745D01*
X0208285Y0112600D01*
X0206700Y0112600D01*
X0206700Y0113730D01*
X0205880Y0114550D01*
X0200120Y0114550D01*
X0200000Y0114430D01*
X0199880Y0114550D01*
X0194120Y0114550D01*
X0193300Y0113730D01*
X0193300Y0106270D01*
X0194120Y0105450D01*
X0194538Y0105450D01*
X0194400Y0105117D01*
X0194400Y0104083D01*
X0194796Y0103127D01*
X0194859Y0103064D01*
X0194700Y0102904D01*
X0194700Y0100296D01*
X0195696Y0099300D01*
X0201900Y0093096D01*
X0201900Y0076600D01*
X0201883Y0076600D01*
X0200927Y0076204D01*
X0200196Y0075473D01*
X0199800Y0074517D01*
X0199800Y0073965D01*
X0198338Y0073965D01*
X0198338Y0070184D01*
X0197969Y0070184D01*
X0197969Y0069816D01*
X0194385Y0069816D01*
X0194385Y0067598D01*
X0194508Y0067140D01*
X0194745Y0066729D01*
X0195080Y0066394D01*
X0195490Y0066157D01*
X0195948Y0066035D01*
X0197969Y0066035D01*
X0197969Y0069816D01*
X0198338Y0069816D01*
X0198338Y0066035D01*
X0200359Y0066035D01*
X0200817Y0066157D01*
X0201227Y0066394D01*
X0201562Y0066729D01*
X0201724Y0067009D01*
X0202298Y0066435D01*
X0203100Y0066435D01*
X0203100Y0063696D01*
X0207100Y0059696D01*
X0207100Y0057886D01*
X0207876Y0056011D01*
X0209311Y0054576D01*
X0211186Y0053800D01*
X0213214Y0053800D01*
X0215089Y0054576D01*
X0216524Y0056011D01*
X0217300Y0057886D01*
X0217300Y0059914D01*
X0216524Y0061789D01*
X0215089Y0063224D01*
X0213214Y0064000D01*
X0211186Y0064000D01*
X0209311Y0063224D01*
X0208846Y0062758D01*
X0206500Y0065104D01*
X0206500Y0066435D01*
X0207395Y0066435D01*
X0208215Y0067255D01*
X0208215Y0072745D01*
X0207395Y0073565D01*
X0206500Y0073565D01*
X0206500Y0076896D01*
X0222515Y0092911D01*
X0223335Y0092911D01*
X0224323Y0093320D01*
X0225080Y0094077D01*
X0225489Y0095065D01*
X0225489Y0096135D01*
X0225080Y0097123D01*
X0224323Y0097880D01*
X0223335Y0098289D01*
X0222265Y0098289D01*
X0221277Y0097880D01*
X0220520Y0097123D01*
X0220111Y0096135D01*
X0220111Y0095315D01*
X0205300Y0080504D01*
X0205300Y0094504D01*
X0198204Y0101600D01*
X0198700Y0102096D01*
X0198700Y0102623D01*
X0199204Y0103127D01*
X0199600Y0104083D01*
X0199600Y0105117D01*
X0199462Y0105450D01*
X0199880Y0105450D01*
X0200000Y0105570D01*
X0200120Y0105450D01*
X0205880Y0105450D01*
X0206700Y0106270D01*
X0206700Y0107400D01*
X0208285Y0107400D01*
X0208285Y0107255D01*
X0209105Y0106435D01*
X0214202Y0106435D01*
X0215000Y0107233D01*
X0215798Y0106435D01*
X0220895Y0106435D01*
X0221715Y0107255D01*
X0221715Y0112745D01*
X0220895Y0113565D01*
X0220300Y0113565D01*
X0220300Y0116435D01*
X0220895Y0116435D01*
X0221715Y0117255D01*
X0221715Y0122745D01*
X0220895Y0123565D01*
X0220300Y0123565D01*
X0220300Y0126435D01*
X0220895Y0126435D01*
X0221715Y0127255D01*
X0221715Y0132745D01*
X0220895Y0133565D01*
X0220300Y0133565D01*
X0220300Y0134696D01*
X0220496Y0134500D01*
X0221100Y0133896D01*
X0221100Y0133896D01*
X0223097Y0131899D01*
X0222720Y0131523D01*
X0222311Y0130535D01*
X0222311Y0129465D01*
X0222720Y0128477D01*
X0223477Y0127720D01*
X0224465Y0127311D01*
X0225535Y0127311D01*
X0226523Y0127720D01*
X0227280Y0128477D01*
X0227689Y0129465D01*
X0227689Y0130535D01*
X0227280Y0131523D01*
X0226700Y0132103D01*
X0226700Y0133104D01*
X0223504Y0136300D01*
X0222900Y0136904D01*
X0207700Y0152104D01*
X0207700Y0185496D01*
X0218104Y0195900D01*
X0219304Y0195900D01*
X0220300Y0196896D01*
X0221104Y0197700D01*
X0230104Y0197700D01*
X0231100Y0198696D01*
X0232879Y0200475D01*
X0233053Y0200300D01*
X0236947Y0200300D01*
X0239700Y0203053D01*
X0239700Y0206947D01*
X0236947Y0209700D01*
X0233053Y0209700D01*
X0230300Y0206947D01*
X0230300Y0203053D01*
X0230475Y0202879D01*
X0228696Y0201100D01*
X0227747Y0201100D01*
X0229700Y0203053D01*
X0229700Y0206947D01*
X0226947Y0209700D01*
X0223053Y0209700D01*
X0220900Y0207547D01*
X0220900Y0207904D01*
X0219904Y0208900D01*
X0215604Y0213200D01*
X0258254Y0213200D01*
X0263200Y0208254D01*
X0263200Y0174004D01*
X0259549Y0177655D01*
X0260100Y0178986D01*
X0260100Y0181014D01*
X0259324Y0182889D01*
X0257889Y0184324D01*
X0256014Y0185100D01*
X0253986Y0185100D01*
X0252111Y0184324D01*
X0250676Y0182889D01*
X0250000Y0181256D01*
X0249324Y0182889D01*
X0247889Y0184324D01*
X0246014Y0185100D01*
X0243986Y0185100D01*
X0242111Y0184324D01*
X0240676Y0182889D01*
X0239900Y0181014D01*
X0239900Y0178986D01*
X0240676Y0177111D01*
X0242111Y0175676D01*
X0243986Y0174900D01*
X0246014Y0174900D01*
X0247889Y0175676D01*
X0249324Y0177111D01*
X0250000Y0178744D01*
X0250676Y0177111D01*
X0252111Y0175676D01*
X0253986Y0174900D01*
X0256014Y0174900D01*
X0257062Y0175334D01*
X0261900Y0170496D01*
X0261900Y0165904D01*
X0261096Y0165100D01*
X0258565Y0165100D01*
X0258565Y0165895D01*
X0257745Y0166715D01*
X0252255Y0166715D01*
X0251435Y0165895D01*
X0251435Y0160798D01*
X0252009Y0160224D01*
X0251729Y0160062D01*
X0251394Y0159727D01*
X0251157Y0159317D01*
X0251035Y0158859D01*
X0251035Y0156838D01*
X0254816Y0156838D01*
X0254816Y0156469D01*
X0255184Y0156469D01*
X0255184Y0152885D01*
X0257402Y0152885D01*
X0257860Y0153008D01*
X0258271Y0153245D01*
X0258606Y0153580D01*
X0258843Y0153990D01*
X0258965Y0154448D01*
X0258965Y0156469D01*
X0255184Y0156469D01*
X0255184Y0156838D01*
X0258965Y0156838D01*
X0258965Y0158859D01*
X0258843Y0159317D01*
X0258606Y0159727D01*
X0258271Y0160062D01*
X0257991Y0160224D01*
X0258565Y0160798D01*
X0258565Y0161700D01*
X0262504Y0161700D01*
X0263629Y0162825D01*
X0264254Y0162200D01*
X0273200Y0153254D01*
X0273200Y0025746D01*
X0263200Y0015746D01*
X0263200Y0006800D01*
X0006800Y0006800D01*
X0006800Y0049996D01*
X0013500Y0043296D01*
X0014496Y0042300D01*
X0016896Y0042300D01*
X0018300Y0040896D01*
X0019296Y0039900D01*
X0024301Y0039900D01*
X0024301Y0033967D01*
X0025121Y0033147D01*
X0031399Y0033147D01*
X0032000Y0033748D01*
X0032590Y0033158D01*
X0032486Y0033130D01*
X0032076Y0032893D01*
X0031741Y0032558D01*
X0031723Y0032528D01*
X0031399Y0032853D01*
X0025121Y0032853D01*
X0024301Y0032033D01*
X0024301Y0024967D01*
X0025121Y0024147D01*
X0031399Y0024147D01*
X0031723Y0024472D01*
X0031741Y0024442D01*
X0032076Y0024107D01*
X0032486Y0023870D01*
X0032944Y0023747D01*
X0035261Y0023747D01*
X0035261Y0028020D01*
X0036220Y0028020D01*
X0036220Y0023747D01*
X0038536Y0023747D01*
X0038994Y0023870D01*
X0039404Y0024107D01*
X0039740Y0024442D01*
X0039977Y0024852D01*
X0040099Y0025310D01*
X0040099Y0028020D01*
X0036220Y0028020D01*
X0036220Y0028980D01*
X0040099Y0028980D01*
X0040099Y0031311D01*
X0041035Y0031311D01*
X0042023Y0031720D01*
X0042780Y0032477D01*
X0043189Y0033465D01*
X0043189Y0034535D01*
X0043138Y0034658D01*
X0045523Y0032272D01*
X0045417Y0032195D01*
X0044805Y0031583D01*
X0044296Y0030883D01*
X0043903Y0030111D01*
X0043635Y0029288D01*
X0043500Y0028433D01*
X0043500Y0028200D01*
X0048800Y0028200D01*
X0048800Y0027800D01*
X0049200Y0027800D01*
X0049200Y0028200D01*
X0054500Y0028200D01*
X0054500Y0028433D01*
X0054365Y0029288D01*
X0054097Y0030111D01*
X0054001Y0030300D01*
X0073296Y0030300D01*
X0073896Y0029700D01*
X0101704Y0029700D01*
X0117304Y0045300D01*
X0119188Y0045300D01*
X0117876Y0043989D01*
X0117100Y0042114D01*
X0117100Y0040086D01*
X0117876Y0038211D01*
X0119311Y0036776D01*
X0121186Y0036000D01*
X0122990Y0036000D01*
X0127400Y0028484D01*
X0127400Y0028213D01*
X0127784Y0027829D01*
X0128060Y0027360D01*
X0128322Y0027291D01*
X0128513Y0027100D01*
X0129057Y0027100D01*
X0129583Y0026963D01*
X0129816Y0027100D01*
X0153097Y0027100D01*
X0153477Y0026720D01*
X0154465Y0026311D01*
X0155535Y0026311D01*
X0156523Y0026720D01*
X0157280Y0027477D01*
X0157689Y0028465D01*
X0157689Y0028902D01*
X0165197Y0036410D01*
X0166186Y0036000D01*
X0168214Y0036000D01*
X0169203Y0036410D01*
X0171400Y0034213D01*
X0171400Y0034213D01*
X0172513Y0033100D01*
X0210787Y0033100D01*
X0211900Y0034213D01*
X0214021Y0036334D01*
X0214203Y0036410D01*
X0217513Y0033100D01*
X0227338Y0033100D01*
X0227311Y0033035D01*
X0227311Y0031965D01*
X0227720Y0030977D01*
X0228147Y0030551D01*
X0224296Y0026700D01*
X0223300Y0025704D01*
X0223300Y0019700D01*
X0223053Y0019700D01*
X0220300Y0016947D01*
X0220300Y0013053D01*
X0223053Y0010300D01*
X0226947Y0010300D01*
X0229700Y0013053D01*
X0229700Y0016947D01*
X0226947Y0019700D01*
X0226700Y0019700D01*
X0226700Y0024296D01*
X0231700Y0029296D01*
X0231700Y0030397D01*
X0232280Y0030977D01*
X0232689Y0031965D01*
X0232689Y0033035D01*
X0232662Y0033100D01*
X0245787Y0033100D01*
X0246900Y0034213D01*
X0250400Y0037713D01*
X0250400Y0041285D01*
X0251245Y0041285D01*
X0252065Y0042105D01*
X0252065Y0047202D01*
X0251267Y0048000D01*
X0252065Y0048798D01*
X0252065Y0053895D01*
X0251245Y0054715D01*
X0245755Y0054715D01*
X0244935Y0053895D01*
X0244935Y0053246D01*
X0230559Y0053246D01*
X0230002Y0052689D01*
X0229465Y0052689D01*
X0228477Y0052280D01*
X0227720Y0051523D01*
X0227311Y0050535D01*
X0227311Y0049465D01*
X0227720Y0048477D01*
X0228477Y0047720D01*
X0229465Y0047311D01*
X0230535Y0047311D01*
X0231523Y0047720D01*
X0232280Y0048477D01*
X0232681Y0049446D01*
X0244935Y0049446D01*
X0244935Y0048798D01*
X0245733Y0048000D01*
X0244935Y0047202D01*
X0244935Y0042105D01*
X0245755Y0041285D01*
X0246600Y0041285D01*
X0246600Y0039287D01*
X0244213Y0036900D01*
X0240812Y0036900D01*
X0242124Y0038211D01*
X0242900Y0040086D01*
X0242900Y0042114D01*
X0242124Y0043989D01*
X0240689Y0045424D01*
X0238814Y0046200D01*
X0236786Y0046200D01*
X0234911Y0045424D01*
X0233476Y0043989D01*
X0232700Y0042114D01*
X0232700Y0040086D01*
X0233476Y0038211D01*
X0234788Y0036900D01*
X0219087Y0036900D01*
X0216890Y0039097D01*
X0217300Y0040086D01*
X0217300Y0042114D01*
X0216524Y0043989D01*
X0215089Y0045424D01*
X0213214Y0046200D01*
X0211186Y0046200D01*
X0209311Y0045424D01*
X0207876Y0043989D01*
X0207100Y0042114D01*
X0207100Y0040086D01*
X0207876Y0038211D01*
X0209188Y0036900D01*
X0195812Y0036900D01*
X0197124Y0038211D01*
X0197900Y0040086D01*
X0197900Y0042114D01*
X0197124Y0043989D01*
X0195689Y0045424D01*
X0193814Y0046200D01*
X0191786Y0046200D01*
X0189911Y0045424D01*
X0188476Y0043989D01*
X0187700Y0042114D01*
X0187700Y0040086D01*
X0188476Y0038211D01*
X0189788Y0036900D01*
X0174087Y0036900D01*
X0171890Y0039097D01*
X0172300Y0040086D01*
X0172300Y0042114D01*
X0171524Y0043989D01*
X0170089Y0045424D01*
X0168214Y0046200D01*
X0166186Y0046200D01*
X0164311Y0045424D01*
X0162876Y0043989D01*
X0162100Y0042114D01*
X0162100Y0040086D01*
X0162510Y0039097D01*
X0155102Y0031689D01*
X0154465Y0031689D01*
X0153477Y0031280D01*
X0153097Y0030900D01*
X0130388Y0030900D01*
X0126255Y0037943D01*
X0126524Y0038211D01*
X0127300Y0040086D01*
X0127300Y0042114D01*
X0126524Y0043989D01*
X0125212Y0045300D01*
X0126904Y0045300D01*
X0129904Y0048300D01*
X0217504Y0048300D01*
X0225304Y0056100D01*
X0226300Y0057096D01*
X0226300Y0064896D01*
X0228904Y0067500D01*
X0233704Y0067500D01*
X0237304Y0071100D01*
X0239801Y0071100D01*
X0239801Y0066237D01*
X0240621Y0065417D01*
X0254379Y0065417D01*
X0255199Y0066237D01*
X0255199Y0079996D01*
X0254379Y0080816D01*
X0240621Y0080816D01*
X0239801Y0079996D01*
X0239801Y0074805D01*
X0239496Y0074500D01*
X0235896Y0074500D01*
X0234900Y0073504D01*
X0232296Y0070900D01*
X0227496Y0070900D01*
X0226500Y0069904D01*
X0222900Y0066304D01*
X0222900Y0058504D01*
X0216096Y0051700D01*
X0128496Y0051700D01*
X0127500Y0050704D01*
X0125496Y0048700D01*
X0115896Y0048700D01*
X0114900Y0047704D01*
X0100296Y0033100D01*
X0082825Y0033100D01*
X0084154Y0034429D01*
X0084900Y0036230D01*
X0084900Y0038179D01*
X0084154Y0039980D01*
X0082776Y0041359D01*
X0080975Y0042105D01*
X0079025Y0042105D01*
X0078088Y0041716D01*
X0075900Y0043904D01*
X0075900Y0056787D01*
X0072689Y0059998D01*
X0072689Y0060535D01*
X0072280Y0061523D01*
X0071523Y0062280D01*
X0070535Y0062689D01*
X0069465Y0062689D01*
X0068477Y0062280D01*
X0067720Y0061523D01*
X0067311Y0060535D01*
X0067311Y0059465D01*
X0067720Y0058477D01*
X0068477Y0057720D01*
X0069465Y0057311D01*
X0070002Y0057311D01*
X0072100Y0055213D01*
X0072100Y0051703D01*
X0071523Y0052280D01*
X0070535Y0052689D01*
X0069998Y0052689D01*
X0069287Y0053400D01*
X0049903Y0053400D01*
X0049523Y0053780D01*
X0048535Y0054189D01*
X0047465Y0054189D01*
X0046477Y0053780D01*
X0045720Y0053023D01*
X0045311Y0052035D01*
X0045311Y0051093D01*
X0039100Y0057304D01*
X0039100Y0067261D01*
X0039261Y0067261D01*
X0040081Y0068082D01*
X0040081Y0073966D01*
X0039261Y0074786D01*
X0035739Y0074786D01*
X0035000Y0074047D01*
X0034261Y0074786D01*
X0031218Y0074786D01*
X0029500Y0076504D01*
X0029500Y0076933D02*
X0098407Y0076933D01*
X0098627Y0075334D02*
X0030670Y0075334D01*
X0029500Y0078532D02*
X0052698Y0078532D01*
X0052311Y0080130D02*
X0029500Y0080130D01*
X0029500Y0081729D02*
X0041667Y0081729D01*
X0043279Y0084926D02*
X0067270Y0084926D01*
X0065672Y0086524D02*
X0041680Y0086524D01*
X0034300Y0088123D02*
X0064073Y0088123D01*
X0068869Y0083327D02*
X0056900Y0083327D01*
X0057074Y0081729D02*
X0070467Y0081729D01*
X0072066Y0080130D02*
X0057689Y0080130D01*
X0057302Y0078532D02*
X0073664Y0078532D01*
X0077966Y0067707D02*
X0077222Y0067328D01*
X0076547Y0066838D01*
X0075957Y0066248D01*
X0075467Y0065573D01*
X0075088Y0064830D01*
X0074830Y0064036D01*
X0074700Y0063212D01*
X0074700Y0062881D01*
X0079914Y0062881D01*
X0079914Y0062709D01*
X0080086Y0062709D01*
X0080086Y0057495D01*
X0080417Y0057495D01*
X0081241Y0057626D01*
X0082034Y0057884D01*
X0082778Y0058262D01*
X0083453Y0058753D01*
X0084043Y0059343D01*
X0084533Y0060017D01*
X0084912Y0060761D01*
X0085169Y0061554D01*
X0085300Y0062378D01*
X0085300Y0062709D01*
X0080086Y0062709D01*
X0080086Y0062881D01*
X0085300Y0062881D01*
X0085300Y0063212D01*
X0085169Y0064036D01*
X0084912Y0064830D01*
X0084533Y0065573D01*
X0084043Y0066248D01*
X0083453Y0066838D01*
X0082778Y0067328D01*
X0082034Y0067707D01*
X0081241Y0067965D01*
X0080417Y0068095D01*
X0080086Y0068095D01*
X0080086Y0062881D01*
X0079914Y0062881D01*
X0079914Y0068095D01*
X0079583Y0068095D01*
X0078759Y0067965D01*
X0077966Y0067707D01*
X0077249Y0067342D02*
X0039342Y0067342D01*
X0039100Y0065743D02*
X0075591Y0065743D01*
X0074866Y0064145D02*
X0039100Y0064145D01*
X0039100Y0062546D02*
X0069121Y0062546D01*
X0070879Y0062546D02*
X0074700Y0062546D01*
X0074700Y0062709D02*
X0074700Y0062378D01*
X0074830Y0061554D01*
X0075088Y0060761D01*
X0075467Y0060017D01*
X0075957Y0059343D01*
X0076547Y0058753D01*
X0077222Y0058262D01*
X0077966Y0057884D01*
X0078759Y0057626D01*
X0079583Y0057495D01*
X0079914Y0057495D01*
X0079914Y0062709D01*
X0074700Y0062709D01*
X0075027Y0060948D02*
X0072518Y0060948D01*
X0073338Y0059349D02*
X0075952Y0059349D01*
X0074936Y0057751D02*
X0078374Y0057751D01*
X0079914Y0057751D02*
X0080086Y0057751D01*
X0081626Y0057751D02*
X0108300Y0057751D01*
X0108300Y0059349D02*
X0084048Y0059349D01*
X0084972Y0060948D02*
X0108300Y0060948D01*
X0108300Y0062546D02*
X0085300Y0062546D01*
X0085134Y0064145D02*
X0108300Y0064145D01*
X0108300Y0065743D02*
X0084409Y0065743D01*
X0082751Y0067342D02*
X0108300Y0067342D01*
X0108300Y0068940D02*
X0040081Y0068940D01*
X0040081Y0070539D02*
X0108300Y0070539D01*
X0108300Y0072137D02*
X0040081Y0072137D01*
X0040081Y0073736D02*
X0107613Y0073736D01*
X0107311Y0075334D02*
X0103373Y0075334D01*
X0111700Y0072137D02*
X0128285Y0072137D01*
X0128285Y0070539D02*
X0111700Y0070539D01*
X0111700Y0068940D02*
X0128285Y0068940D01*
X0128285Y0067342D02*
X0111700Y0067342D01*
X0111700Y0065743D02*
X0129900Y0065743D01*
X0128941Y0064145D02*
X0111700Y0064145D01*
X0111700Y0062546D02*
X0118634Y0062546D01*
X0117528Y0060948D02*
X0111700Y0060948D01*
X0111700Y0059349D02*
X0117100Y0059349D01*
X0117156Y0057751D02*
X0111700Y0057751D01*
X0111700Y0056152D02*
X0117818Y0056152D01*
X0119366Y0054554D02*
X0111700Y0054554D01*
X0111700Y0052955D02*
X0217351Y0052955D01*
X0218950Y0054554D02*
X0215034Y0054554D01*
X0216582Y0056152D02*
X0220548Y0056152D01*
X0222147Y0057751D02*
X0217244Y0057751D01*
X0217300Y0059349D02*
X0222900Y0059349D01*
X0222900Y0060948D02*
X0216872Y0060948D01*
X0215766Y0062546D02*
X0222900Y0062546D01*
X0222900Y0064145D02*
X0207459Y0064145D01*
X0206500Y0065743D02*
X0222900Y0065743D01*
X0223938Y0067342D02*
X0208215Y0067342D01*
X0208215Y0068940D02*
X0210574Y0068940D01*
X0210649Y0068865D02*
X0211350Y0068357D01*
X0212121Y0067964D01*
X0212944Y0067696D01*
X0213799Y0067561D01*
X0214665Y0067561D01*
X0215520Y0067696D01*
X0216343Y0067964D01*
X0217115Y0068357D01*
X0217815Y0068865D01*
X0217980Y0069030D01*
X0214232Y0072778D01*
X0210485Y0069030D01*
X0210649Y0068865D01*
X0210202Y0069313D02*
X0210037Y0069478D01*
X0209528Y0070178D01*
X0209135Y0070949D01*
X0208868Y0071773D01*
X0208732Y0072628D01*
X0208732Y0073494D01*
X0208868Y0074349D01*
X0209135Y0075172D01*
X0209528Y0075943D01*
X0210037Y0076644D01*
X0210202Y0076808D01*
X0213949Y0073061D01*
X0214232Y0073344D01*
X0210485Y0077091D01*
X0210649Y0077256D01*
X0211350Y0077765D01*
X0212121Y0078158D01*
X0212944Y0078425D01*
X0213799Y0078561D01*
X0214665Y0078561D01*
X0215520Y0078425D01*
X0216343Y0078158D01*
X0216670Y0077992D01*
X0216203Y0079117D01*
X0216203Y0081146D01*
X0216980Y0083021D01*
X0218414Y0084455D01*
X0220289Y0085232D01*
X0222318Y0085232D01*
X0224192Y0084455D01*
X0225627Y0083021D01*
X0226403Y0081146D01*
X0226403Y0079117D01*
X0225627Y0077243D01*
X0224192Y0075808D01*
X0222318Y0075032D01*
X0220289Y0075032D01*
X0219163Y0075498D01*
X0219329Y0075172D01*
X0219597Y0074349D01*
X0219732Y0073494D01*
X0219732Y0072628D01*
X0219597Y0071773D01*
X0219329Y0070949D01*
X0218936Y0070178D01*
X0218427Y0069478D01*
X0218263Y0069313D01*
X0214515Y0073061D01*
X0214232Y0072778D01*
X0213949Y0073061D01*
X0210202Y0069313D01*
X0209344Y0070539D02*
X0208215Y0070539D01*
X0208215Y0072137D02*
X0208810Y0072137D01*
X0208771Y0073736D02*
X0206500Y0073736D01*
X0206500Y0075334D02*
X0209218Y0075334D01*
X0210643Y0076933D02*
X0206537Y0076933D01*
X0208136Y0078532D02*
X0213615Y0078532D01*
X0214849Y0078532D02*
X0216446Y0078532D01*
X0216203Y0080130D02*
X0209734Y0080130D01*
X0211333Y0081729D02*
X0216445Y0081729D01*
X0217286Y0083327D02*
X0212931Y0083327D01*
X0214530Y0084926D02*
X0219550Y0084926D01*
X0223057Y0084926D02*
X0273200Y0084926D01*
X0273200Y0086524D02*
X0216128Y0086524D01*
X0217727Y0088123D02*
X0273200Y0088123D01*
X0273200Y0089721D02*
X0219325Y0089721D01*
X0220924Y0091320D02*
X0245583Y0091320D01*
X0245399Y0091338D02*
X0246700Y0091210D01*
X0246700Y0104700D01*
X0248300Y0104700D01*
X0248300Y0106300D01*
X0246700Y0106300D01*
X0246700Y0119790D01*
X0245399Y0119662D01*
X0244021Y0119388D01*
X0242677Y0118980D01*
X0241379Y0118443D01*
X0240139Y0117780D01*
X0238971Y0117000D01*
X0237885Y0116108D01*
X0236892Y0115115D01*
X0236000Y0114029D01*
X0235220Y0112861D01*
X0234557Y0111621D01*
X0234020Y0110323D01*
X0233612Y0108979D01*
X0233338Y0107601D01*
X0233210Y0106300D01*
X0246700Y0106300D01*
X0246700Y0104700D01*
X0233210Y0104700D01*
X0233338Y0103399D01*
X0233612Y0102021D01*
X0234020Y0100677D01*
X0234557Y0099379D01*
X0235220Y0098139D01*
X0236000Y0096971D01*
X0236892Y0095885D01*
X0237885Y0094892D01*
X0238971Y0094000D01*
X0240139Y0093220D01*
X0241379Y0092557D01*
X0242677Y0092020D01*
X0244021Y0091612D01*
X0245399Y0091338D01*
X0246700Y0091320D02*
X0248300Y0091320D01*
X0248300Y0091210D02*
X0249601Y0091338D01*
X0250979Y0091612D01*
X0252323Y0092020D01*
X0253621Y0092557D01*
X0254861Y0093220D01*
X0256029Y0094000D01*
X0257115Y0094892D01*
X0258108Y0095885D01*
X0259000Y0096971D01*
X0259780Y0098139D01*
X0260443Y0099379D01*
X0260980Y0100677D01*
X0261388Y0102021D01*
X0261662Y0103399D01*
X0261790Y0104700D01*
X0248300Y0104700D01*
X0248300Y0091210D01*
X0249417Y0091320D02*
X0273200Y0091320D01*
X0273200Y0092918D02*
X0254296Y0092918D01*
X0256658Y0094517D02*
X0273200Y0094517D01*
X0273200Y0096115D02*
X0258297Y0096115D01*
X0259496Y0097714D02*
X0273200Y0097714D01*
X0273200Y0099312D02*
X0260407Y0099312D01*
X0261051Y0100911D02*
X0273200Y0100911D01*
X0273200Y0102509D02*
X0261485Y0102509D01*
X0261732Y0104108D02*
X0273200Y0104108D01*
X0273200Y0105706D02*
X0248300Y0105706D01*
X0248300Y0106300D02*
X0261790Y0106300D01*
X0261662Y0107601D01*
X0261388Y0108979D01*
X0260980Y0110323D01*
X0260443Y0111621D01*
X0259780Y0112861D01*
X0259000Y0114029D01*
X0258108Y0115115D01*
X0257115Y0116108D01*
X0256029Y0117000D01*
X0254861Y0117780D01*
X0253621Y0118443D01*
X0252323Y0118980D01*
X0250979Y0119388D01*
X0249601Y0119662D01*
X0248300Y0119790D01*
X0248300Y0106300D01*
X0248300Y0107305D02*
X0246700Y0107305D01*
X0246700Y0108903D02*
X0248300Y0108903D01*
X0248300Y0110502D02*
X0246700Y0110502D01*
X0246700Y0112100D02*
X0248300Y0112100D01*
X0248300Y0113699D02*
X0246700Y0113699D01*
X0246700Y0115297D02*
X0248300Y0115297D01*
X0248300Y0116896D02*
X0246700Y0116896D01*
X0246700Y0118494D02*
X0248300Y0118494D01*
X0253497Y0118494D02*
X0273200Y0118494D01*
X0273200Y0116896D02*
X0256155Y0116896D01*
X0257926Y0115297D02*
X0273200Y0115297D01*
X0273200Y0113699D02*
X0259220Y0113699D01*
X0260187Y0112100D02*
X0273200Y0112100D01*
X0273200Y0110502D02*
X0260906Y0110502D01*
X0261403Y0108903D02*
X0273200Y0108903D01*
X0273200Y0107305D02*
X0261691Y0107305D01*
X0248300Y0104108D02*
X0246700Y0104108D01*
X0246700Y0105706D02*
X0206136Y0105706D01*
X0206700Y0107305D02*
X0208285Y0107305D01*
X0206700Y0113699D02*
X0216900Y0113699D01*
X0216900Y0115297D02*
X0192700Y0115297D01*
X0192700Y0113699D02*
X0193300Y0113699D01*
X0193300Y0112100D02*
X0192700Y0112100D01*
X0192700Y0110502D02*
X0193300Y0110502D01*
X0193300Y0108903D02*
X0192700Y0108903D01*
X0192700Y0107305D02*
X0193300Y0107305D01*
X0193864Y0105706D02*
X0192700Y0105706D01*
X0192700Y0104108D02*
X0194400Y0104108D01*
X0194700Y0102509D02*
X0192700Y0102509D01*
X0192700Y0100911D02*
X0194700Y0100911D01*
X0195684Y0099312D02*
X0192700Y0099312D01*
X0191918Y0097714D02*
X0197282Y0097714D01*
X0198881Y0096115D02*
X0190319Y0096115D01*
X0188721Y0094517D02*
X0200479Y0094517D01*
X0201900Y0092918D02*
X0187122Y0092918D01*
X0185511Y0096115D02*
X0183045Y0096115D01*
X0184357Y0097714D02*
X0187110Y0097714D01*
X0188708Y0099312D02*
X0184900Y0099312D01*
X0184900Y0100911D02*
X0189300Y0100911D01*
X0189300Y0102509D02*
X0184264Y0102509D01*
X0182822Y0104108D02*
X0189300Y0104108D01*
X0189300Y0105706D02*
X0175900Y0105706D01*
X0175900Y0104108D02*
X0177178Y0104108D01*
X0175900Y0107305D02*
X0189300Y0107305D01*
X0189300Y0108903D02*
X0175900Y0108903D01*
X0175900Y0110502D02*
X0189300Y0110502D01*
X0189300Y0112100D02*
X0175900Y0112100D01*
X0175900Y0113699D02*
X0189300Y0113699D01*
X0189300Y0115297D02*
X0175900Y0115297D01*
X0175900Y0116896D02*
X0189300Y0116896D01*
X0189102Y0118494D02*
X0175900Y0118494D01*
X0175900Y0120093D02*
X0187503Y0120093D01*
X0185905Y0121691D02*
X0176895Y0121691D01*
X0178300Y0123290D02*
X0182907Y0123290D01*
X0182311Y0124888D02*
X0178300Y0124888D01*
X0178300Y0126487D02*
X0182705Y0126487D01*
X0187295Y0126487D02*
X0193300Y0126487D01*
X0193300Y0128085D02*
X0178300Y0128085D01*
X0178300Y0129684D02*
X0188300Y0129684D01*
X0188300Y0131282D02*
X0178300Y0131282D01*
X0178300Y0132881D02*
X0183316Y0132881D01*
X0182311Y0134479D02*
X0178300Y0134479D01*
X0172500Y0134479D02*
X0153684Y0134479D01*
X0155282Y0136078D02*
X0156992Y0136078D01*
X0152085Y0132881D02*
X0172500Y0132881D01*
X0172500Y0131282D02*
X0150487Y0131282D01*
X0146992Y0136078D02*
X0143008Y0136078D01*
X0144341Y0137676D02*
X0145659Y0137676D01*
X0145100Y0139275D02*
X0144900Y0139275D01*
X0144900Y0140873D02*
X0145100Y0140873D01*
X0145720Y0142472D02*
X0144280Y0142472D01*
X0142859Y0144070D02*
X0147141Y0144070D01*
X0148727Y0145669D02*
X0137935Y0145669D01*
X0136337Y0147268D02*
X0147128Y0147268D01*
X0144491Y0148866D02*
X0134738Y0148866D01*
X0133140Y0150465D02*
X0142877Y0150465D01*
X0142764Y0152063D02*
X0131541Y0152063D01*
X0129943Y0153662D02*
X0143859Y0153662D01*
X0146941Y0153662D02*
X0181257Y0153662D01*
X0182311Y0155260D02*
X0128344Y0155260D01*
X0122856Y0155260D02*
X0046664Y0155260D01*
X0045066Y0153662D02*
X0084057Y0153662D01*
X0080659Y0152063D02*
X0043467Y0152063D01*
X0041869Y0150465D02*
X0076060Y0150465D01*
X0079465Y0162311D02*
X0080535Y0162311D01*
X0081523Y0162720D01*
X0082103Y0163300D01*
X0092897Y0163300D01*
X0093477Y0162720D01*
X0094465Y0162311D01*
X0095535Y0162311D01*
X0096523Y0162720D01*
X0097280Y0163477D01*
X0097689Y0164465D01*
X0097689Y0165535D01*
X0097280Y0166523D01*
X0096523Y0167280D01*
X0095535Y0167689D01*
X0094465Y0167689D01*
X0093477Y0167280D01*
X0092897Y0166700D01*
X0082103Y0166700D01*
X0081523Y0167280D01*
X0080535Y0167689D01*
X0079465Y0167689D01*
X0078477Y0167280D01*
X0077720Y0166523D01*
X0077311Y0165535D01*
X0077311Y0164465D01*
X0077720Y0163477D01*
X0078477Y0162720D01*
X0079465Y0162311D01*
X0077945Y0163253D02*
X0070257Y0163253D01*
X0073254Y0164851D02*
X0077311Y0164851D01*
X0077690Y0166450D02*
X0073689Y0166450D01*
X0073155Y0168048D02*
X0126435Y0168048D01*
X0126435Y0174442D02*
X0125362Y0174442D01*
X0126580Y0176041D02*
X0123763Y0176041D01*
X0122165Y0177639D02*
X0134700Y0177639D01*
X0134037Y0176041D02*
X0133419Y0176041D01*
X0137448Y0172844D02*
X0139552Y0172844D01*
X0139996Y0171245D02*
X0135849Y0171245D01*
X0134251Y0169647D02*
X0139900Y0169647D01*
X0140288Y0168048D02*
X0133565Y0168048D01*
X0133565Y0166450D02*
X0141338Y0166450D01*
X0143300Y0164851D02*
X0133565Y0164851D01*
X0142851Y0161654D02*
X0053743Y0161654D01*
X0053623Y0160056D02*
X0142311Y0160056D01*
X0142740Y0158457D02*
X0051855Y0158457D01*
X0050545Y0158457D02*
X0049861Y0158457D01*
X0048263Y0156859D02*
X0183056Y0156859D01*
X0182260Y0158457D02*
X0201900Y0158457D01*
X0201900Y0156859D02*
X0186944Y0156859D01*
X0187689Y0155260D02*
X0187856Y0155260D01*
X0189467Y0152063D02*
X0193260Y0152063D01*
X0192311Y0150465D02*
X0187869Y0150465D01*
X0186700Y0148866D02*
X0191462Y0148866D01*
X0189863Y0147268D02*
X0186700Y0147268D01*
X0186700Y0145669D02*
X0188300Y0145669D01*
X0188300Y0144070D02*
X0186700Y0144070D01*
X0186700Y0142472D02*
X0188300Y0142472D01*
X0188300Y0140873D02*
X0186700Y0140873D01*
X0186700Y0139275D02*
X0188300Y0139275D01*
X0188300Y0137676D02*
X0186700Y0137676D01*
X0187464Y0136078D02*
X0188300Y0136078D01*
X0188300Y0134479D02*
X0187689Y0134479D01*
X0188300Y0132881D02*
X0186684Y0132881D01*
X0191700Y0132881D02*
X0193300Y0132881D01*
X0194050Y0134479D02*
X0191700Y0134479D01*
X0191700Y0136078D02*
X0216900Y0136078D01*
X0216900Y0134479D02*
X0205950Y0134479D01*
X0206700Y0132881D02*
X0208421Y0132881D01*
X0214886Y0132881D02*
X0215114Y0132881D01*
X0215519Y0137676D02*
X0191700Y0137676D01*
X0191700Y0139275D02*
X0213921Y0139275D01*
X0212322Y0140873D02*
X0191700Y0140873D01*
X0191700Y0142472D02*
X0210724Y0142472D01*
X0209125Y0144070D02*
X0191700Y0144070D01*
X0193073Y0145669D02*
X0207527Y0145669D01*
X0205928Y0147268D02*
X0194672Y0147268D01*
X0197441Y0148866D02*
X0204330Y0148866D01*
X0203100Y0150465D02*
X0197689Y0150465D01*
X0196740Y0152063D02*
X0203100Y0152063D01*
X0207741Y0152063D02*
X0213260Y0152063D01*
X0213477Y0152280D02*
X0212720Y0151523D01*
X0212311Y0150535D01*
X0212311Y0149465D01*
X0212720Y0148477D01*
X0213477Y0147720D01*
X0214465Y0147311D01*
X0215535Y0147311D01*
X0216523Y0147720D01*
X0217103Y0148300D01*
X0222897Y0148300D01*
X0223477Y0147720D01*
X0224465Y0147311D01*
X0225535Y0147311D01*
X0226523Y0147720D01*
X0227280Y0148477D01*
X0227689Y0149465D01*
X0227689Y0150535D01*
X0227280Y0151523D01*
X0226523Y0152280D01*
X0225535Y0152689D01*
X0224465Y0152689D01*
X0223477Y0152280D01*
X0222897Y0151700D01*
X0217103Y0151700D01*
X0216523Y0152280D01*
X0215535Y0152689D01*
X0214465Y0152689D01*
X0213477Y0152280D01*
X0212311Y0150465D02*
X0209340Y0150465D01*
X0210938Y0148866D02*
X0212559Y0148866D01*
X0212537Y0147268D02*
X0257599Y0147268D01*
X0257294Y0146533D02*
X0257294Y0143467D01*
X0258468Y0140635D01*
X0260635Y0138468D01*
X0263467Y0137294D01*
X0266533Y0137294D01*
X0269365Y0138468D01*
X0271532Y0140635D01*
X0272705Y0143467D01*
X0272705Y0146533D01*
X0271532Y0149365D01*
X0269365Y0151532D01*
X0266533Y0152705D01*
X0263467Y0152705D01*
X0260635Y0151532D01*
X0258468Y0149365D01*
X0257294Y0146533D01*
X0257294Y0145669D02*
X0214135Y0145669D01*
X0215734Y0144070D02*
X0239801Y0144070D01*
X0239801Y0144763D02*
X0239801Y0131004D01*
X0240621Y0130184D01*
X0254379Y0130184D01*
X0255199Y0131004D01*
X0255199Y0144763D01*
X0254379Y0145583D01*
X0240621Y0145583D01*
X0239801Y0144763D01*
X0239801Y0142472D02*
X0217332Y0142472D01*
X0218931Y0140873D02*
X0239801Y0140873D01*
X0239801Y0139275D02*
X0220529Y0139275D01*
X0222128Y0137676D02*
X0239801Y0137676D01*
X0239801Y0136078D02*
X0223726Y0136078D01*
X0223504Y0136300D02*
X0223504Y0136300D01*
X0225325Y0134479D02*
X0239801Y0134479D01*
X0239801Y0132881D02*
X0226700Y0132881D01*
X0227379Y0131282D02*
X0239801Y0131282D01*
X0227689Y0129684D02*
X0273200Y0129684D01*
X0273200Y0131282D02*
X0255199Y0131282D01*
X0255199Y0132881D02*
X0273200Y0132881D01*
X0273200Y0134479D02*
X0255199Y0134479D01*
X0255199Y0136078D02*
X0273200Y0136078D01*
X0273200Y0137676D02*
X0267455Y0137676D01*
X0270172Y0139275D02*
X0273200Y0139275D01*
X0273200Y0140873D02*
X0271631Y0140873D01*
X0272293Y0142472D02*
X0273200Y0142472D01*
X0273200Y0144070D02*
X0272705Y0144070D01*
X0272705Y0145669D02*
X0273200Y0145669D01*
X0273200Y0147268D02*
X0272401Y0147268D01*
X0271739Y0148866D02*
X0273200Y0148866D01*
X0273200Y0150465D02*
X0270433Y0150465D01*
X0268084Y0152063D02*
X0273200Y0152063D01*
X0272793Y0153662D02*
X0258653Y0153662D01*
X0258965Y0155260D02*
X0271194Y0155260D01*
X0269596Y0156859D02*
X0258965Y0156859D01*
X0258965Y0158457D02*
X0267997Y0158457D01*
X0266399Y0160056D02*
X0258277Y0160056D01*
X0258565Y0161654D02*
X0264800Y0161654D01*
X0261900Y0166450D02*
X0258011Y0166450D01*
X0261900Y0168048D02*
X0240285Y0168048D01*
X0240271Y0168062D02*
X0239991Y0168224D01*
X0240565Y0168798D01*
X0240565Y0173895D01*
X0239745Y0174715D01*
X0234255Y0174715D01*
X0233435Y0173895D01*
X0233435Y0172900D01*
X0231904Y0172900D01*
X0228508Y0176296D01*
X0229324Y0177111D01*
X0230100Y0178986D01*
X0230100Y0181014D01*
X0229324Y0182889D01*
X0227889Y0184324D01*
X0226014Y0185100D01*
X0223986Y0185100D01*
X0222111Y0184324D01*
X0220676Y0182889D01*
X0220000Y0181256D01*
X0219324Y0182889D01*
X0217889Y0184324D01*
X0216014Y0185100D01*
X0213986Y0185100D01*
X0212111Y0184324D01*
X0210676Y0182889D01*
X0209900Y0181014D01*
X0209900Y0178986D01*
X0210676Y0177111D01*
X0212111Y0175676D01*
X0213986Y0174900D01*
X0216014Y0174900D01*
X0217889Y0175676D01*
X0219324Y0177111D01*
X0220000Y0178744D01*
X0220676Y0177111D01*
X0222111Y0175676D01*
X0223986Y0174900D01*
X0225096Y0174900D01*
X0230496Y0169500D01*
X0233435Y0169500D01*
X0233435Y0168798D01*
X0234009Y0168224D01*
X0233729Y0168062D01*
X0233394Y0167727D01*
X0233157Y0167317D01*
X0233035Y0166859D01*
X0233035Y0164838D01*
X0236816Y0164838D01*
X0236816Y0164469D01*
X0237184Y0164469D01*
X0237184Y0160885D01*
X0239402Y0160885D01*
X0239860Y0161008D01*
X0240271Y0161245D01*
X0240606Y0161580D01*
X0240843Y0161990D01*
X0240965Y0162448D01*
X0240965Y0164469D01*
X0237184Y0164469D01*
X0237184Y0164838D01*
X0240965Y0164838D01*
X0240965Y0166859D01*
X0240843Y0167317D01*
X0240606Y0167727D01*
X0240271Y0168062D01*
X0240565Y0169647D02*
X0261900Y0169647D01*
X0261151Y0171245D02*
X0240565Y0171245D01*
X0240565Y0172844D02*
X0259552Y0172844D01*
X0257954Y0174442D02*
X0240018Y0174442D01*
X0241747Y0176041D02*
X0228763Y0176041D01*
X0229542Y0177639D02*
X0240458Y0177639D01*
X0239900Y0179238D02*
X0230100Y0179238D01*
X0230100Y0180836D02*
X0239900Y0180836D01*
X0240488Y0182435D02*
X0229512Y0182435D01*
X0229465Y0184111D02*
X0230535Y0184111D01*
X0231523Y0184520D01*
X0232280Y0185277D01*
X0232689Y0186265D01*
X0232689Y0187335D01*
X0232280Y0188323D01*
X0231700Y0188903D01*
X0231700Y0190704D01*
X0230704Y0191700D01*
X0227689Y0194715D01*
X0227689Y0195535D01*
X0227280Y0196523D01*
X0226523Y0197280D01*
X0225535Y0197689D01*
X0224465Y0197689D01*
X0223477Y0197280D01*
X0222720Y0196523D01*
X0222311Y0195535D01*
X0222311Y0194465D01*
X0222720Y0193477D01*
X0223477Y0192720D01*
X0224465Y0192311D01*
X0225285Y0192311D01*
X0228300Y0189296D01*
X0228300Y0188903D01*
X0227720Y0188323D01*
X0227311Y0187335D01*
X0227311Y0186265D01*
X0227720Y0185277D01*
X0228477Y0184520D01*
X0229465Y0184111D01*
X0228179Y0184033D02*
X0241821Y0184033D01*
X0248179Y0184033D02*
X0251821Y0184033D01*
X0250488Y0182435D02*
X0249512Y0182435D01*
X0249542Y0177639D02*
X0250458Y0177639D01*
X0251747Y0176041D02*
X0248253Y0176041D01*
X0259565Y0177639D02*
X0263200Y0177639D01*
X0263200Y0176041D02*
X0261163Y0176041D01*
X0262762Y0174442D02*
X0263200Y0174442D01*
X0263200Y0179238D02*
X0260100Y0179238D01*
X0260100Y0180836D02*
X0263200Y0180836D01*
X0263200Y0182435D02*
X0259512Y0182435D01*
X0258179Y0184033D02*
X0263200Y0184033D01*
X0263200Y0185632D02*
X0232427Y0185632D01*
X0232689Y0187230D02*
X0263200Y0187230D01*
X0263200Y0188829D02*
X0231774Y0188829D01*
X0231700Y0190427D02*
X0263200Y0190427D01*
X0263200Y0192026D02*
X0230378Y0192026D01*
X0228780Y0193624D02*
X0263200Y0193624D01*
X0263200Y0195223D02*
X0227689Y0195223D01*
X0226981Y0196821D02*
X0263200Y0196821D01*
X0263200Y0198420D02*
X0230824Y0198420D01*
X0231100Y0198696D02*
X0231100Y0198696D01*
X0232423Y0200018D02*
X0263200Y0200018D01*
X0263200Y0201617D02*
X0258264Y0201617D01*
X0256947Y0200300D02*
X0259700Y0203053D01*
X0259700Y0206947D01*
X0256947Y0209700D01*
X0253053Y0209700D01*
X0250300Y0206947D01*
X0250300Y0203053D01*
X0253053Y0200300D01*
X0256947Y0200300D01*
X0259700Y0203215D02*
X0263200Y0203215D01*
X0263200Y0204814D02*
X0259700Y0204814D01*
X0259700Y0206412D02*
X0263200Y0206412D01*
X0263200Y0208011D02*
X0258636Y0208011D01*
X0257037Y0209609D02*
X0261845Y0209609D01*
X0260246Y0211208D02*
X0217596Y0211208D01*
X0215998Y0212806D02*
X0258648Y0212806D01*
X0252963Y0209609D02*
X0247037Y0209609D01*
X0246947Y0209700D02*
X0243053Y0209700D01*
X0240300Y0206947D01*
X0240300Y0203053D01*
X0243053Y0200300D01*
X0246947Y0200300D01*
X0249700Y0203053D01*
X0249700Y0206947D01*
X0246947Y0209700D01*
X0248636Y0208011D02*
X0251364Y0208011D01*
X0250300Y0206412D02*
X0249700Y0206412D01*
X0249700Y0204814D02*
X0250300Y0204814D01*
X0250300Y0203215D02*
X0249700Y0203215D01*
X0248264Y0201617D02*
X0251736Y0201617D01*
X0241736Y0201617D02*
X0238264Y0201617D01*
X0239700Y0203215D02*
X0240300Y0203215D01*
X0240300Y0204814D02*
X0239700Y0204814D01*
X0239700Y0206412D02*
X0240300Y0206412D01*
X0241364Y0208011D02*
X0238636Y0208011D01*
X0237037Y0209609D02*
X0242963Y0209609D01*
X0232963Y0209609D02*
X0227037Y0209609D01*
X0228636Y0208011D02*
X0231364Y0208011D01*
X0230300Y0206412D02*
X0229700Y0206412D01*
X0229700Y0204814D02*
X0230300Y0204814D01*
X0230300Y0203215D02*
X0229700Y0203215D01*
X0229213Y0201617D02*
X0228264Y0201617D01*
X0223019Y0196821D02*
X0220226Y0196821D01*
X0222311Y0195223D02*
X0217427Y0195223D01*
X0215828Y0193624D02*
X0222659Y0193624D01*
X0225570Y0192026D02*
X0214230Y0192026D01*
X0212631Y0190427D02*
X0227169Y0190427D01*
X0228226Y0188829D02*
X0211033Y0188829D01*
X0209434Y0187230D02*
X0227311Y0187230D01*
X0227573Y0185632D02*
X0207836Y0185632D01*
X0207700Y0184033D02*
X0211821Y0184033D01*
X0210488Y0182435D02*
X0207700Y0182435D01*
X0207700Y0180836D02*
X0209900Y0180836D01*
X0209900Y0179238D02*
X0207700Y0179238D01*
X0207700Y0177639D02*
X0210458Y0177639D01*
X0211747Y0176041D02*
X0207700Y0176041D01*
X0207700Y0174442D02*
X0225554Y0174442D01*
X0227152Y0172844D02*
X0207700Y0172844D01*
X0207700Y0171245D02*
X0228751Y0171245D01*
X0230349Y0169647D02*
X0207700Y0169647D01*
X0207700Y0168048D02*
X0233715Y0168048D01*
X0233035Y0166450D02*
X0207700Y0166450D01*
X0207700Y0164851D02*
X0233035Y0164851D01*
X0233035Y0164469D02*
X0233035Y0162448D01*
X0233157Y0161990D01*
X0233394Y0161580D01*
X0233729Y0161245D01*
X0234140Y0161008D01*
X0234598Y0160885D01*
X0236816Y0160885D01*
X0236816Y0164469D01*
X0233035Y0164469D01*
X0233035Y0163253D02*
X0207700Y0163253D01*
X0207700Y0161654D02*
X0233351Y0161654D01*
X0236816Y0161654D02*
X0237184Y0161654D01*
X0237184Y0163253D02*
X0236816Y0163253D01*
X0240649Y0161654D02*
X0251435Y0161654D01*
X0251435Y0163253D02*
X0240965Y0163253D01*
X0240965Y0164851D02*
X0251435Y0164851D01*
X0251989Y0166450D02*
X0240965Y0166450D01*
X0251723Y0160056D02*
X0207700Y0160056D01*
X0207700Y0158457D02*
X0251035Y0158457D01*
X0251035Y0156859D02*
X0207700Y0156859D01*
X0207700Y0155260D02*
X0251035Y0155260D01*
X0251035Y0154448D02*
X0251157Y0153990D01*
X0251394Y0153580D01*
X0251729Y0153245D01*
X0252140Y0153008D01*
X0252598Y0152885D01*
X0254816Y0152885D01*
X0254816Y0156469D01*
X0251035Y0156469D01*
X0251035Y0154448D01*
X0251347Y0153662D02*
X0207700Y0153662D01*
X0201900Y0160056D02*
X0182689Y0160056D01*
X0182149Y0161654D02*
X0201900Y0161654D01*
X0201900Y0163253D02*
X0181700Y0163253D01*
X0181700Y0164851D02*
X0201900Y0164851D01*
X0201900Y0166450D02*
X0198662Y0166450D01*
X0199712Y0168048D02*
X0201900Y0168048D01*
X0201900Y0169647D02*
X0200100Y0169647D01*
X0200004Y0171245D02*
X0201900Y0171245D01*
X0201900Y0172844D02*
X0200448Y0172844D01*
X0191338Y0166450D02*
X0188662Y0166450D01*
X0189712Y0168048D02*
X0190288Y0168048D01*
X0178300Y0164851D02*
X0146700Y0164851D01*
X0146700Y0163253D02*
X0178300Y0163253D01*
X0177851Y0161654D02*
X0147149Y0161654D01*
X0147689Y0160056D02*
X0177311Y0160056D01*
X0177740Y0158457D02*
X0147260Y0158457D01*
X0143300Y0163253D02*
X0107055Y0163253D01*
X0102945Y0163253D02*
X0097055Y0163253D01*
X0097689Y0164851D02*
X0102311Y0164851D01*
X0102690Y0166450D02*
X0097310Y0166450D01*
X0092945Y0163253D02*
X0082055Y0163253D01*
X0057038Y0174442D02*
X0052679Y0174442D01*
X0052479Y0176041D02*
X0057521Y0176041D01*
X0055440Y0172844D02*
X0051646Y0172844D01*
X0053841Y0171245D02*
X0006800Y0171245D01*
X0006800Y0169647D02*
X0052243Y0169647D01*
X0048354Y0172844D02*
X0006800Y0172844D01*
X0006800Y0174442D02*
X0047321Y0174442D01*
X0047521Y0176041D02*
X0006800Y0176041D01*
X0006800Y0177639D02*
X0048300Y0177639D01*
X0048300Y0179238D02*
X0006800Y0179238D01*
X0006800Y0180836D02*
X0048300Y0180836D01*
X0048300Y0182435D02*
X0006800Y0182435D01*
X0006800Y0184033D02*
X0048300Y0184033D01*
X0048300Y0185632D02*
X0006800Y0185632D01*
X0006800Y0187230D02*
X0048300Y0187230D01*
X0048300Y0188829D02*
X0006800Y0188829D01*
X0006800Y0190427D02*
X0048300Y0190427D01*
X0048300Y0192026D02*
X0006800Y0192026D01*
X0006800Y0193624D02*
X0047659Y0193624D01*
X0047311Y0195223D02*
X0006800Y0195223D01*
X0006800Y0196821D02*
X0048019Y0196821D01*
X0058468Y0200635D02*
X0057294Y0203467D01*
X0057294Y0206533D01*
X0058468Y0209365D01*
X0060635Y0211532D01*
X0063467Y0212705D01*
X0066533Y0212705D01*
X0069365Y0211532D01*
X0071532Y0209365D01*
X0072705Y0206533D01*
X0072705Y0203467D01*
X0071532Y0200635D01*
X0069365Y0198468D01*
X0066533Y0197294D01*
X0063467Y0197294D01*
X0060635Y0198468D01*
X0058468Y0200635D01*
X0059084Y0200018D02*
X0006800Y0200018D01*
X0006800Y0198420D02*
X0060750Y0198420D01*
X0058061Y0201617D02*
X0006800Y0201617D01*
X0006800Y0203215D02*
X0057399Y0203215D01*
X0057294Y0204814D02*
X0006800Y0204814D01*
X0006800Y0206412D02*
X0057294Y0206412D01*
X0057907Y0208011D02*
X0006800Y0208011D01*
X0006800Y0209609D02*
X0058712Y0209609D01*
X0060311Y0211208D02*
X0006800Y0211208D01*
X0006800Y0212806D02*
X0189402Y0212806D01*
X0187804Y0211208D02*
X0069689Y0211208D01*
X0071288Y0209609D02*
X0076963Y0209609D01*
X0077053Y0209700D02*
X0074300Y0206947D01*
X0074300Y0203053D01*
X0077053Y0200300D01*
X0080947Y0200300D01*
X0083700Y0203053D01*
X0083700Y0206947D01*
X0080947Y0209700D01*
X0077053Y0209700D01*
X0075364Y0208011D02*
X0072093Y0208011D01*
X0072705Y0206412D02*
X0074300Y0206412D01*
X0074300Y0204814D02*
X0072705Y0204814D01*
X0072601Y0203215D02*
X0074300Y0203215D01*
X0075736Y0201617D02*
X0071939Y0201617D01*
X0070916Y0200018D02*
X0081614Y0200018D01*
X0082264Y0201617D02*
X0083213Y0201617D01*
X0083700Y0203215D02*
X0084300Y0203215D01*
X0084300Y0204814D02*
X0083700Y0204814D01*
X0083700Y0206412D02*
X0084300Y0206412D01*
X0085364Y0208011D02*
X0082636Y0208011D01*
X0081037Y0209609D02*
X0086963Y0209609D01*
X0091037Y0209609D02*
X0096963Y0209609D01*
X0097053Y0209700D02*
X0094300Y0206947D01*
X0094300Y0203053D01*
X0097053Y0200300D01*
X0100947Y0200300D01*
X0103700Y0203053D01*
X0103700Y0206947D01*
X0100947Y0209700D01*
X0097053Y0209700D01*
X0095364Y0208011D02*
X0092636Y0208011D01*
X0093700Y0206412D02*
X0094300Y0206412D01*
X0094300Y0204814D02*
X0093700Y0204814D01*
X0093700Y0203215D02*
X0094300Y0203215D01*
X0095736Y0201617D02*
X0092264Y0201617D01*
X0086423Y0200018D02*
X0106769Y0200018D01*
X0106888Y0199900D02*
X0108816Y0199900D01*
X0108816Y0204816D01*
X0109184Y0204816D01*
X0109184Y0199900D01*
X0111112Y0199900D01*
X0114100Y0202888D01*
X0114100Y0204816D01*
X0109184Y0204816D01*
X0109184Y0205184D01*
X0114100Y0205184D01*
X0114100Y0207112D01*
X0111112Y0210100D01*
X0109184Y0210100D01*
X0109184Y0205184D01*
X0108816Y0205184D01*
X0108816Y0204816D01*
X0103900Y0204816D01*
X0103900Y0202888D01*
X0106888Y0199900D01*
X0108816Y0200018D02*
X0109184Y0200018D01*
X0109184Y0201617D02*
X0108816Y0201617D01*
X0108816Y0203215D02*
X0109184Y0203215D01*
X0109184Y0204814D02*
X0108816Y0204814D01*
X0108816Y0205184D02*
X0103900Y0205184D01*
X0103900Y0207112D01*
X0106888Y0210100D01*
X0108816Y0210100D01*
X0108816Y0205184D01*
X0108816Y0206412D02*
X0109184Y0206412D01*
X0109184Y0208011D02*
X0108816Y0208011D01*
X0108816Y0209609D02*
X0109184Y0209609D01*
X0111603Y0209609D02*
X0116963Y0209609D01*
X0117053Y0209700D02*
X0114300Y0206947D01*
X0114300Y0203053D01*
X0117053Y0200300D01*
X0120947Y0200300D01*
X0123700Y0203053D01*
X0123700Y0206947D01*
X0120947Y0209700D01*
X0117053Y0209700D01*
X0115364Y0208011D02*
X0113202Y0208011D01*
X0114100Y0206412D02*
X0114300Y0206412D01*
X0114300Y0204814D02*
X0114100Y0204814D01*
X0114100Y0203215D02*
X0114300Y0203215D01*
X0115736Y0201617D02*
X0112829Y0201617D01*
X0111231Y0200018D02*
X0145414Y0200018D01*
X0145736Y0201617D02*
X0142264Y0201617D01*
X0140947Y0200300D02*
X0143700Y0203053D01*
X0143700Y0206947D01*
X0140947Y0209700D01*
X0137053Y0209700D01*
X0134300Y0206947D01*
X0134300Y0203053D01*
X0137053Y0200300D01*
X0140947Y0200300D01*
X0143816Y0198420D02*
X0084824Y0198420D01*
X0083226Y0196821D02*
X0142217Y0196821D01*
X0140619Y0195223D02*
X0081627Y0195223D01*
X0080028Y0193624D02*
X0139020Y0193624D01*
X0137422Y0192026D02*
X0078430Y0192026D01*
X0077689Y0190427D02*
X0135823Y0190427D01*
X0134700Y0188829D02*
X0077425Y0188829D01*
X0080016Y0198420D02*
X0069250Y0198420D01*
X0102264Y0201617D02*
X0105171Y0201617D01*
X0103900Y0203215D02*
X0103700Y0203215D01*
X0103700Y0204814D02*
X0103900Y0204814D01*
X0103900Y0206412D02*
X0103700Y0206412D01*
X0102636Y0208011D02*
X0104798Y0208011D01*
X0106397Y0209609D02*
X0101037Y0209609D01*
X0121037Y0209609D02*
X0126963Y0209609D01*
X0127053Y0209700D02*
X0124300Y0206947D01*
X0124300Y0203053D01*
X0127053Y0200300D01*
X0130947Y0200300D01*
X0133700Y0203053D01*
X0133700Y0206947D01*
X0130947Y0209700D01*
X0127053Y0209700D01*
X0125364Y0208011D02*
X0122636Y0208011D01*
X0123700Y0206412D02*
X0124300Y0206412D01*
X0124300Y0204814D02*
X0123700Y0204814D01*
X0123700Y0203215D02*
X0124300Y0203215D01*
X0125736Y0201617D02*
X0122264Y0201617D01*
X0132264Y0201617D02*
X0135736Y0201617D01*
X0134300Y0203215D02*
X0133700Y0203215D01*
X0133700Y0204814D02*
X0134300Y0204814D01*
X0134300Y0206412D02*
X0133700Y0206412D01*
X0132636Y0208011D02*
X0135364Y0208011D01*
X0136963Y0209609D02*
X0131037Y0209609D01*
X0141037Y0209609D02*
X0146963Y0209609D01*
X0145364Y0208011D02*
X0142636Y0208011D01*
X0143700Y0206412D02*
X0144300Y0206412D01*
X0144300Y0204814D02*
X0143700Y0204814D01*
X0143700Y0203215D02*
X0144300Y0203215D01*
X0147026Y0196821D02*
X0153019Y0196821D01*
X0152311Y0195223D02*
X0149904Y0195223D01*
X0150189Y0193624D02*
X0152659Y0193624D01*
X0153100Y0192026D02*
X0149329Y0192026D01*
X0148565Y0190427D02*
X0151435Y0190427D01*
X0151435Y0188829D02*
X0148565Y0188829D01*
X0148565Y0187230D02*
X0151435Y0187230D01*
X0151601Y0185632D02*
X0148399Y0185632D01*
X0148565Y0184033D02*
X0151435Y0184033D01*
X0151435Y0182435D02*
X0148565Y0182435D01*
X0148565Y0180836D02*
X0151435Y0180836D01*
X0151435Y0179238D02*
X0148565Y0179238D01*
X0147602Y0174442D02*
X0152398Y0174442D01*
X0153300Y0176041D02*
X0141163Y0176041D01*
X0140500Y0177639D02*
X0153300Y0177639D01*
X0156700Y0177639D02*
X0163100Y0177639D01*
X0163100Y0176041D02*
X0156700Y0176041D01*
X0157602Y0174442D02*
X0162398Y0174442D01*
X0160658Y0172844D02*
X0159342Y0172844D01*
X0159712Y0168048D02*
X0160288Y0168048D01*
X0161338Y0166450D02*
X0158662Y0166450D01*
X0151338Y0166450D02*
X0148662Y0166450D01*
X0149712Y0168048D02*
X0150288Y0168048D01*
X0150658Y0172844D02*
X0149342Y0172844D01*
X0141435Y0179238D02*
X0140500Y0179238D01*
X0156900Y0192026D02*
X0162700Y0192026D01*
X0162659Y0193624D02*
X0157341Y0193624D01*
X0157689Y0195223D02*
X0162311Y0195223D01*
X0163019Y0196821D02*
X0156981Y0196821D01*
X0155824Y0198420D02*
X0180416Y0198420D01*
X0182014Y0200018D02*
X0157423Y0200018D01*
X0154213Y0201617D02*
X0152264Y0201617D01*
X0153700Y0203215D02*
X0154300Y0203215D01*
X0154300Y0204814D02*
X0153700Y0204814D01*
X0153700Y0206412D02*
X0154300Y0206412D01*
X0155364Y0208011D02*
X0152636Y0208011D01*
X0151037Y0209609D02*
X0156963Y0209609D01*
X0161037Y0209609D02*
X0166963Y0209609D01*
X0167053Y0209700D02*
X0164300Y0206947D01*
X0164300Y0203053D01*
X0167053Y0200300D01*
X0170947Y0200300D01*
X0173700Y0203053D01*
X0173700Y0206947D01*
X0170947Y0209700D01*
X0167053Y0209700D01*
X0165364Y0208011D02*
X0162636Y0208011D01*
X0163700Y0206412D02*
X0164300Y0206412D01*
X0164300Y0204814D02*
X0163700Y0204814D01*
X0163700Y0203215D02*
X0164300Y0203215D01*
X0165736Y0201617D02*
X0162264Y0201617D01*
X0166981Y0196821D02*
X0178817Y0196821D01*
X0177300Y0195223D02*
X0167689Y0195223D01*
X0167341Y0193624D02*
X0177300Y0193624D01*
X0175184Y0192026D02*
X0174816Y0192026D01*
X0174816Y0190427D02*
X0175184Y0190427D01*
X0175184Y0188829D02*
X0174816Y0188829D01*
X0172265Y0192026D02*
X0166500Y0192026D01*
X0168565Y0190427D02*
X0171035Y0190427D01*
X0171035Y0188829D02*
X0168565Y0188829D01*
X0168565Y0187230D02*
X0171035Y0187230D01*
X0171187Y0185632D02*
X0168399Y0185632D01*
X0168565Y0184033D02*
X0171435Y0184033D01*
X0171435Y0182435D02*
X0168565Y0182435D01*
X0161435Y0182435D02*
X0158565Y0182435D01*
X0158565Y0184033D02*
X0161435Y0184033D01*
X0161601Y0185632D02*
X0158399Y0185632D01*
X0158565Y0187230D02*
X0161435Y0187230D01*
X0161435Y0188829D02*
X0158565Y0188829D01*
X0158565Y0190427D02*
X0161435Y0190427D01*
X0161435Y0180836D02*
X0158565Y0180836D01*
X0158565Y0179238D02*
X0161435Y0179238D01*
X0169712Y0168048D02*
X0170288Y0168048D01*
X0171338Y0166450D02*
X0168662Y0166450D01*
X0179659Y0152063D02*
X0148036Y0152063D01*
X0148740Y0150465D02*
X0178060Y0150465D01*
X0177300Y0148866D02*
X0150338Y0148866D01*
X0151937Y0147268D02*
X0177300Y0147268D01*
X0176865Y0145669D02*
X0153535Y0145669D01*
X0155134Y0144070D02*
X0157141Y0144070D01*
X0162859Y0144070D02*
X0167141Y0144070D01*
X0165720Y0142472D02*
X0164280Y0142472D01*
X0164900Y0140873D02*
X0165100Y0140873D01*
X0165100Y0139275D02*
X0164900Y0139275D01*
X0164341Y0137676D02*
X0165659Y0137676D01*
X0166992Y0136078D02*
X0163008Y0136078D01*
X0172500Y0129684D02*
X0111700Y0129684D01*
X0111700Y0131282D02*
X0137913Y0131282D01*
X0127915Y0132881D02*
X0111700Y0132881D01*
X0111700Y0134479D02*
X0126316Y0134479D01*
X0124718Y0136078D02*
X0123008Y0136078D01*
X0116992Y0136078D02*
X0113008Y0136078D01*
X0114341Y0137676D02*
X0115659Y0137676D01*
X0115100Y0139275D02*
X0114900Y0139275D01*
X0114900Y0140873D02*
X0115100Y0140873D01*
X0115720Y0142472D02*
X0114280Y0142472D01*
X0114925Y0144070D02*
X0112859Y0144070D01*
X0111700Y0128085D02*
X0172500Y0128085D01*
X0172500Y0126487D02*
X0111700Y0126487D01*
X0110492Y0124888D02*
X0171684Y0124888D01*
X0170100Y0123290D02*
X0108894Y0123290D01*
X0112113Y0121691D02*
X0170100Y0121691D01*
X0170100Y0120093D02*
X0113711Y0120093D01*
X0115310Y0118494D02*
X0170100Y0118494D01*
X0170100Y0116896D02*
X0116908Y0116896D01*
X0118507Y0115297D02*
X0170100Y0115297D01*
X0170100Y0113699D02*
X0120105Y0113699D01*
X0121704Y0112100D02*
X0170100Y0112100D01*
X0169898Y0110502D02*
X0123302Y0110502D01*
X0124901Y0108903D02*
X0168299Y0108903D01*
X0158301Y0107305D02*
X0126499Y0107305D01*
X0128098Y0105706D02*
X0156702Y0105706D01*
X0155104Y0104108D02*
X0152822Y0104108D01*
X0147178Y0104108D02*
X0142822Y0104108D01*
X0144264Y0102509D02*
X0145736Y0102509D01*
X0145100Y0100911D02*
X0144900Y0100911D01*
X0144900Y0099312D02*
X0145100Y0099312D01*
X0145643Y0097714D02*
X0144357Y0097714D01*
X0143045Y0096115D02*
X0146955Y0096115D01*
X0152100Y0094517D02*
X0140117Y0094517D01*
X0140049Y0092918D02*
X0152100Y0092918D01*
X0151915Y0091320D02*
X0138406Y0091320D01*
X0138317Y0089721D02*
X0136715Y0089721D01*
X0136715Y0088123D02*
X0136718Y0088123D01*
X0136715Y0091320D02*
X0136794Y0091320D01*
X0135510Y0097714D02*
X0134357Y0097714D01*
X0134900Y0099312D02*
X0135100Y0099312D01*
X0135100Y0100911D02*
X0134900Y0100911D01*
X0134264Y0102509D02*
X0135736Y0102509D01*
X0137178Y0104108D02*
X0132822Y0104108D01*
X0108285Y0091408D02*
X0108285Y0087255D01*
X0108640Y0086900D01*
X0106903Y0086900D01*
X0106523Y0087280D01*
X0105535Y0087689D01*
X0104465Y0087689D01*
X0103477Y0087280D01*
X0102720Y0086523D01*
X0102311Y0085535D01*
X0102311Y0084465D01*
X0102720Y0083477D01*
X0103297Y0082900D01*
X0092305Y0082900D01*
X0092305Y0083100D01*
X0095104Y0083100D01*
X0097504Y0085500D01*
X0098500Y0086496D01*
X0098500Y0087711D01*
X0099465Y0087311D01*
X0100535Y0087311D01*
X0101523Y0087720D01*
X0102280Y0088477D01*
X0102689Y0089465D01*
X0102689Y0090535D01*
X0102280Y0091523D01*
X0101613Y0092189D01*
X0101613Y0093700D01*
X0102500Y0093700D01*
X0103800Y0093700D01*
X0103800Y0092683D01*
X0104196Y0091727D01*
X0104927Y0090996D01*
X0105883Y0090600D01*
X0106917Y0090600D01*
X0107873Y0090996D01*
X0108285Y0091408D01*
X0108285Y0091320D02*
X0108197Y0091320D01*
X0108285Y0089721D02*
X0102689Y0089721D01*
X0102364Y0091320D02*
X0104603Y0091320D01*
X0103800Y0092918D02*
X0101613Y0092918D01*
X0102500Y0093700D02*
X0102500Y0100000D01*
X0102500Y0093700D01*
X0102500Y0094517D02*
X0102500Y0094517D01*
X0102500Y0096115D02*
X0102500Y0096115D01*
X0102500Y0097714D02*
X0102500Y0097714D01*
X0102500Y0099312D02*
X0102500Y0099312D01*
X0102500Y0100000D02*
X0102500Y0100000D01*
X0101925Y0088123D02*
X0108285Y0088123D01*
X0102721Y0086524D02*
X0098500Y0086524D01*
X0096930Y0084926D02*
X0102311Y0084926D01*
X0102870Y0083327D02*
X0095331Y0083327D01*
X0112689Y0075334D02*
X0129900Y0075334D01*
X0129900Y0073736D02*
X0112387Y0073736D01*
X0128537Y0076933D02*
X0130929Y0076933D01*
X0133300Y0073736D02*
X0135498Y0073736D01*
X0138162Y0073736D02*
X0138531Y0073736D01*
X0138531Y0072137D02*
X0138162Y0072137D01*
X0138162Y0070539D02*
X0138531Y0070539D01*
X0138531Y0069816D02*
X0142115Y0069816D01*
X0142115Y0067598D01*
X0141992Y0067140D01*
X0141755Y0066729D01*
X0141420Y0066394D01*
X0141010Y0066157D01*
X0140552Y0066035D01*
X0138531Y0066035D01*
X0138531Y0069816D01*
X0138531Y0068940D02*
X0138162Y0068940D01*
X0138162Y0067342D02*
X0138531Y0067342D01*
X0142046Y0067342D02*
X0163285Y0067342D01*
X0163285Y0067255D02*
X0164105Y0066435D01*
X0164700Y0066435D01*
X0164700Y0063385D01*
X0164311Y0063224D01*
X0162876Y0061789D01*
X0162100Y0059914D01*
X0162100Y0057886D01*
X0162876Y0056011D01*
X0164311Y0054576D01*
X0166186Y0053800D01*
X0168214Y0053800D01*
X0170089Y0054576D01*
X0171524Y0056011D01*
X0172300Y0057886D01*
X0172300Y0059914D01*
X0171524Y0061789D01*
X0170089Y0063224D01*
X0168214Y0064000D01*
X0168100Y0064000D01*
X0168100Y0066435D01*
X0169202Y0066435D01*
X0169776Y0067009D01*
X0169938Y0066729D01*
X0170273Y0066394D01*
X0170683Y0066157D01*
X0171141Y0066035D01*
X0173162Y0066035D01*
X0173162Y0069816D01*
X0173531Y0069816D01*
X0173531Y0070184D01*
X0177115Y0070184D01*
X0177115Y0072402D01*
X0176992Y0072860D01*
X0176755Y0073271D01*
X0176420Y0073606D01*
X0176010Y0073843D01*
X0175552Y0073965D01*
X0173531Y0073965D01*
X0173531Y0070184D01*
X0173162Y0070184D01*
X0173162Y0073965D01*
X0171141Y0073965D01*
X0170683Y0073843D01*
X0170273Y0073606D01*
X0169938Y0073271D01*
X0169776Y0072991D01*
X0169202Y0073565D01*
X0164105Y0073565D01*
X0163285Y0072745D01*
X0163285Y0067255D01*
X0163285Y0068940D02*
X0142115Y0068940D01*
X0142115Y0070539D02*
X0163285Y0070539D01*
X0163285Y0072137D02*
X0142115Y0072137D01*
X0142060Y0073736D02*
X0141195Y0073736D01*
X0140088Y0078532D02*
X0137336Y0078532D01*
X0138934Y0080130D02*
X0139900Y0080130D01*
X0133300Y0065743D02*
X0164700Y0065743D01*
X0164700Y0064145D02*
X0133300Y0064145D01*
X0132151Y0062546D02*
X0144234Y0062546D01*
X0144911Y0063224D02*
X0143476Y0061789D01*
X0142700Y0059914D01*
X0142700Y0057886D01*
X0143476Y0056011D01*
X0144911Y0054576D01*
X0146786Y0053800D01*
X0148814Y0053800D01*
X0150689Y0054576D01*
X0152124Y0056011D01*
X0152900Y0057886D01*
X0152900Y0059914D01*
X0152124Y0061789D01*
X0150689Y0063224D01*
X0148814Y0064000D01*
X0146786Y0064000D01*
X0144911Y0063224D01*
X0143128Y0060948D02*
X0130552Y0060948D01*
X0128954Y0059349D02*
X0142700Y0059349D01*
X0142756Y0057751D02*
X0127355Y0057751D01*
X0126582Y0056152D02*
X0143418Y0056152D01*
X0144966Y0054554D02*
X0125034Y0054554D01*
X0128153Y0051357D02*
X0111700Y0051357D01*
X0111700Y0049758D02*
X0126554Y0049758D01*
X0128165Y0046561D02*
X0244935Y0046561D01*
X0244935Y0044963D02*
X0241150Y0044963D01*
X0242382Y0043364D02*
X0244935Y0043364D01*
X0245274Y0041766D02*
X0242900Y0041766D01*
X0242900Y0040167D02*
X0246600Y0040167D01*
X0245882Y0038569D02*
X0242272Y0038569D01*
X0240883Y0036970D02*
X0244283Y0036970D01*
X0248059Y0035372D02*
X0257294Y0035372D01*
X0257294Y0036533D02*
X0257294Y0033467D01*
X0258468Y0030635D01*
X0260635Y0028468D01*
X0263467Y0027294D01*
X0266533Y0027294D01*
X0269365Y0028468D01*
X0271532Y0030635D01*
X0272705Y0033467D01*
X0272705Y0036533D01*
X0271532Y0039365D01*
X0269365Y0041532D01*
X0266533Y0042705D01*
X0263467Y0042705D01*
X0260635Y0041532D01*
X0258468Y0039365D01*
X0257294Y0036533D01*
X0257476Y0036970D02*
X0249657Y0036970D01*
X0250400Y0038569D02*
X0258138Y0038569D01*
X0259270Y0040167D02*
X0250400Y0040167D01*
X0251726Y0041766D02*
X0261199Y0041766D01*
X0268801Y0041766D02*
X0273200Y0041766D01*
X0273200Y0043364D02*
X0252065Y0043364D01*
X0252065Y0044963D02*
X0273200Y0044963D01*
X0273200Y0046561D02*
X0252065Y0046561D01*
X0251427Y0048160D02*
X0273200Y0048160D01*
X0273200Y0049758D02*
X0252065Y0049758D01*
X0252065Y0051357D02*
X0273200Y0051357D01*
X0273200Y0052955D02*
X0252065Y0052955D01*
X0251406Y0054554D02*
X0273200Y0054554D01*
X0273200Y0056152D02*
X0242182Y0056152D01*
X0242124Y0056011D02*
X0242900Y0057886D01*
X0242900Y0059914D01*
X0242124Y0061789D01*
X0240689Y0063224D01*
X0238814Y0064000D01*
X0236786Y0064000D01*
X0234911Y0063224D01*
X0233476Y0061789D01*
X0232700Y0059914D01*
X0232700Y0057886D01*
X0233476Y0056011D01*
X0234911Y0054576D01*
X0236786Y0053800D01*
X0238814Y0053800D01*
X0240689Y0054576D01*
X0242124Y0056011D01*
X0242844Y0057751D02*
X0273200Y0057751D01*
X0273200Y0059349D02*
X0242900Y0059349D01*
X0242472Y0060948D02*
X0273200Y0060948D01*
X0273200Y0062546D02*
X0241366Y0062546D01*
X0240295Y0065743D02*
X0227148Y0065743D01*
X0226300Y0064145D02*
X0273200Y0064145D01*
X0273200Y0065743D02*
X0254705Y0065743D01*
X0255199Y0067342D02*
X0273200Y0067342D01*
X0273200Y0068940D02*
X0255199Y0068940D01*
X0255199Y0070539D02*
X0273200Y0070539D01*
X0273200Y0072137D02*
X0255199Y0072137D01*
X0255199Y0073736D02*
X0273200Y0073736D01*
X0273200Y0075334D02*
X0255199Y0075334D01*
X0255199Y0076933D02*
X0273200Y0076933D01*
X0273200Y0078532D02*
X0255199Y0078532D01*
X0255065Y0080130D02*
X0273200Y0080130D01*
X0273200Y0081729D02*
X0226162Y0081729D01*
X0226403Y0080130D02*
X0239935Y0080130D01*
X0239801Y0078532D02*
X0226161Y0078532D01*
X0225317Y0076933D02*
X0239801Y0076933D01*
X0239801Y0075334D02*
X0223049Y0075334D01*
X0219558Y0075334D02*
X0219246Y0075334D01*
X0219694Y0073736D02*
X0235132Y0073736D01*
X0233533Y0072137D02*
X0219655Y0072137D01*
X0219120Y0070539D02*
X0227135Y0070539D01*
X0225536Y0068940D02*
X0217890Y0068940D01*
X0217037Y0070539D02*
X0216471Y0070539D01*
X0215438Y0072137D02*
X0214873Y0072137D01*
X0213592Y0072137D02*
X0213026Y0072137D01*
X0213274Y0073736D02*
X0213840Y0073736D01*
X0212241Y0075334D02*
X0211676Y0075334D01*
X0211428Y0070539D02*
X0211993Y0070539D01*
X0203100Y0065743D02*
X0168100Y0065743D01*
X0168100Y0064145D02*
X0203100Y0064145D01*
X0204249Y0062546D02*
X0196366Y0062546D01*
X0195689Y0063224D02*
X0193814Y0064000D01*
X0191786Y0064000D01*
X0189911Y0063224D01*
X0188476Y0061789D01*
X0187700Y0059914D01*
X0187700Y0057886D01*
X0188476Y0056011D01*
X0189911Y0054576D01*
X0191786Y0053800D01*
X0193814Y0053800D01*
X0195689Y0054576D01*
X0197124Y0056011D01*
X0197900Y0057886D01*
X0197900Y0059914D01*
X0197124Y0061789D01*
X0195689Y0063224D01*
X0197472Y0060948D02*
X0205848Y0060948D01*
X0207100Y0059349D02*
X0197900Y0059349D01*
X0197844Y0057751D02*
X0207156Y0057751D01*
X0207818Y0056152D02*
X0197182Y0056152D01*
X0195634Y0054554D02*
X0209366Y0054554D01*
X0218962Y0049758D02*
X0227311Y0049758D01*
X0227652Y0051357D02*
X0220561Y0051357D01*
X0222159Y0052955D02*
X0230268Y0052955D01*
X0233418Y0056152D02*
X0225357Y0056152D01*
X0226300Y0057751D02*
X0232756Y0057751D01*
X0232700Y0059349D02*
X0226300Y0059349D01*
X0226300Y0060948D02*
X0233128Y0060948D01*
X0234234Y0062546D02*
X0226300Y0062546D01*
X0228746Y0067342D02*
X0239801Y0067342D01*
X0239801Y0068940D02*
X0235145Y0068940D01*
X0236743Y0070539D02*
X0239801Y0070539D01*
X0225320Y0083327D02*
X0273200Y0083327D01*
X0248300Y0092918D02*
X0246700Y0092918D01*
X0246700Y0094517D02*
X0248300Y0094517D01*
X0248300Y0096115D02*
X0246700Y0096115D01*
X0246700Y0097714D02*
X0248300Y0097714D01*
X0248300Y0099312D02*
X0246700Y0099312D01*
X0246700Y0100911D02*
X0248300Y0100911D01*
X0248300Y0102509D02*
X0246700Y0102509D01*
X0238342Y0094517D02*
X0225262Y0094517D01*
X0225489Y0096115D02*
X0236703Y0096115D01*
X0235504Y0097714D02*
X0224489Y0097714D01*
X0221111Y0097714D02*
X0202090Y0097714D01*
X0200492Y0099312D02*
X0234593Y0099312D01*
X0233949Y0100911D02*
X0198893Y0100911D01*
X0198700Y0102509D02*
X0233515Y0102509D01*
X0233268Y0104108D02*
X0199600Y0104108D01*
X0203689Y0096115D02*
X0220111Y0096115D01*
X0219312Y0094517D02*
X0205288Y0094517D01*
X0205300Y0092918D02*
X0217714Y0092918D01*
X0216115Y0091320D02*
X0205300Y0091320D01*
X0205300Y0089721D02*
X0214517Y0089721D01*
X0212918Y0088123D02*
X0205300Y0088123D01*
X0205300Y0086524D02*
X0211320Y0086524D01*
X0209721Y0084926D02*
X0205300Y0084926D01*
X0205300Y0083327D02*
X0208123Y0083327D01*
X0206524Y0081729D02*
X0205300Y0081729D01*
X0201900Y0081729D02*
X0200221Y0081729D01*
X0200097Y0082111D02*
X0199704Y0082883D01*
X0199195Y0083583D01*
X0198583Y0084195D01*
X0197883Y0084704D01*
X0197111Y0085097D01*
X0196288Y0085365D01*
X0195433Y0085500D01*
X0195200Y0085500D01*
X0195200Y0080200D01*
X0194800Y0080200D01*
X0194800Y0085500D01*
X0194567Y0085500D01*
X0193712Y0085365D01*
X0192889Y0085097D01*
X0192117Y0084704D01*
X0191417Y0084195D01*
X0190805Y0083583D01*
X0190296Y0082883D01*
X0190000Y0082302D01*
X0189704Y0082883D01*
X0189195Y0083583D01*
X0188583Y0084195D01*
X0187883Y0084704D01*
X0187111Y0085097D01*
X0186288Y0085365D01*
X0185433Y0085500D01*
X0185200Y0085500D01*
X0185200Y0080200D01*
X0184800Y0080200D01*
X0184800Y0085500D01*
X0184567Y0085500D01*
X0183712Y0085365D01*
X0182889Y0085097D01*
X0182117Y0084704D01*
X0181417Y0084195D01*
X0180805Y0083583D01*
X0180296Y0082883D01*
X0180000Y0082302D01*
X0179704Y0082883D01*
X0179195Y0083583D01*
X0178583Y0084195D01*
X0177883Y0084704D01*
X0177111Y0085097D01*
X0176288Y0085365D01*
X0175433Y0085500D01*
X0175200Y0085500D01*
X0175200Y0080200D01*
X0184800Y0080200D01*
X0184800Y0079800D01*
X0185200Y0079800D01*
X0185200Y0080200D01*
X0194800Y0080200D01*
X0194800Y0079800D01*
X0195200Y0079800D01*
X0195200Y0080200D01*
X0200500Y0080200D01*
X0200500Y0080433D01*
X0200365Y0081288D01*
X0200097Y0082111D01*
X0199381Y0083327D02*
X0201900Y0083327D01*
X0201900Y0084926D02*
X0197448Y0084926D01*
X0195200Y0084926D02*
X0194800Y0084926D01*
X0194800Y0083327D02*
X0195200Y0083327D01*
X0195200Y0081729D02*
X0194800Y0081729D01*
X0194800Y0080130D02*
X0185200Y0080130D01*
X0185200Y0079800D02*
X0189500Y0079800D01*
X0194800Y0079800D01*
X0194800Y0074500D01*
X0194567Y0074500D01*
X0193712Y0074635D01*
X0192889Y0074903D01*
X0192117Y0075296D01*
X0191417Y0075805D01*
X0190805Y0076417D01*
X0190296Y0077117D01*
X0190000Y0077698D01*
X0189704Y0077117D01*
X0189195Y0076417D01*
X0188583Y0075805D01*
X0187883Y0075296D01*
X0187111Y0074903D01*
X0186288Y0074635D01*
X0185433Y0074500D01*
X0185200Y0074500D01*
X0185200Y0079800D01*
X0184800Y0079800D02*
X0184800Y0074500D01*
X0184567Y0074500D01*
X0183712Y0074635D01*
X0182889Y0074903D01*
X0182117Y0075296D01*
X0181417Y0075805D01*
X0180805Y0076417D01*
X0180296Y0077117D01*
X0180000Y0077698D01*
X0179704Y0077117D01*
X0179195Y0076417D01*
X0178583Y0075805D01*
X0177883Y0075296D01*
X0177111Y0074903D01*
X0176288Y0074635D01*
X0175433Y0074500D01*
X0175200Y0074500D01*
X0175200Y0079800D01*
X0179500Y0079800D01*
X0184800Y0079800D01*
X0184800Y0080130D02*
X0175200Y0080130D01*
X0175200Y0078532D02*
X0174800Y0078532D01*
X0174800Y0076933D02*
X0175200Y0076933D01*
X0175200Y0075334D02*
X0174800Y0075334D01*
X0173531Y0073736D02*
X0173162Y0073736D01*
X0173162Y0072137D02*
X0173531Y0072137D01*
X0173531Y0070539D02*
X0173162Y0070539D01*
X0173531Y0069816D02*
X0177115Y0069816D01*
X0177115Y0067598D01*
X0176992Y0067140D01*
X0176755Y0066729D01*
X0176420Y0066394D01*
X0176010Y0066157D01*
X0175552Y0066035D01*
X0173531Y0066035D01*
X0173531Y0069816D01*
X0173531Y0068940D02*
X0173162Y0068940D01*
X0173162Y0067342D02*
X0173531Y0067342D01*
X0177046Y0067342D02*
X0194454Y0067342D01*
X0194385Y0068940D02*
X0177115Y0068940D01*
X0177115Y0070539D02*
X0194385Y0070539D01*
X0194385Y0070184D02*
X0197969Y0070184D01*
X0197969Y0073965D01*
X0195948Y0073965D01*
X0195490Y0073843D01*
X0195080Y0073606D01*
X0194745Y0073271D01*
X0194508Y0072860D01*
X0194385Y0072402D01*
X0194385Y0070184D01*
X0194385Y0072137D02*
X0177115Y0072137D01*
X0176195Y0073736D02*
X0195305Y0073736D01*
X0195200Y0074500D02*
X0195433Y0074500D01*
X0196288Y0074635D01*
X0197111Y0074903D01*
X0197883Y0075296D01*
X0198583Y0075805D01*
X0199195Y0076417D01*
X0199704Y0077117D01*
X0200097Y0077889D01*
X0200365Y0078712D01*
X0200500Y0079567D01*
X0200500Y0079800D01*
X0195200Y0079800D01*
X0195200Y0074500D01*
X0195200Y0075334D02*
X0194800Y0075334D01*
X0194800Y0076933D02*
X0195200Y0076933D01*
X0195200Y0078532D02*
X0194800Y0078532D01*
X0195200Y0080130D02*
X0201900Y0080130D01*
X0201900Y0078532D02*
X0200306Y0078532D01*
X0199570Y0076933D02*
X0201900Y0076933D01*
X0200139Y0075334D02*
X0197936Y0075334D01*
X0197969Y0073736D02*
X0198338Y0073736D01*
X0198338Y0072137D02*
X0197969Y0072137D01*
X0197969Y0070539D02*
X0198338Y0070539D01*
X0198338Y0068940D02*
X0197969Y0068940D01*
X0197969Y0067342D02*
X0198338Y0067342D01*
X0192064Y0075334D02*
X0187936Y0075334D01*
X0189570Y0076933D02*
X0190430Y0076933D01*
X0185200Y0076933D02*
X0184800Y0076933D01*
X0184800Y0075334D02*
X0185200Y0075334D01*
X0182064Y0075334D02*
X0177936Y0075334D01*
X0179570Y0076933D02*
X0180430Y0076933D01*
X0184800Y0078532D02*
X0185200Y0078532D01*
X0185200Y0081729D02*
X0184800Y0081729D01*
X0184800Y0083327D02*
X0185200Y0083327D01*
X0185200Y0084926D02*
X0184800Y0084926D01*
X0182552Y0084926D02*
X0177448Y0084926D01*
X0175200Y0084926D02*
X0174800Y0084926D01*
X0174800Y0083327D02*
X0175200Y0083327D01*
X0175200Y0081729D02*
X0174800Y0081729D01*
X0179381Y0083327D02*
X0180619Y0083327D01*
X0187448Y0084926D02*
X0192552Y0084926D01*
X0190619Y0083327D02*
X0189381Y0083327D01*
X0201900Y0086524D02*
X0169328Y0086524D01*
X0167730Y0084926D02*
X0172552Y0084926D01*
X0170619Y0083327D02*
X0168885Y0083327D01*
X0170927Y0088123D02*
X0201900Y0088123D01*
X0201900Y0089721D02*
X0172525Y0089721D01*
X0174124Y0091320D02*
X0201900Y0091320D01*
X0223352Y0092918D02*
X0240704Y0092918D01*
X0233309Y0107305D02*
X0221715Y0107305D01*
X0221715Y0108903D02*
X0233597Y0108903D01*
X0234094Y0110502D02*
X0221715Y0110502D01*
X0221715Y0112100D02*
X0234813Y0112100D01*
X0235780Y0113699D02*
X0220300Y0113699D01*
X0220300Y0115297D02*
X0237074Y0115297D01*
X0238845Y0116896D02*
X0221356Y0116896D01*
X0221715Y0118494D02*
X0241503Y0118494D01*
X0226888Y0128085D02*
X0273200Y0128085D01*
X0273200Y0126487D02*
X0220947Y0126487D01*
X0220300Y0124888D02*
X0273200Y0124888D01*
X0273200Y0123290D02*
X0221170Y0123290D01*
X0221715Y0121691D02*
X0273200Y0121691D01*
X0273200Y0120093D02*
X0221715Y0120093D01*
X0215337Y0116896D02*
X0214663Y0116896D01*
X0208644Y0116896D02*
X0206700Y0116896D01*
X0195600Y0124888D02*
X0187689Y0124888D01*
X0189114Y0123290D02*
X0193300Y0123290D01*
X0193300Y0121691D02*
X0190713Y0121691D01*
X0192311Y0120093D02*
X0193300Y0120093D01*
X0193300Y0118494D02*
X0192700Y0118494D01*
X0192700Y0116896D02*
X0193300Y0116896D01*
X0199950Y0134479D02*
X0200050Y0134479D01*
X0220300Y0134479D02*
X0220516Y0134479D01*
X0221579Y0132881D02*
X0222115Y0132881D01*
X0221715Y0131282D02*
X0222621Y0131282D01*
X0222311Y0129684D02*
X0221715Y0129684D01*
X0221715Y0128085D02*
X0223112Y0128085D01*
X0227441Y0148866D02*
X0258261Y0148866D01*
X0259567Y0150465D02*
X0227689Y0150465D01*
X0226740Y0152063D02*
X0261916Y0152063D01*
X0255184Y0153662D02*
X0254816Y0153662D01*
X0254816Y0155260D02*
X0255184Y0155260D01*
X0255199Y0144070D02*
X0257294Y0144070D01*
X0257707Y0142472D02*
X0255199Y0142472D01*
X0255199Y0140873D02*
X0258369Y0140873D01*
X0259828Y0139275D02*
X0255199Y0139275D01*
X0255199Y0137676D02*
X0262545Y0137676D01*
X0223260Y0152063D02*
X0216740Y0152063D01*
X0230362Y0174442D02*
X0233982Y0174442D01*
X0221747Y0176041D02*
X0218253Y0176041D01*
X0219542Y0177639D02*
X0220458Y0177639D01*
X0220488Y0182435D02*
X0219512Y0182435D01*
X0218179Y0184033D02*
X0221821Y0184033D01*
X0210617Y0196821D02*
X0206500Y0196821D01*
X0206500Y0195223D02*
X0209019Y0195223D01*
X0207420Y0193624D02*
X0206500Y0193624D01*
X0206500Y0192704D02*
X0206500Y0200300D01*
X0206947Y0200300D01*
X0209700Y0203053D01*
X0209700Y0206947D01*
X0206947Y0209700D01*
X0203053Y0209700D01*
X0200300Y0206947D01*
X0200300Y0203053D01*
X0203053Y0200300D01*
X0203100Y0200300D01*
X0203100Y0191104D01*
X0201696Y0189700D01*
X0200700Y0188704D01*
X0200700Y0183100D01*
X0198565Y0183100D01*
X0198565Y0184202D01*
X0197991Y0184776D01*
X0198271Y0184938D01*
X0198606Y0185273D01*
X0198843Y0185683D01*
X0198965Y0186141D01*
X0198965Y0188162D01*
X0195184Y0188162D01*
X0195184Y0188531D01*
X0194816Y0188531D01*
X0194816Y0192115D01*
X0192719Y0192115D01*
X0196300Y0195696D01*
X0196300Y0200300D01*
X0196947Y0200300D01*
X0199700Y0203053D01*
X0199700Y0206947D01*
X0196947Y0209700D01*
X0193053Y0209700D01*
X0190900Y0207547D01*
X0190900Y0209496D01*
X0192904Y0211500D01*
X0212496Y0211500D01*
X0214296Y0209700D01*
X0213053Y0209700D01*
X0210300Y0206947D01*
X0210300Y0203053D01*
X0213053Y0200300D01*
X0213300Y0200300D01*
X0213300Y0199504D01*
X0206500Y0192704D01*
X0203100Y0192026D02*
X0197735Y0192026D01*
X0197860Y0191992D02*
X0197402Y0192115D01*
X0195184Y0192115D01*
X0195184Y0188531D01*
X0198965Y0188531D01*
X0198965Y0190552D01*
X0198843Y0191010D01*
X0198606Y0191420D01*
X0198271Y0191755D01*
X0197860Y0191992D01*
X0198965Y0190427D02*
X0202423Y0190427D01*
X0200825Y0188829D02*
X0198965Y0188829D01*
X0198965Y0187230D02*
X0200700Y0187230D01*
X0200700Y0185632D02*
X0198813Y0185632D01*
X0198565Y0184033D02*
X0200700Y0184033D01*
X0195184Y0188829D02*
X0194816Y0188829D01*
X0194816Y0190427D02*
X0195184Y0190427D01*
X0195184Y0192026D02*
X0194816Y0192026D01*
X0194228Y0193624D02*
X0203100Y0193624D01*
X0203100Y0195223D02*
X0195827Y0195223D01*
X0196300Y0196821D02*
X0203100Y0196821D01*
X0203100Y0198420D02*
X0196300Y0198420D01*
X0196300Y0200018D02*
X0203100Y0200018D01*
X0201736Y0201617D02*
X0198264Y0201617D01*
X0199700Y0203215D02*
X0200300Y0203215D01*
X0200300Y0204814D02*
X0199700Y0204814D01*
X0199700Y0206412D02*
X0200300Y0206412D01*
X0201364Y0208011D02*
X0198636Y0208011D01*
X0197037Y0209609D02*
X0202963Y0209609D01*
X0207037Y0209609D02*
X0212963Y0209609D01*
X0212788Y0211208D02*
X0192612Y0211208D01*
X0192963Y0209609D02*
X0191014Y0209609D01*
X0190900Y0208011D02*
X0191364Y0208011D01*
X0187500Y0209609D02*
X0187037Y0209609D01*
X0182963Y0209609D02*
X0171037Y0209609D01*
X0172636Y0208011D02*
X0181364Y0208011D01*
X0180300Y0206412D02*
X0173700Y0206412D01*
X0173700Y0204814D02*
X0180300Y0204814D01*
X0180300Y0203215D02*
X0173700Y0203215D01*
X0172264Y0201617D02*
X0181736Y0201617D01*
X0185426Y0196821D02*
X0192617Y0196821D01*
X0192900Y0197104D02*
X0189696Y0193900D01*
X0188700Y0192904D01*
X0188700Y0191257D01*
X0188606Y0191420D01*
X0188271Y0191755D01*
X0187860Y0191992D01*
X0187402Y0192115D01*
X0185184Y0192115D01*
X0185184Y0188531D01*
X0184816Y0188531D01*
X0184816Y0192115D01*
X0182598Y0192115D01*
X0182140Y0191992D01*
X0181900Y0191854D01*
X0181900Y0193296D01*
X0189904Y0201300D01*
X0190900Y0202296D01*
X0190900Y0202453D01*
X0192900Y0200453D01*
X0192900Y0197104D01*
X0192900Y0198420D02*
X0187024Y0198420D01*
X0188623Y0200018D02*
X0192900Y0200018D01*
X0191736Y0201617D02*
X0190221Y0201617D01*
X0191019Y0195223D02*
X0183827Y0195223D01*
X0182228Y0193624D02*
X0189420Y0193624D01*
X0188700Y0192026D02*
X0187735Y0192026D01*
X0185184Y0192026D02*
X0184816Y0192026D01*
X0184816Y0190427D02*
X0185184Y0190427D01*
X0185184Y0188829D02*
X0184816Y0188829D01*
X0182265Y0192026D02*
X0181900Y0192026D01*
X0206500Y0198420D02*
X0212216Y0198420D01*
X0213300Y0200018D02*
X0206500Y0200018D01*
X0208264Y0201617D02*
X0211736Y0201617D01*
X0210300Y0203215D02*
X0209700Y0203215D01*
X0209700Y0204814D02*
X0210300Y0204814D01*
X0210300Y0206412D02*
X0209700Y0206412D01*
X0208636Y0208011D02*
X0211364Y0208011D01*
X0219195Y0209609D02*
X0222963Y0209609D01*
X0221364Y0208011D02*
X0220793Y0208011D01*
X0175266Y0144070D02*
X0172859Y0144070D01*
X0170430Y0076933D02*
X0169145Y0076933D01*
X0167063Y0075334D02*
X0172064Y0075334D01*
X0170498Y0073736D02*
X0157740Y0073736D01*
X0159339Y0075334D02*
X0162937Y0075334D01*
X0163634Y0062546D02*
X0151366Y0062546D01*
X0152472Y0060948D02*
X0162528Y0060948D01*
X0162100Y0059349D02*
X0152900Y0059349D01*
X0152844Y0057751D02*
X0162156Y0057751D01*
X0162818Y0056152D02*
X0152182Y0056152D01*
X0150634Y0054554D02*
X0164366Y0054554D01*
X0170034Y0054554D02*
X0189966Y0054554D01*
X0188418Y0056152D02*
X0171582Y0056152D01*
X0172244Y0057751D02*
X0187756Y0057751D01*
X0187700Y0059349D02*
X0172300Y0059349D01*
X0171872Y0060948D02*
X0188128Y0060948D01*
X0189234Y0062546D02*
X0170766Y0062546D01*
X0170550Y0044963D02*
X0189450Y0044963D01*
X0188218Y0043364D02*
X0171782Y0043364D01*
X0172300Y0041766D02*
X0187700Y0041766D01*
X0187700Y0040167D02*
X0172300Y0040167D01*
X0172418Y0038569D02*
X0188328Y0038569D01*
X0189717Y0036970D02*
X0174017Y0036970D01*
X0170241Y0035372D02*
X0164159Y0035372D01*
X0162560Y0033773D02*
X0171840Y0033773D01*
X0161982Y0038569D02*
X0152272Y0038569D01*
X0152124Y0038211D02*
X0150689Y0036776D01*
X0148814Y0036000D01*
X0146786Y0036000D01*
X0144911Y0036776D01*
X0143476Y0038211D01*
X0142700Y0040086D01*
X0142700Y0042114D01*
X0143476Y0043989D01*
X0144911Y0045424D01*
X0146786Y0046200D01*
X0148814Y0046200D01*
X0150689Y0045424D01*
X0152124Y0043989D01*
X0152900Y0042114D01*
X0152900Y0040086D01*
X0152124Y0038211D01*
X0150883Y0036970D02*
X0160383Y0036970D01*
X0158785Y0035372D02*
X0127764Y0035372D01*
X0126826Y0036970D02*
X0144717Y0036970D01*
X0143328Y0038569D02*
X0126672Y0038569D01*
X0127300Y0040167D02*
X0142700Y0040167D01*
X0142700Y0041766D02*
X0127300Y0041766D01*
X0126782Y0043364D02*
X0143218Y0043364D01*
X0144450Y0044963D02*
X0125550Y0044963D01*
X0129764Y0048160D02*
X0228037Y0048160D01*
X0231963Y0048160D02*
X0245573Y0048160D01*
X0245594Y0054554D02*
X0240634Y0054554D01*
X0234966Y0054554D02*
X0223758Y0054554D01*
X0215550Y0044963D02*
X0234450Y0044963D01*
X0233218Y0043364D02*
X0216782Y0043364D01*
X0217300Y0041766D02*
X0232700Y0041766D01*
X0232700Y0040167D02*
X0217300Y0040167D01*
X0217418Y0038569D02*
X0233328Y0038569D01*
X0234717Y0036970D02*
X0219017Y0036970D01*
X0216840Y0033773D02*
X0211460Y0033773D01*
X0213059Y0035372D02*
X0215241Y0035372D01*
X0209117Y0036970D02*
X0195883Y0036970D01*
X0197272Y0038569D02*
X0207728Y0038569D01*
X0207100Y0040167D02*
X0197900Y0040167D01*
X0197900Y0041766D02*
X0207100Y0041766D01*
X0207618Y0043364D02*
X0197382Y0043364D01*
X0196150Y0044963D02*
X0208850Y0044963D01*
X0205535Y0032689D02*
X0204465Y0032689D01*
X0203477Y0032280D01*
X0202720Y0031523D01*
X0202311Y0030535D01*
X0202311Y0029465D01*
X0202720Y0028477D01*
X0203300Y0027897D01*
X0203300Y0019700D01*
X0203053Y0019700D01*
X0200300Y0016947D01*
X0200300Y0013053D01*
X0203053Y0010300D01*
X0206947Y0010300D01*
X0209700Y0013053D01*
X0209700Y0016947D01*
X0206947Y0019700D01*
X0206700Y0019700D01*
X0206700Y0027897D01*
X0207280Y0028477D01*
X0207689Y0029465D01*
X0207689Y0030535D01*
X0207280Y0031523D01*
X0206523Y0032280D01*
X0205535Y0032689D01*
X0206628Y0032175D02*
X0227311Y0032175D01*
X0228121Y0030576D02*
X0207672Y0030576D01*
X0207487Y0028978D02*
X0226574Y0028978D01*
X0224975Y0027379D02*
X0206700Y0027379D01*
X0206700Y0025781D02*
X0223376Y0025781D01*
X0223300Y0024182D02*
X0206700Y0024182D01*
X0206700Y0022584D02*
X0223300Y0022584D01*
X0223300Y0020985D02*
X0206700Y0020985D01*
X0207260Y0019387D02*
X0212740Y0019387D01*
X0213053Y0019700D02*
X0210300Y0016947D01*
X0210300Y0013053D01*
X0213053Y0010300D01*
X0216947Y0010300D01*
X0219700Y0013053D01*
X0219700Y0016947D01*
X0216947Y0019700D01*
X0213053Y0019700D01*
X0211141Y0017788D02*
X0208859Y0017788D01*
X0209700Y0016190D02*
X0210300Y0016190D01*
X0210300Y0014591D02*
X0209700Y0014591D01*
X0209639Y0012993D02*
X0210361Y0012993D01*
X0211959Y0011394D02*
X0208041Y0011394D01*
X0201959Y0011394D02*
X0188041Y0011394D01*
X0186947Y0010300D02*
X0183053Y0010300D01*
X0180300Y0013053D01*
X0180300Y0016947D01*
X0183053Y0019700D01*
X0186947Y0019700D01*
X0189700Y0016947D01*
X0189700Y0013053D01*
X0186947Y0010300D01*
X0189639Y0012993D02*
X0200361Y0012993D01*
X0200300Y0014591D02*
X0189700Y0014591D01*
X0189700Y0016190D02*
X0200300Y0016190D01*
X0201141Y0017788D02*
X0188859Y0017788D01*
X0189477Y0018720D02*
X0190465Y0018311D01*
X0191535Y0018311D01*
X0192523Y0018720D01*
X0193280Y0019477D01*
X0193689Y0020465D01*
X0193689Y0021535D01*
X0193280Y0022523D01*
X0192700Y0023103D01*
X0192700Y0026897D01*
X0193280Y0027477D01*
X0193689Y0028465D01*
X0193689Y0029535D01*
X0193280Y0030523D01*
X0192523Y0031280D01*
X0191535Y0031689D01*
X0190465Y0031689D01*
X0189477Y0031280D01*
X0188720Y0030523D01*
X0188311Y0029535D01*
X0188311Y0028465D01*
X0188720Y0027477D01*
X0189300Y0026897D01*
X0189300Y0023103D01*
X0188720Y0022523D01*
X0188311Y0021535D01*
X0188311Y0020465D01*
X0188720Y0019477D01*
X0189477Y0018720D01*
X0188811Y0019387D02*
X0187260Y0019387D01*
X0188311Y0020985D02*
X0106700Y0020985D01*
X0106700Y0019387D02*
X0112740Y0019387D01*
X0113053Y0019700D02*
X0110300Y0016947D01*
X0110300Y0013053D01*
X0113053Y0010300D01*
X0116947Y0010300D01*
X0119700Y0013053D01*
X0119700Y0016947D01*
X0116947Y0019700D01*
X0113053Y0019700D01*
X0111141Y0017788D02*
X0106700Y0017788D01*
X0106700Y0016303D02*
X0106700Y0022897D01*
X0107280Y0023477D01*
X0107689Y0024465D01*
X0107689Y0025535D01*
X0107280Y0026523D01*
X0106523Y0027280D01*
X0105535Y0027689D01*
X0104465Y0027689D01*
X0103477Y0027280D01*
X0102720Y0026523D01*
X0102311Y0025535D01*
X0102311Y0024465D01*
X0102720Y0023477D01*
X0103300Y0022897D01*
X0103300Y0016303D01*
X0102720Y0015723D01*
X0102311Y0014735D01*
X0102311Y0013665D01*
X0102720Y0012677D01*
X0103477Y0011920D01*
X0104465Y0011511D01*
X0105535Y0011511D01*
X0106523Y0011920D01*
X0107280Y0012677D01*
X0107689Y0013665D01*
X0107689Y0014735D01*
X0107280Y0015723D01*
X0106700Y0016303D01*
X0106813Y0016190D02*
X0110300Y0016190D01*
X0110300Y0014591D02*
X0107689Y0014591D01*
X0107410Y0012993D02*
X0110361Y0012993D01*
X0111959Y0011394D02*
X0066847Y0011394D01*
X0066532Y0010635D02*
X0067705Y0013467D01*
X0067705Y0016533D01*
X0066532Y0019365D01*
X0064365Y0021532D01*
X0061533Y0022705D01*
X0058467Y0022705D01*
X0055635Y0021532D01*
X0053468Y0019365D01*
X0052294Y0016533D01*
X0052294Y0013467D01*
X0053468Y0010635D01*
X0055635Y0008468D01*
X0058467Y0007294D01*
X0061533Y0007294D01*
X0064365Y0008468D01*
X0066532Y0010635D01*
X0065693Y0009796D02*
X0263200Y0009796D01*
X0263200Y0011394D02*
X0258041Y0011394D01*
X0256947Y0010300D02*
X0259700Y0013053D01*
X0259700Y0016947D01*
X0256947Y0019700D01*
X0253053Y0019700D01*
X0250300Y0016947D01*
X0250300Y0013053D01*
X0253053Y0010300D01*
X0256947Y0010300D01*
X0259639Y0012993D02*
X0263200Y0012993D01*
X0263200Y0014591D02*
X0259700Y0014591D01*
X0259700Y0016190D02*
X0263644Y0016190D01*
X0265243Y0017788D02*
X0258859Y0017788D01*
X0257260Y0019387D02*
X0266841Y0019387D01*
X0268440Y0020985D02*
X0236500Y0020985D01*
X0236500Y0019700D02*
X0236500Y0026297D01*
X0237080Y0026877D01*
X0237489Y0027865D01*
X0237489Y0028935D01*
X0237080Y0029923D01*
X0236323Y0030680D01*
X0235335Y0031089D01*
X0234265Y0031089D01*
X0233277Y0030680D01*
X0232520Y0029923D01*
X0232111Y0028935D01*
X0232111Y0027865D01*
X0232520Y0026877D01*
X0233100Y0026297D01*
X0233100Y0019700D01*
X0233053Y0019700D01*
X0230300Y0016947D01*
X0230300Y0013053D01*
X0233053Y0010300D01*
X0236947Y0010300D01*
X0239700Y0013053D01*
X0239700Y0016947D01*
X0236947Y0019700D01*
X0236500Y0019700D01*
X0237260Y0019387D02*
X0242740Y0019387D01*
X0243053Y0019700D02*
X0240300Y0016947D01*
X0240300Y0013053D01*
X0243053Y0010300D01*
X0246947Y0010300D01*
X0249700Y0013053D01*
X0249700Y0016947D01*
X0246947Y0019700D01*
X0243053Y0019700D01*
X0241141Y0017788D02*
X0238859Y0017788D01*
X0239700Y0016190D02*
X0240300Y0016190D01*
X0240300Y0014591D02*
X0239700Y0014591D01*
X0239639Y0012993D02*
X0240361Y0012993D01*
X0241959Y0011394D02*
X0238041Y0011394D01*
X0231959Y0011394D02*
X0228041Y0011394D01*
X0229639Y0012993D02*
X0230361Y0012993D01*
X0230300Y0014591D02*
X0229700Y0014591D01*
X0229700Y0016190D02*
X0230300Y0016190D01*
X0231141Y0017788D02*
X0228859Y0017788D01*
X0227260Y0019387D02*
X0232740Y0019387D01*
X0233100Y0020985D02*
X0226700Y0020985D01*
X0226700Y0022584D02*
X0233100Y0022584D01*
X0233100Y0024182D02*
X0226700Y0024182D01*
X0228185Y0025781D02*
X0233100Y0025781D01*
X0232312Y0027379D02*
X0229783Y0027379D01*
X0231382Y0028978D02*
X0232129Y0028978D01*
X0231879Y0030576D02*
X0233173Y0030576D01*
X0232689Y0032175D02*
X0257830Y0032175D01*
X0257294Y0033773D02*
X0246460Y0033773D01*
X0237471Y0028978D02*
X0260125Y0028978D01*
X0258527Y0030576D02*
X0236427Y0030576D01*
X0237288Y0027379D02*
X0263263Y0027379D01*
X0266737Y0027379D02*
X0273200Y0027379D01*
X0273200Y0025781D02*
X0236500Y0025781D01*
X0236500Y0024182D02*
X0271637Y0024182D01*
X0270038Y0022584D02*
X0236500Y0022584D01*
X0247260Y0019387D02*
X0252740Y0019387D01*
X0251141Y0017788D02*
X0248859Y0017788D01*
X0249700Y0016190D02*
X0250300Y0016190D01*
X0250300Y0014591D02*
X0249700Y0014591D01*
X0249639Y0012993D02*
X0250361Y0012993D01*
X0251959Y0011394D02*
X0248041Y0011394D01*
X0263200Y0008197D02*
X0063712Y0008197D01*
X0067509Y0012993D02*
X0102590Y0012993D01*
X0102311Y0014591D02*
X0067705Y0014591D01*
X0067705Y0016190D02*
X0103187Y0016190D01*
X0103300Y0017788D02*
X0067186Y0017788D01*
X0066511Y0019387D02*
X0103300Y0019387D01*
X0103300Y0020985D02*
X0064912Y0020985D01*
X0061827Y0022584D02*
X0103300Y0022584D01*
X0102428Y0024182D02*
X0052960Y0024182D01*
X0053195Y0024417D02*
X0053704Y0025117D01*
X0054097Y0025889D01*
X0054365Y0026712D01*
X0054500Y0027567D01*
X0054500Y0027800D01*
X0049200Y0027800D01*
X0049200Y0022500D01*
X0049433Y0022500D01*
X0050288Y0022635D01*
X0051111Y0022903D01*
X0051883Y0023296D01*
X0052583Y0023805D01*
X0053195Y0024417D01*
X0054042Y0025781D02*
X0102413Y0025781D01*
X0103717Y0027379D02*
X0054470Y0027379D01*
X0054414Y0028978D02*
X0127110Y0028978D01*
X0126172Y0030576D02*
X0102580Y0030576D01*
X0104179Y0032175D02*
X0125234Y0032175D01*
X0124296Y0033773D02*
X0105777Y0033773D01*
X0107376Y0035372D02*
X0123358Y0035372D01*
X0119117Y0036970D02*
X0108974Y0036970D01*
X0110573Y0038569D02*
X0117728Y0038569D01*
X0117100Y0040167D02*
X0112171Y0040167D01*
X0113770Y0041766D02*
X0117100Y0041766D01*
X0117618Y0043364D02*
X0115368Y0043364D01*
X0116967Y0044963D02*
X0118850Y0044963D01*
X0113757Y0046561D02*
X0108965Y0046561D01*
X0107689Y0044963D02*
X0112159Y0044963D01*
X0110560Y0043364D02*
X0107167Y0043364D01*
X0108962Y0041766D02*
X0081793Y0041766D01*
X0083967Y0040167D02*
X0107363Y0040167D01*
X0105765Y0038569D02*
X0084739Y0038569D01*
X0084900Y0036970D02*
X0104166Y0036970D01*
X0102568Y0035372D02*
X0084544Y0035372D01*
X0083498Y0033773D02*
X0100969Y0033773D01*
X0106283Y0027379D02*
X0128048Y0027379D01*
X0129640Y0032175D02*
X0155588Y0032175D01*
X0157186Y0033773D02*
X0128702Y0033773D01*
X0126947Y0019700D02*
X0123053Y0019700D01*
X0120300Y0016947D01*
X0120300Y0013053D01*
X0123053Y0010300D01*
X0126947Y0010300D01*
X0129700Y0013053D01*
X0129700Y0016947D01*
X0126947Y0019700D01*
X0127260Y0019387D02*
X0132740Y0019387D01*
X0133053Y0019700D02*
X0130300Y0016947D01*
X0130300Y0013053D01*
X0133053Y0010300D01*
X0136947Y0010300D01*
X0139700Y0013053D01*
X0139700Y0016947D01*
X0136947Y0019700D01*
X0133053Y0019700D01*
X0131141Y0017788D02*
X0128859Y0017788D01*
X0129700Y0016190D02*
X0130300Y0016190D01*
X0130300Y0014591D02*
X0129700Y0014591D01*
X0129639Y0012993D02*
X0130361Y0012993D01*
X0131959Y0011394D02*
X0128041Y0011394D01*
X0121959Y0011394D02*
X0118041Y0011394D01*
X0119639Y0012993D02*
X0120361Y0012993D01*
X0120300Y0014591D02*
X0119700Y0014591D01*
X0119700Y0016190D02*
X0120300Y0016190D01*
X0121141Y0017788D02*
X0118859Y0017788D01*
X0117260Y0019387D02*
X0122740Y0019387D01*
X0137260Y0019387D02*
X0142740Y0019387D01*
X0143053Y0019700D02*
X0140300Y0016947D01*
X0140300Y0013053D01*
X0143053Y0010300D01*
X0146947Y0010300D01*
X0149700Y0013053D01*
X0149700Y0016947D01*
X0146947Y0019700D01*
X0143053Y0019700D01*
X0141141Y0017788D02*
X0138859Y0017788D01*
X0139700Y0016190D02*
X0140300Y0016190D01*
X0140300Y0014591D02*
X0139700Y0014591D01*
X0139639Y0012993D02*
X0140361Y0012993D01*
X0141959Y0011394D02*
X0138041Y0011394D01*
X0148041Y0011394D02*
X0151959Y0011394D01*
X0153053Y0010300D02*
X0150300Y0013053D01*
X0150300Y0016947D01*
X0153053Y0019700D01*
X0156947Y0019700D01*
X0159700Y0016947D01*
X0159700Y0013053D01*
X0156947Y0010300D01*
X0153053Y0010300D01*
X0150361Y0012993D02*
X0149639Y0012993D01*
X0149700Y0014591D02*
X0150300Y0014591D01*
X0150300Y0016190D02*
X0149700Y0016190D01*
X0148859Y0017788D02*
X0151141Y0017788D01*
X0152740Y0019387D02*
X0147260Y0019387D01*
X0157260Y0019387D02*
X0162174Y0019387D01*
X0162888Y0020100D02*
X0159900Y0017112D01*
X0159900Y0015184D01*
X0164816Y0015184D01*
X0164816Y0014816D01*
X0165184Y0014816D01*
X0165184Y0009900D01*
X0167112Y0009900D01*
X0170000Y0012788D01*
X0172888Y0009900D01*
X0174816Y0009900D01*
X0174816Y0014816D01*
X0175184Y0014816D01*
X0175184Y0009900D01*
X0177112Y0009900D01*
X0180100Y0012888D01*
X0180100Y0014816D01*
X0175184Y0014816D01*
X0175184Y0015184D01*
X0174816Y0015184D01*
X0174816Y0014816D01*
X0165184Y0014816D01*
X0165184Y0015184D01*
X0164816Y0015184D01*
X0164816Y0020100D01*
X0162888Y0020100D01*
X0164816Y0019387D02*
X0165184Y0019387D01*
X0165184Y0020100D02*
X0165184Y0015184D01*
X0170100Y0015184D01*
X0174816Y0015184D01*
X0174816Y0020100D01*
X0172888Y0020100D01*
X0170000Y0017212D01*
X0167112Y0020100D01*
X0165184Y0020100D01*
X0165184Y0017788D02*
X0164816Y0017788D01*
X0164816Y0016190D02*
X0165184Y0016190D01*
X0164816Y0014816D02*
X0159900Y0014816D01*
X0159900Y0012888D01*
X0162888Y0009900D01*
X0164816Y0009900D01*
X0164816Y0014816D01*
X0164816Y0014591D02*
X0165184Y0014591D01*
X0165184Y0012993D02*
X0164816Y0012993D01*
X0164816Y0011394D02*
X0165184Y0011394D01*
X0168607Y0011394D02*
X0171393Y0011394D01*
X0174816Y0011394D02*
X0175184Y0011394D01*
X0175184Y0012993D02*
X0174816Y0012993D01*
X0174816Y0014591D02*
X0175184Y0014591D01*
X0175184Y0015184D02*
X0180100Y0015184D01*
X0180100Y0017112D01*
X0177112Y0020100D01*
X0175184Y0020100D01*
X0175184Y0015184D01*
X0175184Y0016190D02*
X0174816Y0016190D01*
X0174816Y0017788D02*
X0175184Y0017788D01*
X0175184Y0019387D02*
X0174816Y0019387D01*
X0172174Y0019387D02*
X0167826Y0019387D01*
X0169424Y0017788D02*
X0170576Y0017788D01*
X0177826Y0019387D02*
X0182740Y0019387D01*
X0181141Y0017788D02*
X0179424Y0017788D01*
X0180100Y0016190D02*
X0180300Y0016190D01*
X0180300Y0014591D02*
X0180100Y0014591D01*
X0180100Y0012993D02*
X0180361Y0012993D01*
X0181959Y0011394D02*
X0178607Y0011394D01*
X0188781Y0022584D02*
X0106700Y0022584D01*
X0107572Y0024182D02*
X0189300Y0024182D01*
X0189300Y0025781D02*
X0107587Y0025781D01*
X0102833Y0043364D02*
X0076440Y0043364D01*
X0075900Y0044963D02*
X0102311Y0044963D01*
X0102759Y0046561D02*
X0075900Y0046561D01*
X0075900Y0048160D02*
X0105756Y0048160D01*
X0107354Y0049758D02*
X0075900Y0049758D01*
X0075900Y0051357D02*
X0108300Y0051357D01*
X0108300Y0052955D02*
X0075900Y0052955D01*
X0075900Y0054554D02*
X0108300Y0054554D01*
X0108300Y0056152D02*
X0075900Y0056152D01*
X0072100Y0054554D02*
X0041850Y0054554D01*
X0040252Y0056152D02*
X0071161Y0056152D01*
X0068446Y0057751D02*
X0039100Y0057751D01*
X0039100Y0059349D02*
X0067359Y0059349D01*
X0067482Y0060948D02*
X0039100Y0060948D01*
X0035700Y0060948D02*
X0029500Y0060948D01*
X0029500Y0062546D02*
X0035700Y0062546D01*
X0035700Y0064145D02*
X0030549Y0064145D01*
X0030700Y0064296D02*
X0030700Y0066696D01*
X0031266Y0067261D01*
X0034261Y0067261D01*
X0035000Y0068000D01*
X0035700Y0067300D01*
X0035700Y0055896D01*
X0038457Y0053139D01*
X0037500Y0053139D01*
X0036082Y0053139D01*
X0035624Y0053016D01*
X0035214Y0052779D01*
X0034879Y0052444D01*
X0034760Y0052239D01*
X0034261Y0052739D01*
X0030739Y0052739D01*
X0030000Y0052000D01*
X0029500Y0052500D01*
X0029500Y0063096D01*
X0029704Y0063300D01*
X0029704Y0063300D01*
X0030700Y0064296D01*
X0030700Y0065743D02*
X0035700Y0065743D01*
X0035658Y0067342D02*
X0034342Y0067342D01*
X0035700Y0059349D02*
X0029500Y0059349D01*
X0029500Y0057751D02*
X0035700Y0057751D01*
X0035700Y0056152D02*
X0029500Y0056152D01*
X0029500Y0054554D02*
X0037042Y0054554D01*
X0037500Y0053139D02*
X0037500Y0048977D01*
X0037500Y0048977D01*
X0037500Y0053139D01*
X0037500Y0052955D02*
X0037500Y0052955D01*
X0037500Y0051357D02*
X0037500Y0051357D01*
X0037500Y0049758D02*
X0037500Y0049758D01*
X0037500Y0048976D02*
X0040481Y0048976D01*
X0037500Y0048976D01*
X0037500Y0048976D01*
X0040481Y0048976D02*
X0040481Y0046377D01*
X0040358Y0045919D01*
X0040121Y0045509D01*
X0039786Y0045174D01*
X0039658Y0045100D01*
X0039904Y0045100D01*
X0043504Y0041500D01*
X0044500Y0040504D01*
X0044500Y0040463D01*
X0044676Y0040889D01*
X0046111Y0042324D01*
X0047100Y0042733D01*
X0047100Y0044496D01*
X0040481Y0051115D01*
X0040481Y0048976D01*
X0040481Y0049758D02*
X0041838Y0049758D01*
X0040481Y0048160D02*
X0043436Y0048160D01*
X0045035Y0046561D02*
X0040481Y0046561D01*
X0040041Y0044963D02*
X0046633Y0044963D01*
X0047100Y0043364D02*
X0041640Y0043364D01*
X0043238Y0041766D02*
X0045553Y0041766D01*
X0044023Y0033773D02*
X0043189Y0033773D01*
X0042477Y0032175D02*
X0045397Y0032175D01*
X0044140Y0030576D02*
X0040099Y0030576D01*
X0043586Y0028978D02*
X0036220Y0028978D01*
X0036220Y0027379D02*
X0035261Y0027379D01*
X0035261Y0025781D02*
X0036220Y0025781D01*
X0036220Y0024182D02*
X0035261Y0024182D01*
X0032001Y0024182D02*
X0031434Y0024182D01*
X0025086Y0024182D02*
X0006800Y0024182D01*
X0006800Y0022584D02*
X0048039Y0022584D01*
X0047712Y0022635D02*
X0048567Y0022500D01*
X0048800Y0022500D01*
X0048800Y0027800D01*
X0043500Y0027800D01*
X0043500Y0027567D01*
X0043635Y0026712D01*
X0043903Y0025889D01*
X0044296Y0025117D01*
X0044805Y0024417D01*
X0045417Y0023805D01*
X0046117Y0023296D01*
X0046889Y0022903D01*
X0047712Y0022635D01*
X0048800Y0022584D02*
X0049200Y0022584D01*
X0049961Y0022584D02*
X0058173Y0022584D01*
X0055088Y0020985D02*
X0006800Y0020985D01*
X0006800Y0019387D02*
X0053489Y0019387D01*
X0052814Y0017788D02*
X0006800Y0017788D01*
X0006800Y0016190D02*
X0052294Y0016190D01*
X0052294Y0014591D02*
X0006800Y0014591D01*
X0006800Y0012993D02*
X0052491Y0012993D01*
X0053153Y0011394D02*
X0006800Y0011394D01*
X0006800Y0009796D02*
X0054307Y0009796D01*
X0056288Y0008197D02*
X0006800Y0008197D01*
X0006800Y0025781D02*
X0024301Y0025781D01*
X0024301Y0027379D02*
X0006800Y0027379D01*
X0006800Y0028978D02*
X0024301Y0028978D01*
X0024301Y0030576D02*
X0006800Y0030576D01*
X0006800Y0032175D02*
X0024443Y0032175D01*
X0024495Y0033773D02*
X0006800Y0033773D01*
X0006800Y0035372D02*
X0024301Y0035372D01*
X0024301Y0036970D02*
X0006800Y0036970D01*
X0006800Y0038569D02*
X0024301Y0038569D01*
X0019029Y0040167D02*
X0006800Y0040167D01*
X0006800Y0041766D02*
X0017430Y0041766D01*
X0013432Y0043364D02*
X0006800Y0043364D01*
X0006800Y0044963D02*
X0011833Y0044963D01*
X0010235Y0046561D02*
X0006800Y0046561D01*
X0006800Y0048160D02*
X0008636Y0048160D01*
X0007038Y0049758D02*
X0006800Y0049758D01*
X0029500Y0052955D02*
X0035519Y0052955D01*
X0043449Y0052955D02*
X0045692Y0052955D01*
X0045311Y0051357D02*
X0045047Y0051357D01*
X0069732Y0052955D02*
X0072100Y0052955D01*
X0079914Y0059349D02*
X0080086Y0059349D01*
X0080086Y0060948D02*
X0079914Y0060948D01*
X0079914Y0062546D02*
X0080086Y0062546D01*
X0080086Y0064145D02*
X0079914Y0064145D01*
X0079914Y0065743D02*
X0080086Y0065743D01*
X0080086Y0067342D02*
X0079914Y0067342D01*
X0110564Y0048160D02*
X0115356Y0048160D01*
X0125766Y0062546D02*
X0127342Y0062546D01*
X0151150Y0044963D02*
X0163850Y0044963D01*
X0162618Y0043364D02*
X0152382Y0043364D01*
X0152900Y0041766D02*
X0162100Y0041766D01*
X0162100Y0040167D02*
X0152900Y0040167D01*
X0160962Y0032175D02*
X0203372Y0032175D01*
X0202328Y0030576D02*
X0193227Y0030576D01*
X0193689Y0028978D02*
X0202513Y0028978D01*
X0203300Y0027379D02*
X0193182Y0027379D01*
X0192700Y0025781D02*
X0203300Y0025781D01*
X0203300Y0024182D02*
X0192700Y0024182D01*
X0193219Y0022584D02*
X0203300Y0022584D01*
X0203300Y0020985D02*
X0193689Y0020985D01*
X0193189Y0019387D02*
X0202740Y0019387D01*
X0217260Y0019387D02*
X0222740Y0019387D01*
X0221141Y0017788D02*
X0218859Y0017788D01*
X0219700Y0016190D02*
X0220300Y0016190D01*
X0220300Y0014591D02*
X0219700Y0014591D01*
X0219639Y0012993D02*
X0220361Y0012993D01*
X0221959Y0011394D02*
X0218041Y0011394D01*
X0188818Y0027379D02*
X0157182Y0027379D01*
X0157765Y0028978D02*
X0188311Y0028978D01*
X0188773Y0030576D02*
X0159363Y0030576D01*
X0158859Y0017788D02*
X0160576Y0017788D01*
X0159900Y0016190D02*
X0159700Y0016190D01*
X0159700Y0014591D02*
X0159900Y0014591D01*
X0159900Y0012993D02*
X0159639Y0012993D01*
X0158041Y0011394D02*
X0161393Y0011394D01*
X0078207Y0041766D02*
X0078038Y0041766D01*
X0049200Y0027379D02*
X0048800Y0027379D01*
X0048800Y0025781D02*
X0049200Y0025781D01*
X0049200Y0024182D02*
X0048800Y0024182D01*
X0045040Y0024182D02*
X0039480Y0024182D01*
X0040099Y0025781D02*
X0043958Y0025781D01*
X0043530Y0027379D02*
X0040099Y0027379D01*
X0034269Y0083327D02*
X0029500Y0083327D01*
X0029500Y0084926D02*
X0032670Y0084926D01*
X0031072Y0086524D02*
X0029500Y0086524D01*
X0029500Y0088123D02*
X0030900Y0088123D01*
X0030900Y0089721D02*
X0029500Y0089721D01*
X0029500Y0091320D02*
X0030900Y0091320D01*
X0030900Y0092918D02*
X0029500Y0092918D01*
X0029500Y0094517D02*
X0030900Y0094517D01*
X0030900Y0096115D02*
X0029500Y0096115D01*
X0029500Y0097714D02*
X0030900Y0097714D01*
X0030900Y0099312D02*
X0029500Y0099312D01*
X0029500Y0100911D02*
X0030900Y0100911D01*
X0030900Y0102509D02*
X0029500Y0102509D01*
X0030312Y0104108D02*
X0030900Y0104108D01*
X0039561Y0145669D02*
X0040439Y0145669D01*
X0039100Y0147268D02*
X0051263Y0147268D01*
X0050439Y0145669D02*
X0049561Y0145669D01*
X0045439Y0145669D02*
X0044561Y0145669D01*
X0040270Y0148866D02*
X0052862Y0148866D01*
X0270730Y0040167D02*
X0273200Y0040167D01*
X0273200Y0038569D02*
X0271862Y0038569D01*
X0272524Y0036970D02*
X0273200Y0036970D01*
X0273200Y0035372D02*
X0272705Y0035372D01*
X0272705Y0033773D02*
X0273200Y0033773D01*
X0273200Y0032175D02*
X0272170Y0032175D01*
X0271473Y0030576D02*
X0273200Y0030576D01*
X0273200Y0028978D02*
X0269875Y0028978D01*
D30*
X0211654Y0110000D02*
X0203000Y0110000D01*
X0203000Y0120000D02*
X0211654Y0120000D01*
X0211654Y0130000D02*
X0203000Y0130000D01*
D31*
X0099800Y0095600D02*
X0099800Y0090200D01*
M02*
