G75*
%MOIN*%
%OFA0B0*%
%FSLAX25Y25*%
%IPPOS*%
%LPD*%
%AMOC8*
5,1,8,0,0,1.08239X$1,22.5*
%
%ADD10C,0.00000*%
%ADD11R,0.03543X0.02756*%
%ADD12R,0.03937X0.04331*%
%ADD13R,0.04331X0.03937*%
%ADD14R,0.05906X0.05118*%
%ADD15R,0.05118X0.05906*%
%ADD16R,0.15354X0.15354*%
%ADD17R,0.12598X0.12598*%
%ADD18R,0.02362X0.04724*%
%ADD19R,0.03937X0.03150*%
%ADD20R,0.09000X0.02500*%
D10*
X0005000Y0005000D02*
X0005000Y0215000D01*
X0259000Y0215000D01*
X0265000Y0209000D01*
X0265000Y0164000D01*
X0275000Y0154000D01*
X0275000Y0025000D01*
X0265000Y0015000D01*
X0265000Y0005000D01*
X0005000Y0005000D01*
X0054094Y0015000D02*
X0054096Y0015153D01*
X0054102Y0015307D01*
X0054112Y0015460D01*
X0054126Y0015612D01*
X0054144Y0015765D01*
X0054166Y0015916D01*
X0054191Y0016067D01*
X0054221Y0016218D01*
X0054255Y0016368D01*
X0054292Y0016516D01*
X0054333Y0016664D01*
X0054378Y0016810D01*
X0054427Y0016956D01*
X0054480Y0017100D01*
X0054536Y0017242D01*
X0054596Y0017383D01*
X0054660Y0017523D01*
X0054727Y0017661D01*
X0054798Y0017797D01*
X0054873Y0017931D01*
X0054950Y0018063D01*
X0055032Y0018193D01*
X0055116Y0018321D01*
X0055204Y0018447D01*
X0055295Y0018570D01*
X0055389Y0018691D01*
X0055487Y0018809D01*
X0055587Y0018925D01*
X0055691Y0019038D01*
X0055797Y0019149D01*
X0055906Y0019257D01*
X0056018Y0019362D01*
X0056132Y0019463D01*
X0056250Y0019562D01*
X0056369Y0019658D01*
X0056491Y0019751D01*
X0056616Y0019840D01*
X0056743Y0019927D01*
X0056872Y0020009D01*
X0057003Y0020089D01*
X0057136Y0020165D01*
X0057271Y0020238D01*
X0057408Y0020307D01*
X0057547Y0020372D01*
X0057687Y0020434D01*
X0057829Y0020492D01*
X0057972Y0020547D01*
X0058117Y0020598D01*
X0058263Y0020645D01*
X0058410Y0020688D01*
X0058558Y0020727D01*
X0058707Y0020763D01*
X0058857Y0020794D01*
X0059008Y0020822D01*
X0059159Y0020846D01*
X0059312Y0020866D01*
X0059464Y0020882D01*
X0059617Y0020894D01*
X0059770Y0020902D01*
X0059923Y0020906D01*
X0060077Y0020906D01*
X0060230Y0020902D01*
X0060383Y0020894D01*
X0060536Y0020882D01*
X0060688Y0020866D01*
X0060841Y0020846D01*
X0060992Y0020822D01*
X0061143Y0020794D01*
X0061293Y0020763D01*
X0061442Y0020727D01*
X0061590Y0020688D01*
X0061737Y0020645D01*
X0061883Y0020598D01*
X0062028Y0020547D01*
X0062171Y0020492D01*
X0062313Y0020434D01*
X0062453Y0020372D01*
X0062592Y0020307D01*
X0062729Y0020238D01*
X0062864Y0020165D01*
X0062997Y0020089D01*
X0063128Y0020009D01*
X0063257Y0019927D01*
X0063384Y0019840D01*
X0063509Y0019751D01*
X0063631Y0019658D01*
X0063750Y0019562D01*
X0063868Y0019463D01*
X0063982Y0019362D01*
X0064094Y0019257D01*
X0064203Y0019149D01*
X0064309Y0019038D01*
X0064413Y0018925D01*
X0064513Y0018809D01*
X0064611Y0018691D01*
X0064705Y0018570D01*
X0064796Y0018447D01*
X0064884Y0018321D01*
X0064968Y0018193D01*
X0065050Y0018063D01*
X0065127Y0017931D01*
X0065202Y0017797D01*
X0065273Y0017661D01*
X0065340Y0017523D01*
X0065404Y0017383D01*
X0065464Y0017242D01*
X0065520Y0017100D01*
X0065573Y0016956D01*
X0065622Y0016810D01*
X0065667Y0016664D01*
X0065708Y0016516D01*
X0065745Y0016368D01*
X0065779Y0016218D01*
X0065809Y0016067D01*
X0065834Y0015916D01*
X0065856Y0015765D01*
X0065874Y0015612D01*
X0065888Y0015460D01*
X0065898Y0015307D01*
X0065904Y0015153D01*
X0065906Y0015000D01*
X0065904Y0014847D01*
X0065898Y0014693D01*
X0065888Y0014540D01*
X0065874Y0014388D01*
X0065856Y0014235D01*
X0065834Y0014084D01*
X0065809Y0013933D01*
X0065779Y0013782D01*
X0065745Y0013632D01*
X0065708Y0013484D01*
X0065667Y0013336D01*
X0065622Y0013190D01*
X0065573Y0013044D01*
X0065520Y0012900D01*
X0065464Y0012758D01*
X0065404Y0012617D01*
X0065340Y0012477D01*
X0065273Y0012339D01*
X0065202Y0012203D01*
X0065127Y0012069D01*
X0065050Y0011937D01*
X0064968Y0011807D01*
X0064884Y0011679D01*
X0064796Y0011553D01*
X0064705Y0011430D01*
X0064611Y0011309D01*
X0064513Y0011191D01*
X0064413Y0011075D01*
X0064309Y0010962D01*
X0064203Y0010851D01*
X0064094Y0010743D01*
X0063982Y0010638D01*
X0063868Y0010537D01*
X0063750Y0010438D01*
X0063631Y0010342D01*
X0063509Y0010249D01*
X0063384Y0010160D01*
X0063257Y0010073D01*
X0063128Y0009991D01*
X0062997Y0009911D01*
X0062864Y0009835D01*
X0062729Y0009762D01*
X0062592Y0009693D01*
X0062453Y0009628D01*
X0062313Y0009566D01*
X0062171Y0009508D01*
X0062028Y0009453D01*
X0061883Y0009402D01*
X0061737Y0009355D01*
X0061590Y0009312D01*
X0061442Y0009273D01*
X0061293Y0009237D01*
X0061143Y0009206D01*
X0060992Y0009178D01*
X0060841Y0009154D01*
X0060688Y0009134D01*
X0060536Y0009118D01*
X0060383Y0009106D01*
X0060230Y0009098D01*
X0060077Y0009094D01*
X0059923Y0009094D01*
X0059770Y0009098D01*
X0059617Y0009106D01*
X0059464Y0009118D01*
X0059312Y0009134D01*
X0059159Y0009154D01*
X0059008Y0009178D01*
X0058857Y0009206D01*
X0058707Y0009237D01*
X0058558Y0009273D01*
X0058410Y0009312D01*
X0058263Y0009355D01*
X0058117Y0009402D01*
X0057972Y0009453D01*
X0057829Y0009508D01*
X0057687Y0009566D01*
X0057547Y0009628D01*
X0057408Y0009693D01*
X0057271Y0009762D01*
X0057136Y0009835D01*
X0057003Y0009911D01*
X0056872Y0009991D01*
X0056743Y0010073D01*
X0056616Y0010160D01*
X0056491Y0010249D01*
X0056369Y0010342D01*
X0056250Y0010438D01*
X0056132Y0010537D01*
X0056018Y0010638D01*
X0055906Y0010743D01*
X0055797Y0010851D01*
X0055691Y0010962D01*
X0055587Y0011075D01*
X0055487Y0011191D01*
X0055389Y0011309D01*
X0055295Y0011430D01*
X0055204Y0011553D01*
X0055116Y0011679D01*
X0055032Y0011807D01*
X0054950Y0011937D01*
X0054873Y0012069D01*
X0054798Y0012203D01*
X0054727Y0012339D01*
X0054660Y0012477D01*
X0054596Y0012617D01*
X0054536Y0012758D01*
X0054480Y0012900D01*
X0054427Y0013044D01*
X0054378Y0013190D01*
X0054333Y0013336D01*
X0054292Y0013484D01*
X0054255Y0013632D01*
X0054221Y0013782D01*
X0054191Y0013933D01*
X0054166Y0014084D01*
X0054144Y0014235D01*
X0054126Y0014388D01*
X0054112Y0014540D01*
X0054102Y0014693D01*
X0054096Y0014847D01*
X0054094Y0015000D01*
X0259094Y0035000D02*
X0259096Y0035153D01*
X0259102Y0035307D01*
X0259112Y0035460D01*
X0259126Y0035612D01*
X0259144Y0035765D01*
X0259166Y0035916D01*
X0259191Y0036067D01*
X0259221Y0036218D01*
X0259255Y0036368D01*
X0259292Y0036516D01*
X0259333Y0036664D01*
X0259378Y0036810D01*
X0259427Y0036956D01*
X0259480Y0037100D01*
X0259536Y0037242D01*
X0259596Y0037383D01*
X0259660Y0037523D01*
X0259727Y0037661D01*
X0259798Y0037797D01*
X0259873Y0037931D01*
X0259950Y0038063D01*
X0260032Y0038193D01*
X0260116Y0038321D01*
X0260204Y0038447D01*
X0260295Y0038570D01*
X0260389Y0038691D01*
X0260487Y0038809D01*
X0260587Y0038925D01*
X0260691Y0039038D01*
X0260797Y0039149D01*
X0260906Y0039257D01*
X0261018Y0039362D01*
X0261132Y0039463D01*
X0261250Y0039562D01*
X0261369Y0039658D01*
X0261491Y0039751D01*
X0261616Y0039840D01*
X0261743Y0039927D01*
X0261872Y0040009D01*
X0262003Y0040089D01*
X0262136Y0040165D01*
X0262271Y0040238D01*
X0262408Y0040307D01*
X0262547Y0040372D01*
X0262687Y0040434D01*
X0262829Y0040492D01*
X0262972Y0040547D01*
X0263117Y0040598D01*
X0263263Y0040645D01*
X0263410Y0040688D01*
X0263558Y0040727D01*
X0263707Y0040763D01*
X0263857Y0040794D01*
X0264008Y0040822D01*
X0264159Y0040846D01*
X0264312Y0040866D01*
X0264464Y0040882D01*
X0264617Y0040894D01*
X0264770Y0040902D01*
X0264923Y0040906D01*
X0265077Y0040906D01*
X0265230Y0040902D01*
X0265383Y0040894D01*
X0265536Y0040882D01*
X0265688Y0040866D01*
X0265841Y0040846D01*
X0265992Y0040822D01*
X0266143Y0040794D01*
X0266293Y0040763D01*
X0266442Y0040727D01*
X0266590Y0040688D01*
X0266737Y0040645D01*
X0266883Y0040598D01*
X0267028Y0040547D01*
X0267171Y0040492D01*
X0267313Y0040434D01*
X0267453Y0040372D01*
X0267592Y0040307D01*
X0267729Y0040238D01*
X0267864Y0040165D01*
X0267997Y0040089D01*
X0268128Y0040009D01*
X0268257Y0039927D01*
X0268384Y0039840D01*
X0268509Y0039751D01*
X0268631Y0039658D01*
X0268750Y0039562D01*
X0268868Y0039463D01*
X0268982Y0039362D01*
X0269094Y0039257D01*
X0269203Y0039149D01*
X0269309Y0039038D01*
X0269413Y0038925D01*
X0269513Y0038809D01*
X0269611Y0038691D01*
X0269705Y0038570D01*
X0269796Y0038447D01*
X0269884Y0038321D01*
X0269968Y0038193D01*
X0270050Y0038063D01*
X0270127Y0037931D01*
X0270202Y0037797D01*
X0270273Y0037661D01*
X0270340Y0037523D01*
X0270404Y0037383D01*
X0270464Y0037242D01*
X0270520Y0037100D01*
X0270573Y0036956D01*
X0270622Y0036810D01*
X0270667Y0036664D01*
X0270708Y0036516D01*
X0270745Y0036368D01*
X0270779Y0036218D01*
X0270809Y0036067D01*
X0270834Y0035916D01*
X0270856Y0035765D01*
X0270874Y0035612D01*
X0270888Y0035460D01*
X0270898Y0035307D01*
X0270904Y0035153D01*
X0270906Y0035000D01*
X0270904Y0034847D01*
X0270898Y0034693D01*
X0270888Y0034540D01*
X0270874Y0034388D01*
X0270856Y0034235D01*
X0270834Y0034084D01*
X0270809Y0033933D01*
X0270779Y0033782D01*
X0270745Y0033632D01*
X0270708Y0033484D01*
X0270667Y0033336D01*
X0270622Y0033190D01*
X0270573Y0033044D01*
X0270520Y0032900D01*
X0270464Y0032758D01*
X0270404Y0032617D01*
X0270340Y0032477D01*
X0270273Y0032339D01*
X0270202Y0032203D01*
X0270127Y0032069D01*
X0270050Y0031937D01*
X0269968Y0031807D01*
X0269884Y0031679D01*
X0269796Y0031553D01*
X0269705Y0031430D01*
X0269611Y0031309D01*
X0269513Y0031191D01*
X0269413Y0031075D01*
X0269309Y0030962D01*
X0269203Y0030851D01*
X0269094Y0030743D01*
X0268982Y0030638D01*
X0268868Y0030537D01*
X0268750Y0030438D01*
X0268631Y0030342D01*
X0268509Y0030249D01*
X0268384Y0030160D01*
X0268257Y0030073D01*
X0268128Y0029991D01*
X0267997Y0029911D01*
X0267864Y0029835D01*
X0267729Y0029762D01*
X0267592Y0029693D01*
X0267453Y0029628D01*
X0267313Y0029566D01*
X0267171Y0029508D01*
X0267028Y0029453D01*
X0266883Y0029402D01*
X0266737Y0029355D01*
X0266590Y0029312D01*
X0266442Y0029273D01*
X0266293Y0029237D01*
X0266143Y0029206D01*
X0265992Y0029178D01*
X0265841Y0029154D01*
X0265688Y0029134D01*
X0265536Y0029118D01*
X0265383Y0029106D01*
X0265230Y0029098D01*
X0265077Y0029094D01*
X0264923Y0029094D01*
X0264770Y0029098D01*
X0264617Y0029106D01*
X0264464Y0029118D01*
X0264312Y0029134D01*
X0264159Y0029154D01*
X0264008Y0029178D01*
X0263857Y0029206D01*
X0263707Y0029237D01*
X0263558Y0029273D01*
X0263410Y0029312D01*
X0263263Y0029355D01*
X0263117Y0029402D01*
X0262972Y0029453D01*
X0262829Y0029508D01*
X0262687Y0029566D01*
X0262547Y0029628D01*
X0262408Y0029693D01*
X0262271Y0029762D01*
X0262136Y0029835D01*
X0262003Y0029911D01*
X0261872Y0029991D01*
X0261743Y0030073D01*
X0261616Y0030160D01*
X0261491Y0030249D01*
X0261369Y0030342D01*
X0261250Y0030438D01*
X0261132Y0030537D01*
X0261018Y0030638D01*
X0260906Y0030743D01*
X0260797Y0030851D01*
X0260691Y0030962D01*
X0260587Y0031075D01*
X0260487Y0031191D01*
X0260389Y0031309D01*
X0260295Y0031430D01*
X0260204Y0031553D01*
X0260116Y0031679D01*
X0260032Y0031807D01*
X0259950Y0031937D01*
X0259873Y0032069D01*
X0259798Y0032203D01*
X0259727Y0032339D01*
X0259660Y0032477D01*
X0259596Y0032617D01*
X0259536Y0032758D01*
X0259480Y0032900D01*
X0259427Y0033044D01*
X0259378Y0033190D01*
X0259333Y0033336D01*
X0259292Y0033484D01*
X0259255Y0033632D01*
X0259221Y0033782D01*
X0259191Y0033933D01*
X0259166Y0034084D01*
X0259144Y0034235D01*
X0259126Y0034388D01*
X0259112Y0034540D01*
X0259102Y0034693D01*
X0259096Y0034847D01*
X0259094Y0035000D01*
X0259094Y0145000D02*
X0259096Y0145153D01*
X0259102Y0145307D01*
X0259112Y0145460D01*
X0259126Y0145612D01*
X0259144Y0145765D01*
X0259166Y0145916D01*
X0259191Y0146067D01*
X0259221Y0146218D01*
X0259255Y0146368D01*
X0259292Y0146516D01*
X0259333Y0146664D01*
X0259378Y0146810D01*
X0259427Y0146956D01*
X0259480Y0147100D01*
X0259536Y0147242D01*
X0259596Y0147383D01*
X0259660Y0147523D01*
X0259727Y0147661D01*
X0259798Y0147797D01*
X0259873Y0147931D01*
X0259950Y0148063D01*
X0260032Y0148193D01*
X0260116Y0148321D01*
X0260204Y0148447D01*
X0260295Y0148570D01*
X0260389Y0148691D01*
X0260487Y0148809D01*
X0260587Y0148925D01*
X0260691Y0149038D01*
X0260797Y0149149D01*
X0260906Y0149257D01*
X0261018Y0149362D01*
X0261132Y0149463D01*
X0261250Y0149562D01*
X0261369Y0149658D01*
X0261491Y0149751D01*
X0261616Y0149840D01*
X0261743Y0149927D01*
X0261872Y0150009D01*
X0262003Y0150089D01*
X0262136Y0150165D01*
X0262271Y0150238D01*
X0262408Y0150307D01*
X0262547Y0150372D01*
X0262687Y0150434D01*
X0262829Y0150492D01*
X0262972Y0150547D01*
X0263117Y0150598D01*
X0263263Y0150645D01*
X0263410Y0150688D01*
X0263558Y0150727D01*
X0263707Y0150763D01*
X0263857Y0150794D01*
X0264008Y0150822D01*
X0264159Y0150846D01*
X0264312Y0150866D01*
X0264464Y0150882D01*
X0264617Y0150894D01*
X0264770Y0150902D01*
X0264923Y0150906D01*
X0265077Y0150906D01*
X0265230Y0150902D01*
X0265383Y0150894D01*
X0265536Y0150882D01*
X0265688Y0150866D01*
X0265841Y0150846D01*
X0265992Y0150822D01*
X0266143Y0150794D01*
X0266293Y0150763D01*
X0266442Y0150727D01*
X0266590Y0150688D01*
X0266737Y0150645D01*
X0266883Y0150598D01*
X0267028Y0150547D01*
X0267171Y0150492D01*
X0267313Y0150434D01*
X0267453Y0150372D01*
X0267592Y0150307D01*
X0267729Y0150238D01*
X0267864Y0150165D01*
X0267997Y0150089D01*
X0268128Y0150009D01*
X0268257Y0149927D01*
X0268384Y0149840D01*
X0268509Y0149751D01*
X0268631Y0149658D01*
X0268750Y0149562D01*
X0268868Y0149463D01*
X0268982Y0149362D01*
X0269094Y0149257D01*
X0269203Y0149149D01*
X0269309Y0149038D01*
X0269413Y0148925D01*
X0269513Y0148809D01*
X0269611Y0148691D01*
X0269705Y0148570D01*
X0269796Y0148447D01*
X0269884Y0148321D01*
X0269968Y0148193D01*
X0270050Y0148063D01*
X0270127Y0147931D01*
X0270202Y0147797D01*
X0270273Y0147661D01*
X0270340Y0147523D01*
X0270404Y0147383D01*
X0270464Y0147242D01*
X0270520Y0147100D01*
X0270573Y0146956D01*
X0270622Y0146810D01*
X0270667Y0146664D01*
X0270708Y0146516D01*
X0270745Y0146368D01*
X0270779Y0146218D01*
X0270809Y0146067D01*
X0270834Y0145916D01*
X0270856Y0145765D01*
X0270874Y0145612D01*
X0270888Y0145460D01*
X0270898Y0145307D01*
X0270904Y0145153D01*
X0270906Y0145000D01*
X0270904Y0144847D01*
X0270898Y0144693D01*
X0270888Y0144540D01*
X0270874Y0144388D01*
X0270856Y0144235D01*
X0270834Y0144084D01*
X0270809Y0143933D01*
X0270779Y0143782D01*
X0270745Y0143632D01*
X0270708Y0143484D01*
X0270667Y0143336D01*
X0270622Y0143190D01*
X0270573Y0143044D01*
X0270520Y0142900D01*
X0270464Y0142758D01*
X0270404Y0142617D01*
X0270340Y0142477D01*
X0270273Y0142339D01*
X0270202Y0142203D01*
X0270127Y0142069D01*
X0270050Y0141937D01*
X0269968Y0141807D01*
X0269884Y0141679D01*
X0269796Y0141553D01*
X0269705Y0141430D01*
X0269611Y0141309D01*
X0269513Y0141191D01*
X0269413Y0141075D01*
X0269309Y0140962D01*
X0269203Y0140851D01*
X0269094Y0140743D01*
X0268982Y0140638D01*
X0268868Y0140537D01*
X0268750Y0140438D01*
X0268631Y0140342D01*
X0268509Y0140249D01*
X0268384Y0140160D01*
X0268257Y0140073D01*
X0268128Y0139991D01*
X0267997Y0139911D01*
X0267864Y0139835D01*
X0267729Y0139762D01*
X0267592Y0139693D01*
X0267453Y0139628D01*
X0267313Y0139566D01*
X0267171Y0139508D01*
X0267028Y0139453D01*
X0266883Y0139402D01*
X0266737Y0139355D01*
X0266590Y0139312D01*
X0266442Y0139273D01*
X0266293Y0139237D01*
X0266143Y0139206D01*
X0265992Y0139178D01*
X0265841Y0139154D01*
X0265688Y0139134D01*
X0265536Y0139118D01*
X0265383Y0139106D01*
X0265230Y0139098D01*
X0265077Y0139094D01*
X0264923Y0139094D01*
X0264770Y0139098D01*
X0264617Y0139106D01*
X0264464Y0139118D01*
X0264312Y0139134D01*
X0264159Y0139154D01*
X0264008Y0139178D01*
X0263857Y0139206D01*
X0263707Y0139237D01*
X0263558Y0139273D01*
X0263410Y0139312D01*
X0263263Y0139355D01*
X0263117Y0139402D01*
X0262972Y0139453D01*
X0262829Y0139508D01*
X0262687Y0139566D01*
X0262547Y0139628D01*
X0262408Y0139693D01*
X0262271Y0139762D01*
X0262136Y0139835D01*
X0262003Y0139911D01*
X0261872Y0139991D01*
X0261743Y0140073D01*
X0261616Y0140160D01*
X0261491Y0140249D01*
X0261369Y0140342D01*
X0261250Y0140438D01*
X0261132Y0140537D01*
X0261018Y0140638D01*
X0260906Y0140743D01*
X0260797Y0140851D01*
X0260691Y0140962D01*
X0260587Y0141075D01*
X0260487Y0141191D01*
X0260389Y0141309D01*
X0260295Y0141430D01*
X0260204Y0141553D01*
X0260116Y0141679D01*
X0260032Y0141807D01*
X0259950Y0141937D01*
X0259873Y0142069D01*
X0259798Y0142203D01*
X0259727Y0142339D01*
X0259660Y0142477D01*
X0259596Y0142617D01*
X0259536Y0142758D01*
X0259480Y0142900D01*
X0259427Y0143044D01*
X0259378Y0143190D01*
X0259333Y0143336D01*
X0259292Y0143484D01*
X0259255Y0143632D01*
X0259221Y0143782D01*
X0259191Y0143933D01*
X0259166Y0144084D01*
X0259144Y0144235D01*
X0259126Y0144388D01*
X0259112Y0144540D01*
X0259102Y0144693D01*
X0259096Y0144847D01*
X0259094Y0145000D01*
X0059094Y0205000D02*
X0059096Y0205153D01*
X0059102Y0205307D01*
X0059112Y0205460D01*
X0059126Y0205612D01*
X0059144Y0205765D01*
X0059166Y0205916D01*
X0059191Y0206067D01*
X0059221Y0206218D01*
X0059255Y0206368D01*
X0059292Y0206516D01*
X0059333Y0206664D01*
X0059378Y0206810D01*
X0059427Y0206956D01*
X0059480Y0207100D01*
X0059536Y0207242D01*
X0059596Y0207383D01*
X0059660Y0207523D01*
X0059727Y0207661D01*
X0059798Y0207797D01*
X0059873Y0207931D01*
X0059950Y0208063D01*
X0060032Y0208193D01*
X0060116Y0208321D01*
X0060204Y0208447D01*
X0060295Y0208570D01*
X0060389Y0208691D01*
X0060487Y0208809D01*
X0060587Y0208925D01*
X0060691Y0209038D01*
X0060797Y0209149D01*
X0060906Y0209257D01*
X0061018Y0209362D01*
X0061132Y0209463D01*
X0061250Y0209562D01*
X0061369Y0209658D01*
X0061491Y0209751D01*
X0061616Y0209840D01*
X0061743Y0209927D01*
X0061872Y0210009D01*
X0062003Y0210089D01*
X0062136Y0210165D01*
X0062271Y0210238D01*
X0062408Y0210307D01*
X0062547Y0210372D01*
X0062687Y0210434D01*
X0062829Y0210492D01*
X0062972Y0210547D01*
X0063117Y0210598D01*
X0063263Y0210645D01*
X0063410Y0210688D01*
X0063558Y0210727D01*
X0063707Y0210763D01*
X0063857Y0210794D01*
X0064008Y0210822D01*
X0064159Y0210846D01*
X0064312Y0210866D01*
X0064464Y0210882D01*
X0064617Y0210894D01*
X0064770Y0210902D01*
X0064923Y0210906D01*
X0065077Y0210906D01*
X0065230Y0210902D01*
X0065383Y0210894D01*
X0065536Y0210882D01*
X0065688Y0210866D01*
X0065841Y0210846D01*
X0065992Y0210822D01*
X0066143Y0210794D01*
X0066293Y0210763D01*
X0066442Y0210727D01*
X0066590Y0210688D01*
X0066737Y0210645D01*
X0066883Y0210598D01*
X0067028Y0210547D01*
X0067171Y0210492D01*
X0067313Y0210434D01*
X0067453Y0210372D01*
X0067592Y0210307D01*
X0067729Y0210238D01*
X0067864Y0210165D01*
X0067997Y0210089D01*
X0068128Y0210009D01*
X0068257Y0209927D01*
X0068384Y0209840D01*
X0068509Y0209751D01*
X0068631Y0209658D01*
X0068750Y0209562D01*
X0068868Y0209463D01*
X0068982Y0209362D01*
X0069094Y0209257D01*
X0069203Y0209149D01*
X0069309Y0209038D01*
X0069413Y0208925D01*
X0069513Y0208809D01*
X0069611Y0208691D01*
X0069705Y0208570D01*
X0069796Y0208447D01*
X0069884Y0208321D01*
X0069968Y0208193D01*
X0070050Y0208063D01*
X0070127Y0207931D01*
X0070202Y0207797D01*
X0070273Y0207661D01*
X0070340Y0207523D01*
X0070404Y0207383D01*
X0070464Y0207242D01*
X0070520Y0207100D01*
X0070573Y0206956D01*
X0070622Y0206810D01*
X0070667Y0206664D01*
X0070708Y0206516D01*
X0070745Y0206368D01*
X0070779Y0206218D01*
X0070809Y0206067D01*
X0070834Y0205916D01*
X0070856Y0205765D01*
X0070874Y0205612D01*
X0070888Y0205460D01*
X0070898Y0205307D01*
X0070904Y0205153D01*
X0070906Y0205000D01*
X0070904Y0204847D01*
X0070898Y0204693D01*
X0070888Y0204540D01*
X0070874Y0204388D01*
X0070856Y0204235D01*
X0070834Y0204084D01*
X0070809Y0203933D01*
X0070779Y0203782D01*
X0070745Y0203632D01*
X0070708Y0203484D01*
X0070667Y0203336D01*
X0070622Y0203190D01*
X0070573Y0203044D01*
X0070520Y0202900D01*
X0070464Y0202758D01*
X0070404Y0202617D01*
X0070340Y0202477D01*
X0070273Y0202339D01*
X0070202Y0202203D01*
X0070127Y0202069D01*
X0070050Y0201937D01*
X0069968Y0201807D01*
X0069884Y0201679D01*
X0069796Y0201553D01*
X0069705Y0201430D01*
X0069611Y0201309D01*
X0069513Y0201191D01*
X0069413Y0201075D01*
X0069309Y0200962D01*
X0069203Y0200851D01*
X0069094Y0200743D01*
X0068982Y0200638D01*
X0068868Y0200537D01*
X0068750Y0200438D01*
X0068631Y0200342D01*
X0068509Y0200249D01*
X0068384Y0200160D01*
X0068257Y0200073D01*
X0068128Y0199991D01*
X0067997Y0199911D01*
X0067864Y0199835D01*
X0067729Y0199762D01*
X0067592Y0199693D01*
X0067453Y0199628D01*
X0067313Y0199566D01*
X0067171Y0199508D01*
X0067028Y0199453D01*
X0066883Y0199402D01*
X0066737Y0199355D01*
X0066590Y0199312D01*
X0066442Y0199273D01*
X0066293Y0199237D01*
X0066143Y0199206D01*
X0065992Y0199178D01*
X0065841Y0199154D01*
X0065688Y0199134D01*
X0065536Y0199118D01*
X0065383Y0199106D01*
X0065230Y0199098D01*
X0065077Y0199094D01*
X0064923Y0199094D01*
X0064770Y0199098D01*
X0064617Y0199106D01*
X0064464Y0199118D01*
X0064312Y0199134D01*
X0064159Y0199154D01*
X0064008Y0199178D01*
X0063857Y0199206D01*
X0063707Y0199237D01*
X0063558Y0199273D01*
X0063410Y0199312D01*
X0063263Y0199355D01*
X0063117Y0199402D01*
X0062972Y0199453D01*
X0062829Y0199508D01*
X0062687Y0199566D01*
X0062547Y0199628D01*
X0062408Y0199693D01*
X0062271Y0199762D01*
X0062136Y0199835D01*
X0062003Y0199911D01*
X0061872Y0199991D01*
X0061743Y0200073D01*
X0061616Y0200160D01*
X0061491Y0200249D01*
X0061369Y0200342D01*
X0061250Y0200438D01*
X0061132Y0200537D01*
X0061018Y0200638D01*
X0060906Y0200743D01*
X0060797Y0200851D01*
X0060691Y0200962D01*
X0060587Y0201075D01*
X0060487Y0201191D01*
X0060389Y0201309D01*
X0060295Y0201430D01*
X0060204Y0201553D01*
X0060116Y0201679D01*
X0060032Y0201807D01*
X0059950Y0201937D01*
X0059873Y0202069D01*
X0059798Y0202203D01*
X0059727Y0202339D01*
X0059660Y0202477D01*
X0059596Y0202617D01*
X0059536Y0202758D01*
X0059480Y0202900D01*
X0059427Y0203044D01*
X0059378Y0203190D01*
X0059333Y0203336D01*
X0059292Y0203484D01*
X0059255Y0203632D01*
X0059221Y0203782D01*
X0059191Y0203933D01*
X0059166Y0204084D01*
X0059144Y0204235D01*
X0059126Y0204388D01*
X0059112Y0204540D01*
X0059102Y0204693D01*
X0059096Y0204847D01*
X0059094Y0205000D01*
D11*
X0100000Y0182559D03*
X0100000Y0177441D03*
D12*
X0111654Y0090000D03*
X0118346Y0090000D03*
X0126654Y0090000D03*
X0133346Y0090000D03*
X0131654Y0070000D03*
X0138346Y0070000D03*
X0166654Y0070000D03*
X0173346Y0070000D03*
X0198154Y0070000D03*
X0204846Y0070000D03*
X0211654Y0110000D03*
X0218346Y0110000D03*
X0218346Y0120000D03*
X0211654Y0120000D03*
X0211654Y0130000D03*
X0218346Y0130000D03*
D13*
X0255000Y0156654D03*
X0255000Y0163346D03*
X0237000Y0164654D03*
X0237000Y0171346D03*
X0195000Y0181654D03*
X0195000Y0188346D03*
X0185000Y0188346D03*
X0185000Y0181654D03*
X0175000Y0181654D03*
X0175000Y0188346D03*
X0165000Y0188346D03*
X0165000Y0181654D03*
X0155000Y0181654D03*
X0155000Y0188346D03*
X0145000Y0188346D03*
X0145000Y0181654D03*
X0130000Y0173346D03*
X0130000Y0166654D03*
X0248500Y0051346D03*
X0248500Y0044654D03*
D14*
X0012500Y0056260D03*
X0012500Y0063740D03*
D15*
X0028260Y0037500D03*
X0035740Y0037500D03*
X0035740Y0028500D03*
X0028260Y0028500D03*
D16*
X0247500Y0105500D03*
D17*
X0247500Y0073217D03*
X0247500Y0137783D03*
D18*
X0037500Y0071024D03*
X0032500Y0071024D03*
X0027500Y0071024D03*
X0022500Y0071024D03*
X0022500Y0048976D03*
X0027500Y0048976D03*
X0032500Y0048976D03*
X0037500Y0048976D03*
D19*
X0116063Y0125000D03*
X0123937Y0125000D03*
D20*
X0095000Y0122500D03*
X0095000Y0117500D03*
X0095000Y0112500D03*
X0095000Y0107500D03*
X0095000Y0102500D03*
X0095000Y0097500D03*
X0095000Y0092500D03*
X0095000Y0087500D03*
X0095000Y0082500D03*
X0095000Y0077500D03*
X0095000Y0072500D03*
X0095000Y0067500D03*
X0055000Y0067500D03*
X0055000Y0072500D03*
X0055000Y0077500D03*
X0055000Y0082500D03*
X0055000Y0087500D03*
X0055000Y0092500D03*
X0055000Y0097500D03*
X0055000Y0102500D03*
X0055000Y0107500D03*
X0055000Y0112500D03*
X0055000Y0117500D03*
X0055000Y0122500D03*
X0055000Y0127500D03*
X0055000Y0132500D03*
X0095000Y0132500D03*
X0095000Y0127500D03*
M02*
