%
M48
M72
T01C0.0120
T02C0.0138
T03C0.0236
T04C0.0315
T05C0.0320
T06C0.0354
T07C0.0394
T08C0.0400
T09C0.1181
%
T01
X13520Y8360
X11000Y18500
X10600Y12900
X13800Y7500
X3150Y5550
X6500Y17500
X6500Y16000
X6500Y14500
X6450Y12250
X12114Y8571
X1878Y5618
X2000Y8000
X2000Y9500
X8500Y18500
X4000Y14000
X10146Y9161
X4831Y12705
X1000Y9000
X1500Y12500
X22500Y15500
X22500Y14000
X6680Y11060
X21000Y7000
X20000Y6000
X3260Y4280
X22940Y6200
X14300Y14840
X10460Y6200
X16400Y9260
X14840Y8660
X17240Y8720
X16220Y7040
T02
X21950Y9150
X22900Y14900
T03
X26500Y13000
T04
X11000Y10000
X12000Y10000
X13000Y10000
X14000Y10000
X15000Y10000
X16000Y10000
X18000Y10000
X17000Y10000
X18000Y14000
X13000Y14000
X14000Y14000
X15000Y14000
X17000Y14000
X16000Y14000
X12000Y14000
X11000Y14000
T05
X24500Y18000
X25500Y18000
X21500Y18000
X22500Y18000
T06
X8500Y2720
X8500Y5280
T07
X21500Y20500
X20500Y1500
X22500Y20500
X23500Y20500
X24500Y20500
X25500Y20500
X20500Y20500
X19500Y20500
X18500Y20500
X16900Y20500
X15900Y20500
X14900Y20500
X13900Y20500
X12900Y20500
X11900Y20500
X10900Y20500
X9900Y20500
X21500Y1500
X22500Y1500
X23500Y1500
X24500Y1500
X25500Y1500
X18500Y1500
X17500Y1500
X16500Y1500
X15500Y1500
X14500Y1500
X13500Y1500
X8900Y20500
X7900Y20500
X12500Y1500
X11500Y1500
T08
X21220Y5890
X23780Y5890
X21220Y4110
X23780Y4110
X16720Y5890
X19280Y5890
X16720Y4110
X19280Y4110
X12220Y5890
X14780Y5890
X12220Y4110
X14780Y4110
X19500Y17000
X18500Y17000
X17500Y17000
X16500Y17000
X15500Y17000
X14500Y17000
X14500Y8000
X15500Y8000
X16500Y8000
X17500Y8000
X18500Y8000
X19500Y8000
X21923Y7306
X21923Y8306
X4900Y3800
X4900Y2800
T09
X26500Y14500
X26500Y3500
X6500Y20500
X6000Y1500
M30
