G75*
%MOIN*%
%OFA0B0*%
%FSLAX25Y25*%
%IPPOS*%
%LPD*%
%AMOC8*
5,1,8,0,0,1.08239X$1,22.5*
%
%ADD10C,0.00000*%
%ADD11C,0.07000*%
%ADD12C,0.07400*%
%ADD13OC8,0.06600*%
%ADD14C,0.00600*%
%ADD15C,0.02400*%
%ADD16C,0.01600*%
%ADD17C,0.03562*%
%ADD18C,0.01000*%
%ADD19C,0.02578*%
%ADD20C,0.00800*%
D10*
X0005000Y0005000D02*
X0005000Y0215000D01*
X0259000Y0215000D01*
X0265000Y0209000D01*
X0265000Y0164000D01*
X0275000Y0154000D01*
X0275000Y0025000D01*
X0265000Y0015000D01*
X0265000Y0005000D01*
X0005000Y0005000D01*
X0054094Y0015000D02*
X0054096Y0015153D01*
X0054102Y0015307D01*
X0054112Y0015460D01*
X0054126Y0015612D01*
X0054144Y0015765D01*
X0054166Y0015916D01*
X0054191Y0016067D01*
X0054221Y0016218D01*
X0054255Y0016368D01*
X0054292Y0016516D01*
X0054333Y0016664D01*
X0054378Y0016810D01*
X0054427Y0016956D01*
X0054480Y0017100D01*
X0054536Y0017242D01*
X0054596Y0017383D01*
X0054660Y0017523D01*
X0054727Y0017661D01*
X0054798Y0017797D01*
X0054873Y0017931D01*
X0054950Y0018063D01*
X0055032Y0018193D01*
X0055116Y0018321D01*
X0055204Y0018447D01*
X0055295Y0018570D01*
X0055389Y0018691D01*
X0055487Y0018809D01*
X0055587Y0018925D01*
X0055691Y0019038D01*
X0055797Y0019149D01*
X0055906Y0019257D01*
X0056018Y0019362D01*
X0056132Y0019463D01*
X0056250Y0019562D01*
X0056369Y0019658D01*
X0056491Y0019751D01*
X0056616Y0019840D01*
X0056743Y0019927D01*
X0056872Y0020009D01*
X0057003Y0020089D01*
X0057136Y0020165D01*
X0057271Y0020238D01*
X0057408Y0020307D01*
X0057547Y0020372D01*
X0057687Y0020434D01*
X0057829Y0020492D01*
X0057972Y0020547D01*
X0058117Y0020598D01*
X0058263Y0020645D01*
X0058410Y0020688D01*
X0058558Y0020727D01*
X0058707Y0020763D01*
X0058857Y0020794D01*
X0059008Y0020822D01*
X0059159Y0020846D01*
X0059312Y0020866D01*
X0059464Y0020882D01*
X0059617Y0020894D01*
X0059770Y0020902D01*
X0059923Y0020906D01*
X0060077Y0020906D01*
X0060230Y0020902D01*
X0060383Y0020894D01*
X0060536Y0020882D01*
X0060688Y0020866D01*
X0060841Y0020846D01*
X0060992Y0020822D01*
X0061143Y0020794D01*
X0061293Y0020763D01*
X0061442Y0020727D01*
X0061590Y0020688D01*
X0061737Y0020645D01*
X0061883Y0020598D01*
X0062028Y0020547D01*
X0062171Y0020492D01*
X0062313Y0020434D01*
X0062453Y0020372D01*
X0062592Y0020307D01*
X0062729Y0020238D01*
X0062864Y0020165D01*
X0062997Y0020089D01*
X0063128Y0020009D01*
X0063257Y0019927D01*
X0063384Y0019840D01*
X0063509Y0019751D01*
X0063631Y0019658D01*
X0063750Y0019562D01*
X0063868Y0019463D01*
X0063982Y0019362D01*
X0064094Y0019257D01*
X0064203Y0019149D01*
X0064309Y0019038D01*
X0064413Y0018925D01*
X0064513Y0018809D01*
X0064611Y0018691D01*
X0064705Y0018570D01*
X0064796Y0018447D01*
X0064884Y0018321D01*
X0064968Y0018193D01*
X0065050Y0018063D01*
X0065127Y0017931D01*
X0065202Y0017797D01*
X0065273Y0017661D01*
X0065340Y0017523D01*
X0065404Y0017383D01*
X0065464Y0017242D01*
X0065520Y0017100D01*
X0065573Y0016956D01*
X0065622Y0016810D01*
X0065667Y0016664D01*
X0065708Y0016516D01*
X0065745Y0016368D01*
X0065779Y0016218D01*
X0065809Y0016067D01*
X0065834Y0015916D01*
X0065856Y0015765D01*
X0065874Y0015612D01*
X0065888Y0015460D01*
X0065898Y0015307D01*
X0065904Y0015153D01*
X0065906Y0015000D01*
X0065904Y0014847D01*
X0065898Y0014693D01*
X0065888Y0014540D01*
X0065874Y0014388D01*
X0065856Y0014235D01*
X0065834Y0014084D01*
X0065809Y0013933D01*
X0065779Y0013782D01*
X0065745Y0013632D01*
X0065708Y0013484D01*
X0065667Y0013336D01*
X0065622Y0013190D01*
X0065573Y0013044D01*
X0065520Y0012900D01*
X0065464Y0012758D01*
X0065404Y0012617D01*
X0065340Y0012477D01*
X0065273Y0012339D01*
X0065202Y0012203D01*
X0065127Y0012069D01*
X0065050Y0011937D01*
X0064968Y0011807D01*
X0064884Y0011679D01*
X0064796Y0011553D01*
X0064705Y0011430D01*
X0064611Y0011309D01*
X0064513Y0011191D01*
X0064413Y0011075D01*
X0064309Y0010962D01*
X0064203Y0010851D01*
X0064094Y0010743D01*
X0063982Y0010638D01*
X0063868Y0010537D01*
X0063750Y0010438D01*
X0063631Y0010342D01*
X0063509Y0010249D01*
X0063384Y0010160D01*
X0063257Y0010073D01*
X0063128Y0009991D01*
X0062997Y0009911D01*
X0062864Y0009835D01*
X0062729Y0009762D01*
X0062592Y0009693D01*
X0062453Y0009628D01*
X0062313Y0009566D01*
X0062171Y0009508D01*
X0062028Y0009453D01*
X0061883Y0009402D01*
X0061737Y0009355D01*
X0061590Y0009312D01*
X0061442Y0009273D01*
X0061293Y0009237D01*
X0061143Y0009206D01*
X0060992Y0009178D01*
X0060841Y0009154D01*
X0060688Y0009134D01*
X0060536Y0009118D01*
X0060383Y0009106D01*
X0060230Y0009098D01*
X0060077Y0009094D01*
X0059923Y0009094D01*
X0059770Y0009098D01*
X0059617Y0009106D01*
X0059464Y0009118D01*
X0059312Y0009134D01*
X0059159Y0009154D01*
X0059008Y0009178D01*
X0058857Y0009206D01*
X0058707Y0009237D01*
X0058558Y0009273D01*
X0058410Y0009312D01*
X0058263Y0009355D01*
X0058117Y0009402D01*
X0057972Y0009453D01*
X0057829Y0009508D01*
X0057687Y0009566D01*
X0057547Y0009628D01*
X0057408Y0009693D01*
X0057271Y0009762D01*
X0057136Y0009835D01*
X0057003Y0009911D01*
X0056872Y0009991D01*
X0056743Y0010073D01*
X0056616Y0010160D01*
X0056491Y0010249D01*
X0056369Y0010342D01*
X0056250Y0010438D01*
X0056132Y0010537D01*
X0056018Y0010638D01*
X0055906Y0010743D01*
X0055797Y0010851D01*
X0055691Y0010962D01*
X0055587Y0011075D01*
X0055487Y0011191D01*
X0055389Y0011309D01*
X0055295Y0011430D01*
X0055204Y0011553D01*
X0055116Y0011679D01*
X0055032Y0011807D01*
X0054950Y0011937D01*
X0054873Y0012069D01*
X0054798Y0012203D01*
X0054727Y0012339D01*
X0054660Y0012477D01*
X0054596Y0012617D01*
X0054536Y0012758D01*
X0054480Y0012900D01*
X0054427Y0013044D01*
X0054378Y0013190D01*
X0054333Y0013336D01*
X0054292Y0013484D01*
X0054255Y0013632D01*
X0054221Y0013782D01*
X0054191Y0013933D01*
X0054166Y0014084D01*
X0054144Y0014235D01*
X0054126Y0014388D01*
X0054112Y0014540D01*
X0054102Y0014693D01*
X0054096Y0014847D01*
X0054094Y0015000D01*
X0259094Y0035000D02*
X0259096Y0035153D01*
X0259102Y0035307D01*
X0259112Y0035460D01*
X0259126Y0035612D01*
X0259144Y0035765D01*
X0259166Y0035916D01*
X0259191Y0036067D01*
X0259221Y0036218D01*
X0259255Y0036368D01*
X0259292Y0036516D01*
X0259333Y0036664D01*
X0259378Y0036810D01*
X0259427Y0036956D01*
X0259480Y0037100D01*
X0259536Y0037242D01*
X0259596Y0037383D01*
X0259660Y0037523D01*
X0259727Y0037661D01*
X0259798Y0037797D01*
X0259873Y0037931D01*
X0259950Y0038063D01*
X0260032Y0038193D01*
X0260116Y0038321D01*
X0260204Y0038447D01*
X0260295Y0038570D01*
X0260389Y0038691D01*
X0260487Y0038809D01*
X0260587Y0038925D01*
X0260691Y0039038D01*
X0260797Y0039149D01*
X0260906Y0039257D01*
X0261018Y0039362D01*
X0261132Y0039463D01*
X0261250Y0039562D01*
X0261369Y0039658D01*
X0261491Y0039751D01*
X0261616Y0039840D01*
X0261743Y0039927D01*
X0261872Y0040009D01*
X0262003Y0040089D01*
X0262136Y0040165D01*
X0262271Y0040238D01*
X0262408Y0040307D01*
X0262547Y0040372D01*
X0262687Y0040434D01*
X0262829Y0040492D01*
X0262972Y0040547D01*
X0263117Y0040598D01*
X0263263Y0040645D01*
X0263410Y0040688D01*
X0263558Y0040727D01*
X0263707Y0040763D01*
X0263857Y0040794D01*
X0264008Y0040822D01*
X0264159Y0040846D01*
X0264312Y0040866D01*
X0264464Y0040882D01*
X0264617Y0040894D01*
X0264770Y0040902D01*
X0264923Y0040906D01*
X0265077Y0040906D01*
X0265230Y0040902D01*
X0265383Y0040894D01*
X0265536Y0040882D01*
X0265688Y0040866D01*
X0265841Y0040846D01*
X0265992Y0040822D01*
X0266143Y0040794D01*
X0266293Y0040763D01*
X0266442Y0040727D01*
X0266590Y0040688D01*
X0266737Y0040645D01*
X0266883Y0040598D01*
X0267028Y0040547D01*
X0267171Y0040492D01*
X0267313Y0040434D01*
X0267453Y0040372D01*
X0267592Y0040307D01*
X0267729Y0040238D01*
X0267864Y0040165D01*
X0267997Y0040089D01*
X0268128Y0040009D01*
X0268257Y0039927D01*
X0268384Y0039840D01*
X0268509Y0039751D01*
X0268631Y0039658D01*
X0268750Y0039562D01*
X0268868Y0039463D01*
X0268982Y0039362D01*
X0269094Y0039257D01*
X0269203Y0039149D01*
X0269309Y0039038D01*
X0269413Y0038925D01*
X0269513Y0038809D01*
X0269611Y0038691D01*
X0269705Y0038570D01*
X0269796Y0038447D01*
X0269884Y0038321D01*
X0269968Y0038193D01*
X0270050Y0038063D01*
X0270127Y0037931D01*
X0270202Y0037797D01*
X0270273Y0037661D01*
X0270340Y0037523D01*
X0270404Y0037383D01*
X0270464Y0037242D01*
X0270520Y0037100D01*
X0270573Y0036956D01*
X0270622Y0036810D01*
X0270667Y0036664D01*
X0270708Y0036516D01*
X0270745Y0036368D01*
X0270779Y0036218D01*
X0270809Y0036067D01*
X0270834Y0035916D01*
X0270856Y0035765D01*
X0270874Y0035612D01*
X0270888Y0035460D01*
X0270898Y0035307D01*
X0270904Y0035153D01*
X0270906Y0035000D01*
X0270904Y0034847D01*
X0270898Y0034693D01*
X0270888Y0034540D01*
X0270874Y0034388D01*
X0270856Y0034235D01*
X0270834Y0034084D01*
X0270809Y0033933D01*
X0270779Y0033782D01*
X0270745Y0033632D01*
X0270708Y0033484D01*
X0270667Y0033336D01*
X0270622Y0033190D01*
X0270573Y0033044D01*
X0270520Y0032900D01*
X0270464Y0032758D01*
X0270404Y0032617D01*
X0270340Y0032477D01*
X0270273Y0032339D01*
X0270202Y0032203D01*
X0270127Y0032069D01*
X0270050Y0031937D01*
X0269968Y0031807D01*
X0269884Y0031679D01*
X0269796Y0031553D01*
X0269705Y0031430D01*
X0269611Y0031309D01*
X0269513Y0031191D01*
X0269413Y0031075D01*
X0269309Y0030962D01*
X0269203Y0030851D01*
X0269094Y0030743D01*
X0268982Y0030638D01*
X0268868Y0030537D01*
X0268750Y0030438D01*
X0268631Y0030342D01*
X0268509Y0030249D01*
X0268384Y0030160D01*
X0268257Y0030073D01*
X0268128Y0029991D01*
X0267997Y0029911D01*
X0267864Y0029835D01*
X0267729Y0029762D01*
X0267592Y0029693D01*
X0267453Y0029628D01*
X0267313Y0029566D01*
X0267171Y0029508D01*
X0267028Y0029453D01*
X0266883Y0029402D01*
X0266737Y0029355D01*
X0266590Y0029312D01*
X0266442Y0029273D01*
X0266293Y0029237D01*
X0266143Y0029206D01*
X0265992Y0029178D01*
X0265841Y0029154D01*
X0265688Y0029134D01*
X0265536Y0029118D01*
X0265383Y0029106D01*
X0265230Y0029098D01*
X0265077Y0029094D01*
X0264923Y0029094D01*
X0264770Y0029098D01*
X0264617Y0029106D01*
X0264464Y0029118D01*
X0264312Y0029134D01*
X0264159Y0029154D01*
X0264008Y0029178D01*
X0263857Y0029206D01*
X0263707Y0029237D01*
X0263558Y0029273D01*
X0263410Y0029312D01*
X0263263Y0029355D01*
X0263117Y0029402D01*
X0262972Y0029453D01*
X0262829Y0029508D01*
X0262687Y0029566D01*
X0262547Y0029628D01*
X0262408Y0029693D01*
X0262271Y0029762D01*
X0262136Y0029835D01*
X0262003Y0029911D01*
X0261872Y0029991D01*
X0261743Y0030073D01*
X0261616Y0030160D01*
X0261491Y0030249D01*
X0261369Y0030342D01*
X0261250Y0030438D01*
X0261132Y0030537D01*
X0261018Y0030638D01*
X0260906Y0030743D01*
X0260797Y0030851D01*
X0260691Y0030962D01*
X0260587Y0031075D01*
X0260487Y0031191D01*
X0260389Y0031309D01*
X0260295Y0031430D01*
X0260204Y0031553D01*
X0260116Y0031679D01*
X0260032Y0031807D01*
X0259950Y0031937D01*
X0259873Y0032069D01*
X0259798Y0032203D01*
X0259727Y0032339D01*
X0259660Y0032477D01*
X0259596Y0032617D01*
X0259536Y0032758D01*
X0259480Y0032900D01*
X0259427Y0033044D01*
X0259378Y0033190D01*
X0259333Y0033336D01*
X0259292Y0033484D01*
X0259255Y0033632D01*
X0259221Y0033782D01*
X0259191Y0033933D01*
X0259166Y0034084D01*
X0259144Y0034235D01*
X0259126Y0034388D01*
X0259112Y0034540D01*
X0259102Y0034693D01*
X0259096Y0034847D01*
X0259094Y0035000D01*
X0259094Y0145000D02*
X0259096Y0145153D01*
X0259102Y0145307D01*
X0259112Y0145460D01*
X0259126Y0145612D01*
X0259144Y0145765D01*
X0259166Y0145916D01*
X0259191Y0146067D01*
X0259221Y0146218D01*
X0259255Y0146368D01*
X0259292Y0146516D01*
X0259333Y0146664D01*
X0259378Y0146810D01*
X0259427Y0146956D01*
X0259480Y0147100D01*
X0259536Y0147242D01*
X0259596Y0147383D01*
X0259660Y0147523D01*
X0259727Y0147661D01*
X0259798Y0147797D01*
X0259873Y0147931D01*
X0259950Y0148063D01*
X0260032Y0148193D01*
X0260116Y0148321D01*
X0260204Y0148447D01*
X0260295Y0148570D01*
X0260389Y0148691D01*
X0260487Y0148809D01*
X0260587Y0148925D01*
X0260691Y0149038D01*
X0260797Y0149149D01*
X0260906Y0149257D01*
X0261018Y0149362D01*
X0261132Y0149463D01*
X0261250Y0149562D01*
X0261369Y0149658D01*
X0261491Y0149751D01*
X0261616Y0149840D01*
X0261743Y0149927D01*
X0261872Y0150009D01*
X0262003Y0150089D01*
X0262136Y0150165D01*
X0262271Y0150238D01*
X0262408Y0150307D01*
X0262547Y0150372D01*
X0262687Y0150434D01*
X0262829Y0150492D01*
X0262972Y0150547D01*
X0263117Y0150598D01*
X0263263Y0150645D01*
X0263410Y0150688D01*
X0263558Y0150727D01*
X0263707Y0150763D01*
X0263857Y0150794D01*
X0264008Y0150822D01*
X0264159Y0150846D01*
X0264312Y0150866D01*
X0264464Y0150882D01*
X0264617Y0150894D01*
X0264770Y0150902D01*
X0264923Y0150906D01*
X0265077Y0150906D01*
X0265230Y0150902D01*
X0265383Y0150894D01*
X0265536Y0150882D01*
X0265688Y0150866D01*
X0265841Y0150846D01*
X0265992Y0150822D01*
X0266143Y0150794D01*
X0266293Y0150763D01*
X0266442Y0150727D01*
X0266590Y0150688D01*
X0266737Y0150645D01*
X0266883Y0150598D01*
X0267028Y0150547D01*
X0267171Y0150492D01*
X0267313Y0150434D01*
X0267453Y0150372D01*
X0267592Y0150307D01*
X0267729Y0150238D01*
X0267864Y0150165D01*
X0267997Y0150089D01*
X0268128Y0150009D01*
X0268257Y0149927D01*
X0268384Y0149840D01*
X0268509Y0149751D01*
X0268631Y0149658D01*
X0268750Y0149562D01*
X0268868Y0149463D01*
X0268982Y0149362D01*
X0269094Y0149257D01*
X0269203Y0149149D01*
X0269309Y0149038D01*
X0269413Y0148925D01*
X0269513Y0148809D01*
X0269611Y0148691D01*
X0269705Y0148570D01*
X0269796Y0148447D01*
X0269884Y0148321D01*
X0269968Y0148193D01*
X0270050Y0148063D01*
X0270127Y0147931D01*
X0270202Y0147797D01*
X0270273Y0147661D01*
X0270340Y0147523D01*
X0270404Y0147383D01*
X0270464Y0147242D01*
X0270520Y0147100D01*
X0270573Y0146956D01*
X0270622Y0146810D01*
X0270667Y0146664D01*
X0270708Y0146516D01*
X0270745Y0146368D01*
X0270779Y0146218D01*
X0270809Y0146067D01*
X0270834Y0145916D01*
X0270856Y0145765D01*
X0270874Y0145612D01*
X0270888Y0145460D01*
X0270898Y0145307D01*
X0270904Y0145153D01*
X0270906Y0145000D01*
X0270904Y0144847D01*
X0270898Y0144693D01*
X0270888Y0144540D01*
X0270874Y0144388D01*
X0270856Y0144235D01*
X0270834Y0144084D01*
X0270809Y0143933D01*
X0270779Y0143782D01*
X0270745Y0143632D01*
X0270708Y0143484D01*
X0270667Y0143336D01*
X0270622Y0143190D01*
X0270573Y0143044D01*
X0270520Y0142900D01*
X0270464Y0142758D01*
X0270404Y0142617D01*
X0270340Y0142477D01*
X0270273Y0142339D01*
X0270202Y0142203D01*
X0270127Y0142069D01*
X0270050Y0141937D01*
X0269968Y0141807D01*
X0269884Y0141679D01*
X0269796Y0141553D01*
X0269705Y0141430D01*
X0269611Y0141309D01*
X0269513Y0141191D01*
X0269413Y0141075D01*
X0269309Y0140962D01*
X0269203Y0140851D01*
X0269094Y0140743D01*
X0268982Y0140638D01*
X0268868Y0140537D01*
X0268750Y0140438D01*
X0268631Y0140342D01*
X0268509Y0140249D01*
X0268384Y0140160D01*
X0268257Y0140073D01*
X0268128Y0139991D01*
X0267997Y0139911D01*
X0267864Y0139835D01*
X0267729Y0139762D01*
X0267592Y0139693D01*
X0267453Y0139628D01*
X0267313Y0139566D01*
X0267171Y0139508D01*
X0267028Y0139453D01*
X0266883Y0139402D01*
X0266737Y0139355D01*
X0266590Y0139312D01*
X0266442Y0139273D01*
X0266293Y0139237D01*
X0266143Y0139206D01*
X0265992Y0139178D01*
X0265841Y0139154D01*
X0265688Y0139134D01*
X0265536Y0139118D01*
X0265383Y0139106D01*
X0265230Y0139098D01*
X0265077Y0139094D01*
X0264923Y0139094D01*
X0264770Y0139098D01*
X0264617Y0139106D01*
X0264464Y0139118D01*
X0264312Y0139134D01*
X0264159Y0139154D01*
X0264008Y0139178D01*
X0263857Y0139206D01*
X0263707Y0139237D01*
X0263558Y0139273D01*
X0263410Y0139312D01*
X0263263Y0139355D01*
X0263117Y0139402D01*
X0262972Y0139453D01*
X0262829Y0139508D01*
X0262687Y0139566D01*
X0262547Y0139628D01*
X0262408Y0139693D01*
X0262271Y0139762D01*
X0262136Y0139835D01*
X0262003Y0139911D01*
X0261872Y0139991D01*
X0261743Y0140073D01*
X0261616Y0140160D01*
X0261491Y0140249D01*
X0261369Y0140342D01*
X0261250Y0140438D01*
X0261132Y0140537D01*
X0261018Y0140638D01*
X0260906Y0140743D01*
X0260797Y0140851D01*
X0260691Y0140962D01*
X0260587Y0141075D01*
X0260487Y0141191D01*
X0260389Y0141309D01*
X0260295Y0141430D01*
X0260204Y0141553D01*
X0260116Y0141679D01*
X0260032Y0141807D01*
X0259950Y0141937D01*
X0259873Y0142069D01*
X0259798Y0142203D01*
X0259727Y0142339D01*
X0259660Y0142477D01*
X0259596Y0142617D01*
X0259536Y0142758D01*
X0259480Y0142900D01*
X0259427Y0143044D01*
X0259378Y0143190D01*
X0259333Y0143336D01*
X0259292Y0143484D01*
X0259255Y0143632D01*
X0259221Y0143782D01*
X0259191Y0143933D01*
X0259166Y0144084D01*
X0259144Y0144235D01*
X0259126Y0144388D01*
X0259112Y0144540D01*
X0259102Y0144693D01*
X0259096Y0144847D01*
X0259094Y0145000D01*
X0059094Y0205000D02*
X0059096Y0205153D01*
X0059102Y0205307D01*
X0059112Y0205460D01*
X0059126Y0205612D01*
X0059144Y0205765D01*
X0059166Y0205916D01*
X0059191Y0206067D01*
X0059221Y0206218D01*
X0059255Y0206368D01*
X0059292Y0206516D01*
X0059333Y0206664D01*
X0059378Y0206810D01*
X0059427Y0206956D01*
X0059480Y0207100D01*
X0059536Y0207242D01*
X0059596Y0207383D01*
X0059660Y0207523D01*
X0059727Y0207661D01*
X0059798Y0207797D01*
X0059873Y0207931D01*
X0059950Y0208063D01*
X0060032Y0208193D01*
X0060116Y0208321D01*
X0060204Y0208447D01*
X0060295Y0208570D01*
X0060389Y0208691D01*
X0060487Y0208809D01*
X0060587Y0208925D01*
X0060691Y0209038D01*
X0060797Y0209149D01*
X0060906Y0209257D01*
X0061018Y0209362D01*
X0061132Y0209463D01*
X0061250Y0209562D01*
X0061369Y0209658D01*
X0061491Y0209751D01*
X0061616Y0209840D01*
X0061743Y0209927D01*
X0061872Y0210009D01*
X0062003Y0210089D01*
X0062136Y0210165D01*
X0062271Y0210238D01*
X0062408Y0210307D01*
X0062547Y0210372D01*
X0062687Y0210434D01*
X0062829Y0210492D01*
X0062972Y0210547D01*
X0063117Y0210598D01*
X0063263Y0210645D01*
X0063410Y0210688D01*
X0063558Y0210727D01*
X0063707Y0210763D01*
X0063857Y0210794D01*
X0064008Y0210822D01*
X0064159Y0210846D01*
X0064312Y0210866D01*
X0064464Y0210882D01*
X0064617Y0210894D01*
X0064770Y0210902D01*
X0064923Y0210906D01*
X0065077Y0210906D01*
X0065230Y0210902D01*
X0065383Y0210894D01*
X0065536Y0210882D01*
X0065688Y0210866D01*
X0065841Y0210846D01*
X0065992Y0210822D01*
X0066143Y0210794D01*
X0066293Y0210763D01*
X0066442Y0210727D01*
X0066590Y0210688D01*
X0066737Y0210645D01*
X0066883Y0210598D01*
X0067028Y0210547D01*
X0067171Y0210492D01*
X0067313Y0210434D01*
X0067453Y0210372D01*
X0067592Y0210307D01*
X0067729Y0210238D01*
X0067864Y0210165D01*
X0067997Y0210089D01*
X0068128Y0210009D01*
X0068257Y0209927D01*
X0068384Y0209840D01*
X0068509Y0209751D01*
X0068631Y0209658D01*
X0068750Y0209562D01*
X0068868Y0209463D01*
X0068982Y0209362D01*
X0069094Y0209257D01*
X0069203Y0209149D01*
X0069309Y0209038D01*
X0069413Y0208925D01*
X0069513Y0208809D01*
X0069611Y0208691D01*
X0069705Y0208570D01*
X0069796Y0208447D01*
X0069884Y0208321D01*
X0069968Y0208193D01*
X0070050Y0208063D01*
X0070127Y0207931D01*
X0070202Y0207797D01*
X0070273Y0207661D01*
X0070340Y0207523D01*
X0070404Y0207383D01*
X0070464Y0207242D01*
X0070520Y0207100D01*
X0070573Y0206956D01*
X0070622Y0206810D01*
X0070667Y0206664D01*
X0070708Y0206516D01*
X0070745Y0206368D01*
X0070779Y0206218D01*
X0070809Y0206067D01*
X0070834Y0205916D01*
X0070856Y0205765D01*
X0070874Y0205612D01*
X0070888Y0205460D01*
X0070898Y0205307D01*
X0070904Y0205153D01*
X0070906Y0205000D01*
X0070904Y0204847D01*
X0070898Y0204693D01*
X0070888Y0204540D01*
X0070874Y0204388D01*
X0070856Y0204235D01*
X0070834Y0204084D01*
X0070809Y0203933D01*
X0070779Y0203782D01*
X0070745Y0203632D01*
X0070708Y0203484D01*
X0070667Y0203336D01*
X0070622Y0203190D01*
X0070573Y0203044D01*
X0070520Y0202900D01*
X0070464Y0202758D01*
X0070404Y0202617D01*
X0070340Y0202477D01*
X0070273Y0202339D01*
X0070202Y0202203D01*
X0070127Y0202069D01*
X0070050Y0201937D01*
X0069968Y0201807D01*
X0069884Y0201679D01*
X0069796Y0201553D01*
X0069705Y0201430D01*
X0069611Y0201309D01*
X0069513Y0201191D01*
X0069413Y0201075D01*
X0069309Y0200962D01*
X0069203Y0200851D01*
X0069094Y0200743D01*
X0068982Y0200638D01*
X0068868Y0200537D01*
X0068750Y0200438D01*
X0068631Y0200342D01*
X0068509Y0200249D01*
X0068384Y0200160D01*
X0068257Y0200073D01*
X0068128Y0199991D01*
X0067997Y0199911D01*
X0067864Y0199835D01*
X0067729Y0199762D01*
X0067592Y0199693D01*
X0067453Y0199628D01*
X0067313Y0199566D01*
X0067171Y0199508D01*
X0067028Y0199453D01*
X0066883Y0199402D01*
X0066737Y0199355D01*
X0066590Y0199312D01*
X0066442Y0199273D01*
X0066293Y0199237D01*
X0066143Y0199206D01*
X0065992Y0199178D01*
X0065841Y0199154D01*
X0065688Y0199134D01*
X0065536Y0199118D01*
X0065383Y0199106D01*
X0065230Y0199098D01*
X0065077Y0199094D01*
X0064923Y0199094D01*
X0064770Y0199098D01*
X0064617Y0199106D01*
X0064464Y0199118D01*
X0064312Y0199134D01*
X0064159Y0199154D01*
X0064008Y0199178D01*
X0063857Y0199206D01*
X0063707Y0199237D01*
X0063558Y0199273D01*
X0063410Y0199312D01*
X0063263Y0199355D01*
X0063117Y0199402D01*
X0062972Y0199453D01*
X0062829Y0199508D01*
X0062687Y0199566D01*
X0062547Y0199628D01*
X0062408Y0199693D01*
X0062271Y0199762D01*
X0062136Y0199835D01*
X0062003Y0199911D01*
X0061872Y0199991D01*
X0061743Y0200073D01*
X0061616Y0200160D01*
X0061491Y0200249D01*
X0061369Y0200342D01*
X0061250Y0200438D01*
X0061132Y0200537D01*
X0061018Y0200638D01*
X0060906Y0200743D01*
X0060797Y0200851D01*
X0060691Y0200962D01*
X0060587Y0201075D01*
X0060487Y0201191D01*
X0060389Y0201309D01*
X0060295Y0201430D01*
X0060204Y0201553D01*
X0060116Y0201679D01*
X0060032Y0201807D01*
X0059950Y0201937D01*
X0059873Y0202069D01*
X0059798Y0202203D01*
X0059727Y0202339D01*
X0059660Y0202477D01*
X0059596Y0202617D01*
X0059536Y0202758D01*
X0059480Y0202900D01*
X0059427Y0203044D01*
X0059378Y0203190D01*
X0059333Y0203336D01*
X0059292Y0203484D01*
X0059255Y0203632D01*
X0059221Y0203782D01*
X0059191Y0203933D01*
X0059166Y0204084D01*
X0059144Y0204235D01*
X0059126Y0204388D01*
X0059112Y0204540D01*
X0059102Y0204693D01*
X0059096Y0204847D01*
X0059094Y0205000D01*
D11*
X0110000Y0140000D03*
X0120000Y0140000D03*
X0130000Y0140000D03*
X0140000Y0140000D03*
X0150000Y0140000D03*
X0160000Y0140000D03*
X0170000Y0140000D03*
X0180000Y0140000D03*
X0180000Y0100000D03*
X0170000Y0100000D03*
X0160000Y0100000D03*
X0150000Y0100000D03*
X0140000Y0100000D03*
X0130000Y0100000D03*
X0120000Y0100000D03*
X0110000Y0100000D03*
X0085000Y0052795D03*
X0085000Y0027205D03*
D12*
X0049000Y0028000D03*
X0049000Y0038000D03*
X0122200Y0041100D03*
X0122200Y0058900D03*
X0147800Y0058900D03*
X0167200Y0058900D03*
X0167200Y0041100D03*
X0147800Y0041100D03*
X0192800Y0041100D03*
X0212200Y0041100D03*
X0212200Y0058900D03*
X0219232Y0073061D03*
X0219232Y0083061D03*
X0195000Y0080000D03*
X0185000Y0080000D03*
X0175000Y0080000D03*
X0165000Y0080000D03*
X0155000Y0080000D03*
X0145000Y0080000D03*
X0192800Y0058900D03*
X0237800Y0058900D03*
X0237800Y0041100D03*
X0195000Y0170000D03*
X0185000Y0170000D03*
X0175000Y0170000D03*
X0165000Y0170000D03*
X0155000Y0170000D03*
X0145000Y0170000D03*
X0215000Y0180000D03*
X0225000Y0180000D03*
X0245000Y0180000D03*
X0255000Y0180000D03*
D13*
X0255000Y0205000D03*
X0245000Y0205000D03*
X0235000Y0205000D03*
X0225000Y0205000D03*
X0215000Y0205000D03*
X0205000Y0205000D03*
X0195000Y0205000D03*
X0185000Y0205000D03*
X0169000Y0205000D03*
X0159000Y0205000D03*
X0149000Y0205000D03*
X0139000Y0205000D03*
X0129000Y0205000D03*
X0119000Y0205000D03*
X0109000Y0205000D03*
X0099000Y0205000D03*
X0089000Y0205000D03*
X0079000Y0205000D03*
X0115000Y0015000D03*
X0125000Y0015000D03*
X0135000Y0015000D03*
X0145000Y0015000D03*
X0155000Y0015000D03*
X0165000Y0015000D03*
X0175000Y0015000D03*
X0185000Y0015000D03*
X0205000Y0015000D03*
X0215000Y0015000D03*
X0225000Y0015000D03*
X0235000Y0015000D03*
X0245000Y0015000D03*
X0255000Y0015000D03*
D14*
X0235000Y0015000D02*
X0220400Y0029600D01*
X0220400Y0051200D01*
X0228800Y0059600D01*
X0230000Y0059600D01*
X0231800Y0061400D01*
X0231800Y0148400D01*
X0236000Y0152600D01*
X0236000Y0155600D01*
X0236600Y0156200D01*
X0236600Y0171200D01*
X0245000Y0179600D01*
X0245000Y0180000D01*
X0234200Y0195800D02*
X0234200Y0157400D01*
X0233600Y0156800D01*
X0227441Y0135000D02*
X0227441Y0105394D01*
X0186102Y0064055D01*
X0172323Y0064055D01*
X0172489Y0063889D01*
X0162200Y0070400D02*
X0170000Y0078200D01*
X0170000Y0081800D01*
X0172400Y0084200D01*
X0172400Y0087200D01*
X0174200Y0092600D02*
X0179600Y0098000D01*
X0179600Y0099800D01*
X0180000Y0100000D01*
X0174200Y0092600D02*
X0164000Y0092600D01*
X0156200Y0097400D02*
X0156200Y0085400D01*
X0160400Y0081200D01*
X0160400Y0077600D01*
X0161000Y0077000D01*
X0161000Y0075200D01*
X0159800Y0074000D01*
X0159800Y0069800D01*
X0157400Y0067400D01*
X0157400Y0051200D01*
X0161600Y0047000D01*
X0173000Y0047000D01*
X0205000Y0015000D01*
X0213200Y0006800D02*
X0219200Y0012800D01*
X0219200Y0051800D01*
X0229400Y0062000D01*
X0212600Y0059000D02*
X0212200Y0058900D01*
X0167200Y0041100D02*
X0166400Y0040400D01*
X0155000Y0051800D01*
X0155000Y0080000D01*
X0145000Y0080000D01*
X0144800Y0080000D01*
X0141200Y0083600D01*
X0135200Y0083600D01*
X0127400Y0084800D02*
X0126800Y0084200D01*
X0126800Y0056600D01*
X0123200Y0053000D01*
X0116600Y0053000D01*
X0107600Y0062000D01*
X0104600Y0062000D01*
X0122200Y0058900D02*
X0122600Y0059000D01*
X0125600Y0062000D01*
X0125600Y0084800D01*
X0126200Y0085400D01*
X0126200Y0097400D01*
X0125600Y0098000D01*
X0125600Y0102200D01*
X0126200Y0102800D01*
X0126200Y0137000D01*
X0125600Y0137600D01*
X0125600Y0142400D01*
X0128000Y0144800D01*
X0128000Y0164600D01*
X0144800Y0181400D01*
X0144800Y0207200D01*
X0150800Y0213200D01*
X0207200Y0213200D01*
X0215000Y0205400D01*
X0215000Y0205000D01*
X0225000Y0205000D02*
X0234200Y0195800D01*
X0156200Y0168800D02*
X0156200Y0143000D01*
X0155600Y0142400D01*
X0155600Y0137600D01*
X0156200Y0137000D01*
X0156200Y0102800D01*
X0155600Y0102200D01*
X0155600Y0098000D01*
X0156200Y0097400D01*
X0150000Y0100000D02*
X0149600Y0099800D01*
X0148400Y0098600D01*
X0148400Y0086600D01*
X0130000Y0100000D02*
X0127400Y0097400D01*
X0127400Y0084800D01*
X0121142Y0085709D02*
X0111299Y0085709D01*
X0073898Y0123110D01*
X0064055Y0123110D01*
X0064500Y0122500D01*
X0054213Y0127047D02*
X0048307Y0127047D01*
X0054213Y0127047D02*
X0089646Y0091614D01*
X0101457Y0091614D01*
X0066800Y0110600D02*
X0066800Y0045800D01*
X0084800Y0027800D01*
X0085000Y0027205D01*
X0057800Y0006800D02*
X0213200Y0006800D01*
X0167200Y0041100D02*
X0167000Y0041000D01*
X0166400Y0040400D01*
X0155000Y0029000D01*
X0148400Y0029000D01*
X0136400Y0041000D01*
X0122600Y0041000D01*
X0122200Y0041100D01*
X0155000Y0029000D02*
X0155000Y0015000D01*
X0057800Y0006800D02*
X0032600Y0032000D01*
X0032600Y0042800D01*
X0026161Y0108839D02*
X0062087Y0144764D01*
X0064055Y0144764D01*
X0065000Y0145000D01*
X0143000Y0148400D02*
X0149600Y0141800D01*
X0149600Y0140000D01*
X0150000Y0140000D01*
X0156200Y0168800D02*
X0155000Y0170000D01*
D15*
X0143000Y0148400D03*
X0106000Y0129000D03*
X0064500Y0122500D03*
X0066800Y0110600D03*
X0048307Y0127047D03*
X0040000Y0140000D03*
X0065000Y0145000D03*
X0065000Y0160000D03*
X0065000Y0175000D03*
X0085000Y0185000D03*
X0110000Y0185000D03*
X0015000Y0125000D03*
X0020000Y0095000D03*
X0010000Y0090000D03*
X0020000Y0080000D03*
X0018780Y0056181D03*
X0031500Y0055500D03*
X0032600Y0042800D03*
X0101457Y0091614D03*
X0121142Y0085709D03*
X0135200Y0083600D03*
X0138000Y0075000D03*
X0148400Y0086600D03*
X0164000Y0092600D03*
X0172400Y0087200D03*
X0162200Y0070400D03*
X0200000Y0060000D03*
X0210000Y0070000D03*
X0229400Y0062000D03*
X0225000Y0140000D03*
X0225000Y0155000D03*
X0104600Y0062000D03*
D16*
X0102222Y0060948D02*
X0068500Y0060948D01*
X0068500Y0062546D02*
X0102012Y0062546D01*
X0102000Y0062517D02*
X0102000Y0061483D01*
X0102396Y0060527D01*
X0103127Y0059796D01*
X0104083Y0059400D01*
X0105117Y0059400D01*
X0106073Y0059796D01*
X0106577Y0060300D01*
X0106896Y0060300D01*
X0114900Y0052296D01*
X0115896Y0051300D01*
X0123904Y0051300D01*
X0127504Y0054900D01*
X0128500Y0055896D01*
X0128500Y0083496D01*
X0129100Y0084096D01*
X0129100Y0095100D01*
X0130975Y0095100D01*
X0132776Y0095846D01*
X0134154Y0097224D01*
X0134900Y0099025D01*
X0134900Y0100975D01*
X0134154Y0102776D01*
X0132776Y0104154D01*
X0130975Y0104900D01*
X0129025Y0104900D01*
X0127900Y0104434D01*
X0127900Y0135566D01*
X0129025Y0135100D01*
X0130975Y0135100D01*
X0132776Y0135846D01*
X0134154Y0137224D01*
X0134900Y0139025D01*
X0134900Y0140975D01*
X0134154Y0142776D01*
X0132776Y0144154D01*
X0130975Y0144900D01*
X0129700Y0144900D01*
X0129700Y0163896D01*
X0146500Y0180696D01*
X0146500Y0200853D01*
X0147053Y0200300D01*
X0150947Y0200300D01*
X0153700Y0203053D01*
X0153700Y0206947D01*
X0150947Y0209700D01*
X0149704Y0209700D01*
X0151504Y0211500D01*
X0206496Y0211500D01*
X0210675Y0207321D01*
X0210300Y0206947D01*
X0210300Y0203053D01*
X0213053Y0200300D01*
X0216947Y0200300D01*
X0219700Y0203053D01*
X0219700Y0206947D01*
X0216947Y0209700D01*
X0213104Y0209700D01*
X0209604Y0213200D01*
X0258254Y0213200D01*
X0263200Y0208254D01*
X0263200Y0163254D01*
X0264254Y0162200D01*
X0273200Y0153254D01*
X0273200Y0025746D01*
X0263200Y0015746D01*
X0263200Y0006800D01*
X0215604Y0006800D01*
X0219904Y0011100D01*
X0220900Y0012096D01*
X0220900Y0012453D01*
X0223053Y0010300D01*
X0226947Y0010300D01*
X0229700Y0013053D01*
X0229700Y0016947D01*
X0226947Y0019700D01*
X0223053Y0019700D01*
X0220900Y0017547D01*
X0220900Y0026696D01*
X0230475Y0017121D01*
X0230300Y0016947D01*
X0230300Y0013053D01*
X0233053Y0010300D01*
X0236947Y0010300D01*
X0239700Y0013053D01*
X0239700Y0016947D01*
X0236947Y0019700D01*
X0233053Y0019700D01*
X0232879Y0019525D01*
X0222100Y0030304D01*
X0222100Y0050496D01*
X0229504Y0057900D01*
X0230704Y0057900D01*
X0232504Y0059700D01*
X0232700Y0059896D01*
X0232700Y0057886D01*
X0233476Y0056011D01*
X0234911Y0054576D01*
X0236786Y0053800D01*
X0238814Y0053800D01*
X0240689Y0054576D01*
X0242124Y0056011D01*
X0242900Y0057886D01*
X0242900Y0059914D01*
X0242124Y0061789D01*
X0240689Y0063224D01*
X0238814Y0064000D01*
X0236786Y0064000D01*
X0234911Y0063224D01*
X0233500Y0061812D01*
X0233500Y0147696D01*
X0236704Y0150900D01*
X0237700Y0151896D01*
X0237700Y0154896D01*
X0238300Y0155496D01*
X0238300Y0170496D01*
X0243079Y0175275D01*
X0243986Y0174900D01*
X0246014Y0174900D01*
X0247889Y0175676D01*
X0249324Y0177111D01*
X0250000Y0178744D01*
X0250676Y0177111D01*
X0252111Y0175676D01*
X0253986Y0174900D01*
X0256014Y0174900D01*
X0257889Y0175676D01*
X0259324Y0177111D01*
X0260100Y0178986D01*
X0260100Y0181014D01*
X0259324Y0182889D01*
X0257889Y0184324D01*
X0256014Y0185100D01*
X0253986Y0185100D01*
X0252111Y0184324D01*
X0250676Y0182889D01*
X0250000Y0181256D01*
X0249324Y0182889D01*
X0247889Y0184324D01*
X0246014Y0185100D01*
X0243986Y0185100D01*
X0242111Y0184324D01*
X0240676Y0182889D01*
X0239900Y0181014D01*
X0239900Y0178986D01*
X0240510Y0177514D01*
X0235900Y0172904D01*
X0235900Y0196504D01*
X0234904Y0197500D01*
X0229525Y0202879D01*
X0229700Y0203053D01*
X0229700Y0206947D01*
X0226947Y0209700D01*
X0223053Y0209700D01*
X0220300Y0206947D01*
X0220300Y0203053D01*
X0223053Y0200300D01*
X0226947Y0200300D01*
X0227121Y0200475D01*
X0232500Y0195096D01*
X0232500Y0158700D01*
X0226013Y0158700D01*
X0224913Y0157600D01*
X0224483Y0157600D01*
X0223527Y0157204D01*
X0222796Y0156473D01*
X0222400Y0155517D01*
X0222400Y0154483D01*
X0222796Y0153527D01*
X0223527Y0152796D01*
X0224483Y0152400D01*
X0225517Y0152400D01*
X0226473Y0152796D01*
X0227204Y0153527D01*
X0227600Y0154483D01*
X0227600Y0154900D01*
X0234300Y0154900D01*
X0234300Y0153304D01*
X0231350Y0150354D01*
X0231280Y0150523D01*
X0230523Y0151280D01*
X0229535Y0151689D01*
X0228465Y0151689D01*
X0227477Y0151280D01*
X0226720Y0150523D01*
X0226311Y0149535D01*
X0226311Y0148465D01*
X0226720Y0147477D01*
X0227200Y0146997D01*
X0227200Y0141477D01*
X0226473Y0142204D01*
X0225517Y0142600D01*
X0224483Y0142600D01*
X0223527Y0142204D01*
X0222796Y0141473D01*
X0222400Y0140517D01*
X0222400Y0139483D01*
X0222796Y0138527D01*
X0223100Y0138223D01*
X0223100Y0136654D01*
X0224213Y0135541D01*
X0225741Y0134013D01*
X0225741Y0106098D01*
X0200442Y0080799D01*
X0200365Y0081288D01*
X0200097Y0082111D01*
X0199704Y0082883D01*
X0199195Y0083583D01*
X0198583Y0084195D01*
X0197883Y0084704D01*
X0197111Y0085097D01*
X0196288Y0085365D01*
X0195433Y0085500D01*
X0195200Y0085500D01*
X0195200Y0080200D01*
X0194800Y0080200D01*
X0194800Y0085500D01*
X0194567Y0085500D01*
X0193712Y0085365D01*
X0192889Y0085097D01*
X0192117Y0084704D01*
X0191417Y0084195D01*
X0190805Y0083583D01*
X0190296Y0082883D01*
X0190000Y0082302D01*
X0189704Y0082883D01*
X0189195Y0083583D01*
X0188583Y0084195D01*
X0187883Y0084704D01*
X0187111Y0085097D01*
X0186288Y0085365D01*
X0185433Y0085500D01*
X0185200Y0085500D01*
X0185200Y0080200D01*
X0184800Y0080200D01*
X0184800Y0085500D01*
X0184567Y0085500D01*
X0183712Y0085365D01*
X0182889Y0085097D01*
X0182117Y0084704D01*
X0181417Y0084195D01*
X0180805Y0083583D01*
X0180296Y0082883D01*
X0180000Y0082302D01*
X0179704Y0082883D01*
X0179195Y0083583D01*
X0178583Y0084195D01*
X0177883Y0084704D01*
X0177111Y0085097D01*
X0176288Y0085365D01*
X0175433Y0085500D01*
X0175200Y0085500D01*
X0175200Y0080200D01*
X0174800Y0080200D01*
X0174800Y0085500D01*
X0174567Y0085500D01*
X0174341Y0085464D01*
X0174604Y0085727D01*
X0175000Y0086683D01*
X0175000Y0087717D01*
X0174604Y0088673D01*
X0173873Y0089404D01*
X0172917Y0089800D01*
X0171883Y0089800D01*
X0170927Y0089404D01*
X0170196Y0088673D01*
X0169800Y0087717D01*
X0169800Y0086683D01*
X0170196Y0085727D01*
X0170700Y0085223D01*
X0170700Y0084904D01*
X0169296Y0083500D01*
X0169004Y0083208D01*
X0167889Y0084324D01*
X0166014Y0085100D01*
X0163986Y0085100D01*
X0162111Y0084324D01*
X0160896Y0083108D01*
X0157900Y0086104D01*
X0157900Y0095566D01*
X0159025Y0095100D01*
X0160975Y0095100D01*
X0162776Y0095846D01*
X0164154Y0097224D01*
X0164900Y0099025D01*
X0164900Y0100975D01*
X0164154Y0102776D01*
X0162776Y0104154D01*
X0160975Y0104900D01*
X0159025Y0104900D01*
X0157900Y0104434D01*
X0157900Y0135566D01*
X0159025Y0135100D01*
X0160975Y0135100D01*
X0162776Y0135846D01*
X0164154Y0137224D01*
X0164900Y0139025D01*
X0164900Y0140975D01*
X0164154Y0142776D01*
X0162776Y0144154D01*
X0160975Y0144900D01*
X0159025Y0144900D01*
X0157900Y0144434D01*
X0157900Y0165688D01*
X0159324Y0167111D01*
X0160000Y0168744D01*
X0160676Y0167111D01*
X0162111Y0165676D01*
X0163986Y0164900D01*
X0166014Y0164900D01*
X0167889Y0165676D01*
X0169324Y0167111D01*
X0170000Y0168744D01*
X0170676Y0167111D01*
X0172111Y0165676D01*
X0173986Y0164900D01*
X0176014Y0164900D01*
X0177889Y0165676D01*
X0179324Y0167111D01*
X0180000Y0168744D01*
X0180676Y0167111D01*
X0182111Y0165676D01*
X0183986Y0164900D01*
X0186014Y0164900D01*
X0187889Y0165676D01*
X0189324Y0167111D01*
X0190000Y0168744D01*
X0190676Y0167111D01*
X0192111Y0165676D01*
X0193986Y0164900D01*
X0196014Y0164900D01*
X0197889Y0165676D01*
X0199324Y0167111D01*
X0200100Y0168986D01*
X0200100Y0171014D01*
X0199324Y0172889D01*
X0197889Y0174324D01*
X0196014Y0175100D01*
X0193986Y0175100D01*
X0192111Y0174324D01*
X0190676Y0172889D01*
X0190000Y0171256D01*
X0189324Y0172889D01*
X0187889Y0174324D01*
X0186014Y0175100D01*
X0183986Y0175100D01*
X0182111Y0174324D01*
X0180676Y0172889D01*
X0180000Y0171256D01*
X0179324Y0172889D01*
X0177889Y0174324D01*
X0176014Y0175100D01*
X0173986Y0175100D01*
X0172111Y0174324D01*
X0170676Y0172889D01*
X0170000Y0171256D01*
X0169324Y0172889D01*
X0167889Y0174324D01*
X0166014Y0175100D01*
X0163986Y0175100D01*
X0162111Y0174324D01*
X0160676Y0172889D01*
X0160000Y0171256D01*
X0159324Y0172889D01*
X0157889Y0174324D01*
X0156014Y0175100D01*
X0153986Y0175100D01*
X0152111Y0174324D01*
X0150676Y0172889D01*
X0150000Y0171256D01*
X0149324Y0172889D01*
X0147889Y0174324D01*
X0146014Y0175100D01*
X0143986Y0175100D01*
X0142111Y0174324D01*
X0140676Y0172889D01*
X0139900Y0171014D01*
X0139900Y0168986D01*
X0140676Y0167111D01*
X0142111Y0165676D01*
X0143986Y0164900D01*
X0146014Y0164900D01*
X0147889Y0165676D01*
X0149324Y0167111D01*
X0150000Y0168744D01*
X0150676Y0167111D01*
X0152111Y0165676D01*
X0153986Y0164900D01*
X0154500Y0164900D01*
X0154500Y0143704D01*
X0153900Y0143104D01*
X0153900Y0143030D01*
X0152776Y0144154D01*
X0150975Y0144900D01*
X0149025Y0144900D01*
X0148940Y0144864D01*
X0145600Y0148204D01*
X0145600Y0148917D01*
X0145204Y0149873D01*
X0144473Y0150604D01*
X0143517Y0151000D01*
X0142483Y0151000D01*
X0141527Y0150604D01*
X0140796Y0149873D01*
X0140400Y0148917D01*
X0140400Y0147883D01*
X0140796Y0146927D01*
X0141527Y0146196D01*
X0142483Y0145800D01*
X0143196Y0145800D01*
X0146033Y0142963D01*
X0145846Y0142776D01*
X0145100Y0140975D01*
X0145100Y0139025D01*
X0145846Y0137224D01*
X0147224Y0135846D01*
X0149025Y0135100D01*
X0150975Y0135100D01*
X0152776Y0135846D01*
X0153900Y0136970D01*
X0153900Y0136896D01*
X0154500Y0136296D01*
X0154500Y0103504D01*
X0153963Y0102967D01*
X0152776Y0104154D01*
X0150975Y0104900D01*
X0149025Y0104900D01*
X0147224Y0104154D01*
X0145846Y0102776D01*
X0145100Y0100975D01*
X0145100Y0099025D01*
X0145846Y0097224D01*
X0146700Y0096370D01*
X0146700Y0088577D01*
X0146196Y0088073D01*
X0145800Y0087117D01*
X0145800Y0086083D01*
X0146196Y0085127D01*
X0146371Y0084952D01*
X0146014Y0085100D01*
X0143986Y0085100D01*
X0142655Y0084549D01*
X0141904Y0085300D01*
X0137177Y0085300D01*
X0136673Y0085804D01*
X0135717Y0086200D01*
X0134683Y0086200D01*
X0133727Y0085804D01*
X0132996Y0085073D01*
X0132600Y0084117D01*
X0132600Y0083083D01*
X0132996Y0082127D01*
X0133727Y0081396D01*
X0134683Y0081000D01*
X0135717Y0081000D01*
X0136673Y0081396D01*
X0137177Y0081900D01*
X0140267Y0081900D01*
X0139900Y0081014D01*
X0139900Y0078986D01*
X0140676Y0077111D01*
X0142111Y0075676D01*
X0143986Y0074900D01*
X0146014Y0074900D01*
X0147889Y0075676D01*
X0149324Y0077111D01*
X0149816Y0078300D01*
X0150184Y0078300D01*
X0150676Y0077111D01*
X0152111Y0075676D01*
X0153300Y0075184D01*
X0153300Y0051096D01*
X0162153Y0042243D01*
X0162100Y0042114D01*
X0162100Y0040086D01*
X0162563Y0038967D01*
X0154296Y0030700D01*
X0149104Y0030700D01*
X0137104Y0042700D01*
X0127057Y0042700D01*
X0126524Y0043989D01*
X0125089Y0045424D01*
X0123214Y0046200D01*
X0121186Y0046200D01*
X0119311Y0045424D01*
X0117876Y0043989D01*
X0117100Y0042114D01*
X0117100Y0040086D01*
X0117876Y0038211D01*
X0119311Y0036776D01*
X0121186Y0036000D01*
X0123214Y0036000D01*
X0125089Y0036776D01*
X0126524Y0038211D01*
X0126975Y0039300D01*
X0135696Y0039300D01*
X0146700Y0028296D01*
X0147696Y0027300D01*
X0153300Y0027300D01*
X0153300Y0019700D01*
X0153053Y0019700D01*
X0150300Y0016947D01*
X0150300Y0013053D01*
X0153053Y0010300D01*
X0156947Y0010300D01*
X0159700Y0013053D01*
X0159700Y0016947D01*
X0156947Y0019700D01*
X0156700Y0019700D01*
X0156700Y0028296D01*
X0164926Y0036522D01*
X0166186Y0036000D01*
X0168214Y0036000D01*
X0170089Y0036776D01*
X0171524Y0038211D01*
X0172300Y0040086D01*
X0172300Y0042114D01*
X0171524Y0043989D01*
X0170212Y0045300D01*
X0172296Y0045300D01*
X0200475Y0017121D01*
X0200300Y0016947D01*
X0200300Y0013053D01*
X0203053Y0010300D01*
X0206947Y0010300D01*
X0209700Y0013053D01*
X0209700Y0016947D01*
X0206947Y0019700D01*
X0203053Y0019700D01*
X0202879Y0019525D01*
X0174700Y0047704D01*
X0173704Y0048700D01*
X0162304Y0048700D01*
X0159100Y0051904D01*
X0159100Y0066696D01*
X0160504Y0068100D01*
X0160664Y0068259D01*
X0160727Y0068196D01*
X0161683Y0067800D01*
X0162717Y0067800D01*
X0163673Y0068196D01*
X0164404Y0068927D01*
X0164800Y0069883D01*
X0164800Y0070596D01*
X0170728Y0076523D01*
X0170805Y0076417D01*
X0171417Y0075805D01*
X0172117Y0075296D01*
X0172889Y0074903D01*
X0173712Y0074635D01*
X0174567Y0074500D01*
X0174800Y0074500D01*
X0174800Y0079800D01*
X0175200Y0079800D01*
X0175200Y0080200D01*
X0184800Y0080200D01*
X0184800Y0079800D01*
X0185200Y0079800D01*
X0185200Y0080200D01*
X0194800Y0080200D01*
X0194800Y0079800D01*
X0189500Y0079800D01*
X0185200Y0079800D01*
X0185200Y0074500D01*
X0185433Y0074500D01*
X0186288Y0074635D01*
X0187111Y0074903D01*
X0187883Y0075296D01*
X0188583Y0075805D01*
X0189195Y0076417D01*
X0189704Y0077117D01*
X0190000Y0077698D01*
X0190296Y0077117D01*
X0190805Y0076417D01*
X0191417Y0075805D01*
X0192117Y0075296D01*
X0192889Y0074903D01*
X0193712Y0074635D01*
X0194201Y0074558D01*
X0185398Y0065755D01*
X0173310Y0065755D01*
X0173276Y0065789D01*
X0171702Y0065789D01*
X0171668Y0065755D01*
X0171619Y0065755D01*
X0170623Y0064759D01*
X0170623Y0064710D01*
X0169416Y0063502D01*
X0168214Y0064000D01*
X0166186Y0064000D01*
X0164311Y0063224D01*
X0162876Y0061789D01*
X0162100Y0059914D01*
X0162100Y0057886D01*
X0162876Y0056011D01*
X0164311Y0054576D01*
X0166186Y0053800D01*
X0168214Y0053800D01*
X0170089Y0054576D01*
X0171524Y0056011D01*
X0172300Y0057886D01*
X0172300Y0059914D01*
X0171978Y0060691D01*
X0173642Y0062355D01*
X0186807Y0062355D01*
X0217041Y0092589D01*
X0216811Y0092035D01*
X0216811Y0090965D01*
X0217220Y0089977D01*
X0217977Y0089220D01*
X0218965Y0088811D01*
X0220035Y0088811D01*
X0221023Y0089220D01*
X0221503Y0089700D01*
X0223746Y0089700D01*
X0229746Y0095700D01*
X0230100Y0096054D01*
X0230100Y0064524D01*
X0229917Y0064600D01*
X0228883Y0064600D01*
X0227927Y0064204D01*
X0227196Y0063473D01*
X0226800Y0062517D01*
X0226800Y0061804D01*
X0217500Y0052504D01*
X0217500Y0019147D01*
X0216947Y0019700D01*
X0213053Y0019700D01*
X0210300Y0016947D01*
X0210300Y0013053D01*
X0213053Y0010300D01*
X0214296Y0010300D01*
X0212496Y0008500D01*
X0064397Y0008500D01*
X0066532Y0010635D01*
X0067705Y0013467D01*
X0067705Y0016533D01*
X0066532Y0019365D01*
X0064365Y0021532D01*
X0061533Y0022705D01*
X0058467Y0022705D01*
X0055635Y0021532D01*
X0053468Y0019365D01*
X0052294Y0016533D01*
X0052294Y0014710D01*
X0034300Y0032704D01*
X0034300Y0040823D01*
X0034804Y0041327D01*
X0035200Y0042283D01*
X0035200Y0043317D01*
X0034804Y0044273D01*
X0034073Y0045004D01*
X0033117Y0045400D01*
X0032083Y0045400D01*
X0031127Y0045004D01*
X0030396Y0044273D01*
X0030000Y0043317D01*
X0030000Y0042283D01*
X0030396Y0041327D01*
X0030900Y0040823D01*
X0030900Y0031296D01*
X0031896Y0030300D01*
X0055396Y0006800D01*
X0006800Y0006800D01*
X0006800Y0213200D01*
X0148396Y0213200D01*
X0144096Y0208900D01*
X0143100Y0207904D01*
X0143100Y0207547D01*
X0140947Y0209700D01*
X0137053Y0209700D01*
X0134300Y0206947D01*
X0134300Y0203053D01*
X0137053Y0200300D01*
X0140947Y0200300D01*
X0143100Y0202453D01*
X0143100Y0182104D01*
X0127296Y0166300D01*
X0126300Y0165304D01*
X0126300Y0145504D01*
X0124896Y0144100D01*
X0123900Y0143104D01*
X0123900Y0143030D01*
X0122776Y0144154D01*
X0120975Y0144900D01*
X0119025Y0144900D01*
X0117224Y0144154D01*
X0115846Y0142776D01*
X0115100Y0140975D01*
X0115100Y0139025D01*
X0115846Y0137224D01*
X0117224Y0135846D01*
X0119025Y0135100D01*
X0120975Y0135100D01*
X0122776Y0135846D01*
X0123900Y0136970D01*
X0123900Y0136896D01*
X0124500Y0136296D01*
X0124500Y0103504D01*
X0123963Y0102967D01*
X0122776Y0104154D01*
X0120975Y0104900D01*
X0119025Y0104900D01*
X0117224Y0104154D01*
X0115846Y0102776D01*
X0115100Y0100975D01*
X0115100Y0099025D01*
X0115846Y0097224D01*
X0117224Y0095846D01*
X0119025Y0095100D01*
X0120975Y0095100D01*
X0122776Y0095846D01*
X0124063Y0097133D01*
X0124500Y0096696D01*
X0124500Y0086104D01*
X0123900Y0085504D01*
X0123900Y0063716D01*
X0123214Y0064000D01*
X0121186Y0064000D01*
X0119311Y0063224D01*
X0117876Y0061789D01*
X0117100Y0059914D01*
X0117100Y0057886D01*
X0117876Y0056011D01*
X0119188Y0054700D01*
X0117304Y0054700D01*
X0108304Y0063700D01*
X0106577Y0063700D01*
X0106073Y0064204D01*
X0105117Y0064600D01*
X0104083Y0064600D01*
X0103127Y0064204D01*
X0102396Y0063473D01*
X0102000Y0062517D01*
X0103068Y0064145D02*
X0068500Y0064145D01*
X0068500Y0065743D02*
X0123900Y0065743D01*
X0123900Y0064145D02*
X0106132Y0064145D01*
X0109458Y0062546D02*
X0118634Y0062546D01*
X0117528Y0060948D02*
X0111056Y0060948D01*
X0112655Y0059349D02*
X0117100Y0059349D01*
X0117156Y0057751D02*
X0114253Y0057751D01*
X0115852Y0056152D02*
X0117818Y0056152D01*
X0114240Y0052955D02*
X0090300Y0052955D01*
X0090300Y0052881D02*
X0090300Y0053212D01*
X0090169Y0054036D01*
X0089912Y0054830D01*
X0089533Y0055573D01*
X0089043Y0056248D01*
X0088453Y0056838D01*
X0087778Y0057328D01*
X0087034Y0057707D01*
X0086241Y0057965D01*
X0085417Y0058095D01*
X0085086Y0058095D01*
X0085086Y0052881D01*
X0090300Y0052881D01*
X0090300Y0052709D02*
X0085086Y0052709D01*
X0085086Y0047495D01*
X0085417Y0047495D01*
X0086241Y0047626D01*
X0087034Y0047884D01*
X0087778Y0048262D01*
X0088453Y0048753D01*
X0089043Y0049343D01*
X0089533Y0050017D01*
X0089912Y0050761D01*
X0090169Y0051554D01*
X0090300Y0052378D01*
X0090300Y0052709D01*
X0090105Y0051357D02*
X0115839Y0051357D01*
X0112642Y0054554D02*
X0090001Y0054554D01*
X0089112Y0056152D02*
X0111043Y0056152D01*
X0109445Y0057751D02*
X0086899Y0057751D01*
X0085086Y0057751D02*
X0084914Y0057751D01*
X0084914Y0058095D02*
X0084583Y0058095D01*
X0083759Y0057965D01*
X0082966Y0057707D01*
X0082222Y0057328D01*
X0081547Y0056838D01*
X0080957Y0056248D01*
X0080467Y0055573D01*
X0080088Y0054830D01*
X0079830Y0054036D01*
X0079700Y0053212D01*
X0079700Y0052881D01*
X0084914Y0052881D01*
X0084914Y0052709D01*
X0085086Y0052709D01*
X0085086Y0052881D01*
X0084914Y0052881D01*
X0084914Y0058095D01*
X0083101Y0057751D02*
X0068500Y0057751D01*
X0068500Y0059349D02*
X0107846Y0059349D01*
X0123900Y0067342D02*
X0068500Y0067342D01*
X0068500Y0068940D02*
X0123900Y0068940D01*
X0123900Y0070539D02*
X0068500Y0070539D01*
X0068500Y0072137D02*
X0123900Y0072137D01*
X0123900Y0073736D02*
X0068500Y0073736D01*
X0068500Y0075334D02*
X0123900Y0075334D01*
X0123900Y0076933D02*
X0068500Y0076933D01*
X0068500Y0078532D02*
X0123900Y0078532D01*
X0123900Y0080130D02*
X0068500Y0080130D01*
X0068500Y0081729D02*
X0123900Y0081729D01*
X0123900Y0083327D02*
X0122186Y0083327D01*
X0122615Y0083504D02*
X0123346Y0084236D01*
X0123742Y0085191D01*
X0123742Y0086226D01*
X0123346Y0087181D01*
X0122615Y0087913D01*
X0121659Y0088309D01*
X0120625Y0088309D01*
X0119669Y0087913D01*
X0119165Y0087409D01*
X0112003Y0087409D01*
X0075598Y0123814D01*
X0074602Y0124810D01*
X0066900Y0124810D01*
X0066900Y0143223D01*
X0067204Y0143527D01*
X0067600Y0144483D01*
X0067600Y0145517D01*
X0067204Y0146473D01*
X0066473Y0147204D01*
X0065517Y0147600D01*
X0064483Y0147600D01*
X0063527Y0147204D01*
X0062796Y0146473D01*
X0062792Y0146464D01*
X0061382Y0146464D01*
X0060387Y0145468D01*
X0025657Y0110739D01*
X0025374Y0110739D01*
X0018100Y0103464D01*
X0018100Y0096777D01*
X0017796Y0096473D01*
X0017400Y0095517D01*
X0017400Y0094483D01*
X0017796Y0093527D01*
X0018527Y0092796D01*
X0019483Y0092400D01*
X0020517Y0092400D01*
X0021473Y0092796D01*
X0022204Y0093527D01*
X0022600Y0094483D01*
X0022600Y0095517D01*
X0022204Y0096473D01*
X0021900Y0096777D01*
X0021900Y0101890D01*
X0028061Y0108052D01*
X0028061Y0108334D01*
X0045868Y0126141D01*
X0046103Y0125574D01*
X0046834Y0124843D01*
X0047790Y0124447D01*
X0048824Y0124447D01*
X0049780Y0124843D01*
X0050284Y0125347D01*
X0053508Y0125347D01*
X0065839Y0113016D01*
X0065327Y0112804D01*
X0064596Y0112073D01*
X0064200Y0111117D01*
X0064200Y0110083D01*
X0064596Y0109127D01*
X0065100Y0108623D01*
X0065100Y0045096D01*
X0080661Y0029535D01*
X0080100Y0028179D01*
X0080100Y0026230D01*
X0080846Y0024429D01*
X0082224Y0023051D01*
X0084025Y0022305D01*
X0085975Y0022305D01*
X0087776Y0023051D01*
X0089154Y0024429D01*
X0089900Y0026230D01*
X0089900Y0028179D01*
X0089154Y0029980D01*
X0087776Y0031359D01*
X0085975Y0032105D01*
X0084025Y0032105D01*
X0083229Y0031775D01*
X0068500Y0046504D01*
X0068500Y0108623D01*
X0069004Y0109127D01*
X0069216Y0109639D01*
X0088941Y0089914D01*
X0099480Y0089914D01*
X0099984Y0089410D01*
X0100940Y0089014D01*
X0101974Y0089014D01*
X0102929Y0089410D01*
X0103661Y0090141D01*
X0103896Y0090708D01*
X0110595Y0084009D01*
X0119165Y0084009D01*
X0119669Y0083504D01*
X0120625Y0083109D01*
X0121659Y0083109D01*
X0122615Y0083504D01*
X0123632Y0084926D02*
X0123900Y0084926D01*
X0123618Y0086524D02*
X0124500Y0086524D01*
X0124500Y0088123D02*
X0122108Y0088123D01*
X0120175Y0088123D02*
X0111289Y0088123D01*
X0109691Y0089721D02*
X0124500Y0089721D01*
X0124500Y0091320D02*
X0108092Y0091320D01*
X0106494Y0092918D02*
X0124500Y0092918D01*
X0124500Y0094517D02*
X0104895Y0094517D01*
X0103297Y0096115D02*
X0106955Y0096115D01*
X0107224Y0095846D02*
X0109025Y0095100D01*
X0110975Y0095100D01*
X0112776Y0095846D01*
X0114154Y0097224D01*
X0114900Y0099025D01*
X0114900Y0100975D01*
X0114154Y0102776D01*
X0112776Y0104154D01*
X0110975Y0104900D01*
X0109025Y0104900D01*
X0107224Y0104154D01*
X0105846Y0102776D01*
X0105100Y0100975D01*
X0105100Y0099025D01*
X0105846Y0097224D01*
X0107224Y0095846D01*
X0105643Y0097714D02*
X0101698Y0097714D01*
X0100100Y0099312D02*
X0105100Y0099312D01*
X0105100Y0100911D02*
X0098501Y0100911D01*
X0096903Y0102509D02*
X0105736Y0102509D01*
X0107178Y0104108D02*
X0095304Y0104108D01*
X0093706Y0105706D02*
X0124500Y0105706D01*
X0124500Y0104108D02*
X0122822Y0104108D01*
X0124500Y0107305D02*
X0092107Y0107305D01*
X0090509Y0108903D02*
X0124500Y0108903D01*
X0124500Y0110502D02*
X0088910Y0110502D01*
X0087312Y0112100D02*
X0124500Y0112100D01*
X0124500Y0113699D02*
X0085713Y0113699D01*
X0084115Y0115297D02*
X0124500Y0115297D01*
X0124500Y0116896D02*
X0082516Y0116896D01*
X0080918Y0118494D02*
X0124500Y0118494D01*
X0124500Y0120093D02*
X0079319Y0120093D01*
X0077721Y0121691D02*
X0124500Y0121691D01*
X0124500Y0123290D02*
X0076122Y0123290D01*
X0066900Y0124888D02*
X0124500Y0124888D01*
X0124500Y0126487D02*
X0066900Y0126487D01*
X0066900Y0128085D02*
X0124500Y0128085D01*
X0124500Y0129684D02*
X0066900Y0129684D01*
X0066900Y0131282D02*
X0124500Y0131282D01*
X0124500Y0132881D02*
X0066900Y0132881D01*
X0066900Y0134479D02*
X0124500Y0134479D01*
X0124500Y0136078D02*
X0123008Y0136078D01*
X0127900Y0134479D02*
X0154500Y0134479D01*
X0154500Y0132881D02*
X0127900Y0132881D01*
X0127900Y0131282D02*
X0154500Y0131282D01*
X0154500Y0129684D02*
X0127900Y0129684D01*
X0127900Y0128085D02*
X0154500Y0128085D01*
X0154500Y0126487D02*
X0127900Y0126487D01*
X0127900Y0124888D02*
X0154500Y0124888D01*
X0154500Y0123290D02*
X0127900Y0123290D01*
X0127900Y0121691D02*
X0154500Y0121691D01*
X0154500Y0120093D02*
X0127900Y0120093D01*
X0127900Y0118494D02*
X0154500Y0118494D01*
X0154500Y0116896D02*
X0127900Y0116896D01*
X0127900Y0115297D02*
X0154500Y0115297D01*
X0154500Y0113699D02*
X0127900Y0113699D01*
X0127900Y0112100D02*
X0154500Y0112100D01*
X0154500Y0110502D02*
X0127900Y0110502D01*
X0127900Y0108903D02*
X0154500Y0108903D01*
X0154500Y0107305D02*
X0127900Y0107305D01*
X0127900Y0105706D02*
X0154500Y0105706D01*
X0154500Y0104108D02*
X0152822Y0104108D01*
X0157900Y0105706D02*
X0225349Y0105706D01*
X0225741Y0107305D02*
X0157900Y0107305D01*
X0157900Y0108903D02*
X0225741Y0108903D01*
X0225741Y0110502D02*
X0157900Y0110502D01*
X0157900Y0112100D02*
X0225741Y0112100D01*
X0225741Y0113699D02*
X0157900Y0113699D01*
X0157900Y0115297D02*
X0225741Y0115297D01*
X0225741Y0116896D02*
X0157900Y0116896D01*
X0157900Y0118494D02*
X0225741Y0118494D01*
X0225741Y0120093D02*
X0157900Y0120093D01*
X0157900Y0121691D02*
X0225741Y0121691D01*
X0225741Y0123290D02*
X0157900Y0123290D01*
X0157900Y0124888D02*
X0225741Y0124888D01*
X0225741Y0126487D02*
X0157900Y0126487D01*
X0157900Y0128085D02*
X0225741Y0128085D01*
X0225741Y0129684D02*
X0157900Y0129684D01*
X0157900Y0131282D02*
X0225741Y0131282D01*
X0225741Y0132881D02*
X0157900Y0132881D01*
X0157900Y0134479D02*
X0225275Y0134479D01*
X0224213Y0135541D02*
X0224213Y0135541D01*
X0223676Y0136078D02*
X0183008Y0136078D01*
X0182776Y0135846D02*
X0184154Y0137224D01*
X0184900Y0139025D01*
X0184900Y0140975D01*
X0184154Y0142776D01*
X0182776Y0144154D01*
X0180975Y0144900D01*
X0179025Y0144900D01*
X0177224Y0144154D01*
X0175846Y0142776D01*
X0175100Y0140975D01*
X0175100Y0139025D01*
X0175846Y0137224D01*
X0177224Y0135846D01*
X0179025Y0135100D01*
X0180975Y0135100D01*
X0182776Y0135846D01*
X0184341Y0137676D02*
X0223100Y0137676D01*
X0222486Y0139275D02*
X0184900Y0139275D01*
X0184900Y0140873D02*
X0222548Y0140873D01*
X0224174Y0142472D02*
X0184280Y0142472D01*
X0182859Y0144070D02*
X0227200Y0144070D01*
X0227200Y0142472D02*
X0225826Y0142472D01*
X0227200Y0145669D02*
X0157900Y0145669D01*
X0157900Y0147268D02*
X0226930Y0147268D01*
X0226311Y0148866D02*
X0157900Y0148866D01*
X0157900Y0150465D02*
X0226696Y0150465D01*
X0227260Y0153662D02*
X0234300Y0153662D01*
X0233059Y0152063D02*
X0157900Y0152063D01*
X0157900Y0153662D02*
X0222740Y0153662D01*
X0222400Y0155260D02*
X0157900Y0155260D01*
X0157900Y0156859D02*
X0223182Y0156859D01*
X0225770Y0158457D02*
X0157900Y0158457D01*
X0157900Y0160056D02*
X0232500Y0160056D01*
X0232500Y0161654D02*
X0157900Y0161654D01*
X0157900Y0163253D02*
X0232500Y0163253D01*
X0232500Y0164851D02*
X0157900Y0164851D01*
X0158662Y0166450D02*
X0161338Y0166450D01*
X0160288Y0168048D02*
X0159712Y0168048D01*
X0159342Y0172844D02*
X0160658Y0172844D01*
X0162398Y0174442D02*
X0157602Y0174442D01*
X0152398Y0174442D02*
X0147602Y0174442D01*
X0149342Y0172844D02*
X0150658Y0172844D01*
X0150288Y0168048D02*
X0149712Y0168048D01*
X0148662Y0166450D02*
X0151338Y0166450D01*
X0154500Y0164851D02*
X0130655Y0164851D01*
X0129700Y0163253D02*
X0154500Y0163253D01*
X0154500Y0161654D02*
X0129700Y0161654D01*
X0129700Y0160056D02*
X0154500Y0160056D01*
X0154500Y0158457D02*
X0129700Y0158457D01*
X0129700Y0156859D02*
X0154500Y0156859D01*
X0154500Y0155260D02*
X0129700Y0155260D01*
X0129700Y0153662D02*
X0154500Y0153662D01*
X0154500Y0152063D02*
X0129700Y0152063D01*
X0129700Y0150465D02*
X0141388Y0150465D01*
X0140400Y0148866D02*
X0129700Y0148866D01*
X0129700Y0147268D02*
X0140655Y0147268D01*
X0140975Y0144900D02*
X0139025Y0144900D01*
X0137224Y0144154D01*
X0135846Y0142776D01*
X0135100Y0140975D01*
X0135100Y0139025D01*
X0135846Y0137224D01*
X0137224Y0135846D01*
X0139025Y0135100D01*
X0140975Y0135100D01*
X0142776Y0135846D01*
X0144154Y0137224D01*
X0144900Y0139025D01*
X0144900Y0140975D01*
X0144154Y0142776D01*
X0142776Y0144154D01*
X0140975Y0144900D01*
X0142859Y0144070D02*
X0144925Y0144070D01*
X0144280Y0142472D02*
X0145720Y0142472D01*
X0145100Y0140873D02*
X0144900Y0140873D01*
X0144900Y0139275D02*
X0145100Y0139275D01*
X0145659Y0137676D02*
X0144341Y0137676D01*
X0143008Y0136078D02*
X0146992Y0136078D01*
X0153008Y0136078D02*
X0154500Y0136078D01*
X0163008Y0136078D02*
X0166992Y0136078D01*
X0167224Y0135846D02*
X0169025Y0135100D01*
X0170975Y0135100D01*
X0172776Y0135846D01*
X0174154Y0137224D01*
X0174900Y0139025D01*
X0174900Y0140975D01*
X0174154Y0142776D01*
X0172776Y0144154D01*
X0170975Y0144900D01*
X0169025Y0144900D01*
X0167224Y0144154D01*
X0165846Y0142776D01*
X0165100Y0140975D01*
X0165100Y0139025D01*
X0165846Y0137224D01*
X0167224Y0135846D01*
X0165659Y0137676D02*
X0164341Y0137676D01*
X0164900Y0139275D02*
X0165100Y0139275D01*
X0165100Y0140873D02*
X0164900Y0140873D01*
X0164280Y0142472D02*
X0165720Y0142472D01*
X0167141Y0144070D02*
X0162859Y0144070D01*
X0154500Y0144070D02*
X0152859Y0144070D01*
X0154500Y0145669D02*
X0148135Y0145669D01*
X0146537Y0147268D02*
X0154500Y0147268D01*
X0154500Y0148866D02*
X0145600Y0148866D01*
X0144612Y0150465D02*
X0154500Y0150465D01*
X0143327Y0145669D02*
X0129700Y0145669D01*
X0126300Y0145669D02*
X0067537Y0145669D01*
X0067429Y0144070D02*
X0107141Y0144070D01*
X0107224Y0144154D02*
X0105846Y0142776D01*
X0105100Y0140975D01*
X0105100Y0139025D01*
X0105846Y0137224D01*
X0107224Y0135846D01*
X0109025Y0135100D01*
X0110975Y0135100D01*
X0112776Y0135846D01*
X0114154Y0137224D01*
X0114900Y0139025D01*
X0114900Y0140975D01*
X0114154Y0142776D01*
X0112776Y0144154D01*
X0110975Y0144900D01*
X0109025Y0144900D01*
X0107224Y0144154D01*
X0105720Y0142472D02*
X0066900Y0142472D01*
X0066900Y0140873D02*
X0105100Y0140873D01*
X0105100Y0139275D02*
X0066900Y0139275D01*
X0066900Y0137676D02*
X0105659Y0137676D01*
X0106992Y0136078D02*
X0066900Y0136078D01*
X0057391Y0142472D02*
X0045159Y0142472D01*
X0046757Y0144070D02*
X0058989Y0144070D01*
X0060588Y0145669D02*
X0048356Y0145669D01*
X0049955Y0147268D02*
X0063680Y0147268D01*
X0066320Y0147268D02*
X0126300Y0147268D01*
X0126300Y0148866D02*
X0081553Y0148866D01*
X0081900Y0149213D02*
X0086900Y0154213D01*
X0086900Y0183223D01*
X0087204Y0183527D01*
X0087600Y0184483D01*
X0087600Y0185517D01*
X0087204Y0186473D01*
X0086473Y0187204D01*
X0085517Y0187600D01*
X0084483Y0187600D01*
X0083527Y0187204D01*
X0082796Y0186473D01*
X0082400Y0185517D01*
X0082400Y0184483D01*
X0082796Y0183527D01*
X0083100Y0183223D01*
X0083100Y0155787D01*
X0079213Y0151900D01*
X0049213Y0151900D01*
X0039913Y0142600D01*
X0039483Y0142600D01*
X0038527Y0142204D01*
X0037796Y0141473D01*
X0037400Y0140517D01*
X0037400Y0139483D01*
X0037796Y0138527D01*
X0038527Y0137796D01*
X0039483Y0137400D01*
X0040517Y0137400D01*
X0041473Y0137796D01*
X0042204Y0138527D01*
X0042600Y0139483D01*
X0042600Y0139913D01*
X0050787Y0148100D01*
X0080787Y0148100D01*
X0081900Y0149213D01*
X0083152Y0150465D02*
X0126300Y0150465D01*
X0126300Y0152063D02*
X0084750Y0152063D01*
X0086349Y0153662D02*
X0126300Y0153662D01*
X0126300Y0155260D02*
X0086900Y0155260D01*
X0086900Y0156859D02*
X0126300Y0156859D01*
X0126300Y0158457D02*
X0086900Y0158457D01*
X0086900Y0160056D02*
X0126300Y0160056D01*
X0126300Y0161654D02*
X0086900Y0161654D01*
X0086900Y0163253D02*
X0126300Y0163253D01*
X0126300Y0164851D02*
X0086900Y0164851D01*
X0086900Y0166450D02*
X0127445Y0166450D01*
X0129044Y0168048D02*
X0086900Y0168048D01*
X0086900Y0169647D02*
X0130643Y0169647D01*
X0132241Y0171245D02*
X0086900Y0171245D01*
X0086900Y0172844D02*
X0133840Y0172844D01*
X0135438Y0174442D02*
X0086900Y0174442D01*
X0086900Y0176041D02*
X0137037Y0176041D01*
X0138635Y0177639D02*
X0086900Y0177639D01*
X0086900Y0179238D02*
X0140234Y0179238D01*
X0141832Y0180836D02*
X0086900Y0180836D01*
X0086900Y0182435D02*
X0143100Y0182435D01*
X0143100Y0184033D02*
X0087414Y0184033D01*
X0087553Y0185632D02*
X0143100Y0185632D01*
X0143100Y0187230D02*
X0086410Y0187230D01*
X0083590Y0187230D02*
X0006800Y0187230D01*
X0006800Y0185632D02*
X0082447Y0185632D01*
X0082586Y0184033D02*
X0006800Y0184033D01*
X0006800Y0182435D02*
X0083100Y0182435D01*
X0083100Y0180836D02*
X0006800Y0180836D01*
X0006800Y0179238D02*
X0083100Y0179238D01*
X0083100Y0177639D02*
X0006800Y0177639D01*
X0006800Y0176041D02*
X0062617Y0176041D01*
X0062796Y0176473D02*
X0062400Y0175517D01*
X0062400Y0174483D01*
X0062796Y0173527D01*
X0063100Y0173223D01*
X0063100Y0161777D01*
X0062796Y0161473D01*
X0062400Y0160517D01*
X0062400Y0159483D01*
X0062796Y0158527D01*
X0063527Y0157796D01*
X0064483Y0157400D01*
X0065517Y0157400D01*
X0066473Y0157796D01*
X0067204Y0158527D01*
X0067600Y0159483D01*
X0067600Y0160517D01*
X0067204Y0161473D01*
X0066900Y0161777D01*
X0066900Y0173223D01*
X0067204Y0173527D01*
X0067600Y0174483D01*
X0067600Y0175517D01*
X0067204Y0176473D01*
X0066473Y0177204D01*
X0065517Y0177600D01*
X0064483Y0177600D01*
X0063527Y0177204D01*
X0062796Y0176473D01*
X0062417Y0174442D02*
X0006800Y0174442D01*
X0006800Y0172844D02*
X0063100Y0172844D01*
X0063100Y0171245D02*
X0006800Y0171245D01*
X0006800Y0169647D02*
X0063100Y0169647D01*
X0063100Y0168048D02*
X0006800Y0168048D01*
X0006800Y0166450D02*
X0063100Y0166450D01*
X0063100Y0164851D02*
X0006800Y0164851D01*
X0006800Y0163253D02*
X0063100Y0163253D01*
X0062977Y0161654D02*
X0006800Y0161654D01*
X0006800Y0160056D02*
X0062400Y0160056D01*
X0062866Y0158457D02*
X0006800Y0158457D01*
X0006800Y0156859D02*
X0083100Y0156859D01*
X0083100Y0158457D02*
X0067134Y0158457D01*
X0067600Y0160056D02*
X0083100Y0160056D01*
X0083100Y0161654D02*
X0067023Y0161654D01*
X0066900Y0163253D02*
X0083100Y0163253D01*
X0083100Y0164851D02*
X0066900Y0164851D01*
X0066900Y0166450D02*
X0083100Y0166450D01*
X0083100Y0168048D02*
X0066900Y0168048D01*
X0066900Y0169647D02*
X0083100Y0169647D01*
X0083100Y0171245D02*
X0066900Y0171245D01*
X0066900Y0172844D02*
X0083100Y0172844D01*
X0083100Y0174442D02*
X0067583Y0174442D01*
X0067383Y0176041D02*
X0083100Y0176041D01*
X0082573Y0155260D02*
X0006800Y0155260D01*
X0006800Y0153662D02*
X0080975Y0153662D01*
X0079376Y0152063D02*
X0006800Y0152063D01*
X0006800Y0150465D02*
X0047778Y0150465D01*
X0046179Y0148866D02*
X0006800Y0148866D01*
X0006800Y0147268D02*
X0044581Y0147268D01*
X0042982Y0145669D02*
X0006800Y0145669D01*
X0006800Y0144070D02*
X0041383Y0144070D01*
X0039174Y0142472D02*
X0006800Y0142472D01*
X0006800Y0140873D02*
X0037548Y0140873D01*
X0037486Y0139275D02*
X0006800Y0139275D01*
X0006800Y0137676D02*
X0038815Y0137676D01*
X0041185Y0137676D02*
X0052595Y0137676D01*
X0050997Y0136078D02*
X0006800Y0136078D01*
X0006800Y0134479D02*
X0049398Y0134479D01*
X0047800Y0132881D02*
X0006800Y0132881D01*
X0006800Y0131282D02*
X0046201Y0131282D01*
X0044603Y0129684D02*
X0006800Y0129684D01*
X0006800Y0128085D02*
X0043004Y0128085D01*
X0041406Y0126487D02*
X0017190Y0126487D01*
X0017204Y0126473D02*
X0016473Y0127204D01*
X0015517Y0127600D01*
X0014483Y0127600D01*
X0013527Y0127204D01*
X0012796Y0126473D01*
X0012400Y0125517D01*
X0012400Y0125087D01*
X0008100Y0120787D01*
X0008100Y0091777D01*
X0007796Y0091473D01*
X0007400Y0090517D01*
X0007400Y0089483D01*
X0007796Y0088527D01*
X0008527Y0087796D01*
X0009483Y0087400D01*
X0010517Y0087400D01*
X0011473Y0087796D01*
X0012204Y0088527D01*
X0012600Y0089483D01*
X0012600Y0090517D01*
X0012204Y0091473D01*
X0011900Y0091777D01*
X0011900Y0119213D01*
X0015087Y0122400D01*
X0015517Y0122400D01*
X0016473Y0122796D01*
X0017204Y0123527D01*
X0017600Y0124483D01*
X0017600Y0125517D01*
X0017204Y0126473D01*
X0017600Y0124888D02*
X0039807Y0124888D01*
X0038209Y0123290D02*
X0016967Y0123290D01*
X0014378Y0121691D02*
X0036610Y0121691D01*
X0035012Y0120093D02*
X0012780Y0120093D01*
X0011900Y0118494D02*
X0033413Y0118494D01*
X0031814Y0116896D02*
X0011900Y0116896D01*
X0011900Y0115297D02*
X0030216Y0115297D01*
X0028617Y0113699D02*
X0011900Y0113699D01*
X0011900Y0112100D02*
X0027019Y0112100D01*
X0025138Y0110502D02*
X0011900Y0110502D01*
X0011900Y0108903D02*
X0023539Y0108903D01*
X0021941Y0107305D02*
X0011900Y0107305D01*
X0011900Y0105706D02*
X0020342Y0105706D01*
X0018744Y0104108D02*
X0011900Y0104108D01*
X0011900Y0102509D02*
X0018100Y0102509D01*
X0018100Y0100911D02*
X0011900Y0100911D01*
X0011900Y0099312D02*
X0018100Y0099312D01*
X0018100Y0097714D02*
X0011900Y0097714D01*
X0011900Y0096115D02*
X0017648Y0096115D01*
X0017400Y0094517D02*
X0011900Y0094517D01*
X0011900Y0092918D02*
X0018405Y0092918D01*
X0021595Y0092918D02*
X0065100Y0092918D01*
X0065100Y0091320D02*
X0012268Y0091320D01*
X0012600Y0089721D02*
X0065100Y0089721D01*
X0065100Y0088123D02*
X0011800Y0088123D01*
X0008200Y0088123D02*
X0006800Y0088123D01*
X0006800Y0089721D02*
X0007400Y0089721D01*
X0007732Y0091320D02*
X0006800Y0091320D01*
X0006800Y0092918D02*
X0008100Y0092918D01*
X0008100Y0094517D02*
X0006800Y0094517D01*
X0006800Y0096115D02*
X0008100Y0096115D01*
X0008100Y0097714D02*
X0006800Y0097714D01*
X0006800Y0099312D02*
X0008100Y0099312D01*
X0008100Y0100911D02*
X0006800Y0100911D01*
X0006800Y0102509D02*
X0008100Y0102509D01*
X0008100Y0104108D02*
X0006800Y0104108D01*
X0006800Y0105706D02*
X0008100Y0105706D01*
X0008100Y0107305D02*
X0006800Y0107305D01*
X0006800Y0108903D02*
X0008100Y0108903D01*
X0008100Y0110502D02*
X0006800Y0110502D01*
X0006800Y0112100D02*
X0008100Y0112100D01*
X0008100Y0113699D02*
X0006800Y0113699D01*
X0006800Y0115297D02*
X0008100Y0115297D01*
X0008100Y0116896D02*
X0006800Y0116896D01*
X0006800Y0118494D02*
X0008100Y0118494D01*
X0008100Y0120093D02*
X0006800Y0120093D01*
X0006800Y0121691D02*
X0009004Y0121691D01*
X0010603Y0123290D02*
X0006800Y0123290D01*
X0006800Y0124888D02*
X0012201Y0124888D01*
X0012810Y0126487D02*
X0006800Y0126487D01*
X0028630Y0108903D02*
X0064820Y0108903D01*
X0065100Y0107305D02*
X0027315Y0107305D01*
X0025716Y0105706D02*
X0065100Y0105706D01*
X0065100Y0104108D02*
X0024118Y0104108D01*
X0022519Y0102509D02*
X0065100Y0102509D01*
X0065100Y0100911D02*
X0021900Y0100911D01*
X0021900Y0099312D02*
X0065100Y0099312D01*
X0065100Y0097714D02*
X0021900Y0097714D01*
X0022352Y0096115D02*
X0065100Y0096115D01*
X0065100Y0094517D02*
X0022600Y0094517D01*
X0020517Y0082600D02*
X0019483Y0082600D01*
X0018527Y0082204D01*
X0017796Y0081473D01*
X0017400Y0080517D01*
X0017400Y0080087D01*
X0016880Y0079567D01*
X0016880Y0057958D01*
X0016575Y0057654D01*
X0016180Y0056698D01*
X0016180Y0055664D01*
X0016575Y0054708D01*
X0017307Y0053977D01*
X0018262Y0053581D01*
X0019297Y0053581D01*
X0020252Y0053977D01*
X0020984Y0054708D01*
X0021380Y0055664D01*
X0021380Y0056698D01*
X0020984Y0057654D01*
X0020680Y0057958D01*
X0020680Y0077467D01*
X0021473Y0077796D01*
X0022204Y0078527D01*
X0022600Y0079483D01*
X0022600Y0080517D01*
X0022204Y0081473D01*
X0021473Y0082204D01*
X0020517Y0082600D01*
X0021948Y0081729D02*
X0065100Y0081729D01*
X0065100Y0083327D02*
X0006800Y0083327D01*
X0006800Y0081729D02*
X0018052Y0081729D01*
X0017400Y0080130D02*
X0006800Y0080130D01*
X0006800Y0078532D02*
X0016880Y0078532D01*
X0016880Y0076933D02*
X0006800Y0076933D01*
X0006800Y0075334D02*
X0016880Y0075334D01*
X0016880Y0073736D02*
X0006800Y0073736D01*
X0006800Y0072137D02*
X0016880Y0072137D01*
X0016880Y0070539D02*
X0006800Y0070539D01*
X0006800Y0068940D02*
X0016880Y0068940D01*
X0016880Y0067342D02*
X0006800Y0067342D01*
X0006800Y0065743D02*
X0016880Y0065743D01*
X0016880Y0064145D02*
X0006800Y0064145D01*
X0006800Y0062546D02*
X0016880Y0062546D01*
X0016880Y0060948D02*
X0006800Y0060948D01*
X0006800Y0059349D02*
X0016880Y0059349D01*
X0016672Y0057751D02*
X0006800Y0057751D01*
X0006800Y0056152D02*
X0016180Y0056152D01*
X0016730Y0054554D02*
X0006800Y0054554D01*
X0006800Y0052955D02*
X0065100Y0052955D01*
X0065100Y0051357D02*
X0006800Y0051357D01*
X0006800Y0049758D02*
X0065100Y0049758D01*
X0065100Y0048160D02*
X0006800Y0048160D01*
X0006800Y0046561D02*
X0065100Y0046561D01*
X0065233Y0044963D02*
X0034114Y0044963D01*
X0035180Y0043364D02*
X0066832Y0043364D01*
X0068430Y0041766D02*
X0052447Y0041766D01*
X0051889Y0042324D02*
X0050014Y0043100D01*
X0047986Y0043100D01*
X0046111Y0042324D01*
X0044676Y0040889D01*
X0043900Y0039014D01*
X0043900Y0036986D01*
X0044676Y0035111D01*
X0046111Y0033676D01*
X0047237Y0033210D01*
X0046889Y0033097D01*
X0046117Y0032704D01*
X0045417Y0032195D01*
X0044805Y0031583D01*
X0044296Y0030883D01*
X0043903Y0030111D01*
X0043635Y0029288D01*
X0043500Y0028433D01*
X0043500Y0028200D01*
X0048800Y0028200D01*
X0048800Y0027800D01*
X0043500Y0027800D01*
X0043500Y0027567D01*
X0043635Y0026712D01*
X0043903Y0025889D01*
X0044296Y0025117D01*
X0044805Y0024417D01*
X0045417Y0023805D01*
X0046117Y0023296D01*
X0046889Y0022903D01*
X0047712Y0022635D01*
X0048567Y0022500D01*
X0048800Y0022500D01*
X0048800Y0027800D01*
X0049200Y0027800D01*
X0049200Y0028200D01*
X0054500Y0028200D01*
X0054500Y0028433D01*
X0054365Y0029288D01*
X0054097Y0030111D01*
X0053704Y0030883D01*
X0053195Y0031583D01*
X0052583Y0032195D01*
X0051883Y0032704D01*
X0051111Y0033097D01*
X0050763Y0033210D01*
X0051889Y0033676D01*
X0053324Y0035111D01*
X0054100Y0036986D01*
X0054100Y0039014D01*
X0053324Y0040889D01*
X0051889Y0042324D01*
X0053622Y0040167D02*
X0070029Y0040167D01*
X0071627Y0038569D02*
X0054100Y0038569D01*
X0054094Y0036970D02*
X0073226Y0036970D01*
X0074824Y0035372D02*
X0053432Y0035372D01*
X0051986Y0033773D02*
X0076423Y0033773D01*
X0078021Y0032175D02*
X0052603Y0032175D01*
X0053860Y0030576D02*
X0079620Y0030576D01*
X0080431Y0028978D02*
X0054414Y0028978D01*
X0054500Y0027800D02*
X0049200Y0027800D01*
X0049200Y0022500D01*
X0049433Y0022500D01*
X0050288Y0022635D01*
X0051111Y0022903D01*
X0051883Y0023296D01*
X0052583Y0023805D01*
X0053195Y0024417D01*
X0053704Y0025117D01*
X0054097Y0025889D01*
X0054365Y0026712D01*
X0054500Y0027567D01*
X0054500Y0027800D01*
X0054470Y0027379D02*
X0080100Y0027379D01*
X0080286Y0025781D02*
X0054042Y0025781D01*
X0052960Y0024182D02*
X0081093Y0024182D01*
X0083352Y0022584D02*
X0061827Y0022584D01*
X0064912Y0020985D02*
X0153300Y0020985D01*
X0153300Y0022584D02*
X0086648Y0022584D01*
X0088907Y0024182D02*
X0153300Y0024182D01*
X0153300Y0025781D02*
X0089714Y0025781D01*
X0089900Y0027379D02*
X0147617Y0027379D01*
X0146018Y0028978D02*
X0089569Y0028978D01*
X0088558Y0030576D02*
X0144420Y0030576D01*
X0142821Y0032175D02*
X0082829Y0032175D01*
X0081231Y0033773D02*
X0141223Y0033773D01*
X0139624Y0035372D02*
X0079632Y0035372D01*
X0078034Y0036970D02*
X0119117Y0036970D01*
X0117728Y0038569D02*
X0076435Y0038569D01*
X0074837Y0040167D02*
X0117100Y0040167D01*
X0117100Y0041766D02*
X0073238Y0041766D01*
X0071640Y0043364D02*
X0117618Y0043364D01*
X0118850Y0044963D02*
X0070041Y0044963D01*
X0068500Y0046561D02*
X0157835Y0046561D01*
X0159433Y0044963D02*
X0151150Y0044963D01*
X0150689Y0045424D02*
X0152124Y0043989D01*
X0152900Y0042114D01*
X0152900Y0040086D01*
X0152124Y0038211D01*
X0150689Y0036776D01*
X0148814Y0036000D01*
X0146786Y0036000D01*
X0144911Y0036776D01*
X0143476Y0038211D01*
X0142700Y0040086D01*
X0142700Y0042114D01*
X0143476Y0043989D01*
X0144911Y0045424D01*
X0146786Y0046200D01*
X0148814Y0046200D01*
X0150689Y0045424D01*
X0152382Y0043364D02*
X0161032Y0043364D01*
X0162100Y0041766D02*
X0152900Y0041766D01*
X0152900Y0040167D02*
X0162100Y0040167D01*
X0162165Y0038569D02*
X0152272Y0038569D01*
X0150883Y0036970D02*
X0160566Y0036970D01*
X0158968Y0035372D02*
X0144432Y0035372D01*
X0144717Y0036970D02*
X0142834Y0036970D01*
X0143328Y0038569D02*
X0141235Y0038569D01*
X0142700Y0040167D02*
X0139637Y0040167D01*
X0138038Y0041766D02*
X0142700Y0041766D01*
X0143218Y0043364D02*
X0126782Y0043364D01*
X0125550Y0044963D02*
X0144450Y0044963D01*
X0138026Y0036970D02*
X0125283Y0036970D01*
X0126672Y0038569D02*
X0136427Y0038569D01*
X0146031Y0033773D02*
X0157369Y0033773D01*
X0155771Y0032175D02*
X0147629Y0032175D01*
X0156700Y0027379D02*
X0190217Y0027379D01*
X0191815Y0025781D02*
X0156700Y0025781D01*
X0156700Y0024182D02*
X0193414Y0024182D01*
X0195012Y0022584D02*
X0156700Y0022584D01*
X0156700Y0020985D02*
X0196611Y0020985D01*
X0198209Y0019387D02*
X0187260Y0019387D01*
X0186947Y0019700D02*
X0183053Y0019700D01*
X0180300Y0016947D01*
X0180300Y0013053D01*
X0183053Y0010300D01*
X0186947Y0010300D01*
X0189700Y0013053D01*
X0189700Y0016947D01*
X0186947Y0019700D01*
X0188859Y0017788D02*
X0199808Y0017788D01*
X0200300Y0016190D02*
X0189700Y0016190D01*
X0189700Y0014591D02*
X0200300Y0014591D01*
X0200361Y0012993D02*
X0189639Y0012993D01*
X0188041Y0011394D02*
X0201959Y0011394D01*
X0208041Y0011394D02*
X0211959Y0011394D01*
X0210361Y0012993D02*
X0209639Y0012993D01*
X0209700Y0014591D02*
X0210300Y0014591D01*
X0210300Y0016190D02*
X0209700Y0016190D01*
X0208859Y0017788D02*
X0211141Y0017788D01*
X0212740Y0019387D02*
X0207260Y0019387D01*
X0201419Y0020985D02*
X0217500Y0020985D01*
X0217500Y0019387D02*
X0217260Y0019387D01*
X0217500Y0022584D02*
X0199821Y0022584D01*
X0198222Y0024182D02*
X0217500Y0024182D01*
X0217500Y0025781D02*
X0196623Y0025781D01*
X0195025Y0027379D02*
X0217500Y0027379D01*
X0217500Y0028978D02*
X0193426Y0028978D01*
X0191828Y0030576D02*
X0217500Y0030576D01*
X0217500Y0032175D02*
X0190229Y0032175D01*
X0188631Y0033773D02*
X0217500Y0033773D01*
X0217500Y0035372D02*
X0187032Y0035372D01*
X0185434Y0036970D02*
X0189717Y0036970D01*
X0189911Y0036776D02*
X0188476Y0038211D01*
X0187700Y0040086D01*
X0187700Y0042114D01*
X0188476Y0043989D01*
X0189911Y0045424D01*
X0191786Y0046200D01*
X0193814Y0046200D01*
X0195689Y0045424D01*
X0197124Y0043989D01*
X0197900Y0042114D01*
X0197900Y0040086D01*
X0197124Y0038211D01*
X0195689Y0036776D01*
X0193814Y0036000D01*
X0191786Y0036000D01*
X0189911Y0036776D01*
X0188328Y0038569D02*
X0183835Y0038569D01*
X0182237Y0040167D02*
X0187700Y0040167D01*
X0187700Y0041766D02*
X0180638Y0041766D01*
X0179040Y0043364D02*
X0188218Y0043364D01*
X0189450Y0044963D02*
X0177441Y0044963D01*
X0175843Y0046561D02*
X0217500Y0046561D01*
X0217500Y0044963D02*
X0215550Y0044963D01*
X0215089Y0045424D02*
X0216524Y0043989D01*
X0217300Y0042114D01*
X0217300Y0040086D01*
X0216524Y0038211D01*
X0215089Y0036776D01*
X0213214Y0036000D01*
X0211186Y0036000D01*
X0209311Y0036776D01*
X0207876Y0038211D01*
X0207100Y0040086D01*
X0207100Y0042114D01*
X0207876Y0043989D01*
X0209311Y0045424D01*
X0211186Y0046200D01*
X0213214Y0046200D01*
X0215089Y0045424D01*
X0216782Y0043364D02*
X0217500Y0043364D01*
X0217500Y0041766D02*
X0217300Y0041766D01*
X0217300Y0040167D02*
X0217500Y0040167D01*
X0217500Y0038569D02*
X0216672Y0038569D01*
X0217500Y0036970D02*
X0215283Y0036970D01*
X0222100Y0036970D02*
X0234717Y0036970D01*
X0234911Y0036776D02*
X0236786Y0036000D01*
X0238814Y0036000D01*
X0240689Y0036776D01*
X0242124Y0038211D01*
X0242900Y0040086D01*
X0242900Y0042114D01*
X0242124Y0043989D01*
X0240689Y0045424D01*
X0238814Y0046200D01*
X0236786Y0046200D01*
X0234911Y0045424D01*
X0233476Y0043989D01*
X0232700Y0042114D01*
X0232700Y0040086D01*
X0233476Y0038211D01*
X0234911Y0036776D01*
X0233328Y0038569D02*
X0222100Y0038569D01*
X0222100Y0040167D02*
X0232700Y0040167D01*
X0232700Y0041766D02*
X0222100Y0041766D01*
X0222100Y0043364D02*
X0233218Y0043364D01*
X0234450Y0044963D02*
X0222100Y0044963D01*
X0222100Y0046561D02*
X0273200Y0046561D01*
X0273200Y0044963D02*
X0241150Y0044963D01*
X0242382Y0043364D02*
X0273200Y0043364D01*
X0273200Y0041766D02*
X0268801Y0041766D01*
X0269365Y0041532D02*
X0266533Y0042705D01*
X0263467Y0042705D01*
X0260635Y0041532D01*
X0258468Y0039365D01*
X0257294Y0036533D01*
X0257294Y0033467D01*
X0258468Y0030635D01*
X0260635Y0028468D01*
X0263467Y0027294D01*
X0266533Y0027294D01*
X0269365Y0028468D01*
X0271532Y0030635D01*
X0272705Y0033467D01*
X0272705Y0036533D01*
X0271532Y0039365D01*
X0269365Y0041532D01*
X0270730Y0040167D02*
X0273200Y0040167D01*
X0273200Y0038569D02*
X0271862Y0038569D01*
X0272524Y0036970D02*
X0273200Y0036970D01*
X0273200Y0035372D02*
X0272705Y0035372D01*
X0272705Y0033773D02*
X0273200Y0033773D01*
X0273200Y0032175D02*
X0272170Y0032175D01*
X0271473Y0030576D02*
X0273200Y0030576D01*
X0273200Y0028978D02*
X0269875Y0028978D01*
X0266737Y0027379D02*
X0273200Y0027379D01*
X0273200Y0025781D02*
X0226623Y0025781D01*
X0225025Y0027379D02*
X0263263Y0027379D01*
X0260125Y0028978D02*
X0223426Y0028978D01*
X0222100Y0030576D02*
X0258527Y0030576D01*
X0257830Y0032175D02*
X0222100Y0032175D01*
X0222100Y0033773D02*
X0257294Y0033773D01*
X0257294Y0035372D02*
X0222100Y0035372D01*
X0221815Y0025781D02*
X0220900Y0025781D01*
X0220900Y0024182D02*
X0223414Y0024182D01*
X0225012Y0022584D02*
X0220900Y0022584D01*
X0220900Y0020985D02*
X0226611Y0020985D01*
X0227260Y0019387D02*
X0228209Y0019387D01*
X0228859Y0017788D02*
X0229808Y0017788D01*
X0229700Y0016190D02*
X0230300Y0016190D01*
X0230300Y0014591D02*
X0229700Y0014591D01*
X0229639Y0012993D02*
X0230361Y0012993D01*
X0231959Y0011394D02*
X0228041Y0011394D01*
X0221959Y0011394D02*
X0220198Y0011394D01*
X0218600Y0009796D02*
X0263200Y0009796D01*
X0263200Y0011394D02*
X0258041Y0011394D01*
X0256947Y0010300D02*
X0259700Y0013053D01*
X0259700Y0016947D01*
X0256947Y0019700D01*
X0253053Y0019700D01*
X0250300Y0016947D01*
X0250300Y0013053D01*
X0253053Y0010300D01*
X0256947Y0010300D01*
X0259639Y0012993D02*
X0263200Y0012993D01*
X0263200Y0014591D02*
X0259700Y0014591D01*
X0259700Y0016190D02*
X0263644Y0016190D01*
X0265243Y0017788D02*
X0258859Y0017788D01*
X0257260Y0019387D02*
X0266841Y0019387D01*
X0268440Y0020985D02*
X0231419Y0020985D01*
X0229821Y0022584D02*
X0270038Y0022584D01*
X0271637Y0024182D02*
X0228222Y0024182D01*
X0222740Y0019387D02*
X0220900Y0019387D01*
X0220900Y0017788D02*
X0221141Y0017788D01*
X0213791Y0009796D02*
X0065693Y0009796D01*
X0066847Y0011394D02*
X0111959Y0011394D01*
X0113053Y0010300D02*
X0110300Y0013053D01*
X0110300Y0016947D01*
X0113053Y0019700D01*
X0116947Y0019700D01*
X0119700Y0016947D01*
X0119700Y0013053D01*
X0116947Y0010300D01*
X0113053Y0010300D01*
X0110361Y0012993D02*
X0067509Y0012993D01*
X0067705Y0014591D02*
X0110300Y0014591D01*
X0110300Y0016190D02*
X0067705Y0016190D01*
X0067186Y0017788D02*
X0111141Y0017788D01*
X0112740Y0019387D02*
X0066511Y0019387D01*
X0058173Y0022584D02*
X0049961Y0022584D01*
X0049200Y0022584D02*
X0048800Y0022584D01*
X0048039Y0022584D02*
X0044421Y0022584D01*
X0045040Y0024182D02*
X0042822Y0024182D01*
X0043958Y0025781D02*
X0041223Y0025781D01*
X0039625Y0027379D02*
X0043530Y0027379D01*
X0043586Y0028978D02*
X0038026Y0028978D01*
X0036428Y0030576D02*
X0044140Y0030576D01*
X0045397Y0032175D02*
X0034829Y0032175D01*
X0034300Y0033773D02*
X0046014Y0033773D01*
X0044568Y0035372D02*
X0034300Y0035372D01*
X0034300Y0036970D02*
X0043906Y0036970D01*
X0043900Y0038569D02*
X0034300Y0038569D01*
X0034300Y0040167D02*
X0044378Y0040167D01*
X0045553Y0041766D02*
X0034986Y0041766D01*
X0030900Y0040167D02*
X0006800Y0040167D01*
X0006800Y0038569D02*
X0030900Y0038569D01*
X0030900Y0036970D02*
X0006800Y0036970D01*
X0006800Y0035372D02*
X0030900Y0035372D01*
X0030900Y0033773D02*
X0006800Y0033773D01*
X0006800Y0032175D02*
X0030900Y0032175D01*
X0031620Y0030576D02*
X0006800Y0030576D01*
X0006800Y0028978D02*
X0033218Y0028978D01*
X0031896Y0030300D02*
X0031896Y0030300D01*
X0034817Y0027379D02*
X0006800Y0027379D01*
X0006800Y0025781D02*
X0036415Y0025781D01*
X0038014Y0024182D02*
X0006800Y0024182D01*
X0006800Y0022584D02*
X0039612Y0022584D01*
X0041211Y0020985D02*
X0006800Y0020985D01*
X0006800Y0019387D02*
X0042809Y0019387D01*
X0044408Y0017788D02*
X0006800Y0017788D01*
X0006800Y0016190D02*
X0046006Y0016190D01*
X0047605Y0014591D02*
X0006800Y0014591D01*
X0006800Y0012993D02*
X0049203Y0012993D01*
X0050802Y0011394D02*
X0006800Y0011394D01*
X0006800Y0009796D02*
X0052400Y0009796D01*
X0053999Y0008197D02*
X0006800Y0008197D01*
X0046019Y0020985D02*
X0055088Y0020985D01*
X0053489Y0019387D02*
X0047618Y0019387D01*
X0049216Y0017788D02*
X0052814Y0017788D01*
X0052294Y0016190D02*
X0050815Y0016190D01*
X0049200Y0024182D02*
X0048800Y0024182D01*
X0048800Y0025781D02*
X0049200Y0025781D01*
X0049200Y0027379D02*
X0048800Y0027379D01*
X0030214Y0041766D02*
X0006800Y0041766D01*
X0006800Y0043364D02*
X0030020Y0043364D01*
X0031086Y0044963D02*
X0006800Y0044963D01*
X0020829Y0054554D02*
X0065100Y0054554D01*
X0065100Y0056152D02*
X0021380Y0056152D01*
X0020887Y0057751D02*
X0065100Y0057751D01*
X0065100Y0059349D02*
X0020680Y0059349D01*
X0020680Y0060948D02*
X0065100Y0060948D01*
X0065100Y0062546D02*
X0020680Y0062546D01*
X0020680Y0064145D02*
X0065100Y0064145D01*
X0065100Y0065743D02*
X0020680Y0065743D01*
X0020680Y0067342D02*
X0065100Y0067342D01*
X0065100Y0068940D02*
X0020680Y0068940D01*
X0020680Y0070539D02*
X0065100Y0070539D01*
X0065100Y0072137D02*
X0020680Y0072137D01*
X0020680Y0073736D02*
X0065100Y0073736D01*
X0065100Y0075334D02*
X0020680Y0075334D01*
X0020680Y0076933D02*
X0065100Y0076933D01*
X0065100Y0078532D02*
X0022206Y0078532D01*
X0022600Y0080130D02*
X0065100Y0080130D01*
X0068500Y0083327D02*
X0120097Y0083327D01*
X0128500Y0083327D02*
X0132600Y0083327D01*
X0132935Y0084926D02*
X0129100Y0084926D01*
X0129100Y0086524D02*
X0145800Y0086524D01*
X0146246Y0088123D02*
X0129100Y0088123D01*
X0129100Y0089721D02*
X0146700Y0089721D01*
X0146700Y0091320D02*
X0129100Y0091320D01*
X0129100Y0092918D02*
X0146700Y0092918D01*
X0146700Y0094517D02*
X0129100Y0094517D01*
X0133045Y0096115D02*
X0136955Y0096115D01*
X0137224Y0095846D02*
X0139025Y0095100D01*
X0140975Y0095100D01*
X0142776Y0095846D01*
X0144154Y0097224D01*
X0144900Y0099025D01*
X0144900Y0100975D01*
X0144154Y0102776D01*
X0142776Y0104154D01*
X0140975Y0104900D01*
X0139025Y0104900D01*
X0137224Y0104154D01*
X0135846Y0102776D01*
X0135100Y0100975D01*
X0135100Y0099025D01*
X0135846Y0097224D01*
X0137224Y0095846D01*
X0135643Y0097714D02*
X0134357Y0097714D01*
X0134900Y0099312D02*
X0135100Y0099312D01*
X0135100Y0100911D02*
X0134900Y0100911D01*
X0134264Y0102509D02*
X0135736Y0102509D01*
X0137178Y0104108D02*
X0132822Y0104108D01*
X0142822Y0104108D02*
X0147178Y0104108D01*
X0145736Y0102509D02*
X0144264Y0102509D01*
X0144900Y0100911D02*
X0145100Y0100911D01*
X0145100Y0099312D02*
X0144900Y0099312D01*
X0144357Y0097714D02*
X0145643Y0097714D01*
X0146700Y0096115D02*
X0143045Y0096115D01*
X0143564Y0084926D02*
X0142279Y0084926D01*
X0140196Y0081729D02*
X0137005Y0081729D01*
X0139900Y0080130D02*
X0128500Y0080130D01*
X0128500Y0078532D02*
X0140088Y0078532D01*
X0140854Y0076933D02*
X0128500Y0076933D01*
X0128500Y0075334D02*
X0142937Y0075334D01*
X0147063Y0075334D02*
X0152937Y0075334D01*
X0153300Y0073736D02*
X0128500Y0073736D01*
X0128500Y0072137D02*
X0153300Y0072137D01*
X0153300Y0070539D02*
X0128500Y0070539D01*
X0128500Y0068940D02*
X0153300Y0068940D01*
X0153300Y0067342D02*
X0128500Y0067342D01*
X0128500Y0065743D02*
X0153300Y0065743D01*
X0153300Y0064145D02*
X0128500Y0064145D01*
X0128500Y0062546D02*
X0144234Y0062546D01*
X0144911Y0063224D02*
X0143476Y0061789D01*
X0142700Y0059914D01*
X0142700Y0057886D01*
X0143476Y0056011D01*
X0144911Y0054576D01*
X0146786Y0053800D01*
X0148814Y0053800D01*
X0150689Y0054576D01*
X0152124Y0056011D01*
X0152900Y0057886D01*
X0152900Y0059914D01*
X0152124Y0061789D01*
X0150689Y0063224D01*
X0148814Y0064000D01*
X0146786Y0064000D01*
X0144911Y0063224D01*
X0143128Y0060948D02*
X0128500Y0060948D01*
X0128500Y0059349D02*
X0142700Y0059349D01*
X0142756Y0057751D02*
X0128500Y0057751D01*
X0128500Y0056152D02*
X0143418Y0056152D01*
X0144966Y0054554D02*
X0127158Y0054554D01*
X0125559Y0052955D02*
X0153300Y0052955D01*
X0153300Y0051357D02*
X0123961Y0051357D01*
X0150634Y0054554D02*
X0153300Y0054554D01*
X0153300Y0056152D02*
X0152182Y0056152D01*
X0152844Y0057751D02*
X0153300Y0057751D01*
X0153300Y0059349D02*
X0152900Y0059349D01*
X0153300Y0060948D02*
X0152472Y0060948D01*
X0153300Y0062546D02*
X0151366Y0062546D01*
X0159100Y0062546D02*
X0163634Y0062546D01*
X0162528Y0060948D02*
X0159100Y0060948D01*
X0159100Y0059349D02*
X0162100Y0059349D01*
X0162156Y0057751D02*
X0159100Y0057751D01*
X0159100Y0056152D02*
X0162818Y0056152D01*
X0164366Y0054554D02*
X0159100Y0054554D01*
X0159100Y0052955D02*
X0217951Y0052955D01*
X0217500Y0051357D02*
X0159647Y0051357D01*
X0161246Y0049758D02*
X0217500Y0049758D01*
X0217500Y0048160D02*
X0174244Y0048160D01*
X0172633Y0044963D02*
X0170550Y0044963D01*
X0171782Y0043364D02*
X0174232Y0043364D01*
X0175830Y0041766D02*
X0172300Y0041766D01*
X0172300Y0040167D02*
X0177429Y0040167D01*
X0179027Y0038569D02*
X0171672Y0038569D01*
X0170283Y0036970D02*
X0180626Y0036970D01*
X0182224Y0035372D02*
X0163776Y0035372D01*
X0162177Y0033773D02*
X0183823Y0033773D01*
X0185421Y0032175D02*
X0160579Y0032175D01*
X0158980Y0030576D02*
X0187020Y0030576D01*
X0188618Y0028978D02*
X0157382Y0028978D01*
X0162888Y0020100D02*
X0159900Y0017112D01*
X0159900Y0015184D01*
X0164816Y0015184D01*
X0164816Y0014816D01*
X0165184Y0014816D01*
X0165184Y0009900D01*
X0167112Y0009900D01*
X0170000Y0012788D01*
X0172888Y0009900D01*
X0174816Y0009900D01*
X0174816Y0014816D01*
X0175184Y0014816D01*
X0175184Y0009900D01*
X0177112Y0009900D01*
X0180100Y0012888D01*
X0180100Y0014816D01*
X0175184Y0014816D01*
X0175184Y0015184D01*
X0174816Y0015184D01*
X0174816Y0014816D01*
X0165184Y0014816D01*
X0165184Y0015184D01*
X0164816Y0015184D01*
X0164816Y0020100D01*
X0162888Y0020100D01*
X0162174Y0019387D02*
X0157260Y0019387D01*
X0158859Y0017788D02*
X0160576Y0017788D01*
X0159900Y0016190D02*
X0159700Y0016190D01*
X0159900Y0014816D02*
X0159900Y0012888D01*
X0162888Y0009900D01*
X0164816Y0009900D01*
X0164816Y0014816D01*
X0159900Y0014816D01*
X0159900Y0014591D02*
X0159700Y0014591D01*
X0159639Y0012993D02*
X0159900Y0012993D01*
X0161393Y0011394D02*
X0158041Y0011394D01*
X0151959Y0011394D02*
X0148041Y0011394D01*
X0146947Y0010300D02*
X0143053Y0010300D01*
X0140300Y0013053D01*
X0140300Y0016947D01*
X0143053Y0019700D01*
X0146947Y0019700D01*
X0149700Y0016947D01*
X0149700Y0013053D01*
X0146947Y0010300D01*
X0149639Y0012993D02*
X0150361Y0012993D01*
X0150300Y0014591D02*
X0149700Y0014591D01*
X0149700Y0016190D02*
X0150300Y0016190D01*
X0151141Y0017788D02*
X0148859Y0017788D01*
X0147260Y0019387D02*
X0152740Y0019387D01*
X0142740Y0019387D02*
X0137260Y0019387D01*
X0136947Y0019700D02*
X0133053Y0019700D01*
X0130300Y0016947D01*
X0130300Y0013053D01*
X0133053Y0010300D01*
X0136947Y0010300D01*
X0139700Y0013053D01*
X0139700Y0016947D01*
X0136947Y0019700D01*
X0138859Y0017788D02*
X0141141Y0017788D01*
X0140300Y0016190D02*
X0139700Y0016190D01*
X0139700Y0014591D02*
X0140300Y0014591D01*
X0140361Y0012993D02*
X0139639Y0012993D01*
X0138041Y0011394D02*
X0141959Y0011394D01*
X0131959Y0011394D02*
X0128041Y0011394D01*
X0126947Y0010300D02*
X0123053Y0010300D01*
X0120300Y0013053D01*
X0120300Y0016947D01*
X0123053Y0019700D01*
X0126947Y0019700D01*
X0129700Y0016947D01*
X0129700Y0013053D01*
X0126947Y0010300D01*
X0129639Y0012993D02*
X0130361Y0012993D01*
X0130300Y0014591D02*
X0129700Y0014591D01*
X0129700Y0016190D02*
X0130300Y0016190D01*
X0131141Y0017788D02*
X0128859Y0017788D01*
X0127260Y0019387D02*
X0132740Y0019387D01*
X0122740Y0019387D02*
X0117260Y0019387D01*
X0118859Y0017788D02*
X0121141Y0017788D01*
X0120300Y0016190D02*
X0119700Y0016190D01*
X0119700Y0014591D02*
X0120300Y0014591D01*
X0120361Y0012993D02*
X0119639Y0012993D01*
X0118041Y0011394D02*
X0121959Y0011394D01*
X0164816Y0011394D02*
X0165184Y0011394D01*
X0165184Y0012993D02*
X0164816Y0012993D01*
X0164816Y0014591D02*
X0165184Y0014591D01*
X0165184Y0015184D02*
X0170100Y0015184D01*
X0174816Y0015184D01*
X0174816Y0020100D01*
X0172888Y0020100D01*
X0170000Y0017212D01*
X0167112Y0020100D01*
X0165184Y0020100D01*
X0165184Y0015184D01*
X0165184Y0016190D02*
X0164816Y0016190D01*
X0164816Y0017788D02*
X0165184Y0017788D01*
X0165184Y0019387D02*
X0164816Y0019387D01*
X0167826Y0019387D02*
X0172174Y0019387D01*
X0170576Y0017788D02*
X0169424Y0017788D01*
X0174816Y0017788D02*
X0175184Y0017788D01*
X0175184Y0016190D02*
X0174816Y0016190D01*
X0175184Y0015184D02*
X0175184Y0020100D01*
X0177112Y0020100D01*
X0180100Y0017112D01*
X0180100Y0015184D01*
X0175184Y0015184D01*
X0175184Y0014591D02*
X0174816Y0014591D01*
X0174816Y0012993D02*
X0175184Y0012993D01*
X0175184Y0011394D02*
X0174816Y0011394D01*
X0171393Y0011394D02*
X0168607Y0011394D01*
X0178607Y0011394D02*
X0181959Y0011394D01*
X0180361Y0012993D02*
X0180100Y0012993D01*
X0180100Y0014591D02*
X0180300Y0014591D01*
X0180300Y0016190D02*
X0180100Y0016190D01*
X0179424Y0017788D02*
X0181141Y0017788D01*
X0182740Y0019387D02*
X0177826Y0019387D01*
X0175184Y0019387D02*
X0174816Y0019387D01*
X0195883Y0036970D02*
X0209117Y0036970D01*
X0207728Y0038569D02*
X0197272Y0038569D01*
X0197900Y0040167D02*
X0207100Y0040167D01*
X0207100Y0041766D02*
X0197900Y0041766D01*
X0197382Y0043364D02*
X0207618Y0043364D01*
X0208850Y0044963D02*
X0196150Y0044963D01*
X0193814Y0053800D02*
X0191786Y0053800D01*
X0189911Y0054576D01*
X0188476Y0056011D01*
X0187700Y0057886D01*
X0187700Y0059914D01*
X0188476Y0061789D01*
X0189911Y0063224D01*
X0191786Y0064000D01*
X0193814Y0064000D01*
X0195689Y0063224D01*
X0197124Y0061789D01*
X0197525Y0060819D01*
X0197796Y0061473D01*
X0198527Y0062204D01*
X0199483Y0062600D01*
X0199913Y0062600D01*
X0207400Y0070087D01*
X0207400Y0070517D01*
X0207796Y0071473D01*
X0208527Y0072204D01*
X0209483Y0072600D01*
X0210517Y0072600D01*
X0211473Y0072204D01*
X0212204Y0071473D01*
X0212600Y0070517D01*
X0212600Y0069483D01*
X0212204Y0068527D01*
X0211473Y0067796D01*
X0210517Y0067400D01*
X0210087Y0067400D01*
X0202600Y0059913D01*
X0202600Y0059483D01*
X0202204Y0058527D01*
X0201473Y0057796D01*
X0200517Y0057400D01*
X0199483Y0057400D01*
X0198527Y0057796D01*
X0197900Y0058423D01*
X0197900Y0057886D01*
X0197124Y0056011D01*
X0195689Y0054576D01*
X0193814Y0053800D01*
X0195634Y0054554D02*
X0209366Y0054554D01*
X0209311Y0054576D02*
X0211186Y0053800D01*
X0213214Y0053800D01*
X0215089Y0054576D01*
X0216524Y0056011D01*
X0217300Y0057886D01*
X0217300Y0059914D01*
X0216524Y0061789D01*
X0215089Y0063224D01*
X0213214Y0064000D01*
X0211186Y0064000D01*
X0209311Y0063224D01*
X0207876Y0061789D01*
X0207100Y0059914D01*
X0207100Y0057886D01*
X0207876Y0056011D01*
X0209311Y0054576D01*
X0207818Y0056152D02*
X0197182Y0056152D01*
X0197844Y0057751D02*
X0198636Y0057751D01*
X0201364Y0057751D02*
X0207156Y0057751D01*
X0207100Y0059349D02*
X0202545Y0059349D01*
X0203635Y0060948D02*
X0207528Y0060948D01*
X0208634Y0062546D02*
X0205233Y0062546D01*
X0206832Y0064145D02*
X0227868Y0064145D01*
X0226812Y0062546D02*
X0215766Y0062546D01*
X0216872Y0060948D02*
X0225944Y0060948D01*
X0224345Y0059349D02*
X0217300Y0059349D01*
X0217244Y0057751D02*
X0222747Y0057751D01*
X0221148Y0056152D02*
X0216582Y0056152D01*
X0215034Y0054554D02*
X0219550Y0054554D01*
X0222961Y0051357D02*
X0273200Y0051357D01*
X0273200Y0052955D02*
X0224559Y0052955D01*
X0226158Y0054554D02*
X0234966Y0054554D01*
X0233418Y0056152D02*
X0227757Y0056152D01*
X0229355Y0057751D02*
X0232756Y0057751D01*
X0232700Y0059349D02*
X0232154Y0059349D01*
X0233500Y0062546D02*
X0234234Y0062546D01*
X0233500Y0064145D02*
X0273200Y0064145D01*
X0273200Y0065743D02*
X0233500Y0065743D01*
X0233500Y0067342D02*
X0273200Y0067342D01*
X0273200Y0068940D02*
X0233500Y0068940D01*
X0233500Y0070539D02*
X0273200Y0070539D01*
X0273200Y0072137D02*
X0233500Y0072137D01*
X0233500Y0073736D02*
X0273200Y0073736D01*
X0273200Y0075334D02*
X0233500Y0075334D01*
X0233500Y0076933D02*
X0273200Y0076933D01*
X0273200Y0078532D02*
X0233500Y0078532D01*
X0233500Y0080130D02*
X0273200Y0080130D01*
X0273200Y0081729D02*
X0233500Y0081729D01*
X0233500Y0083327D02*
X0273200Y0083327D01*
X0273200Y0084926D02*
X0233500Y0084926D01*
X0233500Y0086524D02*
X0273200Y0086524D01*
X0273200Y0088123D02*
X0233500Y0088123D01*
X0233500Y0089721D02*
X0273200Y0089721D01*
X0273200Y0091320D02*
X0233500Y0091320D01*
X0233500Y0092918D02*
X0273200Y0092918D01*
X0273200Y0094517D02*
X0233500Y0094517D01*
X0233500Y0096115D02*
X0273200Y0096115D01*
X0273200Y0097714D02*
X0233500Y0097714D01*
X0233500Y0099312D02*
X0273200Y0099312D01*
X0273200Y0100911D02*
X0233500Y0100911D01*
X0233500Y0102509D02*
X0273200Y0102509D01*
X0273200Y0104108D02*
X0233500Y0104108D01*
X0233500Y0105706D02*
X0273200Y0105706D01*
X0273200Y0107305D02*
X0233500Y0107305D01*
X0233500Y0108903D02*
X0273200Y0108903D01*
X0273200Y0110502D02*
X0233500Y0110502D01*
X0233500Y0112100D02*
X0273200Y0112100D01*
X0273200Y0113699D02*
X0233500Y0113699D01*
X0233500Y0115297D02*
X0273200Y0115297D01*
X0273200Y0116896D02*
X0233500Y0116896D01*
X0233500Y0118494D02*
X0273200Y0118494D01*
X0273200Y0120093D02*
X0233500Y0120093D01*
X0233500Y0121691D02*
X0273200Y0121691D01*
X0273200Y0123290D02*
X0233500Y0123290D01*
X0233500Y0124888D02*
X0273200Y0124888D01*
X0273200Y0126487D02*
X0233500Y0126487D01*
X0233500Y0128085D02*
X0273200Y0128085D01*
X0273200Y0129684D02*
X0233500Y0129684D01*
X0233500Y0131282D02*
X0273200Y0131282D01*
X0273200Y0132881D02*
X0233500Y0132881D01*
X0233500Y0134479D02*
X0273200Y0134479D01*
X0273200Y0136078D02*
X0233500Y0136078D01*
X0233500Y0137676D02*
X0262545Y0137676D01*
X0263467Y0137294D02*
X0260635Y0138468D01*
X0258468Y0140635D01*
X0257294Y0143467D01*
X0257294Y0146533D01*
X0258468Y0149365D01*
X0260635Y0151532D01*
X0263467Y0152705D01*
X0266533Y0152705D01*
X0269365Y0151532D01*
X0271532Y0149365D01*
X0272705Y0146533D01*
X0272705Y0143467D01*
X0271532Y0140635D01*
X0269365Y0138468D01*
X0266533Y0137294D01*
X0263467Y0137294D01*
X0267455Y0137676D02*
X0273200Y0137676D01*
X0273200Y0139275D02*
X0270172Y0139275D01*
X0271631Y0140873D02*
X0273200Y0140873D01*
X0273200Y0142472D02*
X0272293Y0142472D01*
X0272705Y0144070D02*
X0273200Y0144070D01*
X0273200Y0145669D02*
X0272705Y0145669D01*
X0272401Y0147268D02*
X0273200Y0147268D01*
X0273200Y0148866D02*
X0271739Y0148866D01*
X0270433Y0150465D02*
X0273200Y0150465D01*
X0273200Y0152063D02*
X0268084Y0152063D01*
X0271194Y0155260D02*
X0238064Y0155260D01*
X0238300Y0156859D02*
X0269596Y0156859D01*
X0267997Y0158457D02*
X0238300Y0158457D01*
X0238300Y0160056D02*
X0266399Y0160056D01*
X0264800Y0161654D02*
X0238300Y0161654D01*
X0238300Y0163253D02*
X0263202Y0163253D01*
X0263200Y0164851D02*
X0238300Y0164851D01*
X0238300Y0166450D02*
X0263200Y0166450D01*
X0263200Y0168048D02*
X0238300Y0168048D01*
X0238300Y0169647D02*
X0263200Y0169647D01*
X0263200Y0171245D02*
X0239049Y0171245D01*
X0240648Y0172844D02*
X0263200Y0172844D01*
X0263200Y0174442D02*
X0242246Y0174442D01*
X0239037Y0176041D02*
X0235900Y0176041D01*
X0235900Y0177639D02*
X0240458Y0177639D01*
X0239900Y0179238D02*
X0235900Y0179238D01*
X0235900Y0180836D02*
X0239900Y0180836D01*
X0240488Y0182435D02*
X0235900Y0182435D01*
X0235900Y0184033D02*
X0241821Y0184033D01*
X0235900Y0185632D02*
X0263200Y0185632D01*
X0263200Y0187230D02*
X0235900Y0187230D01*
X0235900Y0188829D02*
X0263200Y0188829D01*
X0263200Y0190427D02*
X0235900Y0190427D01*
X0235900Y0192026D02*
X0263200Y0192026D01*
X0263200Y0193624D02*
X0235900Y0193624D01*
X0235900Y0195223D02*
X0263200Y0195223D01*
X0263200Y0196821D02*
X0235583Y0196821D01*
X0233984Y0198420D02*
X0263200Y0198420D01*
X0263200Y0200018D02*
X0232386Y0200018D01*
X0233053Y0200300D02*
X0236947Y0200300D01*
X0239700Y0203053D01*
X0239700Y0206947D01*
X0236947Y0209700D01*
X0233053Y0209700D01*
X0230300Y0206947D01*
X0230300Y0203053D01*
X0233053Y0200300D01*
X0231736Y0201617D02*
X0230787Y0201617D01*
X0230300Y0203215D02*
X0229700Y0203215D01*
X0229700Y0204814D02*
X0230300Y0204814D01*
X0230300Y0206412D02*
X0229700Y0206412D01*
X0228636Y0208011D02*
X0231364Y0208011D01*
X0232963Y0209609D02*
X0227037Y0209609D01*
X0222963Y0209609D02*
X0217037Y0209609D01*
X0218636Y0208011D02*
X0221364Y0208011D01*
X0220300Y0206412D02*
X0219700Y0206412D01*
X0219700Y0204814D02*
X0220300Y0204814D01*
X0220300Y0203215D02*
X0219700Y0203215D01*
X0218264Y0201617D02*
X0221736Y0201617D01*
X0227577Y0200018D02*
X0146500Y0200018D01*
X0146500Y0198420D02*
X0229176Y0198420D01*
X0230774Y0196821D02*
X0146500Y0196821D01*
X0146500Y0195223D02*
X0232373Y0195223D01*
X0232500Y0193624D02*
X0146500Y0193624D01*
X0146500Y0192026D02*
X0232500Y0192026D01*
X0232500Y0190427D02*
X0146500Y0190427D01*
X0146500Y0188829D02*
X0232500Y0188829D01*
X0232500Y0187230D02*
X0146500Y0187230D01*
X0146500Y0185632D02*
X0232500Y0185632D01*
X0232500Y0184033D02*
X0228179Y0184033D01*
X0227889Y0184324D02*
X0226014Y0185100D01*
X0223986Y0185100D01*
X0222111Y0184324D01*
X0220676Y0182889D01*
X0220000Y0181256D01*
X0219324Y0182889D01*
X0217889Y0184324D01*
X0216014Y0185100D01*
X0213986Y0185100D01*
X0212111Y0184324D01*
X0210676Y0182889D01*
X0209900Y0181014D01*
X0209900Y0178986D01*
X0210676Y0177111D01*
X0212111Y0175676D01*
X0213986Y0174900D01*
X0216014Y0174900D01*
X0217889Y0175676D01*
X0219324Y0177111D01*
X0220000Y0178744D01*
X0220676Y0177111D01*
X0222111Y0175676D01*
X0223986Y0174900D01*
X0226014Y0174900D01*
X0227889Y0175676D01*
X0229324Y0177111D01*
X0230100Y0178986D01*
X0230100Y0181014D01*
X0229324Y0182889D01*
X0227889Y0184324D01*
X0229512Y0182435D02*
X0232500Y0182435D01*
X0232500Y0180836D02*
X0230100Y0180836D01*
X0230100Y0179238D02*
X0232500Y0179238D01*
X0232500Y0177639D02*
X0229542Y0177639D01*
X0228253Y0176041D02*
X0232500Y0176041D01*
X0232500Y0174442D02*
X0197602Y0174442D01*
X0199342Y0172844D02*
X0232500Y0172844D01*
X0232500Y0171245D02*
X0200004Y0171245D01*
X0200100Y0169647D02*
X0232500Y0169647D01*
X0232500Y0168048D02*
X0199712Y0168048D01*
X0198662Y0166450D02*
X0232500Y0166450D01*
X0235900Y0174442D02*
X0237438Y0174442D01*
X0248253Y0176041D02*
X0251747Y0176041D01*
X0250458Y0177639D02*
X0249542Y0177639D01*
X0249512Y0182435D02*
X0250488Y0182435D01*
X0251821Y0184033D02*
X0248179Y0184033D01*
X0258179Y0184033D02*
X0263200Y0184033D01*
X0263200Y0182435D02*
X0259512Y0182435D01*
X0260100Y0180836D02*
X0263200Y0180836D01*
X0263200Y0179238D02*
X0260100Y0179238D01*
X0259542Y0177639D02*
X0263200Y0177639D01*
X0263200Y0176041D02*
X0258253Y0176041D01*
X0261916Y0152063D02*
X0237700Y0152063D01*
X0237700Y0153662D02*
X0272793Y0153662D01*
X0259567Y0150465D02*
X0236269Y0150465D01*
X0234670Y0148866D02*
X0258261Y0148866D01*
X0257599Y0147268D02*
X0233500Y0147268D01*
X0233500Y0145669D02*
X0257294Y0145669D01*
X0257294Y0144070D02*
X0233500Y0144070D01*
X0233500Y0142472D02*
X0257707Y0142472D01*
X0258369Y0140873D02*
X0233500Y0140873D01*
X0233500Y0139275D02*
X0259828Y0139275D01*
X0231460Y0150465D02*
X0231304Y0150465D01*
X0221747Y0176041D02*
X0218253Y0176041D01*
X0219542Y0177639D02*
X0220458Y0177639D01*
X0220488Y0182435D02*
X0219512Y0182435D01*
X0218179Y0184033D02*
X0221821Y0184033D01*
X0211821Y0184033D02*
X0146500Y0184033D01*
X0146500Y0182435D02*
X0210488Y0182435D01*
X0209900Y0180836D02*
X0146500Y0180836D01*
X0145042Y0179238D02*
X0209900Y0179238D01*
X0210458Y0177639D02*
X0143443Y0177639D01*
X0141845Y0176041D02*
X0211747Y0176041D01*
X0192398Y0174442D02*
X0187602Y0174442D01*
X0189342Y0172844D02*
X0190658Y0172844D01*
X0190288Y0168048D02*
X0189712Y0168048D01*
X0188662Y0166450D02*
X0191338Y0166450D01*
X0181338Y0166450D02*
X0178662Y0166450D01*
X0179712Y0168048D02*
X0180288Y0168048D01*
X0180658Y0172844D02*
X0179342Y0172844D01*
X0177602Y0174442D02*
X0182398Y0174442D01*
X0172398Y0174442D02*
X0167602Y0174442D01*
X0169342Y0172844D02*
X0170658Y0172844D01*
X0170288Y0168048D02*
X0169712Y0168048D01*
X0168662Y0166450D02*
X0171338Y0166450D01*
X0172859Y0144070D02*
X0177141Y0144070D01*
X0175720Y0142472D02*
X0174280Y0142472D01*
X0174900Y0140873D02*
X0175100Y0140873D01*
X0175100Y0139275D02*
X0174900Y0139275D01*
X0174341Y0137676D02*
X0175659Y0137676D01*
X0176992Y0136078D02*
X0173008Y0136078D01*
X0136992Y0136078D02*
X0133008Y0136078D01*
X0134341Y0137676D02*
X0135659Y0137676D01*
X0135100Y0139275D02*
X0134900Y0139275D01*
X0134900Y0140873D02*
X0135100Y0140873D01*
X0135720Y0142472D02*
X0134280Y0142472D01*
X0132859Y0144070D02*
X0137141Y0144070D01*
X0124866Y0144070D02*
X0122859Y0144070D01*
X0117141Y0144070D02*
X0112859Y0144070D01*
X0114280Y0142472D02*
X0115720Y0142472D01*
X0115100Y0140873D02*
X0114900Y0140873D01*
X0114900Y0139275D02*
X0115100Y0139275D01*
X0115659Y0137676D02*
X0114341Y0137676D01*
X0113008Y0136078D02*
X0116992Y0136078D01*
X0117178Y0104108D02*
X0112822Y0104108D01*
X0114264Y0102509D02*
X0115736Y0102509D01*
X0115100Y0100911D02*
X0114900Y0100911D01*
X0114900Y0099312D02*
X0115100Y0099312D01*
X0115643Y0097714D02*
X0114357Y0097714D01*
X0113045Y0096115D02*
X0116955Y0096115D01*
X0123045Y0096115D02*
X0124500Y0096115D01*
X0109678Y0084926D02*
X0068500Y0084926D01*
X0068500Y0086524D02*
X0108080Y0086524D01*
X0106481Y0088123D02*
X0068500Y0088123D01*
X0068500Y0089721D02*
X0099673Y0089721D01*
X0103241Y0089721D02*
X0104883Y0089721D01*
X0087536Y0091320D02*
X0068500Y0091320D01*
X0068500Y0092918D02*
X0085938Y0092918D01*
X0084339Y0094517D02*
X0068500Y0094517D01*
X0068500Y0096115D02*
X0082741Y0096115D01*
X0081142Y0097714D02*
X0068500Y0097714D01*
X0068500Y0099312D02*
X0079544Y0099312D01*
X0077945Y0100911D02*
X0068500Y0100911D01*
X0068500Y0102509D02*
X0076346Y0102509D01*
X0074748Y0104108D02*
X0068500Y0104108D01*
X0068500Y0105706D02*
X0073149Y0105706D01*
X0071551Y0107305D02*
X0068500Y0107305D01*
X0068780Y0108903D02*
X0069952Y0108903D01*
X0064623Y0112100D02*
X0031827Y0112100D01*
X0030229Y0110502D02*
X0064200Y0110502D01*
X0065157Y0113699D02*
X0033426Y0113699D01*
X0035024Y0115297D02*
X0063558Y0115297D01*
X0061960Y0116896D02*
X0036623Y0116896D01*
X0038221Y0118494D02*
X0060361Y0118494D01*
X0058763Y0120093D02*
X0039820Y0120093D01*
X0041418Y0121691D02*
X0057164Y0121691D01*
X0055566Y0123290D02*
X0043017Y0123290D01*
X0044615Y0124888D02*
X0046789Y0124888D01*
X0049825Y0124888D02*
X0053967Y0124888D01*
X0054194Y0139275D02*
X0042514Y0139275D01*
X0043560Y0140873D02*
X0055792Y0140873D01*
X0006800Y0188829D02*
X0143100Y0188829D01*
X0143100Y0190427D02*
X0006800Y0190427D01*
X0006800Y0192026D02*
X0143100Y0192026D01*
X0143100Y0193624D02*
X0006800Y0193624D01*
X0006800Y0195223D02*
X0143100Y0195223D01*
X0143100Y0196821D02*
X0006800Y0196821D01*
X0006800Y0198420D02*
X0060750Y0198420D01*
X0060635Y0198468D02*
X0063467Y0197294D01*
X0066533Y0197294D01*
X0069365Y0198468D01*
X0071532Y0200635D01*
X0072705Y0203467D01*
X0072705Y0206533D01*
X0071532Y0209365D01*
X0069365Y0211532D01*
X0066533Y0212705D01*
X0063467Y0212705D01*
X0060635Y0211532D01*
X0058468Y0209365D01*
X0057294Y0206533D01*
X0057294Y0203467D01*
X0058468Y0200635D01*
X0060635Y0198468D01*
X0059084Y0200018D02*
X0006800Y0200018D01*
X0006800Y0201617D02*
X0058061Y0201617D01*
X0057399Y0203215D02*
X0006800Y0203215D01*
X0006800Y0204814D02*
X0057294Y0204814D01*
X0057294Y0206412D02*
X0006800Y0206412D01*
X0006800Y0208011D02*
X0057907Y0208011D01*
X0058712Y0209609D02*
X0006800Y0209609D01*
X0006800Y0211208D02*
X0060311Y0211208D01*
X0069689Y0211208D02*
X0146404Y0211208D01*
X0148002Y0212806D02*
X0006800Y0212806D01*
X0069250Y0198420D02*
X0143100Y0198420D01*
X0143100Y0200018D02*
X0111231Y0200018D01*
X0111112Y0199900D02*
X0114100Y0202888D01*
X0114100Y0204816D01*
X0109184Y0204816D01*
X0109184Y0199900D01*
X0111112Y0199900D01*
X0109184Y0200018D02*
X0108816Y0200018D01*
X0108816Y0199900D02*
X0108816Y0204816D01*
X0109184Y0204816D01*
X0109184Y0205184D01*
X0114100Y0205184D01*
X0114100Y0207112D01*
X0111112Y0210100D01*
X0109184Y0210100D01*
X0109184Y0205184D01*
X0108816Y0205184D01*
X0108816Y0204816D01*
X0103900Y0204816D01*
X0103900Y0202888D01*
X0106888Y0199900D01*
X0108816Y0199900D01*
X0108816Y0201617D02*
X0109184Y0201617D01*
X0109184Y0203215D02*
X0108816Y0203215D01*
X0108816Y0204814D02*
X0109184Y0204814D01*
X0108816Y0205184D02*
X0103900Y0205184D01*
X0103900Y0207112D01*
X0106888Y0210100D01*
X0108816Y0210100D01*
X0108816Y0205184D01*
X0108816Y0206412D02*
X0109184Y0206412D01*
X0109184Y0208011D02*
X0108816Y0208011D01*
X0108816Y0209609D02*
X0109184Y0209609D01*
X0111603Y0209609D02*
X0116963Y0209609D01*
X0117053Y0209700D02*
X0114300Y0206947D01*
X0114300Y0203053D01*
X0117053Y0200300D01*
X0120947Y0200300D01*
X0123700Y0203053D01*
X0123700Y0206947D01*
X0120947Y0209700D01*
X0117053Y0209700D01*
X0115364Y0208011D02*
X0113202Y0208011D01*
X0114100Y0206412D02*
X0114300Y0206412D01*
X0114300Y0204814D02*
X0114100Y0204814D01*
X0114100Y0203215D02*
X0114300Y0203215D01*
X0115736Y0201617D02*
X0112829Y0201617D01*
X0106769Y0200018D02*
X0070916Y0200018D01*
X0071939Y0201617D02*
X0075736Y0201617D01*
X0077053Y0200300D02*
X0080947Y0200300D01*
X0083700Y0203053D01*
X0083700Y0206947D01*
X0080947Y0209700D01*
X0077053Y0209700D01*
X0074300Y0206947D01*
X0074300Y0203053D01*
X0077053Y0200300D01*
X0074300Y0203215D02*
X0072601Y0203215D01*
X0072705Y0204814D02*
X0074300Y0204814D01*
X0074300Y0206412D02*
X0072705Y0206412D01*
X0072093Y0208011D02*
X0075364Y0208011D01*
X0076963Y0209609D02*
X0071288Y0209609D01*
X0081037Y0209609D02*
X0086963Y0209609D01*
X0087053Y0209700D02*
X0084300Y0206947D01*
X0084300Y0203053D01*
X0087053Y0200300D01*
X0090947Y0200300D01*
X0093700Y0203053D01*
X0093700Y0206947D01*
X0090947Y0209700D01*
X0087053Y0209700D01*
X0085364Y0208011D02*
X0082636Y0208011D01*
X0083700Y0206412D02*
X0084300Y0206412D01*
X0084300Y0204814D02*
X0083700Y0204814D01*
X0083700Y0203215D02*
X0084300Y0203215D01*
X0085736Y0201617D02*
X0082264Y0201617D01*
X0092264Y0201617D02*
X0095736Y0201617D01*
X0097053Y0200300D02*
X0100947Y0200300D01*
X0103700Y0203053D01*
X0103700Y0206947D01*
X0100947Y0209700D01*
X0097053Y0209700D01*
X0094300Y0206947D01*
X0094300Y0203053D01*
X0097053Y0200300D01*
X0094300Y0203215D02*
X0093700Y0203215D01*
X0093700Y0204814D02*
X0094300Y0204814D01*
X0094300Y0206412D02*
X0093700Y0206412D01*
X0092636Y0208011D02*
X0095364Y0208011D01*
X0096963Y0209609D02*
X0091037Y0209609D01*
X0101037Y0209609D02*
X0106397Y0209609D01*
X0104798Y0208011D02*
X0102636Y0208011D01*
X0103700Y0206412D02*
X0103900Y0206412D01*
X0103900Y0204814D02*
X0103700Y0204814D01*
X0103700Y0203215D02*
X0103900Y0203215D01*
X0105171Y0201617D02*
X0102264Y0201617D01*
X0122264Y0201617D02*
X0125736Y0201617D01*
X0127053Y0200300D02*
X0130947Y0200300D01*
X0133700Y0203053D01*
X0133700Y0206947D01*
X0130947Y0209700D01*
X0127053Y0209700D01*
X0124300Y0206947D01*
X0124300Y0203053D01*
X0127053Y0200300D01*
X0124300Y0203215D02*
X0123700Y0203215D01*
X0123700Y0204814D02*
X0124300Y0204814D01*
X0124300Y0206412D02*
X0123700Y0206412D01*
X0122636Y0208011D02*
X0125364Y0208011D01*
X0126963Y0209609D02*
X0121037Y0209609D01*
X0131037Y0209609D02*
X0136963Y0209609D01*
X0135364Y0208011D02*
X0132636Y0208011D01*
X0133700Y0206412D02*
X0134300Y0206412D01*
X0134300Y0204814D02*
X0133700Y0204814D01*
X0133700Y0203215D02*
X0134300Y0203215D01*
X0135736Y0201617D02*
X0132264Y0201617D01*
X0142264Y0201617D02*
X0143100Y0201617D01*
X0143207Y0208011D02*
X0142636Y0208011D01*
X0141037Y0209609D02*
X0144805Y0209609D01*
X0151037Y0209609D02*
X0156963Y0209609D01*
X0157053Y0209700D02*
X0154300Y0206947D01*
X0154300Y0203053D01*
X0157053Y0200300D01*
X0160947Y0200300D01*
X0163700Y0203053D01*
X0163700Y0206947D01*
X0160947Y0209700D01*
X0157053Y0209700D01*
X0155364Y0208011D02*
X0152636Y0208011D01*
X0153700Y0206412D02*
X0154300Y0206412D01*
X0154300Y0204814D02*
X0153700Y0204814D01*
X0153700Y0203215D02*
X0154300Y0203215D01*
X0155736Y0201617D02*
X0152264Y0201617D01*
X0162264Y0201617D02*
X0165736Y0201617D01*
X0167053Y0200300D02*
X0170947Y0200300D01*
X0173700Y0203053D01*
X0173700Y0206947D01*
X0170947Y0209700D01*
X0167053Y0209700D01*
X0164300Y0206947D01*
X0164300Y0203053D01*
X0167053Y0200300D01*
X0164300Y0203215D02*
X0163700Y0203215D01*
X0163700Y0204814D02*
X0164300Y0204814D01*
X0164300Y0206412D02*
X0163700Y0206412D01*
X0162636Y0208011D02*
X0165364Y0208011D01*
X0166963Y0209609D02*
X0161037Y0209609D01*
X0151212Y0211208D02*
X0206788Y0211208D01*
X0206947Y0209700D02*
X0203053Y0209700D01*
X0200300Y0206947D01*
X0200300Y0203053D01*
X0203053Y0200300D01*
X0206947Y0200300D01*
X0209700Y0203053D01*
X0209700Y0206947D01*
X0206947Y0209700D01*
X0207037Y0209609D02*
X0208386Y0209609D01*
X0208636Y0208011D02*
X0209985Y0208011D01*
X0209700Y0206412D02*
X0210300Y0206412D01*
X0210300Y0204814D02*
X0209700Y0204814D01*
X0209700Y0203215D02*
X0210300Y0203215D01*
X0211736Y0201617D02*
X0208264Y0201617D01*
X0201736Y0201617D02*
X0198264Y0201617D01*
X0196947Y0200300D02*
X0199700Y0203053D01*
X0199700Y0206947D01*
X0196947Y0209700D01*
X0193053Y0209700D01*
X0190300Y0206947D01*
X0190300Y0203053D01*
X0193053Y0200300D01*
X0196947Y0200300D01*
X0199700Y0203215D02*
X0200300Y0203215D01*
X0200300Y0204814D02*
X0199700Y0204814D01*
X0199700Y0206412D02*
X0200300Y0206412D01*
X0201364Y0208011D02*
X0198636Y0208011D01*
X0197037Y0209609D02*
X0202963Y0209609D01*
X0209998Y0212806D02*
X0258648Y0212806D01*
X0260246Y0211208D02*
X0211596Y0211208D01*
X0192963Y0209609D02*
X0187037Y0209609D01*
X0186947Y0209700D02*
X0183053Y0209700D01*
X0180300Y0206947D01*
X0180300Y0203053D01*
X0183053Y0200300D01*
X0186947Y0200300D01*
X0189700Y0203053D01*
X0189700Y0206947D01*
X0186947Y0209700D01*
X0188636Y0208011D02*
X0191364Y0208011D01*
X0190300Y0206412D02*
X0189700Y0206412D01*
X0189700Y0204814D02*
X0190300Y0204814D01*
X0190300Y0203215D02*
X0189700Y0203215D01*
X0188264Y0201617D02*
X0191736Y0201617D01*
X0181736Y0201617D02*
X0172264Y0201617D01*
X0173700Y0203215D02*
X0180300Y0203215D01*
X0180300Y0204814D02*
X0173700Y0204814D01*
X0173700Y0206412D02*
X0180300Y0206412D01*
X0181364Y0208011D02*
X0172636Y0208011D01*
X0171037Y0209609D02*
X0182963Y0209609D01*
X0142398Y0174442D02*
X0140246Y0174442D01*
X0140658Y0172844D02*
X0138648Y0172844D01*
X0139996Y0171245D02*
X0137049Y0171245D01*
X0135451Y0169647D02*
X0139900Y0169647D01*
X0140288Y0168048D02*
X0133852Y0168048D01*
X0132254Y0166450D02*
X0141338Y0166450D01*
X0162822Y0104108D02*
X0167178Y0104108D01*
X0167224Y0104154D02*
X0165846Y0102776D01*
X0165100Y0100975D01*
X0165100Y0099025D01*
X0165846Y0097224D01*
X0167224Y0095846D01*
X0169025Y0095100D01*
X0170975Y0095100D01*
X0172776Y0095846D01*
X0174154Y0097224D01*
X0174900Y0099025D01*
X0174900Y0100975D01*
X0174154Y0102776D01*
X0172776Y0104154D01*
X0170975Y0104900D01*
X0169025Y0104900D01*
X0167224Y0104154D01*
X0165736Y0102509D02*
X0164264Y0102509D01*
X0164900Y0100911D02*
X0165100Y0100911D01*
X0165100Y0099312D02*
X0164900Y0099312D01*
X0164357Y0097714D02*
X0165643Y0097714D01*
X0166955Y0096115D02*
X0163045Y0096115D01*
X0163483Y0095200D02*
X0162527Y0094804D01*
X0161796Y0094073D01*
X0161400Y0093117D01*
X0161400Y0092083D01*
X0161796Y0091127D01*
X0162527Y0090396D01*
X0163483Y0090000D01*
X0164517Y0090000D01*
X0165473Y0090396D01*
X0165977Y0090900D01*
X0173496Y0090900D01*
X0174904Y0090900D01*
X0179104Y0095100D01*
X0180975Y0095100D01*
X0182776Y0095846D01*
X0184154Y0097224D01*
X0184900Y0099025D01*
X0184900Y0100975D01*
X0184154Y0102776D01*
X0182776Y0104154D01*
X0180975Y0104900D01*
X0179025Y0104900D01*
X0177224Y0104154D01*
X0175846Y0102776D01*
X0175100Y0100975D01*
X0175100Y0099025D01*
X0175846Y0097224D01*
X0176133Y0096937D01*
X0173496Y0094300D01*
X0165977Y0094300D01*
X0165473Y0094804D01*
X0164517Y0095200D01*
X0163483Y0095200D01*
X0162240Y0094517D02*
X0157900Y0094517D01*
X0157900Y0092918D02*
X0161400Y0092918D01*
X0161716Y0091320D02*
X0157900Y0091320D01*
X0157900Y0089721D02*
X0171692Y0089721D01*
X0173108Y0089721D02*
X0209364Y0089721D01*
X0207766Y0088123D02*
X0174832Y0088123D01*
X0174934Y0086524D02*
X0206167Y0086524D01*
X0204569Y0084926D02*
X0197448Y0084926D01*
X0195200Y0084926D02*
X0194800Y0084926D01*
X0194800Y0083327D02*
X0195200Y0083327D01*
X0195200Y0081729D02*
X0194800Y0081729D01*
X0194800Y0080130D02*
X0185200Y0080130D01*
X0184800Y0080130D02*
X0175200Y0080130D01*
X0175200Y0079800D02*
X0179500Y0079800D01*
X0184800Y0079800D01*
X0184800Y0074500D01*
X0184567Y0074500D01*
X0183712Y0074635D01*
X0182889Y0074903D01*
X0182117Y0075296D01*
X0181417Y0075805D01*
X0180805Y0076417D01*
X0180296Y0077117D01*
X0180000Y0077698D01*
X0179704Y0077117D01*
X0179195Y0076417D01*
X0178583Y0075805D01*
X0177883Y0075296D01*
X0177111Y0074903D01*
X0176288Y0074635D01*
X0175433Y0074500D01*
X0175200Y0074500D01*
X0175200Y0079800D01*
X0175200Y0078532D02*
X0174800Y0078532D01*
X0174800Y0076933D02*
X0175200Y0076933D01*
X0175200Y0075334D02*
X0174800Y0075334D01*
X0172064Y0075334D02*
X0169539Y0075334D01*
X0167940Y0073736D02*
X0193379Y0073736D01*
X0192064Y0075334D02*
X0187936Y0075334D01*
X0189570Y0076933D02*
X0190430Y0076933D01*
X0191781Y0072137D02*
X0166342Y0072137D01*
X0164800Y0070539D02*
X0190182Y0070539D01*
X0188584Y0068940D02*
X0164410Y0068940D01*
X0159746Y0067342D02*
X0186985Y0067342D01*
X0188596Y0064145D02*
X0201458Y0064145D01*
X0203056Y0065743D02*
X0190195Y0065743D01*
X0191793Y0067342D02*
X0204655Y0067342D01*
X0206253Y0068940D02*
X0193392Y0068940D01*
X0194990Y0070539D02*
X0207409Y0070539D01*
X0208461Y0072137D02*
X0196589Y0072137D01*
X0198187Y0073736D02*
X0213771Y0073736D01*
X0213732Y0073494D02*
X0213868Y0074349D01*
X0214135Y0075172D01*
X0214528Y0075943D01*
X0215037Y0076644D01*
X0215649Y0077256D01*
X0216350Y0077765D01*
X0217121Y0078158D01*
X0217469Y0078271D01*
X0216343Y0078737D01*
X0214909Y0080172D01*
X0214132Y0082046D01*
X0214132Y0084075D01*
X0214909Y0085950D01*
X0216343Y0087384D01*
X0218218Y0088161D01*
X0220247Y0088161D01*
X0222121Y0087384D01*
X0223556Y0085950D01*
X0224332Y0084075D01*
X0224332Y0082046D01*
X0223556Y0080172D01*
X0222121Y0078737D01*
X0220995Y0078271D01*
X0221343Y0078158D01*
X0222115Y0077765D01*
X0222815Y0077256D01*
X0223427Y0076644D01*
X0223936Y0075943D01*
X0224329Y0075172D01*
X0224597Y0074349D01*
X0224732Y0073494D01*
X0224732Y0073261D01*
X0219432Y0073261D01*
X0219432Y0072861D01*
X0224732Y0072861D01*
X0224732Y0072628D01*
X0224597Y0071773D01*
X0224329Y0070949D01*
X0223936Y0070178D01*
X0223427Y0069478D01*
X0222815Y0068865D01*
X0222115Y0068357D01*
X0221343Y0067964D01*
X0220520Y0067696D01*
X0219665Y0067561D01*
X0219432Y0067561D01*
X0219432Y0072861D01*
X0219032Y0072861D01*
X0213732Y0072861D01*
X0213732Y0072628D01*
X0213868Y0071773D01*
X0214135Y0070949D01*
X0214528Y0070178D01*
X0215037Y0069478D01*
X0215649Y0068865D01*
X0216350Y0068357D01*
X0217121Y0067964D01*
X0217944Y0067696D01*
X0218799Y0067561D01*
X0219032Y0067561D01*
X0219032Y0072861D01*
X0219032Y0073261D01*
X0213732Y0073261D01*
X0213732Y0073494D01*
X0213810Y0072137D02*
X0211539Y0072137D01*
X0212591Y0070539D02*
X0214344Y0070539D01*
X0215574Y0068940D02*
X0212375Y0068940D01*
X0210029Y0067342D02*
X0230100Y0067342D01*
X0230100Y0068940D02*
X0222890Y0068940D01*
X0224120Y0070539D02*
X0230100Y0070539D01*
X0230100Y0072137D02*
X0224655Y0072137D01*
X0224694Y0073736D02*
X0230100Y0073736D01*
X0230100Y0075334D02*
X0224246Y0075334D01*
X0223138Y0076933D02*
X0230100Y0076933D01*
X0230100Y0078532D02*
X0221625Y0078532D01*
X0223514Y0080130D02*
X0230100Y0080130D01*
X0230100Y0081729D02*
X0224201Y0081729D01*
X0224332Y0083327D02*
X0230100Y0083327D01*
X0230100Y0084926D02*
X0223980Y0084926D01*
X0222981Y0086524D02*
X0230100Y0086524D01*
X0230100Y0088123D02*
X0220339Y0088123D01*
X0218126Y0088123D02*
X0212574Y0088123D01*
X0214173Y0089721D02*
X0217476Y0089721D01*
X0216811Y0091320D02*
X0215771Y0091320D01*
X0214160Y0094517D02*
X0178521Y0094517D01*
X0176922Y0092918D02*
X0212561Y0092918D01*
X0210963Y0091320D02*
X0175324Y0091320D01*
X0173712Y0094517D02*
X0165760Y0094517D01*
X0173045Y0096115D02*
X0175311Y0096115D01*
X0175643Y0097714D02*
X0174357Y0097714D01*
X0174900Y0099312D02*
X0175100Y0099312D01*
X0175100Y0100911D02*
X0174900Y0100911D01*
X0174264Y0102509D02*
X0175736Y0102509D01*
X0177178Y0104108D02*
X0172822Y0104108D01*
X0182822Y0104108D02*
X0223751Y0104108D01*
X0222152Y0102509D02*
X0184264Y0102509D01*
X0184900Y0100911D02*
X0220554Y0100911D01*
X0218955Y0099312D02*
X0184900Y0099312D01*
X0184357Y0097714D02*
X0217357Y0097714D01*
X0215758Y0096115D02*
X0183045Y0096115D01*
X0182552Y0084926D02*
X0177448Y0084926D01*
X0175200Y0084926D02*
X0174800Y0084926D01*
X0174800Y0083327D02*
X0175200Y0083327D01*
X0175200Y0081729D02*
X0174800Y0081729D01*
X0179381Y0083327D02*
X0180619Y0083327D01*
X0184800Y0083327D02*
X0185200Y0083327D01*
X0185200Y0081729D02*
X0184800Y0081729D01*
X0184800Y0078532D02*
X0185200Y0078532D01*
X0185200Y0076933D02*
X0184800Y0076933D01*
X0184800Y0075334D02*
X0185200Y0075334D01*
X0182064Y0075334D02*
X0177936Y0075334D01*
X0179570Y0076933D02*
X0180430Y0076933D01*
X0189381Y0083327D02*
X0190619Y0083327D01*
X0192552Y0084926D02*
X0187448Y0084926D01*
X0185200Y0084926D02*
X0184800Y0084926D01*
X0170700Y0084926D02*
X0166436Y0084926D01*
X0163564Y0084926D02*
X0159079Y0084926D01*
X0157900Y0086524D02*
X0169866Y0086524D01*
X0169968Y0088123D02*
X0157900Y0088123D01*
X0160677Y0083327D02*
X0161115Y0083327D01*
X0168885Y0083327D02*
X0169123Y0083327D01*
X0150854Y0076933D02*
X0149145Y0076933D01*
X0159100Y0065743D02*
X0171607Y0065743D01*
X0170058Y0064145D02*
X0159100Y0064145D01*
X0170034Y0054554D02*
X0189966Y0054554D01*
X0188418Y0056152D02*
X0171582Y0056152D01*
X0172244Y0057751D02*
X0187756Y0057751D01*
X0187700Y0059349D02*
X0172300Y0059349D01*
X0172235Y0060948D02*
X0188128Y0060948D01*
X0189234Y0062546D02*
X0186998Y0062546D01*
X0196366Y0062546D02*
X0199353Y0062546D01*
X0197578Y0060948D02*
X0197472Y0060948D01*
X0208430Y0065743D02*
X0230100Y0065743D01*
X0219432Y0068940D02*
X0219032Y0068940D01*
X0219032Y0070539D02*
X0219432Y0070539D01*
X0219432Y0072137D02*
X0219032Y0072137D01*
X0214218Y0075334D02*
X0199786Y0075334D01*
X0201384Y0076933D02*
X0215326Y0076933D01*
X0216840Y0078532D02*
X0202983Y0078532D01*
X0204581Y0080130D02*
X0214950Y0080130D01*
X0214264Y0081729D02*
X0206180Y0081729D01*
X0207778Y0083327D02*
X0214132Y0083327D01*
X0214484Y0084926D02*
X0209377Y0084926D01*
X0210975Y0086524D02*
X0215483Y0086524D01*
X0223767Y0089721D02*
X0230100Y0089721D01*
X0230100Y0091320D02*
X0225365Y0091320D01*
X0226964Y0092918D02*
X0230100Y0092918D01*
X0230100Y0094517D02*
X0228562Y0094517D01*
X0202970Y0083327D02*
X0199381Y0083327D01*
X0200221Y0081729D02*
X0201372Y0081729D01*
X0241366Y0062546D02*
X0273200Y0062546D01*
X0273200Y0060948D02*
X0242472Y0060948D01*
X0242900Y0059349D02*
X0273200Y0059349D01*
X0273200Y0057751D02*
X0242844Y0057751D01*
X0242182Y0056152D02*
X0273200Y0056152D01*
X0273200Y0054554D02*
X0240634Y0054554D01*
X0242900Y0041766D02*
X0261199Y0041766D01*
X0259270Y0040167D02*
X0242900Y0040167D01*
X0242272Y0038569D02*
X0258138Y0038569D01*
X0257476Y0036970D02*
X0240883Y0036970D01*
X0222100Y0048160D02*
X0273200Y0048160D01*
X0273200Y0049758D02*
X0222100Y0049758D01*
X0243053Y0019700D02*
X0240300Y0016947D01*
X0240300Y0013053D01*
X0243053Y0010300D01*
X0246947Y0010300D01*
X0249700Y0013053D01*
X0249700Y0016947D01*
X0246947Y0019700D01*
X0243053Y0019700D01*
X0242740Y0019387D02*
X0237260Y0019387D01*
X0238859Y0017788D02*
X0241141Y0017788D01*
X0240300Y0016190D02*
X0239700Y0016190D01*
X0239700Y0014591D02*
X0240300Y0014591D01*
X0240361Y0012993D02*
X0239639Y0012993D01*
X0238041Y0011394D02*
X0241959Y0011394D01*
X0248041Y0011394D02*
X0251959Y0011394D01*
X0250361Y0012993D02*
X0249639Y0012993D01*
X0249700Y0014591D02*
X0250300Y0014591D01*
X0250300Y0016190D02*
X0249700Y0016190D01*
X0248859Y0017788D02*
X0251141Y0017788D01*
X0252740Y0019387D02*
X0247260Y0019387D01*
X0263200Y0008197D02*
X0217001Y0008197D01*
X0156236Y0048160D02*
X0087577Y0048160D01*
X0089345Y0049758D02*
X0154638Y0049758D01*
X0133395Y0081729D02*
X0128500Y0081729D01*
X0085086Y0056152D02*
X0084914Y0056152D01*
X0084914Y0054554D02*
X0085086Y0054554D01*
X0085086Y0052955D02*
X0084914Y0052955D01*
X0084914Y0052709D02*
X0079700Y0052709D01*
X0079700Y0052378D01*
X0079830Y0051554D01*
X0080088Y0050761D01*
X0080467Y0050017D01*
X0080957Y0049343D01*
X0081547Y0048753D01*
X0082222Y0048262D01*
X0082966Y0047884D01*
X0083759Y0047626D01*
X0084583Y0047495D01*
X0084914Y0047495D01*
X0084914Y0052709D01*
X0084914Y0051357D02*
X0085086Y0051357D01*
X0085086Y0049758D02*
X0084914Y0049758D01*
X0084914Y0048160D02*
X0085086Y0048160D01*
X0082423Y0048160D02*
X0068500Y0048160D01*
X0068500Y0049758D02*
X0080655Y0049758D01*
X0079895Y0051357D02*
X0068500Y0051357D01*
X0068500Y0052955D02*
X0079700Y0052955D01*
X0079999Y0054554D02*
X0068500Y0054554D01*
X0068500Y0056152D02*
X0080888Y0056152D01*
X0065100Y0084926D02*
X0006800Y0084926D01*
X0006800Y0086524D02*
X0065100Y0086524D01*
X0237037Y0209609D02*
X0242963Y0209609D01*
X0243053Y0209700D02*
X0240300Y0206947D01*
X0240300Y0203053D01*
X0243053Y0200300D01*
X0246947Y0200300D01*
X0249700Y0203053D01*
X0249700Y0206947D01*
X0246947Y0209700D01*
X0243053Y0209700D01*
X0241364Y0208011D02*
X0238636Y0208011D01*
X0239700Y0206412D02*
X0240300Y0206412D01*
X0240300Y0204814D02*
X0239700Y0204814D01*
X0239700Y0203215D02*
X0240300Y0203215D01*
X0241736Y0201617D02*
X0238264Y0201617D01*
X0248264Y0201617D02*
X0251736Y0201617D01*
X0253053Y0200300D02*
X0256947Y0200300D01*
X0259700Y0203053D01*
X0259700Y0206947D01*
X0256947Y0209700D01*
X0253053Y0209700D01*
X0250300Y0206947D01*
X0250300Y0203053D01*
X0253053Y0200300D01*
X0250300Y0203215D02*
X0249700Y0203215D01*
X0249700Y0204814D02*
X0250300Y0204814D01*
X0250300Y0206412D02*
X0249700Y0206412D01*
X0248636Y0208011D02*
X0251364Y0208011D01*
X0252963Y0209609D02*
X0247037Y0209609D01*
X0257037Y0209609D02*
X0261845Y0209609D01*
X0263200Y0208011D02*
X0258636Y0208011D01*
X0259700Y0206412D02*
X0263200Y0206412D01*
X0263200Y0204814D02*
X0259700Y0204814D01*
X0259700Y0203215D02*
X0263200Y0203215D01*
X0263200Y0201617D02*
X0258264Y0201617D01*
D17*
X0265000Y0130000D03*
D18*
X0227441Y0135000D02*
X0225000Y0137441D01*
X0225000Y0140000D01*
X0225000Y0155000D02*
X0226800Y0156800D01*
X0233600Y0156800D01*
X0140000Y0076000D02*
X0139000Y0075000D01*
X0138000Y0075000D01*
X0167200Y0058900D02*
X0167500Y0058900D01*
X0172489Y0063889D01*
X0200000Y0060000D02*
X0210000Y0070000D01*
X0110000Y0130000D02*
X0109000Y0129000D01*
X0106000Y0129000D01*
X0080000Y0150000D02*
X0050000Y0150000D01*
X0040000Y0140000D01*
X0065000Y0145000D02*
X0065000Y0123000D01*
X0064500Y0122500D01*
X0080000Y0150000D02*
X0085000Y0155000D01*
X0085000Y0185000D01*
X0065000Y0175000D02*
X0065000Y0160000D01*
X0110000Y0185000D02*
X0110000Y0190000D01*
X0015000Y0125000D02*
X0010000Y0120000D01*
X0010000Y0090000D01*
X0020000Y0095000D02*
X0020000Y0102677D01*
X0026161Y0108839D01*
X0020000Y0080000D02*
X0018780Y0078780D01*
X0018780Y0056181D01*
X0031500Y0056500D02*
X0031500Y0055500D01*
D19*
X0219500Y0091500D03*
X0229000Y0149000D03*
D20*
X0229000Y0097500D01*
X0223000Y0091500D01*
X0219500Y0091500D01*
M02*
